<?xml version="1.0" encoding="utf-8"?>
<!-- Generator: Adobe Illustrator 22.0.0, SVG Export Plug-In . SVG Version: 6.00 Build 0)  -->
<svg version="1.1" id="图层_1" xmlns="http://www.w3.org/2000/svg" xmlns:xlink="http://www.w3.org/1999/xlink" x="0px" y="0px"
	 viewBox="0 0 50 50" style="enable-background:new 0 0 50 50;" xml:space="preserve">
<style type="text/css">
	.st0{fill:#F4E10D;}
</style>
<path class="st0" d="M47.9,0h-0.6c0.5,1.8,0.3,3.4-0.6,4.9c-0.7,1.1-1.8,1.9-2.9,2.5c-0.6,0.1-1.1,0.4-1.7,0.6
	c-0.6,0.1-1.2,0.2-1.7,0.2c0,0,0,0,0,0c-0.4-0.7-0.8-1.4-1.4-2c0.5,0.2,1.1,0.3,1.6,0.3c1.3,0,2.7-0.5,3.7-1.4
	c0.8-0.8,1.9-2.3,1.5-5h-0.5c0.4,2.5-0.6,3.9-1.3,4.6c-0.9,0.9-2.1,1.3-3.4,1.3c-0.6,0-1.2-0.1-1.8-0.4c-1.4-0.6-2.2-1.9-2.2-3.7
	c0-0.7,0.2-1.3,0.5-1.9h-0.6c-0.3,0.5-0.4,1.2-0.4,1.9c0,0.9,0.2,1.6,0.5,2.3c-0.6-0.3-1.2-0.6-1.8-0.8C34.6,2,34.7,0.9,34.9,0h-0.8
	c0.3,2.4-0.8,4.7-3,6.4c-1.7,1.3-3.5,2-5.2,2c-0.8,0-1.6-0.2-2.4-0.5c-0.7-0.3-1.3-0.7-1.9-1.3l0,0l0,0c-1.2-1.1-1.9-2.7-2.1-4.4
	c0-0.3,0-0.6,0-1c0-0.4,0.1-0.8,0.2-1.2h-0.9c0.1,0.4,0.2,0.9,0.2,1.3c0,0.3,0,0.6,0,0.9c-0.1,2.1-1.1,4.1-3.1,5.5
	c-1.8,1.3-3.5,1.9-5.2,1.9C9.8,9.6,9,9.4,8.2,9.1c-2.1-1-3.6-3.1-3.9-5.6C4.8,3.4,5.4,3.2,5.9,3C6,4.9,7.2,6.8,8.9,7.6
	c0.6,0.3,1.3,0.4,2,0.4c1.4,0,3-0.7,4.3-1.9c1.8-1.7,2.4-4,1.7-6.1h-0.6c0.6,1.7,0.5,3.9-1.5,5.7c-1.5,1.4-2.8,1.8-3.9,1.8
	c-0.8,0-1.4-0.2-1.8-0.4C7.5,6.4,6.4,4.6,6.4,2.8c0.6-0.3,1.2-0.6,1.7-1C8.8,1.3,9.4,0.6,9.8,0H9.1C8.8,0.5,8.4,0.9,7.8,1.3
	C6.2,2.5,4.6,3.1,3.1,3.1c-0.8,0-1.6-0.2-2.4-0.5C0.5,2.5,0.2,2.3,0,2.2V4c0.1-0.4,0.2-0.8,0.2-1.1C0.3,3,0.4,3,0.5,3
	c0.1,0.1,0.3,0.1,0.5,0.2C0.6,3.6,0.3,3.9,0,4.3v1c0.4-0.8,0.9-1.4,1.5-1.9c0.5,0.1,1,0.2,1.6,0.2c0.2,0,0.5,0,0.7,0
	c0,0.1,0,0.3,0.1,0.4C2.1,5.1,1.3,6.4,1,8.4C0.7,8.2,0.3,8,0,7.9v0.6c1.3,0.6,2.4,1.6,3.2,2.7c0.1,0.1,0.1,0.1,0.1,0.2
	c0.1,0.3,0.3,0.7,0.5,0.9c1.1,2.5,1,5.8-2.7,8.6c-0.4,0.3-0.8,0.6-1.2,0.8v0.6c0.5-0.3,1-0.6,1.5-1c1.1-0.8,2-1.8,2.5-2.7
	c0.7-0.2,1.3-0.2,1.9-0.2c2.5,0,4.2,1.4,5.1,3c1.3,2.4,1,5.2-0.8,6.9c-0.7-0.2-1.4-0.4-2.1-0.4c2.1-1.2,2.5-3.1,2-4.6
	c-0.5-1.6-2.2-2.9-4.3-2.9c-0.5,0-1.1,0.1-1.6,0.2c-2.1,0.6-3.5,2.1-3.8,4c-0.3,1.8,0.4,3.6,1.8,4.7c-0.2,0.1-0.3,0.2-0.5,0.3
	C1.3,29.7,1,30,0.7,30.3c-0.3-0.2-0.5-0.5-0.7-0.7v0.8c0.1,0.1,0.2,0.2,0.3,0.3c-0.1,0.1-0.2,0.3-0.3,0.4v0.9c0.5-0.8,1.2-1.5,1.9-2
	c1.2-0.8,2.5-1.3,3.7-1.6c0.1,0,0.2,0,0.3,0c0.3,0,0.7-0.1,1-0.2c0.1,0,0.2,0,0.3,0c3,0,5.6,1.5,7.1,3.6c1.5,2.2,2.1,5.6-0.7,8.5
	c-0.3,0.2-0.6,0.5-0.8,0.8c-0.2,0.1-0.3,0.3-0.5,0.4c-1.7,1.3-3.5,2-5.2,2c-0.6,0-1.2-0.1-1.8-0.3C5,43,4.5,42.8,4,42.7
	c-1.8-1.1-3.1-3.1-3.3-5.4c-0.2-2.3,0.8-4.4,2.7-5.7c1.4-0.9,2.7-1.3,3.9-1.3c1.8,0,3.4,0.9,4.4,2.2c1.5,1.9,2,5-0.4,7.2
	c-1.5,1.4-2.9,1.8-4,1.8c-0.7,0-1.3-0.2-1.7-0.4c-1.7-0.7-2.8-2.5-2.8-4.3c0-1,0.4-2.9,2.9-4c0.5-0.2,1-0.3,1.5-0.3
	c1.5,0,2.7,1,3.3,2.1c0.6,1.3,0.6,3.1-1.5,4.2c-0.5,0.3-1,0.4-1.5,0.4c-0.4,0-0.8-0.1-1.2-0.3c-0.8-0.4-1.2-1.2-1.2-2.1
	c0-0.8,0.5-1.5,1.4-2c0.2-0.1,0.5-0.2,0.7-0.2c0.6,0,1.1,0.3,1.3,0.7c0.4,0.6,0.3,1.2-0.4,1.7c-0.2,0.1-0.3,0.2-0.5,0.2
	c-0.1,0-0.2,0-0.3,0c-0.2-0.1-0.3-0.3-0.4-0.4c0-0.1,0-0.2,0.1-0.2L7,36.4l-0.1-0.2c-0.2,0.2-0.4,0.4-0.3,0.7c0,0.4,0.3,0.7,0.7,0.8
	c0.1,0.1,0.3,0.1,0.4,0.1c0.3,0,0.6-0.1,0.8-0.3c1-0.8,0.9-1.8,0.5-2.4c-0.4-0.5-1-0.9-1.8-0.9c-0.3,0-0.7,0.1-1,0.3
	c-1.1,0.6-1.7,1.4-1.7,2.4c0,1,0.6,2,1.5,2.5c0.5,0.3,1,0.4,1.5,0.4c0.6,0,1.2-0.2,1.7-0.5c2.2-1.2,2.5-3.3,1.7-4.9
	C10.3,33,8.9,32,7.2,32c-0.5,0-1.1,0.1-1.7,0.4c-2,0.9-3.2,2.5-3.2,4.4c0,2,1.3,4,3.1,4.8C5.9,41.8,6.6,42,7.4,42
	c1.2,0,2.7-0.4,4.3-1.9c2.6-2.4,2.2-5.8,0.5-7.9c-1.1-1.4-2.8-2.4-4.8-2.4c-1.3,0-2.7,0.4-4.2,1.4c-2.1,1.4-3.1,3.7-2.9,6.2
	c0.1,1.3,0.6,2.5,1.2,3.5C1,41,0.5,41.2,0.1,41.5L0,41.4v0.8c0.6-0.4,1.2-0.7,1.7-0.8c0.4,0.5,0.8,0.9,1.3,1.3
	c-0.4,0-0.9,0.1-1.3,0.3C1,43.2,0.4,43.6,0,44.1V45c0.3-0.6,0.9-1.2,1.9-1.6c0.4-0.2,0.9-0.3,1.3-0.3c0.2,0,0.4,0,0.6,0.1
	c0.2,0.1,0.4,0.2,0.6,0.3c0.2,0.1,0.4,0.2,0.7,0.2c0.5,0.3,0.8,0.8,1.1,1.3c0.5,1.1,0.5,2.8-1.4,3.8c-0.4,0.3-0.9,0.4-1.3,0.4
	c-0.4,0-0.8-0.1-1.1-0.3c-0.7-0.4-1.1-1.1-1.1-1.8c0-0.7,0.5-1.3,1.3-1.8c0.2-0.1,0.4-0.2,0.7-0.2c0.5,0,0.9,0.3,1.2,0.6
	c0.3,0.5,0.2,1.1-0.3,1.5c-0.2,0.1-0.3,0.2-0.4,0.2c-0.1,0-0.2,0-0.2,0c-0.2-0.1-0.3-0.2-0.3-0.4c0,0,0-0.1,0.1-0.2l-0.1-0.2
	l-0.1-0.2c-0.2,0.2-0.3,0.4-0.3,0.7c0,0.3,0.3,0.6,0.6,0.8C3.4,48,3.5,48,3.6,48c0.3,0,0.5-0.1,0.7-0.3c0.9-0.7,0.8-1.6,0.4-2.2
	c-0.3-0.5-0.9-0.9-1.6-0.9c-0.3,0-0.6,0.1-0.9,0.2c-1,0.5-1.5,1.3-1.5,2.2c0,0.9,0.5,1.8,1.4,2.3c0.4,0.2,0.9,0.4,1.4,0.4
	c0.5,0,1.1-0.2,1.6-0.5c2-1.1,2.3-3,1.6-4.4c-0.1-0.3-0.3-0.6-0.5-0.8c0.3,0,0.7,0.1,1,0.1c0.3,0,0.7,0,1-0.1
	c0.1,0.4,0.2,0.9,0.4,1.3l-0.1,0c0.3,1.7-0.1,3-1.5,4.3c-0.2,0.2-0.3,0.3-0.5,0.4h0.8l0,0c1.2-1.1,1.7-2.3,1.7-3.6
	c0.3,0.5,0.7,0.9,1.2,1.3C10,48.3,9.7,49.2,9.2,50h0.6c0.3-0.5,0.6-1,0.7-1.5c0.2,0,0.4-0.1,0.6-0.1c0.1,0,0.2,0,0.3,0
	c0.4,0.2,0.9,0.4,1.5,0.5c0.4,0.3,0.8,0.6,1,1.1h0.6c-0.2-0.3-0.4-0.6-0.6-0.9c0.3,0,0.6,0,1,0c0.3,0,0.6,0,0.9,0c0.1,0,0.1,0,0.2,0
	c0.2,0.3,0.3,0.6,0.4,0.9h0.6c-0.1-0.3-0.3-0.7-0.4-1c0.6-0.1,1.2-0.2,1.7-0.4c0.2,0.5,0.4,0.9,0.5,1.4h0.9c0.4-1.5,1.2-2.7,2.5-3.6
	c1.4-0.9,2.7-1.3,3.9-1.3c1.8,0,3.4,0.9,4.4,2.2c0.6,0.8,1.1,1.7,1.2,2.8h0.5c-0.1-1.1-0.6-2.2-1.3-3.1c-1.1-1.4-2.8-2.4-4.8-2.4
	c-1.3,0-2.8,0.4-4.2,1.4c-1.4,0.9-2.3,2.2-2.7,3.7c-0.1-0.5-0.3-0.9-0.5-1.4l0.1-0.4c0.4-1.1,0.8-2,2-2.8l0,0l0,0
	c1.6-1.4,3.5-2.1,5.3-2.1c0.6,0,1.1,0.1,1.7,0.2c0.4,0.2,0.8,0.3,1.2,0.4c2.6,1.1,4.6,3.6,5,6.2c0,0.1,0,0.1,0,0.2h0.8
	c0.4-1.6,1.5-2.7,3.3-3.5c0.5,0.4,1,0.8,1.5,1.2c-1.3,0.2-2.6,1-3.2,2.4H37c0.6-1.2,1.9-1.9,3.1-1.9c0,0,0,0,0.1,0
	c0.2,0,0.4,0,0.6,0.1c0.2,0.1,0.5,0.2,0.7,0.3l0.1,0c0.5,0.3,1,0.8,1.2,1.5h0.5c-0.1-0.5-0.4-1-0.7-1.3c0.3,0,0.6,0.1,0.9,0.1
	c0.5,0,0.9,0,1.4-0.1c0.2,0.5,0.3,1,0.4,1.4h0.5c-0.1-0.5-0.2-1-0.4-1.5c0.5-0.1,0.9-0.3,1.3-0.5c0.1,0.7,0.3,1.4,0.6,2l0,0.1h0.6
	c-0.1-0.1-0.1-0.2-0.2-0.3c-0.1-0.2-0.2-0.5-0.3-0.7l0,0c-0.2-0.4-0.3-0.9-0.3-1.4c-0.1-1.1,0.1-2.1,0.6-3.1c0.2-0.3,0.4-0.6,0.6-1
	c0.4-0.5,0.8-0.9,1.4-1.3c0.1,0,0.1-0.1,0.2-0.1v-0.8c-0.3-0.4-0.6-0.8-0.8-1.4c-0.1-0.6-0.2-1.2-0.5-1.8c-0.1-0.8-0.1-1.6-0.1-2.4
	c0.1-1.5,0.6-2.8,1.3-3.9v-0.9c-0.2,0.3-0.4,0.6-0.6,0.9c-1.2-0.5-2-1.7-2.4-2.6c-0.9-2-1.2-4.5-0.7-6c0.7,0,1.4-0.1,2-0.4
	c-0.9,2.6-0.2,5.4,1.7,7.3v-0.8c-1.6-1.9-2-4.5-1.1-6.8c0.4-0.1,0.7-0.3,1.1-0.5v-0.6c-1.3,0.8-2.7,1.2-4,1.2
	c-0.8,0-1.7-0.2-2.4-0.5l0,0c-0.5-0.4-0.9-0.7-1.5-0.9c-1.4-1.2-2.3-2.9-2.5-4.8c-0.2-2.3,0.8-4.4,2.7-5.7c1.4-0.9,2.7-1.3,3.9-1.3
	c1.5,0,2.7,0.6,3.7,1.4v-0.7C49,9.5,47.7,9,46.3,9c-1.3,0-2.7,0.4-4.2,1.4c-2.1,1.4-3.1,3.7-2.9,6.2c0.1,1.6,0.8,3.1,1.7,4.2
	c-0.7-0.3-1.5-0.5-2.2-0.6c-1-1.5-1.4-3.8-1-6l0-0.1c0.4-0.7,0.6-1.4,0.7-2.1c0.5-1,1.3-2,2.5-2.9c0.5-0.3,0.9-0.6,1.4-0.8
	c0.6-0.1,1.2-0.4,1.8-0.6c0.7-0.2,1.5-0.3,2.2-0.3c1.4,0,2.7,0.3,3.8,0.9V7.8c-0.3-0.1-0.5-0.2-0.8-0.3c0.2-0.9,0.4-1.6,0.8-2.3v-1
	c0,0.1-0.1,0.1-0.1,0.2C49.9,4.3,50,4.2,50,4.1V2.2C49.1,1.7,48.4,0.9,47.9,0L47.9,0z M45.3,7.1c0.7-0.5,1.4-1.1,1.9-1.9
	c0.6-0.9,1.2-2.2,1-4c0.4,0.6,1,1,1.6,1.4c0.1,1.6-1.2,3.7-2.1,4.5C47.1,7,46.7,7,46.2,7C45.9,7,45.6,7,45.3,7.1L45.3,7.1z
	 M34.2,3.2L34.2,3.2L34.2,3.2L34.2,3.2L34.2,3.2z M38.3,11c0-0.5-0.1-0.9-0.3-1.4c-0.7-2.3-2.6-4.1-4.9-4.5c0.3-0.4,0.6-0.9,0.9-1.4
	c2.7,0.7,5.1,2.8,6.1,5.5C39.4,9.7,38.8,10.3,38.3,11L38.3,11z M18.6,5.4c0.3-0.5,0.5-1.1,0.7-1.7c0.3,0.9,0.7,1.8,1.3,2.6
	c-0.5-0.1-1.1-0.2-1.6-0.3C19,6,18.9,6,18.9,5.9C18.7,5.8,18.6,5.8,18.6,5.4L18.6,5.4L18.6,5.4z M3.1,10.1c-0.5-0.5-1-1-1.6-1.4
	c0.3-1.9,1-3.1,2.5-4.2c0.2,0.7,0.4,1.3,0.7,1.9C3.9,6.7,3.1,7.7,3,9C3,9.4,3,9.8,3.1,10.1L3.1,10.1z M30.5,7.5
	c0.3-0.2,0.6-0.4,0.9-0.6c0.5-0.4,1-0.9,1.4-1.3c2.2,0.4,4.1,2,4.8,4.2c0.2,0.8,0.3,1.5,0.2,2.2c-0.3,0.7-0.6,1.4-0.7,2.1
	c-0.3,0.5-0.6,0.9-1.1,1.3c-1.6,1.5-3,1.9-4.2,1.9c-0.8,0-1.4-0.2-1.8-0.4c-1.8-0.8-3-2.6-3-4.5c0-1.1,0.4-3,3.1-4.2
	c0.5-0.2,1.1-0.3,1.6-0.3c1.5,0,2.9,1,3.5,2.2c0.6,1.3,0.6,3.3-1.6,4.4c-0.5,0.3-1.1,0.5-1.6,0.5c-0.5,0-0.9-0.1-1.3-0.3
	c-0.8-0.5-1.3-1.3-1.3-2.2c0-0.8,0.5-1.6,1.5-2.1c0.3-0.1,0.5-0.2,0.8-0.2c0.6,0,1.1,0.3,1.4,0.8c0.4,0.6,0.3,1.3-0.4,1.8
	c-0.2,0.2-0.4,0.2-0.5,0.2c-0.1,0-0.2,0-0.3-0.1c-0.2-0.1-0.4-0.3-0.4-0.4c0-0.1,0-0.2,0.1-0.3l-0.1-0.2l-0.1-0.2
	c-0.2,0.2-0.4,0.4-0.3,0.7c0,0.4,0.3,0.7,0.7,0.9c0.2,0.1,0.3,0.1,0.5,0.1c0.3,0,0.6-0.1,0.8-0.3c1-0.8,0.9-1.9,0.5-2.5
	c-0.4-0.6-1.1-1-1.8-1c-0.3,0-0.7,0.1-1,0.3c-1.1,0.6-1.7,1.5-1.8,2.5c0,1,0.6,2.1,1.5,2.6c0.5,0.3,1,0.4,1.6,0.4
	c0.6,0,1.2-0.2,1.8-0.5c2.3-1.2,2.6-3.5,1.8-5.1c-0.7-1.4-2.2-2.5-3.9-2.5C31.3,7.3,30.9,7.3,30.5,7.5L30.5,7.5z M48.7,7.4
	c-0.2-0.1-0.4-0.1-0.6-0.2c0.3-0.4,0.7-0.9,1-1.4C49,6.3,48.9,6.8,48.7,7.4L48.7,7.4z M18.2,6L18.2,6L18.2,6L18.2,6L18.2,6z
	 M16.5,7.8C17,7.4,17.4,7,17.8,6.6c0.1,0,0.3,0,0.5,0c0.9,0,2.3,0.2,3,0.5C21.8,7.6,22.4,8,23,8.3c-0.1,0.2-0.2,0.5-0.3,0.7
	c-1.2-0.6-2.9-1.2-4.8-1.2C17.4,7.7,17,7.7,16.5,7.8L16.5,7.8z M8,13.7c-0.1,0-0.2,0-0.4,0c-1.3-0.1-2.5-0.6-3.3-1.7
	c-0.1-0.3-0.3-0.6-0.5-0.9C3.6,10.5,3.5,9.8,3.5,9C3.6,8,4.3,7.1,4.9,6.8c0.3,0.4,0.6,0.9,1,1.2C5.5,8.4,5.2,8.9,5.2,9.5
	C5,11,5.9,12.1,7.4,12.4c0.2,0,0.3,0,0.5,0c1.3,0,2.8-0.8,3.1-2.3c0.6,0,1.3-0.1,1.9-0.3C12.4,12.4,10.2,13.7,8,13.7L8,13.7z
	 M15.5,10.1c0.1-0.5,0.1-1.1,0.1-1.6c0.8-0.2,1.5-0.3,2.2-0.3c1.8,0,3.4,0.6,4.6,1.2c-0.2,0.5-0.3,0.9-0.4,1.4
	c-1.2-0.7-2.6-1.1-4.1-1.1C17.2,9.8,16.4,9.9,15.5,10.1L15.5,10.1z M25.8,8.9c0.9,0,1.9-0.2,2.9-0.6c-1.4,1-2.1,2.4-2.1,3.9
	c0,2.1,1.3,4.2,3.3,5c0.5,0.2,1.2,0.4,2,0.4c1.2,0,2.8-0.5,4.5-2c0.2-0.2,0.4-0.4,0.6-0.6c-0.1,0.9,0,1.8,0.1,2.6
	c-1.8,1.2-3.6,1.8-5.3,1.8c-1.7,0-3.2-0.6-4.5-1.8C24.8,15.4,24.2,11.7,25.8,8.9C25.8,8.9,25.8,8.9,25.8,8.9L25.8,8.9z M7.8,11.9
	c-0.1,0-0.3,0-0.4,0c-1.2-0.2-1.9-1-1.8-2.3c0-0.4,0.3-0.8,0.6-1.1C6.6,8.7,7,9,7.4,9.3l-0.1,0l-0.2,0c0.1,0.7,0.6,1,1.1,1
	c0,0,0.1,0,0.1,0c0.3,0,0.6-0.2,0.8-0.4c0.5,0.1,0.9,0.2,1.4,0.2C10,11.3,8.9,11.9,7.8,11.9L7.8,11.9z M32.3,21.7
	c-2.8,0-5.3-1.3-6.9-2.8c-2.5-2.4-4-6.5-1.9-10.4c0.6,0.2,1.1,0.4,1.7,0.4c-1.6,2.9-0.9,6.8,1.7,9.2c1.4,1.3,3.1,2,4.9,2
	c1.7,0,3.6-0.6,5.4-1.8c0.2,0.6,0.4,1.2,0.6,1.7C35.9,21.2,34,21.7,32.3,21.7L32.3,21.7z M40.6,8.8L40.6,8.8c0-0.1,0.1-0.1,0.2-0.1
	C40.7,8.7,40.6,8.8,40.6,8.8L40.6,8.8z M8,14.3c2.5,0,5.1-1.6,5.4-4.6c0.6-0.2,1.1-0.5,1.7-0.8c-0.1,2-0.8,3.8-2,5
	c-0.1,0.1-0.3,0.2-0.4,0.4c-0.2,0.2-0.4,0.3-0.7,0.5c-1.2,0.8-2.6,1.2-4.1,1.2c-1,0-2-0.2-2.9-0.6c0-0.7-0.1-1.4-0.3-2
	c0.8,0.6,1.8,0.9,2.8,1C7.7,14.2,7.9,14.3,8,14.3L8,14.3z M8.2,9.8C8.2,9.8,8.2,9.8,8.2,9.8C8,9.8,7.7,9.7,7.6,9.4
	C7.7,9.4,7.9,9.5,8,9.5c0.2,0.1,0.4,0.1,0.5,0.2C8.4,9.8,8.3,9.8,8.2,9.8L8.2,9.8z M15.4,10.7c0.9-0.3,1.8-0.4,2.6-0.4
	c1.4,0,2.8,0.4,4,1.1C22,12,22,12.6,22,13.2c-1-0.8-2.4-1.4-3.9-1.4c-1.1,0-2.4,0.3-3.6,1C14.9,12.2,15.2,11.5,15.4,10.7L15.4,10.7
	L15.4,10.7z M13,19c-0.4-0.5-0.8-0.9-1.2-1.3c0-1.2,0.5-2.3,1.3-3.2c0.1-0.1,0.3-0.2,0.4-0.4c0.1-0.1,0.2-0.2,0.3-0.3
	c1.5-1.1,3-1.5,4.3-1.5c1.6,0,3.1,0.7,4,1.6l0,0c0.2,1.2,0.7,2.4,1.4,3.4c0.1,1.1-0.1,2-0.8,3.2c-0.1,0-0.2,0-0.3,0
	c-0.6,0-1.2,0.1-1.7,0.1c1.5-1.3,1.5-3,1-4.2c-0.6-1.4-2.1-2.5-3.8-2.5c-0.5,0-1,0.1-1.6,0.3c-2.1,0.8-3.3,2.3-3.4,4.2
	C12.9,18.8,12.9,18.9,13,19L13,19z M16.1,22.9c-1.7-0.8-2.7-2.5-2.6-4.3c0.1-1.7,1.2-3.1,3.1-3.8c0.5-0.2,1-0.3,1.4-0.3
	c1.6,0,2.8,1,3.4,2.2c0.6,1.3,0.4,3.1-1.8,4.3c-0.2,0.1-0.4,0.1-0.6,0.2c-0.2,0-0.3,0-0.5,0c-1.1,0-2-0.7-2.4-1.5
	c-0.5-0.9-0.4-2.3,1.2-3.1c0.3-0.2,0.6-0.2,0.9-0.2c0.4,0,0.7,0.1,0.9,0.3c0.5,0.3,0.8,1,0.8,1.6c0,0.4-0.2,0.9-1,1.2
	c-0.1,0-0.1,0-0.2,0c-0.2,0-0.4-0.1-0.5-0.3c-0.1-0.1-0.1-0.4,0.2-0.6l-0.1-0.2l-0.1-0.2c-0.5,0.3-0.6,0.8-0.4,1.3
	c0.2,0.3,0.5,0.6,1,0.6c0.1,0,0.3,0,0.4-0.1c0.8-0.3,1.3-0.9,1.4-1.6c0.1-0.8-0.3-1.6-1-2c-0.4-0.2-0.7-0.3-1.1-0.3
	c-0.4,0-0.8,0.1-1.1,0.3c-1.9,1.1-1.9,2.7-1.4,3.8c0.4,0.8,1.2,1.6,2.2,1.8C17.1,22.1,16.6,22.5,16.1,22.9L16.1,22.9z M11.2,17.3
	c-0.4-0.3-0.9-0.6-1.4-0.8c0-0.1,0-0.1,0-0.2c0-0.1,0-0.1,0-0.2c0.7-0.2,1.3-0.4,2-0.7C11.5,16,11.3,16.6,11.2,17.3L11.2,17.3z
	 M5,15.8L5,15.8L5,15.8L5,15.8L5,15.8z M9.3,16.3L9.3,16.3L9.3,16.3L9.3,16.3L9.3,16.3L9.3,16.3z M4.4,18c0.3-0.6,0.5-1.1,0.6-1.7
	c0.4-0.1,0.9-0.1,1.3-0.1c0.2,0,0.4,0,0.6,0c0.2,0,0.4,0,0.5,0.1c2.5,0.3,4.6,1.8,5.8,4.1c0.9,1.6,1.2,3.5,0.9,5.2
	c-0.3,0.7-0.5,1.4-0.6,2.2c-0.3,0.6-0.6,1.1-1,1.6c-0.5-0.4-1.1-0.7-1.8-1c1.8-1.9,2.1-4.8,0.7-7.3c-0.9-1.7-2.8-3.2-5.5-3.2
	C5.5,17.8,4.9,17.9,4.4,18L4.4,18z M25.2,21c-0.6-0.2-1.2-0.3-1.8-0.3c0.5-0.9,0.7-1.6,0.7-2.5c0.3,0.4,0.6,0.7,0.9,1
	c0.1,0.1,0.3,0.3,0.5,0.4C25.4,20.2,25.4,20.6,25.2,21L25.2,21z M27.4,22c-0.5-0.4-1.1-0.6-1.7-0.9c0.1-0.4,0.2-0.7,0.3-1.1
	c0.7,0.5,1.4,0.9,2.2,1.3c-0.1,0.1-0.2,0.2-0.3,0.2C27.7,21.7,27.6,21.9,27.4,22L27.4,22z M32.3,22.2c1.7,0,3.6-0.4,5.5-1.5
	c1.5,0.1,2.9,0.5,4.1,1.1c0.4,0.4,0.9,0.7,1.5,0.9l0.1,0.1c-0.3,0.7-0.4,1.4-0.4,2.2c-1.4-1.6-3.3-2.6-5.4-2.8c-0.2,0-0.4,0-0.6,0
	c-1.8,0-4.3,0.6-7.1,3.2c-0.2-0.6-0.4-1.1-0.7-1.5c0.7-0.7,1.3-1.3,2.2-1.8C31.7,22.2,32,22.2,32.3,22.2L32.3,22.2z M2.6,29
	c-1.4-1-2.1-2.7-1.8-4.4c0.3-1.7,1.5-3.1,3.4-3.6c0.5-0.2,1.1-0.2,1.5-0.2c1.9,0,3.3,1.2,3.8,2.6c0.5,1.4,0.1,3.3-2.5,4.3
	c-0.1,0-0.2,0-0.2,0.1c-0.4,0-0.8,0.1-1.2,0.1c-0.5-0.1-0.9-0.2-1.3-0.6c-0.7-0.6-1-1.6-0.9-2.5C3.6,24,4.1,23.4,5,23.1
	C5.2,23.1,5.4,23,5.6,23c0.8,0,1.5,0.6,1.8,1.3c0.2,0.6,0.1,1.3-0.8,1.7c-0.2,0.1-0.3,0.1-0.5,0.1c-0.2,0-0.3-0.1-0.5-0.2
	c-0.2-0.2-0.2-0.5-0.1-0.7C5.7,25,5.8,24.9,6,24.9c0,0,0.1,0,0.1,0l0-0.3l0-0.3c-0.1,0-0.1,0-0.1,0c-0.4,0-0.7,0.2-0.8,0.5
	c-0.2,0.4-0.2,1,0.1,1.3c0.1,0.1,0.4,0.4,0.8,0.4c0.2,0,0.4,0,0.6-0.1C8,26,8.2,25,7.9,24.1c-0.3-0.9-1.2-1.6-2.3-1.6
	c-0.3,0-0.5,0-0.8,0.1c-1,0.3-1.7,1.1-1.9,2.1C2.7,25.8,3.1,27,4,27.7c0.2,0.2,0.4,0.3,0.6,0.4C3.9,28.3,3.3,28.6,2.6,29L2.6,29z
	 M15.9,34c-0.2-0.9-0.7-1.7-1.2-2.4c-0.2-0.3-0.4-0.6-0.7-0.8l0,0c-0.2-1-0.2-2-0.1-2.9c0.3-0.7,0.5-1.4,0.6-2.1
	c0.9-1.9,2.5-3.2,4.4-4c0.2,0,0.4-0.1,0.6-0.2l0.1,0c0.3-0.1,0.7-0.2,1-0.3c0.6-0.1,1.3-0.2,1.9-0.2c3.2,0,6.3,1.6,7,5
	c0.2,1.2,0.3,2.3,0.2,3.2c-0.1,0.3-0.1,0.7-0.2,1c-0.4,1.7-1.2,2.7-2.1,3.4c-0.5,0.4-1,0.7-1.6,1c-0.1,0-0.1,0.1-0.2,0.1
	c-0.9,0.3-1.8,0.5-2.8,0.5c-0.6,0-1.2-0.1-1.8-0.2c-0.7-0.4-1.4-0.7-2.2-0.9c-1.4-0.9-2.3-2.3-2.5-4c-0.4-4.2,2.3-6.6,5.1-7.1
	c0.4-0.1,0.7-0.1,1.1-0.1c2,0,4.1,1,4.7,3.4c0.9,3.4-0.6,5.1-1.5,5.9c-0.9,0.7-2.1,1.1-3.2,1.1c-0.7,0-1.4-0.2-2.1-0.5
	c-1.4-0.7-2.1-2.1-2-4c0.1-2.4,2.1-3.8,3.9-3.8c0,0,0,0,0.1,0c1.3,0,2.8,0.9,2.8,3.1c0.1,1.1-0.4,2.1-1.2,2.6
	c-0.4,0.3-0.9,0.4-1.4,0.4c-0.3,0-0.6-0.1-0.9-0.2c-0.7-0.4-1.1-1.2-1.2-2.4c0-0.9,0.7-1.4,1.4-1.5c0.1,0,0.1,0,0.2,0
	c0.5,0,1.1,0.3,1.3,1c0.1,0.4,0,0.6-0.2,0.8c-0.1,0.1-0.2,0.1-0.4,0.1c-0.1,0-0.1,0-0.2,0c-0.2-0.1-0.4-0.3-0.4-0.5l-0.3,0l-0.2,0
	c0.1,0.4,0.4,0.8,0.8,0.9c0.1,0,0.2,0.1,0.4,0.1c0.3,0,0.5-0.1,0.7-0.3c0.2-0.2,0.5-0.6,0.3-1.3c-0.2-1-1-1.4-1.8-1.4
	c-0.1,0-0.2,0-0.2,0c-0.9,0.1-1.9,0.8-1.8,2c0,1.4,0.5,2.4,1.4,2.8c0.4,0.2,0.8,0.3,1.2,0.3c0.6,0,1.1-0.2,1.7-0.5
	c1-0.7,1.6-1.8,1.5-3.1c-0.1-2.6-1.8-3.6-3.3-3.6c0,0,0,0-0.1,0c-2.1,0-4.3,1.6-4.4,4.3c-0.1,2.1,0.7,3.7,2.3,4.5
	c0.7,0.4,1.5,0.5,2.3,0.5c1.3,0,2.5-0.4,3.6-1.2c1.8-1.4,2.4-3.8,1.7-6.4c-0.7-2.7-3-3.8-5.2-3.8c-0.4,0-0.8,0-1.2,0.1
	c-3,0.5-6,3.2-5.6,7.6c0.1,1.5,0.8,2.8,1.9,3.7c-0.2,0-0.5,0-0.8,0C16.6,34,16.3,34,15.9,34L15.9,34z M29,23.5
	c-0.3-0.4-0.7-0.8-1.1-1.2c0.2-0.1,0.3-0.3,0.4-0.4c0.2-0.1,0.3-0.3,0.5-0.4c0.6,0.2,1.2,0.4,1.9,0.5C30,22.5,29.5,22.9,29,23.5
	L29,23.5z M14.7,24.5c0-0.7-0.1-1.4-0.2-2.2c0.4,0.4,0.8,0.7,1.3,0.9C15.3,23.6,15,24.1,14.7,24.5L14.7,24.5z M30.3,27.9
	c0-0.6-0.1-1.2-0.2-1.9l0,0c2.2-2.1,4.6-3.2,6.9-3.2c0.2,0,0.4,0,0.6,0c2.1,0.2,4.1,1.3,5.4,3.1c0.1,1.9,0.6,4,1.5,5.6
	c0,0.4-0.1,0.7-0.2,1.1c-0.6-0.1-1.2-0.2-1.8-0.2c0.9-2.2,0.2-4.7-1.6-6.4c-1.2-1.1-2.6-1.6-4.1-1.6c-1.3,0-2.8,0.4-4.2,1.2
	C31.5,26.3,30.8,27.1,30.3,27.9L30.3,27.9z M48.4,34.5c-0.5-0.4-1-0.7-1.6-1c-2.3-1.7-4.2-7.2-2.9-10.5c0.6,0.2,1.2,0.3,1.8,0.3
	c-0.5,1.6-0.2,4.2,0.8,6.2c0.5,1,1.3,2.3,2.7,2.9C48.8,33.1,48.6,33.8,48.4,34.5L48.4,34.5z M30.1,31.9c-0.1-0.6-0.1-1.2,0-1.7
	c0-0.2,0.1-0.4,0.1-0.6c0.3-1.5,1.2-2.6,2.6-3.5c1.3-0.8,2.6-1.2,3.9-1.2c1.4,0,2.7,0.5,3.8,1.5c1.7,1.6,2.3,4,1.4,6
	c-0.7,0-1.4,0.1-2.1,0.3c1.1-1.3,1-2.8,0.4-3.9c-0.6-1.2-2-2.2-3.7-2.2c-0.6,0-1.2,0.1-1.8,0.4c-2.3,1-3.4,2.8-3.2,5
	c-0.3,0-0.6,0-0.9,0C30.5,31.9,30.3,31.9,30.1,31.9L30.1,31.9z M34,32.5c-0.6-0.2-1.2-0.4-1.9-0.5c-0.3-2,0.7-3.6,2.8-4.6
	c0.5-0.2,1.1-0.3,1.6-0.3c1.4,0,2.6,0.9,3.2,1.9c0.6,1.1,0.6,2.8-1.1,4.1c-0.4,0.2-0.7,0.3-1.1,0.5c-0.3,0.1-0.5,0.1-0.8,0.1
	c-0.3,0-0.5,0-0.7-0.1c-0.4-0.3-0.8-0.6-1.2-0.8c-0.1-0.1-0.2-0.2-0.2-0.3c-0.5-0.9-0.5-2,0.6-2.8c0.5-0.3,0.9-0.5,1.3-0.5
	c0.2,0,0.5,0.1,0.7,0.2c0.5,0.3,0.8,0.8,0.8,1.3c0,0.3-0.1,0.7-0.6,1c-0.2,0.1-0.4,0.1-0.5,0.1c-0.3,0-0.5-0.1-0.6-0.3
	c-0.1-0.1-0.1-0.3,0.1-0.4l-0.1-0.2l-0.1-0.2c-0.4,0.3-0.5,0.7-0.2,1.1c0.2,0.3,0.6,0.5,1,0.5c0.2,0,0.5-0.1,0.8-0.2
	c0.5-0.3,0.8-0.8,0.8-1.5c0-0.7-0.4-1.4-1.1-1.7c-0.2-0.1-0.5-0.2-0.9-0.2c-0.4,0-1,0.1-1.6,0.5C33.7,30.2,33.6,31.5,34,32.5
	L34,32.5z M13.5,30.2c-0.2-0.2-0.4-0.4-0.6-0.5c0.2-0.2,0.4-0.5,0.5-0.7C13.4,29.3,13.4,29.8,13.5,30.2L13.5,30.2z M29.6,31.9
	L29.6,31.9L29.6,31.9L29.6,31.9L29.6,31.9z M45.5,33c-0.2-0.1-0.5-0.1-0.7-0.2c0.1-0.2,0.1-0.4,0.2-0.5C45.1,32.5,45.3,32.7,45.5,33
	L45.5,33z M28,34c0.5-0.5,1-1,1.3-1.6c0.5,0,0.9-0.1,1.3-0.1c1.5,0,2.9,0.3,3.9,0.9c0.3,0.4,0.7,0.6,1.2,0.8
	c0.9,0.8,1.5,1.9,1.8,3.1c0.2,0.9,0.2,2,0.1,3c0,0.1-0.1,0.3-0.1,0.4c-0.5,2.4-2,4.6-4.4,5.6c-0.3-0.5-0.7-0.9-1.1-1.3
	c3.5-1.4,4.5-4.8,3.6-7.4c-0.7-2.1-2.6-3.9-5.6-3.9C29.4,33.8,28.7,33.9,28,34L28,34z M37.7,36.1c-0.2-0.5-0.4-1-0.7-1.4
	c0.3-0.2,0.5-0.4,0.8-0.6c0.2-0.1,0.5-0.2,0.7-0.3c0.1-0.1,0.3-0.2,0.4-0.3c1-0.4,2.2-0.6,3.3-0.6c1.5,0,3,0.4,4.3,1
	c0.2,0.1,0.3,0.2,0.5,0.3l0,0c0.4,0.3,0.9,0.5,1.2,0.9c0,0.2-0.1,0.5-0.1,0.7c0,0.5-0.1,0.9,0,1.4c-0.5-0.7-1-1.2-1.7-1.7
	c-1.1-0.8-2.5-1.3-4-1.3C40.8,34.1,39.2,34.7,37.7,36.1L37.7,36.1z M24,39.2c-0.2-0.7-0.5-1.3-0.8-1.9c0.6-0.8,1.5-1.5,2.8-2
	c0.1,0,0.1,0,0.2-0.1c0.4-0.2,0.8-0.3,1.3-0.5c1-0.3,1.9-0.4,2.7-0.4c2.7,0,4.5,1.6,5.2,3.5c0.8,2.4-0.2,5.6-3.6,6.8
	c-0.5-0.4-1-0.8-1.6-1.1c0.2,0,0.4-0.1,0.6-0.2c2.7-1.1,3.4-3.2,2.8-4.8c-0.5-1.5-2.1-2.8-4.2-2.8c-0.5,0-1.1,0.1-1.7,0.3
	c-1.7,0.5-2.9,1.5-3.5,2.9C24.1,39,24.1,39.1,24,39.2L24,39.2z M36.7,34.3L36.7,34.3L36.7,34.3L36.7,34.3L36.7,34.3z M21.5,43.9
	c0.8-1.7,0.7-3.8-0.3-5.5c-1.1-1.7-2.9-2.7-5.1-2.8c0-0.4-0.1-0.8-0.1-1.2c0.3,0,0.6,0,0.9,0c0.6,0,1.1,0.1,1.7,0.2
	c0.3,0.2,0.7,0.4,1.1,0.6c0.4,0.2,0.7,0.3,1.1,0.4c0.5,0.3,0.9,0.7,1.2,1.1c1.5,1.7,2,4,1.5,6.2C22.9,43.1,22.2,43.5,21.5,43.9
	L21.5,43.9z M38.3,38.9c0-0.6-0.1-1.2-0.2-1.7c0-0.2-0.1-0.3-0.1-0.5c1.4-1.4,2.9-2,4.5-2c1.4,0,2.7,0.5,3.8,1.2
	c0.9,0.6,1.6,1.5,2.1,2.5c0.1,0.6,0.2,1.2,0.5,1.8c0.1,1-0.1,2-0.7,3L48,43.3c-0.2,0.3-0.4,0.6-0.6,1c-1.2,1.5-2.7,1.8-3.7,1.8
	c-0.1,0-0.2,0-0.3,0c-2.2-0.1-4.3-1.6-5-3.4c-0.6-1.5-0.2-3.1,1.2-4.5c0.9-0.9,1.9-1.3,2.9-1.3c1,0,1.9,0.4,2.6,1
	c1.3,1.1,2.1,3.1,0.7,5c-0.6,0.7-1.5,1-2.3,1c-0.9,0-1.7-0.3-2.3-0.9c-1.1-0.9-1.1-2.2,0-3.4c0.3-0.4,0.8-0.6,1.2-0.6
	c0.5,0,0.9,0.2,1.3,0.5c0.5,0.4,1,1.2,0.4,2c-0.2,0.3-0.5,0.4-0.7,0.4c0,0-0.1,0-0.1,0c-0.4,0-0.8-0.3-0.9-0.6
	c-0.1-0.2-0.1-0.4,0-0.5L42,40.6l-0.2-0.1c-0.2,0.3-0.2,0.7-0.1,1c0.2,0.5,0.8,0.9,1.4,0.9c0,0,0.1,0,0.1,0c0.5,0,0.9-0.2,1.1-0.6
	c0.7-1,0.3-2.1-0.5-2.7c-0.4-0.3-1-0.6-1.6-0.6c-0.6,0-1.2,0.2-1.6,0.7c-1.5,1.7-1,3.3,0,4.2c0.7,0.6,1.7,1,2.7,1c1,0,2-0.4,2.7-1.2
	l0,0l0,0c1.6-2.2,0.7-4.5-0.7-5.7c-0.8-0.7-1.8-1.1-3-1.1c-1.1,0-2.3,0.4-3.3,1.5C38.8,38.2,38.5,38.5,38.3,38.9L38.3,38.9z
	 M22.9,35.8c0.4,0,0.8,0,1.1-0.1c-0.4,0.3-0.8,0.7-1.1,1.1c-0.1-0.2-0.3-0.3-0.4-0.5c-0.2-0.2-0.4-0.4-0.6-0.6
	C22.2,35.8,22.6,35.8,22.9,35.8L22.9,35.8z M15.4,45.2c1.8,0,3.2-0.7,4-2.1c0.7-1.2,0.6-2.6-0.1-3.8c-0.7-1.1-1.9-1.7-3.4-1.8
	c0.1-0.5,0.2-1,0.2-1.5c2,0,3.7,0.9,4.7,2.5c1,1.6,1,3.6,0.2,5.2c-0.9,1.7-2.8,2.6-5.2,2.6c0,0-0.1,0-0.1,0c-2.8,0-4.6-1.2-5.1-3.2
	c0.6-0.3,1.2-0.6,1.8-1c-0.1,0.3-0.1,0.6-0.1,0.9c0.1,1.1,1.1,2.2,2.9,2.2C15.2,45.2,15.3,45.2,15.4,45.2
	C15.4,45.2,15.4,45.2,15.4,45.2L15.4,45.2z M24.7,42.6c-0.5-1.1-0.6-2.4-0.1-3.5c0.5-1.3,1.7-2.2,3.2-2.6c0.6-0.2,1.1-0.2,1.6-0.2
	c1.9,0,3.3,1.1,3.8,2.4c0.4,1.3,0,3.2-2.5,4.2c-0.4,0.2-0.8,0.2-1.2,0.2c-0.1,0-0.1,0-0.2,0C29.1,43,29,43,29,43
	c-0.3-0.1-0.6-0.2-0.9-0.3c-0.1-0.1-0.2-0.1-0.3-0.2c-0.7-0.6-1-1.6-0.9-2.5c0.2-0.8,0.7-1.4,1.6-1.7c0.2-0.1,0.4-0.1,0.7-0.1
	c0.8,0,1.5,0.6,1.8,1.3c0.2,0.6,0.1,1.3-0.8,1.7c-0.2,0.1-0.3,0.1-0.5,0.1c-0.2,0-0.3-0.1-0.4-0.2c-0.2-0.2-0.2-0.5-0.1-0.7
	c0.1-0.1,0.2-0.2,0.4-0.2c0,0,0.1,0,0.1,0l0-0.3l0-0.3c-0.1,0-0.1,0-0.2,0c-0.4,0-0.7,0.2-0.8,0.5c-0.2,0.4-0.2,1,0.1,1.3
	c0.1,0.1,0.4,0.4,0.8,0.4c0.2,0,0.4,0,0.6-0.1c1.2-0.4,1.4-1.5,1.2-2.3c-0.3-0.9-1.2-1.6-2.3-1.6c-0.3,0-0.5,0-0.8,0.1
	c-1,0.3-1.7,1.1-1.9,2.1c-0.2,0.9,0.1,1.9,0.7,2.6c-0.3,0-0.6-0.1-1-0.1C25.7,42.5,25.2,42.5,24.7,42.6L24.7,42.6z M14.8,39.9
	c0.4-0.6,0.7-1.1,0.9-1.7c0,0,0,0,0,0c1.4,0,2.5,0.5,3.1,1.5c0.6,1,0.6,2.2,0.1,3.2c-0.6,1.2-1.9,1.8-3.5,1.8c-0.1,0-0.2,0-0.2,0
	c-1.6,0-2.3-0.9-2.4-1.7c-0.1-0.5,0.1-1,0.4-1.5c0.3-0.3,0.6-0.5,0.8-0.8c0.4-0.2,0.8-0.4,1.4-0.5c0.1,0,0.2,0,0.3,0
	c0.6,0,1,0.4,1.1,0.8c0.2,0.5,0,1.2-0.8,1.6c0,0,0,0-0.1,0c-0.1,0-0.4-0.1-0.6-0.3c-0.1-0.1-0.2-0.2-0.2-0.3c0,0,0.1-0.1,0.3-0.2
	l-0.1-0.2l-0.1-0.2c-0.4,0.1-0.6,0.3-0.7,0.6c0,0.3,0.1,0.5,0.4,0.8c0.3,0.2,0.6,0.4,1,0.4c0.1,0,0.2,0,0.3,0
	c1.1-0.4,1.3-1.4,1.1-2.2c-0.2-0.6-0.7-1.2-1.6-1.2c-0.1,0-0.3,0-0.4,0C15.1,39.8,14.9,39.8,14.8,39.9L14.8,39.9z M49,42.3
	c0.1-0.4,0.2-0.8,0.2-1.1c0.1,0.2,0.3,0.4,0.4,0.6c0,0-0.1,0.1-0.1,0.1C49.3,42,49.1,42.1,49,42.3L49,42.3z M43.5,48.2
	c-0.6,0-1.2-0.1-1.8-0.2c-0.3-0.1-0.6-0.2-0.9-0.3c-1.7-0.7-3.2-2.1-4.1-3.9c0.3-0.5,0.6-1,0.8-1.6c0.1,0.2,0.1,0.4,0.2,0.6
	c0.8,2,3.1,3.6,5.5,3.7c0.1,0,0.2,0,0.3,0c0.9,0,2.1-0.2,3.3-1.1c-0.2,0.6-0.2,1.2-0.2,1.9C45.7,47.9,44.6,48.2,43.5,48.2L43.5,48.2
	z M24.1,42.7L24.1,42.7L24.1,42.7L24.1,42.7L24.1,42.7z M14.8,48.6c-0.6,0-1.2-0.1-1.7-0.2c-0.4-0.3-0.9-0.5-1.5-0.5
	c-1.7-0.9-2.7-2.4-3-4c0.5-0.1,1-0.2,1.5-0.4c0.5,2.2,2.6,3.5,5.6,3.5c0,0,0.1,0,0.1,0c1.2,0,2.3-0.2,3.2-0.7
	c-0.3,0.4-0.4,0.9-0.6,1.4l-0.1,0.4c-0.8,0.2-1.6,0.4-2.5,0.5C15.4,48.6,15.1,48.6,14.8,48.6L14.8,48.6z M34.5,49.5
	c-0.1-0.8-0.4-1.6-0.8-2.4c0.7-1,2-1.9,3-2.4c0.3,0.5,0.7,1,1,1.4C36.1,46.9,35.1,48,34.5,49.5L34.5,49.5z M43.3,0h-0.5
	C42.9,0.3,43,0.7,43,1.1c0.1,1.1-0.3,2-1.1,2.5C41.5,3.9,41,4,40.5,4C40.3,4,40,4,39.7,3.9c-0.7-0.3-1.1-1.1-1.2-2.2
	c0-0.9,0.6-1.3,1.2-1.4c0.1,0,0.1,0,0.2,0c0.5,0,1,0.2,1.2,0.9c0.1,0.3,0,0.6-0.1,0.8C41,2,40.9,2,40.7,2c-0.1,0-0.1,0-0.2,0
	c-0.2-0.1-0.4-0.2-0.4-0.5l-0.2,0.1l-0.3,0.1C39.7,2,40,2.3,40.4,2.5c0.1,0,0.2,0.1,0.3,0.1c0.3,0,0.5-0.1,0.7-0.3
	c0.2-0.2,0.5-0.6,0.3-1.3c-0.1-0.5-0.4-0.8-0.7-1h-2.1C38.4,0.3,38,0.9,38,1.7c0.1,1.3,0.6,2.2,1.5,2.7c0.3,0.2,0.7,0.2,1,0.2
	c0.6,0,1.1-0.2,1.6-0.5c0.9-0.7,1.4-1.8,1.3-3C43.5,0.6,43.4,0.3,43.3,0L43.3,0z M32.2,0h-0.5c0.2,1.5-0.2,3.1-1.6,4.5
	c-1.5,1.4-2.9,1.8-4,1.8c-0.7,0-1.3-0.2-1.7-0.4c-1.7-0.7-2.8-2.5-2.8-4.3c0-0.4,0.1-1,0.3-1.6h-0.5c-0.2,0.5-0.3,1-0.3,1.6
	c0,2,1.3,4,3.1,4.8c0.5,0.2,1.1,0.4,1.9,0.4c1.2,0,2.7-0.4,4.3-1.9C32,3.4,32.5,1.7,32.2,0L32.2,0z M30,0h-0.5
	c0.3,1.2,0.1,2.7-1.7,3.6c-0.5,0.3-1,0.4-1.5,0.4c-0.4,0-0.8-0.1-1.2-0.3c-0.8-0.4-1.2-1.2-1.2-2.1c0-0.7,0.4-1.3,1-1.7H24
	c-0.5,0.5-0.7,1.1-0.7,1.7c0,1,0.6,2,1.5,2.5c0.5,0.3,1,0.4,1.5,0.4c0.6,0,1.2-0.2,1.7-0.5C29.9,3.1,30.3,1.4,30,0L30,0z M27.7,0
	h-0.7c0.1,0.1,0.2,0.2,0.2,0.3c0.4,0.6,0.2,1.2-0.4,1.7c-0.2,0.1-0.3,0.2-0.5,0.2c-0.1,0-0.2,0-0.2,0C26,2,25.8,1.9,25.8,1.7
	c0-0.1,0-0.2,0.1-0.2l-0.1-0.2L25.6,1c-0.2,0.2-0.4,0.4-0.3,0.7c0,0.3,0.3,0.7,0.7,0.8c0.1,0.1,0.3,0.1,0.4,0.1
	c0.3,0,0.6-0.1,0.8-0.3C28.2,1.6,28.1,0.6,27.7,0L27.7,0z M14.5,0h-0.6c0.2,0.2,0.3,0.5,0.4,0.8c0.4,1.2,0.2,3.1-1.7,4.1
	c-0.5,0.3-1,0.5-1.5,0.5c-0.9,0-1.6-0.5-2-1.2C8.4,3.3,8.5,1.9,10,1c0.4-0.2,0.8-0.3,1.1-0.3c0.5,0,0.8,0.2,1,0.5
	c0.4,0.6,0.4,1.4-0.4,2.1c-0.2,0.1-0.4,0.2-0.5,0.2c-0.1,0-0.2,0-0.2,0c-0.2-0.1-0.4-0.3-0.4-0.4c0-0.1,0-0.2,0.1-0.2l-0.1-0.2
	l-0.1-0.2c-0.2,0.2-0.4,0.4-0.3,0.7c0,0.3,0.3,0.7,0.7,0.8c0.1,0.1,0.3,0.1,0.4,0.1c0.3,0,0.6-0.1,0.8-0.3c1-0.8,1-2,0.5-2.8
	c-0.3-0.4-0.8-0.7-1.5-0.7c-0.4,0-0.9,0.1-1.3,0.4C8,1.6,7.9,3.3,8.6,4.5C9,5.3,10,5.9,11.1,5.9c0.6,0,1.2-0.2,1.8-0.5
	c2.2-1.2,2.4-3.3,2-4.7C14.7,0.4,14.6,0.2,14.5,0L14.5,0z M7.3,0H6.5c-1,0.8-2,1.2-3,1.2c-0.5,0-1-0.1-1.4-0.3
	C1.6,0.7,1.2,0.4,0.9,0H0.2c0.5,0.6,1,1,1.7,1.3c0.4,0.2,1,0.3,1.7,0.3C4.5,1.7,5.8,1.3,7.3,0L7.3,0z M0,10.3V11
	c0.3,0.2,0.5,0.5,0.7,0.7c1.5,1.9,2,5-0.4,7.2C0.2,19,0.1,19.1,0,19.2v0.7c0.2-0.2,0.4-0.3,0.6-0.5c2.6-2.4,2.2-5.8,0.5-7.9
	C0.8,11,0.4,10.6,0,10.3L0,10.3z M46.1,11.2c-0.5,0-1.1,0.1-1.7,0.4c-2,0.9-3.2,2.5-3.2,4.4c0,2,1.3,4,3.1,4.8
	c0.5,0.2,1.1,0.4,1.9,0.4c1,0,2.3-0.3,3.7-1.4v-0.7c-1.4,1.2-2.7,1.6-3.7,1.6c-0.7,0-1.3-0.2-1.7-0.4c-1.7-0.7-2.8-2.5-2.8-4.3
	c0-1,0.4-2.9,2.9-4c0.5-0.2,1-0.3,1.5-0.3c1.5,0,2.7,1,3.3,2.1c0.6,1.3,0.6,3.1-1.5,4.2c-0.5,0.3-1,0.4-1.5,0.4
	c-0.4,0-0.8-0.1-1.2-0.3C44.5,17.8,44,17,44,16.2c0-0.8,0.5-1.5,1.4-2c0.2-0.1,0.5-0.2,0.7-0.2c0.6,0,1.1,0.3,1.3,0.7
	c0.4,0.6,0.2,1.2-0.4,1.7c-0.2,0.1-0.3,0.2-0.5,0.2c-0.1,0-0.2,0-0.2,0c-0.2-0.1-0.4-0.3-0.4-0.4c0-0.1,0-0.2,0.1-0.2L46,15.7
	l-0.1-0.2c-0.2,0.2-0.4,0.4-0.3,0.7c0,0.3,0.3,0.7,0.7,0.8c0.1,0.1,0.3,0.1,0.4,0.1c0.3,0,0.6-0.1,0.8-0.3c1-0.8,0.9-1.8,0.5-2.4
	c-0.4-0.5-1-1-1.8-1c-0.3,0-0.7,0.1-1,0.3c-1.1,0.6-1.7,1.4-1.7,2.4c0,1,0.6,2,1.5,2.5c0.5,0.3,1,0.4,1.5,0.4c0.6,0,1.2-0.2,1.7-0.5
	c0.9-0.5,1.5-1.2,1.8-1.9v-2.7c0-0.1-0.1-0.2-0.1-0.3C49.2,12.3,47.8,11.2,46.1,11.2L46.1,11.2z M0,13.9v2.7
	C0.4,15.8,0.3,14.8,0,13.9L0,13.9z M50,44.1c-0.6,0.7-1,1.6-1,2.6c0,1.1,0.4,2.1,1,3v-1c-0.3-0.6-0.5-1.3-0.5-2
	c0-0.5,0.1-1.1,0.5-1.8V44.1L50,44.1z M26,46.8c-0.5,0-1.1,0.1-1.7,0.4c-1.4,0.6-2.4,1.6-2.9,2.9h0.5c0.4-0.8,1.1-1.7,2.6-2.4
	c0.5-0.2,1-0.3,1.5-0.3c1.5,0,2.7,1,3.3,2.1c0.1,0.2,0.2,0.4,0.2,0.6H30c-0.1-0.3-0.2-0.5-0.3-0.8C29,47.9,27.6,46.8,26,46.8
	L26,46.8z M0,48.8v1c0.1,0.1,0.1,0.2,0.2,0.2h0.7C0.5,49.6,0.2,49.2,0,48.8L0,48.8z M26,49c-0.3,0-0.7,0.1-1,0.3
	c-0.4,0.2-0.7,0.4-1,0.7h0.8c0.1-0.1,0.3-0.2,0.4-0.3c0.2-0.1,0.5-0.2,0.7-0.2c0.4,0,0.8,0.2,1.1,0.5h0.7l0,0
	C27.4,49.4,26.7,49,26,49L26,49z M40,49.7c-0.1,0-0.2,0-0.3,0c-0.3,0-0.6,0.1-0.8,0.3h2.1C40.8,49.8,40.4,49.7,40,49.7L40,49.7z"/>
</svg>
