<?xml version="1.0" encoding="utf-8"?>
<!-- Generator: Adobe Illustrator 22.0.0, SVG Export Plug-In . SVG Version: 6.00 Build 0)  -->
<svg version="1.1" id="图层_1" xmlns="http://www.w3.org/2000/svg" xmlns:xlink="http://www.w3.org/1999/xlink" x="0px" y="0px"
	 viewBox="0 0 650 650" style="enable-background:new 0 0 650 650;" xml:space="preserve">
<g>
	<path d="M7.7,322.4C9,147.5,155,1.3,339.5,9.2C506.1,16.2,644,153.7,642.3,328.3C640.7,503.6,495.7,645.3,317.2,641
		C145.3,637,6.6,496.4,7.7,322.4z M164.8,129.5c119,118.6,237.8,236.9,356.6,355.2c79.6-95.2,79.6-245.3-19.8-341.2
		C401.4,46.9,253.4,54.7,164.8,129.5z M485.2,520.5C366.4,402.1,247.6,283.7,128.7,165.2c-80,95.8-79.9,248.1,22.7,344
		C252.5,603.7,398.7,593.9,485.2,520.5z"/>
	<path d="M367.6,325c-4-4.3-7.9-8.3-12.2-12.9c5.6-9.2,11.7-19.3,17.9-29.4c18.8-30.9,37.4-61.8,56.3-92.6
		c12-19.6,33.9-27.6,53.6-19.8c25,9.8,37,29.4,32.1,53.6c-1.2,5.9-3.3,12-6.4,17.1c-27.5,45.7-55.2,91.2-82.9,136.7
		c-0.7,1.1-1.4,2.1-2.1,3.2c-4.1-4.3-8-8.4-12.5-13.2c5.3-9.2,11.2-19.4,17.1-29.6c21.2-36.6,42.6-73,63.6-109.7
		c5.8-10.2,6.2-21.3-0.7-31.3c-6.9-10-17.3-13.3-29.1-11.4c-7.5,1.2-12.9,5.5-16.8,12c-24.4,40.1-48.9,80.2-73.4,120.3
		C370.5,320.3,369,322.6,367.6,325z"/>
	<path d="M321.4,279.7c-2.6-3-4.9-5.8-7.4-8.6c3.3-8.4,7.5-17.4,10.1-26.8c2.2-7.9,3.4-16.2,3.7-24.4c0.7-16.8-7.8-29.1-23.4-35.5
		c-13.1-5.3-26.9-6-40.7-4.4c-11.1,1.3-22,3.9-33,5.7c-1.5,0.2-3.5-0.1-4.6-1c-3.1-2.5-5.9-5.5-9.4-8.8c10.9-6.3,19.5-15.1,33-15
		c15.3,0.2,30.4-0.2,45.4,3.7c33.6,8.8,48.5,30.3,44.2,64.8c-2.1,16.5-7,32.2-15.6,46.7C323.2,277.2,322.4,278.2,321.4,279.7z"/>
	<path d="M323.4,365.2c4,4.3,7.8,8.5,11.9,12.8c-4.9,8.1-10.2,16.8-15.8,26c25.5,0.9,43.2,11.1,48.5,37.9
		c4.2-7.1,7.9-13.5,11.6-19.7c3.9,4,7.7,7.8,11.9,12c-9.6,15.8-19.6,32.2-29.6,48.7c-5.3,8.7-10.9,17.3-15.8,26.2
		c-4.5,8-11.4,12.2-19.9,14.1c-17.2,3.9-32-1.9-45.5-11.8c-12.8-9.3-20-21.9-20.4-37.9c-0.1-2.6,0.5-5.6,1.8-7.8
		c19.8-32.9,39.8-65.6,59.8-98.4C322.3,366.6,322.8,366,323.4,365.2z M335.1,475.7c0.5-0.1,1-0.2,1.6-0.3c0-1.3,0.5-2.9-0.1-3.9
		c-2.8-5.2-5.3-10.8-8.9-15.4c-5.4-7-13-10.5-21.9-10.6c-1.8,0-3.6,1.3-5.4,2.1c0.1,0.4,0.2,0.9,0.3,1.3
		C317.2,451.3,328,461.1,335.1,475.7z"/>
	<path d="M275.4,317.5c2.6,2.6,4.9,4.9,7.6,7.6c-15.7,14.1-33.4,25.4-53,35.2c20.2,4.8,33.7,15.5,36.3,36.3c1.4,11.4,0,22.5-6,32.7
		c1.2-13,1.8-25.8-4.9-37.7c-6.8-12.1-18.1-17.5-31.4-20.3c-3.1,8.9-3.9,18-1,26.8c2.7,8.4,7,16.2,10.6,24.6
		c-20-10.4-27.9-30.7-21.3-53.1c-4.2-4.8-8.9-9-12.2-14.1c-8-12.1-7.9-25-2.2-38c7.6-17.4,20.9-30.2,35.4-42.5
		c2.4,2.8,4.6,5.3,6.6,7.7c-3.6,3.8-7.4,7.9-11.3,11.9c-11.4,11.7-19.8,24.9-19.4,42c0.2,8.1,4,14.6,10.1,19.7
		c0.9,0.8,3.7,0.5,4.9-0.3c16.2-11.8,32.3-23.9,48.3-35.9C273.5,319.3,274.4,318.4,275.4,317.5z"/>
	<path d="M166.2,208.6c6.8,6.9,13.4,13.6,20.8,21.2c-3.5,2.3-6.8,5.4-10.8,7.1c-16.3,7.2-31.2,16.3-43.9,29.3
		C132.7,247.2,150,217.6,166.2,208.6z"/>
</g>
</svg>
