<?xml version="1.0" encoding="utf-8"?>
<!-- Generator: Adobe Illustrator 22.0.0, SVG Export Plug-In . SVG Version: 6.00 Build 0)  -->
<svg version="1.1" id="图层_1" xmlns="http://www.w3.org/2000/svg" xmlns:xlink="http://www.w3.org/1999/xlink" x="0px" y="0px"
	 viewBox="0 0 230 330" style="enable-background:new 0 0 230 330;" xml:space="preserve">
<path d="M28.3,206.2c0,0-0.2,21.7,19.1,16.7c16.2-4.5,12.7-16.7,12.7-16.7s14.1,0.9,13.6-13.5c-0.7-18.4-26.3-60.7-29-92.2
	c-4-45.8,16.2-74.5,16.2-74.5s-33,54.6,16,156.8c14.2,29.1,48.8,65,26.7,88.3c-4.1,4.8-24.1,20.3-33.7,0.5
	c-4.1-10.9,4.3-14.6,4.3-14.6s4.9,20,18.5,7.3c9.2-9.5,2.5-25.4-7.2-28.6s-28.5-2.1-33.5,13.1c0,0-14.4,36.5,16.8,56.1
	c9.4,6.7,20.8,0,20.8,0s13.3,31.8,44.2,13.8c22.8-14.6,13-32.2,13-32.2s26.4-7.8,8.8-46.3s-41.7-40.2-65.3-82.5
	c-33.4-57.3-27.7-68.4-27.7-68.4s27.1,80.5,78.9,113.6c23.9,14.3,42.6,8.4,50.8,0.2c7.3-7.3,5.3-16.4,5.3-16.4s38.6-16.6,21.6-47.7
	c-14.2-24.9-30.7-17.6-30.7-17.6s-1.9-24-29-22.3c-15.6,1-31.4,9.5-30.6,33.4c0.6,9.8,13,17.3,20.7,14.3c15.2-7,1.8-15.1,2.2-18
	c0.5-2.9,7.3-3.4,11.7,6.5s-2.7,17.3-8.5,20.5c-3.5,2-42.6,14.1-77.7-64C59.1,47.4,74.9,5.9,74.9,5.9S34.3,44.8,34.6,92.3
	c0.6,56,27.8,91.4-1.9,99.8c-12.3,3.5-10.3-16-10.3-16s10.9,15.5,17.9-4c3.4-13.5-12.5-18.8-17.5-17c-13,5.4-19.7,20.5-14.2,36.9
	S28,206.2,28,206.2"/>
</svg>
