<?xml version="1.0" encoding="utf-8"?>
<!-- Generator: Adobe Illustrator 22.0.0, SVG Export Plug-In . SVG Version: 6.00 Build 0)  -->
<svg version="1.1" id="图层_1" xmlns="http://www.w3.org/2000/svg" xmlns:xlink="http://www.w3.org/1999/xlink" x="0px" y="0px"
	 viewBox="0 0 130 320" style="enable-background:new 0 0 130 320;" xml:space="preserve">
<style type="text/css">
	.st0{fill:#FCEE21;}
</style>
<path class="st0" d="M48.6,85.7c0,0,4.4-25.1,26.5-10.9c18.9,12.8,7.3,35.5,1.4,41.2c-8.6,7.5-24,1.9-24,1.9s-24.5,19-40.3-3
	C-2.1,94.1,14,70.7,14,70.7S-5,50.1,13.1,28c13.2-14.6,33.1-6,33.1-6s23.5-26.9,54.8-0.2c38.4,38.2,24.3,99.5-0.2,124.8
	c-31,33.8-22.5,60-3,100.9c16.9,36.1-5.3,62.5-5.3,62.5s13-28.5-2.1-54.6c-10-18.8-49.1-55.6-19-111.4c40.9-70.5,18.5-93.1,6.9-98.2
	c-8.6-3.9-41.7-13.7-52,18.5c-11.3,33.3,20.7,45.3,32.1,42c9.4-2.7,13.5-12.7,9.7-19C61,77.2,48.6,85.7,48.6,85.7z"/>
</svg>
