<?xml version="1.0" encoding="utf-8"?>
<!-- Generator: Adobe Illustrator 22.0.0, SVG Export Plug-In . SVG Version: 6.00 Build 0)  -->
<svg version="1.1" id="图层_1" xmlns="http://www.w3.org/2000/svg" xmlns:xlink="http://www.w3.org/1999/xlink" x="0px" y="0px"
	 viewBox="0 0 440 310" style="enable-background:new 0 0 440 310;" xml:space="preserve">
<style type="text/css">
	.st0{fill:none;stroke:#000000;stroke-width:2;stroke-miterlimit:10;}
	.st1{fill:none;stroke:#000000;stroke-miterlimit:10;}
	.st2{opacity:0.4;fill:none;stroke:#000000;stroke-miterlimit:10;}
</style>
<g id="山1">
	<path class="st0" d="M10.6,205.8c0,0,31.4-115.9,71.1-94.8s24.3,56.4,55.7,48.7C173.9,150.1,149.9,4.1,214.2,6
		s74.9,239.5,105.7,233.7c30.7-5.8,27.7-148.2,60.3-127.1s49.2,110.4,49.2,110.4"/>
	<path class="st1" d="M14.5,214.7c0,0,30.7-115.3,69.8-94.5s24.3,56.7,55.3,49.2c36-9.4,11.9-150.9,75.4-149S288.8,247.7,319.1,242
		c30.3-5.7,30.8-139.1,63-118.4s46.5,105.9,46.5,105.9"/>
	<path class="st1" d="M18.5,223.7c0,0,29.9-114.6,68.6-94.2s24.3,57.1,54.8,49.7c35.5-9.3,11.2-146.2,73.9-144.4
		s72.6,215.1,102.5,209.5s33.9-130.1,65.7-109.7s43.9,101.3,43.9,101.3"/>
	<path class="st1" d="M22.4,232.6c0,0,29.2-114,67.3-94s24.3,57.5,54.4,50.2c35-9.1,10.6-141.5,72.4-139.7S287.9,252,317.4,246.5
		s37-121,68.4-101s41.3,96.8,41.3,96.8"/>
	<path class="st1" d="M26.4,241.5c0,0,28.5-113.4,66.1-93.7s24.2,57.9,54,50.7c34.6-9,10-136.8,70.9-135s70.3,190.6,99.4,185.3
		c29.1-5.4,40.2-112,71.1-92.3s38.7,92.2,38.7,92.2"/>
	<path class="st1" d="M30.3,250.4c0,0,27.8-112.7,64.8-93.4s24.2,58.2,53.5,51.2c34.1-8.8,9.3-132.1,69.4-130.3
		s69.1,178.4,97.8,173.1s43.3-102.9,73.8-83.6s36.1,87.6,36.1,87.6"/>
	<path class="st1" d="M34.2,259.4c0,0,27-112.1,63.6-93.1s24.2,58.6,53.1,51.7c33.6-8.6,8.7-127.4,67.9-125.7s67.9,166.2,96.2,161
		c28.3-5.2,46.4-93.8,76.5-74.9c30,19,33.4,83.1,33.4,83.1"/>
	<path class="st1" d="M38.2,268.3c0,0,26.3-111.5,62.3-92.8s24.2,59,52.6,52.2c33.1-8.5,8-122.7,66.4-121s66.8,154,94.6,148.9
		c27.9-5.1,49.5-84.8,79.1-66.2s30.8,78.5,30.8,78.5"/>
	<path class="st1" d="M42.1,277.2c0,0,25.6-110.8,61.1-92.6s24.2,59.4,52.2,52.7c32.6-8.3,7.4-118,64.9-116.3s65.6,141.7,93,136.8
		c27.5-5,52.7-75.7,81.8-57.5c29.2,18.3,28.2,74,28.2,74"/>
	<path class="st1" d="M46.1,286.1c0,0,24.9-110.2,59.8-92.3s24.1,59.8,51.8,53.3c32.1-8.1,6.8-113.3,63.4-111.7
		c56.6,1.6,64.4,129.5,91.5,124.6c27-4.9,55.8-66.7,84.5-48.8s25.6,69.4,25.6,69.4"/>
	<path class="st1" d="M50,295.1c0,0,24.2-109.6,58.6-92s24.1,60.1,51.3,53.8c31.6-8,6.1-108.6,61.9-107s63.3,117.3,89.9,112.5
		s58.9-57.6,87.2-40.1c28.3,17.5,23,64.9,23,64.9"/>
	<path class="st2" d="M54,304c0,0,23.4-108.9,57.3-91.7s24.1,60.5,50.9,54.3c31.1-7.8,5.5-103.9,60.4-102.3
		c54.9,1.6,62.1,105.1,88.3,100.4s62-48.5,89.9-31.4s20.3,60.3,20.3,60.3"/>
</g>
</svg>
