<?xml version="1.0" encoding="utf-8"?>
<!-- Generator: Adobe Illustrator 22.0.0, SVG Export Plug-In . SVG Version: 6.00 Build 0)  -->
<svg version="1.1" id="图层_1" xmlns="http://www.w3.org/2000/svg" xmlns:xlink="http://www.w3.org/1999/xlink" x="0px" y="0px"
	 viewBox="0 0 500 200" style="enable-background:new 0 0 500 200;" xml:space="preserve">
<style type="text/css">
	.st0{fill:none;stroke:#000000;stroke-width:2;stroke-miterlimit:10;}
	.st1{opacity:0.9455;fill:none;stroke:#000000;stroke-width:1.9091;stroke-miterlimit:10;}
	.st2{opacity:0.8909;fill:none;stroke:#000000;stroke-width:1.8182;stroke-miterlimit:10;}
	.st3{opacity:0.8364;fill:none;stroke:#000000;stroke-width:1.7273;stroke-miterlimit:10;}
	.st4{opacity:0.7818;fill:none;stroke:#000000;stroke-width:1.6364;stroke-miterlimit:10;}
	.st5{opacity:0.7273;fill:none;stroke:#000000;stroke-width:1.5455;stroke-miterlimit:10;}
	.st6{opacity:0.6727;fill:none;stroke:#000000;stroke-width:1.4545;stroke-miterlimit:10;}
	.st7{opacity:0.6182;fill:none;stroke:#000000;stroke-width:1.3636;stroke-miterlimit:10;}
	.st8{opacity:0.5636;fill:none;stroke:#000000;stroke-width:1.2727;stroke-miterlimit:10;}
	.st9{opacity:0.5091;fill:none;stroke:#000000;stroke-width:1.1818;stroke-miterlimit:10;}
	.st10{opacity:0.4545;fill:none;stroke:#000000;stroke-width:1.0909;stroke-miterlimit:10;}
	.st11{opacity:0.4;fill:none;stroke:#000000;stroke-miterlimit:10;}
</style>
<g id="山2">
	<g>
		<path class="st0" d="M19.6,87c0,0,91.3-127.4,177.7-61s188.6,126.9,262,126.9"/>
		<path class="st1" d="M24.5,92.1c0,0,90.2-126.8,176.5-60.4s186.3,124.8,259.6,124.8"/>
		<path class="st2" d="M29.4,97.2c0,0,89.1-126.1,175.3-59.7s184,122.8,257.2,122.8"/>
		<path class="st3" d="M34.2,102.2c0,0,88.1-125.4,174.1-59S390,163.9,463.1,163.9"/>
		<path class="st4" d="M39.1,107.3c0,0,87-124.8,172.9-58.3s179.4,118.6,252.4,118.6"/>
		<path class="st5" d="M44,112.4c0,0,85.9-124.1,171.7-57.7s177.1,116.5,250,116.5"/>
		<path class="st6" d="M48.9,117.4c0,0,84.9-123.4,170.5-57S394.2,174.9,467,174.9"/>
		<path class="st7" d="M53.8,122.5c0,0,83.8-122.8,169.3-56.3s172.5,112.4,245.2,112.4"/>
		<path class="st8" d="M58.6,127.6c0,0,82.7-122.1,168.1-55.7S397,182.2,469.6,182.2"/>
		<path class="st9" d="M63.5,132.7c0,0,81.6-121.4,166.9-55s167.9,108.2,240.4,108.2"/>
		<path class="st10" d="M68.4,137.7c0,0,80.6-120.8,165.7-54.3s165.6,106.1,238,106.1"/>
		<path class="st11" d="M73.3,142.8c0,0,79.5-120.1,164.5-53.7s163.3,104.1,235.6,104.1"/>
	</g>
	<g>
		<path class="st0" d="M275.2,77.6c0,0,66.8-18.8,101.8-57.3s99.7,43.5,99.7,43.5"/>
		<path class="st1" d="M278.7,79.9c0,0,65-18.4,99.5-56.9c35-38.9,98.8,43.4,98.8,43.4"/>
		<path class="st2" d="M282.3,82.1c0,0,63.1-18,97.1-56.5c35-39.2,97.9,43.3,97.9,43.3"/>
		<path class="st3" d="M285.8,84.3c0,0,61.3-17.6,94.8-56.1c35.1-39.6,97.1,43.2,97.1,43.2"/>
		<path class="st4" d="M289.3,86.5c0,0,59.4-17.2,92.5-55.7C417-9.1,478,73.9,478,73.9"/>
		<path class="st5" d="M292.9,88.8c0,0,57.6-16.8,90.2-55.3c35.2-40.3,95.3,43,95.3,43"/>
		<path class="st6" d="M296.4,91c0,0,55.7-16.4,87.9-54.9C419.5-4.6,478.7,79,478.7,79"/>
		<path class="st7" d="M299.9,93.2c0,0,53.9-16,85.6-54.5c35.2-41,93.5,42.7,93.5,42.7"/>
		<path class="st8" d="M303.5,95.5c0,0,52.1-15.6,83.3-54.1C422,0,479.4,84,479.4,84"/>
		<path class="st9" d="M307,97.7c0,0,50.2-15.2,80.9-53.7c35.3-41.8,91.8,42.5,91.8,42.5"/>
		<path class="st10" d="M310.5,99.9c0,0,48.4-14.7,78.6-53.2c35.4-42.1,90.9,42.4,90.9,42.4"/>
		<path class="st11" d="M314.1,102.2c0,0,46.5-14.3,76.3-52.8c35.4-42.5,90,42.3,90,42.3"/>
	</g>
</g>
</svg>
