<?xml version="1.0" encoding="utf-8"?>
<!-- Generator: Adobe Illustrator 22.0.0, SVG Export Plug-In . SVG Version: 6.00 Build 0)  -->
<svg version="1.1" id="图层_1" xmlns="http://www.w3.org/2000/svg" xmlns:xlink="http://www.w3.org/1999/xlink" x="0px" y="0px"
	 viewBox="0 0 510 290" style="enable-background:new 0 0 510 290;" xml:space="preserve">
<style type="text/css">
	.st0{fill:none;stroke:#000000;stroke-width:2;stroke-miterlimit:10;}
	.st1{opacity:0.9455;fill:none;stroke:#000000;stroke-width:1.9091;stroke-miterlimit:10;enable-background:new    ;}
	.st2{opacity:0.8909;fill:none;stroke:#000000;stroke-width:1.8182;stroke-miterlimit:10;enable-background:new    ;}
	.st3{opacity:0.8364;fill:none;stroke:#000000;stroke-width:1.7273;stroke-miterlimit:10;enable-background:new    ;}
	.st4{opacity:0.7818;fill:none;stroke:#000000;stroke-width:1.6364;stroke-miterlimit:10;enable-background:new    ;}
	.st5{opacity:0.7273;fill:none;stroke:#000000;stroke-width:1.5455;stroke-miterlimit:10;enable-background:new    ;}
	.st6{opacity:0.6727;fill:none;stroke:#000000;stroke-width:1.4545;stroke-miterlimit:10;enable-background:new    ;}
	.st7{opacity:0.6182;fill:none;stroke:#000000;stroke-width:1.3636;stroke-miterlimit:10;enable-background:new    ;}
	.st8{opacity:0.5636;fill:none;stroke:#000000;stroke-width:1.2727;stroke-miterlimit:10;enable-background:new    ;}
	.st9{opacity:0.5091;fill:none;stroke:#000000;stroke-width:1.1818;stroke-miterlimit:10;enable-background:new    ;}
	.st10{opacity:0.4545;fill:none;stroke:#000000;stroke-width:1.0909;stroke-miterlimit:10;enable-background:new    ;}
	.st11{opacity:0.4;fill:none;stroke:#000000;stroke-miterlimit:10;enable-background:new    ;}
	.st12{opacity:0.9;fill:none;stroke:#000000;stroke-width:1.8333;stroke-miterlimit:10;enable-background:new    ;}
	.st13{opacity:0.8;fill:none;stroke:#000000;stroke-width:1.6667;stroke-miterlimit:10;enable-background:new    ;}
	.st14{opacity:0.7;fill:none;stroke:#000000;stroke-width:1.5;stroke-miterlimit:10;enable-background:new    ;}
	.st15{opacity:0.6;fill:none;stroke:#000000;stroke-width:1.3333;stroke-miterlimit:10;enable-background:new    ;}
	.st16{opacity:0.5;fill:none;stroke:#000000;stroke-width:1.1667;stroke-miterlimit:10;enable-background:new    ;}
</style>
<g id="山3">
	<g>
		<path class="st0" d="M31.4,213.4c0,0,60-30.8,107.3-85.5C184.8,74.7,201.1,8.2,233.6,10s18.7,129.8,53,111.1s41.8-53.7,63-53
			c13.9,1.2,30.1,54.8,57.1,93.3c29.8,42.5,70.4,69.9,85.2,63.3"/>
		<path class="st1" d="M42.7,216.7c2.1-2.2,57.8-32.5,101-84.6c17.3-20.9,30.1-43.2,41.9-61.6c17.8-27.8,30.6-48.3,49.1-45.4
			c30.5,4.7,18.9,124.6,52,106.6C319.4,114,327.6,81.2,348,81c9.6-0.1,19.9,20.8,33.2,45.4c6.9,12.7,14.5,27.1,23.5,40.2
			c27.6,40.3,65.6,67.3,80.3,63.1"/>
		<path class="st2" d="M54,220.1c4.2-4.5,55.6-34.3,94.6-83.7C165,115.6,177,94,189,77.4c17.6-24.7,29.6-41.7,46.9-37.2
			c28.7,7.4,19.1,119.5,51,102.2C318,125.6,326.8,95,346.5,94c9.9-0.9,20.4,17.2,33.4,39.4c6.8,11.5,14.1,25.4,22.8,38.5
			c25.4,38.1,60.7,64.7,75.5,62.8"/>
		<path class="st3" d="M65.3,223.4c6.3-6.7,53.3-36.1,88.2-82.8c15.5-20.7,26.8-41.4,38.8-56.4c17.4-21.6,28.5-35.2,44.7-29
			c26.8,10.2,19.3,114.3,49.9,97.8c29.5-15.9,38.9-44.2,58-46.1c10.3-1.8,20.9,13.6,33.6,33.3c6.7,10.3,13.7,23.8,22.2,36.8
			c23.3,35.9,55.9,62,70.6,62.6"/>
		<path class="st4" d="M76.6,226.7c8.4-8.9,50.9-38,81.9-82c14.5-20.6,25-40.4,37.3-53.7c17-18.4,27.4-28.6,42.5-20.7
			c24.9,13,19.5,109.2,48.9,93.4c27.9-15,38-41.1,56.3-43.8c10.7-2.7,21.4,10,33.8,27.3c6.6,9,13.3,22.1,21.6,35.2
			c21.2,33.7,51.1,59.4,65.8,62.4"/>
		<path class="st5" d="M87.8,230c10.5-11.2,48.4-40,75.5-81.1c13.6-20.6,23.2-39.5,35.7-51.1c16.5-15.3,26.3-22,40.3-12.4
			c23,15.8,19.7,104,47.9,89c26.3-14,37-38,54.6-41.5c11-3.5,21.9,6.4,34,21.3c6.5,7.8,12.9,20.4,20.9,33.5
			c19.2,31.4,46.2,56.8,61,62.1"/>
		<path class="st6" d="M99.1,233.3c12.6-13.4,45.8-42.1,69.2-80.2c12.6-20.6,21.3-38.6,34.2-48.5c15.9-12.3,25.3-15.4,38-4.1
			c21.1,18.6,19.9,98.8,46.8,84.6c24.7-13.1,36.1-34.8,52.9-39.2c11.4-4.4,22.4,2.8,34.2,15.3c6.4,6.6,12.5,18.7,20.3,31.9
			c17.2,29.1,41.4,54.2,56.1,61.9"/>
		<path class="st7" d="M110.4,236.6c14.7-15.6,43.2-44.3,62.8-79.3c11.6-20.6,19.3-37.7,32.7-45.9c15.2-9.3,24.2-8.9,35.8,4.1
			c19.2,21.4,20.1,93.7,45.8,80.2c23.1-12.2,35.1-31.7,51.2-36.9c11.8-5.2,22.9-0.8,34.4,9.2c6.3,5.4,12.2,17,19.7,30.2
			c15.2,26.8,36.5,51.6,51.3,61.6"/>
		<path class="st8" d="M121.7,240c16.7-17.9,40.3-46.6,56.5-78.5c10.4-20.7,17.3-36.9,31.1-43.3c14.3-6.5,23.1-2.3,33.6,12.4
			c17.3,24.2,20.3,88.5,44.8,75.8c21.5-11.2,34.2-28.5,49.5-34.6c12.1-6.1,23.4-4.4,34.6,3.2c6.2,4.1,11.8,15.3,19,28.5
			c13.3,24.5,31.7,49,46.5,61.4"/>
		<path class="st9" d="M133,243.3c18.8-20.1,37.4-48.9,50.1-77.6c9.2-20.8,15.1-36.4,29.6-40.6c13.4-4,22,4.3,31.4,20.6
			c15.4,27,20.5,83.4,43.7,71.4c19.9-10.3,33.2-25.4,47.8-32.3c12.5-6.9,23.9-8,34.8-2.8c6.1,2.9,11.5,13.5,18.4,26.9
			c11.4,22.1,26.9,46.4,41.6,61.2"/>
		<path class="st10" d="M144.3,246.6c20.9-22.4,34.2-51.3,43.7-76.7c7.8-21,13-36.2,28-38c12.6-1.6,21,10.9,29.1,28.9
			c13.5,29.7,20.6,78.2,42.7,67c18.3-9.3,32.3-22.3,46.1-30c12.9-7.8,24.4-11.6,35-8.8c6,1.7,11.3,11.8,17.8,25.2
			c9.6,19.7,22,43.8,36.8,60.9"/>
		<path class="st11" d="M155.5,249.9c45-48,32.2-112.9,63.9-111.3c31.6,1.7,35.1,116.6,68.6,99.7s59-43.1,79.7-42.6
			c13.6,1.1,22.8,49.5,49.1,84.2"/>
	</g>
	<g>
		<path class="st0" d="M18.2,161.6c0,0,20.1-27.9,29.3-59c6.1-20.8,9.4-41.8,25.4-41.2s16.2,42.3,29.2,38.4
			c12.9-4,14.6-23.2,23.7-21.8c6.9,1.1,17,19.2,21.4,27.7"/>
		<path class="st12" d="M19.7,171c0,0,19.8-27.9,28.7-59c6-20.8,9.2-41.4,25-40.7c14.6,0.6,15.7,36.3,27.2,33.7
			c11.3-2.5,13.1-18.3,21-16.2c6.4,1.7,15.3,18,19.2,25.3"/>
		<path class="st13" d="M21.2,180.4c0,0,19.4-27.9,28.2-59c5.9-20.8,9.1-40.9,24.5-40.3c13.2,0.5,15.2,30.2,25.2,29
			c9.6-1.1,11.6-13.3,18.2-10.7c5.7,2.2,12.9,15.5,16.5,22"/>
		<path class="st14" d="M22.8,189.8c0,0,19-27.9,27.6-59c5.8-20.8,9-40.5,24.1-39.9c11.7,0.5,14.6,25.1,23.3,24.4
			c7.9-0.6,10.1-8.2,15.4-5.1c5.2,2.9,11.1,14.4,14.3,19.6"/>
		<path class="st15" d="M24.3,199.2c0,0,18.6-27.9,27-59c5.6-20.8,8.8-40,23.6-39.4c10.3,0.4,13.9,17.9,21.3,19.7
			c6.1,1.5,8.6-2.9,12.7,0.4c4.8,3.9,10.3,13.3,12.8,17.2"/>
		<path class="st16" d="M25.8,208.6c0,0,18.2-27.9,26.4-59c5.5-20.8,8.7-39.6,23.2-39c8.9,0.4,13.3,11.4,19.4,15.1
			c4.4,2.6,6.9,2.4,9.9,6c3.8,4.6,7.2,11.6,9.5,14.5"/>
		<path class="st11" d="M27.4,218c0,0,17.8-27.9,25.9-59c5.4-20.8,8.6-39.2,22.7-38.5c19.4,0.9,26.3,29.9,31.8,34.1"/>
	</g>
</g>
</svg>
