<?xml version="1.0" encoding="utf-8"?>
<!-- Generator: Adobe Illustrator 22.0.0, SVG Export Plug-In . SVG Version: 6.00 Build 0)  -->
<svg version="1.1" id="图层_1" xmlns="http://www.w3.org/2000/svg" xmlns:xlink="http://www.w3.org/1999/xlink" x="0px" y="0px"
	 viewBox="0 0 480 175" style="enable-background:new 0 0 480 175;" xml:space="preserve">
<style type="text/css">
	.st0{fill:none;stroke:#000000;stroke-width:2;stroke-miterlimit:10;}
	.st1{opacity:0.9455;fill:none;stroke:#000000;stroke-width:1.9091;stroke-miterlimit:10;}
	.st2{opacity:0.8909;fill:none;stroke:#000000;stroke-width:1.8182;stroke-miterlimit:10;}
	.st3{opacity:0.8364;fill:none;stroke:#000000;stroke-width:1.7273;stroke-miterlimit:10;}
	.st4{opacity:0.7818;fill:none;stroke:#000000;stroke-width:1.6364;stroke-miterlimit:10;}
	.st5{opacity:0.7273;fill:none;stroke:#000000;stroke-width:1.5455;stroke-miterlimit:10;}
	.st6{opacity:0.6727;fill:none;stroke:#000000;stroke-width:1.4545;stroke-miterlimit:10;}
	.st7{opacity:0.6182;fill:none;stroke:#000000;stroke-width:1.3636;stroke-miterlimit:10;}
	.st8{opacity:0.5636;fill:none;stroke:#000000;stroke-width:1.2727;stroke-miterlimit:10;}
	.st9{opacity:0.5091;fill:none;stroke:#000000;stroke-width:1.1818;stroke-miterlimit:10;}
	.st10{opacity:0.4545;fill:none;stroke:#000000;stroke-width:1.0909;stroke-miterlimit:10;}
	.st11{opacity:0.4;fill:none;stroke:#000000;stroke-miterlimit:10;}
</style>
<g>
	<path class="st0" d="M12.2,107.3c0,0,33.5-62.9,72.4-20.2c68.2,63.5,66.8-90,124.2-81.5c24.9,3.7,35.1,73.9,72,93.4
		c48.2,25.4,77.3-36,130.3-35.5s56.7,31.3,56.7,31.3"/>
	<path class="st1" d="M12.9,113c0,0,33.3-62.9,72-20.2c67.9,63.5,66.5-90,123.6-81.5c24.8,3.7,35,73.9,71.7,93.4
		c48,25.4,76.9-36,129.7-35.5s56.5,31.3,56.5,31.3"/>
	<path class="st2" d="M13.5,118.7c0,0,33.2-62.9,71.7-20.2c67.6,63.5,66.2-90,123.1-81.5c24.6,3.7,34.8,73.9,71.4,93.4
		c47.8,25.4,76.6-36,129.2-35.5s56.2,31.3,56.2,31.3"/>
	<path class="st3" d="M14.2,124.4c0,0,33-62.9,71.4-20.2c67.3,63.5,65.9-90,122.5-81.5c24.5,3.7,34.7,73.9,71.1,93.4
		c47.6,25.4,76.2-36,128.6-35.5s56,31.3,56,31.3"/>
	<path class="st4" d="M14.9,130c0,0,32.9-62.9,71.1-20.2c67,63.5,65.6-90,121.9-81.5c24.4,3.7,34.5,73.9,70.7,93.4
		c47.4,25.4,75.9-36,128-35.5s55.7,31.3,55.7,31.3"/>
	<path class="st5" d="M15.6,135.7c0,0,32.7-62.9,70.7-20.2C153,179,151.6,25.4,207.7,34c24.3,3.7,34.3,73.9,70.4,93.4
		c47.1,25.4,75.5-36,127.4-35.5s55.4,31.3,55.4,31.3"/>
	<path class="st6" d="M16.2,141.4c0,0,32.6-62.9,70.4-20.2c66.4,63.5,65-90,120.8-81.5c24.2,3.7,34.2,73.9,70.1,93.4
		c46.9,25.4,75.2-36,126.8-35.5s55.2,31.3,55.2,31.3"/>
	<path class="st7" d="M16.9,147.1c0,0,32.4-62.9,70.1-20.2c66.1,63.5,64.7-90,120.3-81.5c24.1,3.7,34,73.9,69.8,93.4
		c46.7,25.4,74.8-36,126.2-35.5s54.9,31.3,54.9,31.3"/>
	<path class="st8" d="M17.6,152.7c0,0,32.3-62.9,69.8-20.2c65.8,63.5,64.4-90,119.7-81.5c24,3.7,33.9,73.9,69.5,93.4
		c46.5,25.4,74.5-36,125.7-35.5s54.7,31.3,54.7,31.3"/>
	<path class="st9" d="M18.3,158.4c0,0,32.1-62.9,69.4-20.2c65.5,63.5,64.1-90,119.2-81.5c23.9,3.7,33.7,73.9,69.1,93.4
		c46.3,25.4,74.1-36,125.1-35.5s54.4,31.3,54.4,31.3"/>
	<path class="st10" d="M18.9,164.1c0,0,32-62.9,69.1-20.2c65.2,63.5,63.8-90,118.6-81.5c23.7,3.7,33.6,73.9,68.8,93.4
		c46.1,25.4,73.8-36,124.5-35.5c50.7,0.5,54.2,31.3,54.2,31.3"/>
	<path class="st11" d="M19.6,169.8c0,0,31.8-62.9,68.8-20.2c64.9,63.5,63.5-90,118.1-81.5c23.6,3.7,33.4,73.9,68.5,93.4
		c45.9,25.4,73.4-36,123.9-35.5s53.9,31.3,53.9,31.3"/>
</g>
</svg>
