<?xml version="1.0" encoding="utf-8"?>
<!-- Generator: Adobe Illustrator 22.0.0, SVG Export Plug-In . SVG Version: 6.00 Build 0)  -->
<svg version="1.1" id="图层_1" xmlns="http://www.w3.org/2000/svg" xmlns:xlink="http://www.w3.org/1999/xlink" x="0px" y="0px"
	 viewBox="0 0 85 88" style="enable-background:new 0 0 85 88;" xml:space="preserve">
<style type="text/css">
	.st0{fill:#CF3004;}
</style>
<g>
	<path class="st0" d="M27.5,38.9c1.2-2.6,1.9-5.4,1.6-8.3c-0.7-6-7.7-10-12.9-7.4c-4.1,2.1-5.4,7.8-2.4,11.2
		c1.1,1.3,2.8,1.8,4.3,1.3c1.4-0.5,2.5-1.9,2.5-3.1c-0.4,0.6-0.8,1.5-1.5,2c-0.7,0.5-1.8,0.7-2.6,0.7c-1.5-0.1-2.3-1.2-2.7-2.6
		c-0.8-2.4-0.5-4.8,1.3-6.7c1.8-1.9,4-2.2,6.4-1.4c3.9,1.2,6.2,5.2,5.6,9.6C26,41,19.5,44.5,13.1,41.6C7.6,39,4.5,32.7,5.9,26.6
		c1.3-5.9,6.7-10.1,12.7-10.1c6.2,0,11.4,4.3,12.7,10.3C32.3,31.5,30.9,35.6,27.5,38.9z"/>
	<path class="st0" d="M77.4,31.4c-0.2-0.7-0.2-1.5-0.5-2.1c-1-2.1-3.5-2.9-5.8-2c-3.1,1.2-4.8,3.7-5.1,7c-0.1,1.4,0.2,2.9,0.2,4.4
		c0,0.4-0.1,1-0.4,1.3c-1,1-2.4,1.2-3.8,1.3c0.3-2.1,0.7-4,0.8-6c0.1-3.3,0.3-6.6,0-9.9c-0.5-5.2,2.8-10,7.7-10.7
		c1.9-0.3,3.8,0.2,5.4,1.1c4.5,2.5,7.7,6,7.9,11.4c0.2,5.3-1.7,9.7-6.2,12.7c-1,0.7-2.3,1.2-3.5,1.4c-3,0.6-5.6-1.3-5.9-4.4
		c-0.3-2.5,0.2-4.9,1.9-6.9c0.6-0.6,1.3-1.2,2.1-1.5c2.2-1.1,5.1,0.6,5,3.1C77.1,31.4,77.2,31.4,77.4,31.4z"/>
	<path class="st0" d="M37.5,11.9c-2.3-0.4-4.2,1.7-4.5,4.1c-0.5,4.8,3.4,8.4,8.4,7.7c0.4-0.1,0.9-0.1,1.4,0
		c-1.5,0.9-3.1,1.7-4.6,2.6c-1.5,0.9-3,1.8-4.6,2.7c0-1.1,0.1-2.1,0-3.2c-0.4-3.4-2.1-6.1-5.2-7.6c-6.3-3.1-5.2-11,0.1-14
		c4.7-2.7,13.3-2.6,17.2,4.4c1.5,2.7,1.7,5.7,1,8.7c-0.3,1.3-1.1,2.3-2.2,3c-2.2,1.4-4.7,1.6-7.1,0.8c-2.7-0.9-4.1-4.6-2.8-7.2
		C35.1,12.8,36.2,12.2,37.5,11.9z"/>
	<path class="st0" d="M65.9,51.2c-1.2,1.1-1.6,2.3-1.2,3.6c0.5,1.3,1,2.9,2.1,3.8c4.3,3.7,1.5,8.1-2.6,9.4c0.1-0.9,0.2-1.8,0.2-2.6
		c0.1-3-1-5.7-3-8c-0.8-0.9-1.5-1.9-2.1-3c-1.9-3.7-1-7.6,2.3-10.1c3.4-2.5,7.1-2.6,10.8-0.5c3.6,2,5.5,5,5.1,9.3
		c-0.3,3.5-2.4,5.8-5.4,6.1C67.4,59.6,64.4,55.9,65.9,51.2z"/>
	<path class="st0" d="M38.8,68.1c2.4-1,4.6-1.6,6.2-3.6c0.4,1.9,0.9,3.6,2.3,4.8c1.5,1.3,3.2,1.4,5,0.9c-0.1-0.1-0.1-0.2-0.2-0.2
		c-4.6-1.3-5.5-5.2-4.7-8.4c0.9-3.4,4.7-5.4,8.4-4.5c5.1,1.2,7.4,5.3,5.9,10.6c-0.8,2.9-2.5,5-5.2,6.4c-5.5,2.8-12.1,1.7-15.7-2.7
		C40.1,70.4,39.5,69.2,38.8,68.1z"/>
	<path class="st0" d="M26.2,81.7c2.2-3.9,2.7-8.2,3.3-12.5c0.6-4.5,3.2-7.6,7-9.9c2.1-1.2,4.2-2.5,6-4.1c5-4.7,5.8-10.7,4.1-17.1
		c-0.1-0.5-0.3-1.1-0.5-1.6c-0.2-0.5-0.4-0.9-0.5-1.5c1.5,1.5,2.6,3.4,3.5,5.3c4.1,9.3,0.3,20.4-8.9,24.7
		c-4.9,2.3-8.3,5.6-10.2,10.6C29.1,78,28,80.1,26.2,81.7z"/>
	<path class="st0" d="M45.1,4.7c5.6-4.8,14.1-3,16.9,3.6c0.4,0.9,0.4,1.9,0.6,2.9c0.1,0.8-0.3,1-1,1c-3.2,0.1-6.3,0.7-9.1,2.4
		c-1.3,0.8-2.5,2-3.7,3C49.8,12.9,49.3,8.3,45.1,4.7z"/>
	<path class="st0" d="M45,32.3c0.4-6.1,2.7-10.9,8-13.8c2.7-1.5,5.6-2.5,8.4-3.8c0.8,6.3-2.1,15.7-10.6,17.2
		c1.7-1.6,2.2-3.5,2.7-5.5c0.6-2.4,2-4.4,3.4-6.5c-0.5,0.3-1,0.6-1.5,0.9c-1.8,1.5-3.3,3.4-3.9,5.6C50.5,29.7,48,31,45,32.3z"/>
	<path class="st0" d="M7.8,78.1c0.1-0.4,0.2-0.6,0.3-0.8c0.7-1.6,2.2-2.5,3.9-2.1c1.7,0.4,2.7,1.8,2.6,3.6c-0.1,2.9-2.5,4.8-5.6,4.7
		c-2.7-0.1-4.5-1.3-5.4-3.8c-1.9-5.3-1.3-10.3,1.6-15.1c2.8-4.8,5.4-9.6,6.9-15c0.3-1.1,0.5-2.2,0.7-3.3c0.1,0,0.2,0,0.3,0
		c-0.2,2.1-0.3,4.1-0.6,6.2c-0.8,4.8-2.6,9.3-4.8,13.6c-1.2,2.4-2.3,4.9-2.1,7.7C5.7,75.5,6.2,77,7.8,78.1z"/>
	<path class="st0" d="M60.1,29.8c0.5,9.1-0.5,17.8-7.6,24.5c1.2-7,1.2-13.8-4-19.7C53,34.6,56.9,33.1,60.1,29.8z"/>
	<path class="st0" d="M17.1,75.2c4.7-0.7,5.8-4.6,7.7-8c0.3,1.4,0.7,2.8,0.8,4.2c0.2,4.7-0.6,9.1-4.1,12.6c-2.6,2.6-5.9,3-9.8,2.5
		C17.2,84.3,17.8,80,17.1,75.2z"/>
	<path class="st0" d="M28.8,43.3c0.5-4,3.7-7.2,7.4-7.6c0.8-0.1,1.6-0.1,2.4-0.2c0.7-0.1,1.5-0.3,2.3-0.5c-0.2,1.2-0.9,2.3-2,2.9
		c-0.8,0.5-1.7,0.9-2.6,1.1C33.3,39.5,30.7,40.5,28.8,43.3z"/>
</g>
</svg>
