<?xml version="1.0" encoding="utf-8"?>
<!-- Generator: Adobe Illustrator 22.0.0, SVG Export Plug-In . SVG Version: 6.00 Build 0)  -->
<svg version="1.1" id="图层_1" xmlns="http://www.w3.org/2000/svg" xmlns:xlink="http://www.w3.org/1999/xlink" x="0px" y="0px"
	 viewBox="0 0 38 52" style="enable-background:new 0 0 38 52;" xml:space="preserve">
<style type="text/css">
	.st0{fill:#CF3004;}
</style>
<g>
	<path class="st0" d="M4.3,39.2c-1.4-1.4-2.5-3-3.2-5c0.7,1.1,1.3,2.3,2.6,3c-1.4-2.2-2.5-4.5-2.9-7.1c0.8,1.6,1.6,3.2,2.9,4.5
		c0-0.2,0.1-0.3,0.1-0.4c-1-3.3-0.1-6.2,1.6-9c2.3-3.6,5.7-5.9,9.7-7.3c3.4-1.2,6.8-2.2,9.9-4.1c3-1.8,5.5-4,6.6-7.5
		c0.5-1.5,0.6-3,0.4-5.2c0.3,0.9,0.8,1.7,1,2.6c0.9,3.6,0.5,6.9-1.7,10c-1.2,1.7-2.9,2.7-4.7,3.5c-2.7,1.3-5.4,2.5-8.2,3.8
		c-3.6,1.7-7.1,3.5-9.8,6.5c-1.5,1.7-2.5,3.7-3.1,5.9C5,35.2,4.7,37.2,4.3,39.2z"/>
	<path class="st0" d="M7.3,38.7c0.2-5.2,2.6-9.1,6.9-12c2.2-1.5,4.6-2.7,6.9-3.9c3.4-1.7,6.9-3.1,10-5.3c3.3-2.4,4.8-5.7,4.2-9.8
		c-0.2-1.4-0.7-2.8-1-4.2c-0.1-0.2-0.1-0.5-0.1-0.8c0.2,0.3,0.4,0.7,0.6,1C36,6,37,8.4,37.2,11c0.3,3.9-1.3,6.8-4.2,9.2
		c-2,1.6-4.3,2.6-6.7,3.6c-3.4,1.4-6.8,2.7-10.1,4.2c-2.8,1.3-5,3.5-6.4,6.3c-0.1,0.3-0.2,0.6-0.3,0.9c1.8,0.4,3.4,0.4,5-0.6
		c-0.3,0.6-1.2,1.1-2.2,1.2c-0.8,0.1-1.5,0.1-2.3,0.1c-0.7,0.1-1.3,0.4-1.8,1.1c0.6-0.2,1.2-0.4,1.7-0.5c0.6,0,1.1,0.2,1.6,0.4
		c-0.7,0.2-1.5,0.3-2.2,0.5C8.6,37.9,8,38.3,7.3,38.7z"/>
	<path class="st0" d="M34.2,6.8c0.5,2.7,0.3,5.3-1.2,7.7c-1.1,1.8-2.8,3-4.7,3.9c-3.9,2.1-7.8,4-11.6,6c-1.3,0.7-2.6,1.5-3.8,2.3
		c-3.4,2.2-5.2,5.5-5.9,9.4c-0.2,1.3-0.3,2.6-0.4,3.8c-0.1,1.4,0.4,1.8,1.8,1.8c-1.2,3.1-2.4,6.2-3.6,9.3c0,0-0.1,0-0.1,0
		c0-0.2,0-0.4,0-0.6c-0.1-5,0.2-9.9,1.2-14.8c1.1-5.4,4.2-9.3,9-11.8c3.8-1.9,7.6-3.6,11.4-5.5c1.5-0.8,3-1.6,4.4-2.7
		c2.3-1.8,3.3-4.4,3.5-7.3C34.2,7.8,34.2,7.3,34.2,6.8z M6.2,43.7c-0.1,0-0.2,0-0.3,0c-0.2,0.3-0.6,0.5-0.6,0.9
		C5.1,45,5.5,45.4,6,45.3c0.3-0.1,0.7-0.5,0.7-0.8C6.8,44.3,6.4,44,6.2,43.7z"/>
</g>
</svg>
