<?xml version="1.0" encoding="utf-8"?>
<!-- Generator: Adobe Illustrator 22.0.0, SVG Export Plug-In . SVG Version: 6.00 Build 0)  -->
<svg version="1.1" id="图层_1" xmlns="http://www.w3.org/2000/svg" xmlns:xlink="http://www.w3.org/1999/xlink" x="0px" y="0px"
	 viewBox="0 0 160 210" style="enable-background:new 0 0 160 210;" xml:space="preserve">
<style type="text/css">
	.st0{fill:#CF3004;}
</style>
<g>
	<path class="st0" d="M130.9,1.7c6,0,16.2,20.6,14.1,35.9c-1.9-4.3-6-11.6-6.4-11.2c-0.4,0.3,0.6,9,1.1,14.7
		c-2.4-1.8-3.4-2.9-4.7-3.4c-1.5-0.6-3.8-1.5-4.7-0.8c-1.3,0.9-2.4,3.5-2,4.9c1.1,4,3,7.8,5,12.8c-3.6-1.6-6.7-2.7-9.4-4.4
		c-5.3-3.3-10.6-5.1-16.3-1.1c-5.1,3.5-7.9,11.4-6.4,17.9c1.4,6,3,6.9,8.9,4.8c1.5-0.5,3.1-1.1,4-1.5c-0.3,2-1.7,6.1-1,6.5
		c2.4,1.4,5.5,1.4,8.4,2c-0.7,4.8-10,8.6-1,15.6c-4.1,1.5-7.4,2.7-10.8,3.9c-1,0.4-1.9,0.9-2.8,1.3c0.8,0.9,1.5,2.2,2.5,2.5
		c2.1,0.6,4.4,0.7,7.2,2.2c-3.2,2.1-6.3,4.2-9.7,6.4c1.6,1.2,3.5,2.6,5.7,4.2c-3.4,1.4-6.5,2.7-9.8,4.1c14.5,8.5,12.2,23.1,8.3,35.8
		c-0.4-4.5-0.7-8.8-1.3-13c-1.5-9.8-6.5-14.5-16.3-16c-16.2-2.5-26.9-11.6-30.1-25.9C61,90.6,63,82,67.8,74.1
		c1.3-2.2,2.9-4.3,4.8-7.1c-11.3-0.4-20.1,4.5-30.1,10.6c1.7-3.7,2.6-6.3,4-8.6c9.2-15.1,21.9-26.2,38.9-31.6
		c10.2-3.2,18.3-8.8,24.4-17.6c4.7-6.7,7.2-7.3,16-4c-1-2.4-1.6-5.3-2.4-5.4c-2.5-0.3-5.2,0.6-7.4,0.9
		C116.8,7.6,124.9,1.7,130.9,1.7z M79.7,74.1c-7.3,4.3-10.4,10.1-10.3,17.4c0.1,7.3,3.2,13.4,8,17.5c0.7-4.6,0.5-9.7,2.4-13.6
		c2.1-4.2,9.4-12.1,9.3-12.6c-4.4,0.6-8.7,1.3-13.4,1.9C76.8,81.9,78.1,78.5,79.7,74.1z M92.6,41.9c-7.1,3.4-11.7,8.6-15.8,15.3
		C88.7,53.4,90.8,51.4,92.6,41.9z M87.2,110.2c2.1-4.5,4.1-8.9,6.4-14.1c-0.2-0.2-1-1.5-1.9-2.8C85.6,97.6,84.3,102.4,87.2,110.2z"
		/>
	<path class="st0" d="M158.2,56.5c-0.3,3.9-5.8,8.9-9.2,13c-10.6,13-13.4,28.6-15.4,44.5c-0.1,0.6-0.2,1.3-0.3,1.9
		c0,0.1-0.2,0.2-0.1,0.1c-0.8-10.7-1.1-21.6-2.4-32.4c-1.1-8.8-5.4-16.3-12.7-21.7c-6.6-4.8-8.6-4.5-13.4,2
		c-0.9-8,6.2-13.2,14.8-10.6c4.5,1.4,8.9,3.2,13.3,4.7c3.2,1.1,6,0.7,8.3-2.1c1.8-2.1,4.1-3.7,6-5.7c2.9-2.9,5.4-6.1,3.3-10.9
		C151,39.3,158.6,52.6,158.2,56.5z"/>
	<path class="st0" d="M25.5,81.8C30.2,80.5,34.4,77,38,75c0,2.8,0,6.8,0,12.2c4.8-3.6,8.2-6.5,11.9-9c3.8-2.5,7.8-4.7,12.1-6.7
		c-4.7,7.5-5.2,15.4-3.4,24.3c-10-12.1-16.9-11.9-25.4,0.1c-2.1-1.5-4-3.3-6.3-4.4c-2.7-1.3-5.7-2.4-8.7-2.7
		c-4.4-0.5-7.8,2.6-8.3,6.6c-0.5,3.7,2.6,7.9,7,7.9c5.5-0.1,11-1.5,17.6-2.5c4.2,7.3,11.7,8.1,20.5,4c-7.3,7.5-15.9,10.4-26,7.9
		c-10.8-2.7-20.1-8.2-27.2-16.9C1.8,95,16.6,84.2,25.5,81.8z"/>
	<path class="st0" d="M81.6,196.7c8.7-7.7,18.2-14.8,16.2-28.6c-0.9-6.7-4.1-13.2-8.8-16.1c0.6,15.9-5.9,27.9-18.7,36.7
		c3.1-5.9,6.5-11.4,8.9-17.2c2.5-6.2,1.8-12.5-2.8-19.3c2.9,1.2,4.6,2,6.4,2.8c-5.2-10.6-15.6-14.6-25.7-19.4
		c3.3,5.6,6.4,11.4,9.9,16.8c0.5,0.8,2.9,0.3,4.5,0.5c0.2,10.7-7.7,21.8-19.6,24.8c9.8-8.5,8.8-16.9,2.5-25.8
		c1.8,1.7,3.5,3.4,5.7,5.4c-2-9.7-5.3-17.9-13.2-21.2c3.7-3.7,10.9-13.1,10.4-13.8c-7.1,1.8-14.3,3.3-20.5,0
		c7.4-3.5,15.1-7.2,23.2-11c0.1,0.2,0.7,1,1.2,2c3.7,7.6,9.6,12.9,17.1,16.8c11.2,5.8,19,14.6,22.5,26.9
		C105.7,173.9,99,188.3,81.6,196.7z"/>
	<path class="st0" d="M126.8,88c-1.5,13.7,1.1,25.8,4.4,37.7c1.9,7-0.3,13.4-2.3,20.1c0.9-1.1,1.9-2.1,2.8-3.2
		c0.3,9.6-7.7,20.6-19,25.4c1.1-1.6,1.8-2.5,2.5-3.5c8.6-12,11.5-25.2,8.6-39.8c-2.2-11.3-3.7-22.6,1.4-33.6
		C125.5,90.5,125.8,89.8,126.8,88z"/>
	<path class="st0" d="M126.9,166.5c-6.4,20.3-20.9,32.4-38.6,41.8c1.1-1.1,2.2-2.3,3.3-3.4c1.3-1.3,2.6-2.5,3.9-3.7
		c7.2-6.8,13.4-14.1,15.2-24.3c0.2-1.3,1.7-2.7,3-3.5C117.7,171,121.9,169,126.9,166.5z"/>
	<path class="st0" d="M111.9,120.2c6-0.1,7.1,7.3,6.1,16.9C116.3,132.5,114.1,126.3,111.9,120.2z"/>
</g>
</svg>
