<?xml version="1.0" encoding="utf-8"?>
<!-- Generator: Adobe Illustrator 22.0.0, SVG Export Plug-In . SVG Version: 6.00 Build 0)  -->
<svg version="1.1" id="图层_1" xmlns="http://www.w3.org/2000/svg" xmlns:xlink="http://www.w3.org/1999/xlink" x="0px" y="0px"
	 viewBox="0 0 66 62" style="enable-background:new 0 0 66 62;" xml:space="preserve">
<style type="text/css">
	.st0{fill:#CF3004;}
</style>
<g>
	<path class="st0" d="M31,42.5c3.2-6.9,2.9-13.5-2-19.6c1.1,0,2.9,0.6,4.5,1.5c3.6,2.2,5.7,5.4,6.7,9.4c0.6,2.5,0.8,5.1,1.1,7.6
		c0,0.3,0,0.6,0,0.9c0.1,0.1,0.2,0.1,0.3,0.2c1.2-1.1,2.4-2.2,3.7-3.4c0.3,1.5,0.7,2.9,0.8,4.4c0.3,3.8,0.1,7.6-1.9,10.9
		c-2.4,4.2-6.4,6-10.9,6.8c-0.4,0.1-0.9,0.1-1.4,0.1c2.9-1.3,5.3-3.1,6.9-5.9c-4.3,3.1-9.2,4-14.3,3.8c-5.1-0.2-10-1.6-14.2-4.7
		c1.2,0.2,2.4,0.4,3.6,0.5c5.6,0.6,11-0.3,16-3.1c4.7-2.6,7.4-8.2,6.6-13.5c0-0.1-0.1-0.2-0.1-0.4c-0.8,0.9-1.5,1.8-2.3,2.6
		c-0.9,0.8-1.9,1.4-2.8,2.1C31.2,42.6,31.1,42.5,31,42.5z"/>
	<path class="st0" d="M33.8,20.4c9.3,2,17.5,5.5,23.3,13.2c2.3,3.1,3.6,6.4,3.1,10.3c0,0.3-0.1,0.7-0.2,0.9
		c-0.6-1.2-1.1-2.4-1.8-3.8c-0.2,2.3-0.3,4.4-0.7,6.4c-0.4,2-1.2,3.9-2,5.8c-0.3-2.1-0.3-4.2-1.4-6.3c-0.6,2.7-1.5,5-3,7
		c-1.5,2-3.3,3.7-5.5,5c3.4-4.7,4-9.9,3.1-15.5c-0.7-4.1-2-7.5-3.6-9.1c-0.5,1.2-1,2.3-1.5,3.4c-0.1,0-0.2,0-0.3,0
		c0-3.5-1-6.6-2.8-9.6C38.9,25.3,36.7,22.8,33.8,20.4z"/>
	<path class="st0" d="M32.3,16.8c0.7-0.9,1.3-1.7,1.9-2.6c-0.2-0.3-0.5-0.7-1-1.3c-0.7,1.1-1.5,2.1-2.1,3.1
		c-0.3,0.5-0.6,0.7-1.3,0.6c-1-0.2-2-0.2-3.2-0.4c0.5-1,1-1.9,1.5-2.8c1.7-3,3.8-5.6,6.6-7.7c3.5-2.7,7.3-3.5,11.6-2.7
		c4.8,0.8,9,2.8,12,6.7c0.1,0.2,0.3,0.4,0.4,0.5c0.3,0.4,0.6,0.9,0.7,1.2c-1.6-0.7-3.2-1.5-4.9-2.1c-3.3-1.1-6.8-1.1-10.2-0.4
		c-1,0.2-2,0.1-2.9,0.2c0,1.1,0,2.2,0,3.5c0.6-0.6,1.2-1,1.6-1.5c0.5-0.6,1-0.9,1.7-0.9c5.1-0.1,10,0.6,14.1,4
		c2.2,1.8,4.1,5.1,4.4,7.7c-1.6-1.4-3.3-3-5.1-4.3c-3-2.2-6.4-3.3-10.1-3.4c-0.6,0-1.3,0.2-1.9,0.5c-4,1.8-8.2,2.8-12.7,2.3
		C33.2,17,32.9,16.9,32.3,16.8z M35.7,11c-1.5,0.8-1.6,1.4-0.3,2.4c1,0.8,2.3,0.9,3.5,0.2c1.1-0.6,1.6-1.8,1.4-3.1
		c-0.2-1.3-0.6-1.6-1.9-0.8c0.5,0.7,0.9,1.5,0.3,2.2c-0.3,0.4-1,0.7-1.6,0.7C36.3,12.6,35.9,11.9,35.7,11z"/>
	<path class="st0" d="M64.3,39.3c-5.8-12-16.1-17.6-28.5-20.2c4.2-0.2,8.2-0.9,12.1-2.4c0.3-0.1,0.6-0.1,0.9-0.1
		c8,1.2,14.1,7.1,15.6,14.9c0.5,2.4,0.5,4.9,0.1,7.3C64.5,39,64.4,39.1,64.3,39.3z"/>
	<path class="st0" d="M17.3,28.3c-3-1.8-3.7-4.6-3.5-7.9c0.1-2,1-3.7,2.3-5.2c2.6-2.8,5.7-4.8,9-6.6c-0.2,3.1-0.4,6.2-0.6,9.3
		c3,0.6,6.3,1,8.8,3.4c-1.7-0.1-3.4-0.4-5.1-0.3c-2.9,0.2-5.9,0.6-8.8,1.1c-1.5,0.2-2.4,1.5-2.5,3C17.1,26.2,17.2,27.3,17.3,28.3z"
		/>
	<path class="st0" d="M25.9,23.7c1.2,0.8,1.9,1.9,2.4,3c1.6,3.7,1.7,7.4-0.1,11.1c-1.3,2.6-3.5,4.4-6.4,5.1
		c-5.3,1.3-10.2,0.8-14.7-2.6c-0.2-0.1-0.3-0.3-0.5-0.4c-0.2-0.2-0.4-0.4-0.6-0.7c5.2,2.2,10.2,2,14.7-1.5
		C25.3,34.2,26.8,29.4,25.9,23.7z"/>
	<path class="st0" d="M1.2,44.3c9.3,4.2,18.5,4.3,27.7,0.2c0.1,0.1,0.1,0.1,0.2,0.2c-0.7,0.9-1.4,1.9-2.2,2.9c2.8-0.6,5-2.1,7.2-4.1
		c-0.5,2-1.6,3.4-3,4.5c-2.4,2-5.2,2.9-8.1,3.5c-4.8,0.9-9.5,0.8-14.1-1.1c-2.9-1.2-5.3-3-7.3-5.4C1.5,44.7,1.4,44.5,1.2,44.3z"/>
	<path class="st0" d="M38.5,1.6c-5.5,2.2-9.3,6.1-12,11.3c-0.1,0-0.2-0.1-0.3-0.1c0.4-2.1,0.9-4.3,1.3-6.5c-2,0.5-4.1,1.4-6.2,2.4
		C26,3.7,31.7,1.5,38.5,1.6z"/>
</g>
</svg>
