<?xml version="1.0" encoding="utf-8"?>
<!-- Generator: Adobe Illustrator 22.0.0, SVG Export Plug-In . SVG Version: 6.00 Build 0)  -->
<svg version="1.1" id="图层_1" xmlns="http://www.w3.org/2000/svg" xmlns:xlink="http://www.w3.org/1999/xlink" x="0px" y="0px"
	 viewBox="0 0 660 365" style="enable-background:new 0 0 660 365;" xml:space="preserve">
<style type="text/css">
	.st0{fill:#FF5C28;}
</style>
<path class="st0" d="M74.2,222c0,0,19.3-38.3,38.3-12.6c25,33.2-22.2,73.4-69.5,48.4c-47.3-25-18.6-71.4-18.6-71.4
	s-23.5-21.6-12.7-55s32.8-24.2,38.7-30.4s29.2-51.6,62.3-25.3c9.4,9.7,0.5,28.7,14.6,46.9c11.7,15.7,43.8,23,61,2.9
	c19.5-25.8,1.5-45.3-8.3-50.1c-10.7-4.3-20.1,3.6-20.1,3.6s14.4-7,23.3,8.6c21.6,35.7-48.5,61.9-49.1,9.4c0-31.9,9.2-62.7,41.3-69.2
	s49.3,7.3,49.3,7.3S246,7,278.8,5.1s51.9,28.2,51.9,28.2s42.3-29.7,62.4-2.2c43.8,59.1-48.8,91.7-51.1,60.3
	c-1.3-21,15.6-15.6,15.6-15.6s-5-9-14.9-2.3c-7.8,5.2-11.1,29.3-2.1,36.6c51.3,42.6,61.4-82.4,158.4-10.7
	c57.7,44.1,13,122.6-1.3,136.5c-52.2,45.1-112.1,4.7-95.6-37c0,0,5.3-11,14.7-7.9s12.4,12.1,12.4,12.1s10.9-18.8-9.1-25.5
	c-19.9-6.6-28.7,21.2-30,28.4c-1.3,7.1-1.3,50.3,65.5,57.1c56.1,2.9,78.8-34.7,122.6-37.6c43.8-2.9,73.3,1,73.3,1
	s-61.5,0.1-117,31.1c-21,11.5-77,39.5-122.2,39.9c-39.1,0.3-72.7-27.2-73.3-27.2c-1.3,0,34.4-7.1,40.5-50.6
	c5.5-35.3-17.8-54.3-28.5-56.6c-10.8-2.3-16.3-0.9-36.5-4.6c-16.2-3-26.7-16-52.4-12.7c-23.2,3.7-24.7,12.2-35.7,14.7
	s-53.2-2-66.1,46s15.6,65.2,31.1,66.8c24.6,2.9,40.9-34.7,40.9-34.7s43.4,114.8,173.1,95c49.3-8.1,58.4-14.6,58.4-14.6
	s-118.3,33.7-176.1-21.1c-39.2-42.5-33.8-56.2-48.4-68.6c-14.5-9.7-33.4-6.7-33.4-6.7s14.1,5.3,13.8,16c-0.1,9.5-6.2,23.3-24.3,23.8
	c-13.1,1.2-35.9-27.7-20.8-58.6c17.8-37.9,42.3-26.5,59.6-33.3c17.3-6.8,15.2-12,37-13.6c20.8-1,22.4,6.8,41.1,9.4
	c15.7,1.8,42.9,1.8,53.9,26.6c11.7,27.2-4.3,68.9-28.4,61.5c-27.7-8.5-7.9-35.5-7.9-35.5s-22.2-1-22.9,21.6
	c-0.7,22.6,41.5,61.6,89.9,67.4c48.4,5.8,85.4-7.1,144.7-33.3c59.3-26.3,86.6-20.9,86.6-20.9s-62.6,22.9-112.2,60.1
	c-33.1,24.3-121.7,64.8-235.6,36.6C82,290.1,154.4,192,98.5,190.2C72.9,192.2,74.2,222,74.2,222z"/>
</svg>
