<?xml version="1.0" encoding="utf-8"?>
<!-- Generator: Adobe Illustrator 22.0.0, SVG Export Plug-In . SVG Version: 6.00 Build 0)  -->
<svg version="1.1" id="图层_1" xmlns="http://www.w3.org/2000/svg" xmlns:xlink="http://www.w3.org/1999/xlink" x="0px" y="0px"
	 viewBox="0 0 660 350" style="enable-background:new 0 0 660 350;" xml:space="preserve">
<path id="cloud_2" d="M518.1,80.5c-33-21.2-49.6,0.3-60.3-5.1C447.1,70,442.2,5.1,356.6,23.2c-33.7,8.8-43.5,58.6-40.8,73.2
	s-3.9,23.4-22.4,15.1s-35.1,11.6-35.1,11.6s18.8,7.9,25.1,22.8c16.3,37.4-19.6,61.2-40.4,61c-4.7,0.3-11.6-3.1-11.6-3.1
	s26.2,3.9,36.8-24.2c10.2-35.8-17.3-46-42.5-44.9c-32.8-0.3-84.6,40.8-106.5,54.7C82.8,213,38.6,206,38.6,206s1,6.9,29.8,11
	c28.8,4.1,83-4.8,83-4.8c42.6-4,55.8,3.1,74.1,22s70.7,62.6,111.3,54.3c99.6-22.4,85.1-92.1,64.2-107.1c-11.9-7.8-48.1-12.7-48.3,19
	c-0.5,18.8,32,13.4,32,13.4s-40.2,11.7-42.2-17.3c-2.5-38.2,93.7-71.2,91.4,19.8c-1.5,49.4-43.6,74.4-43.6,74.4s1.6,15.3,18.3,27.1
	c54.2,41.5,92.5-35.9,107.9-27.6c35.6,12.7,41.5-9.2,39.1-13.8c-2.4-4.7-7.6-6.1-10.6-8.2c-28.8-19.4-28-34.8-24-51.6
	c6.2-23.2,30-16.6,39.7-7.6c6.8,6.7,8.8,14.6,8.8,14.6s-19.5-21-28.3-9.1c-31.6,49.3,85.7,70.2,80.2-28.7
	c-3.3-76.9-92.1-56.9-94.8-59.9C523.9,122.9,534.4,92,518.1,80.5z"/>
</svg>
