<?xml version="1.0" encoding="utf-8"?>
<!-- Generator: Adobe Illustrator 22.0.0, SVG Export Plug-In . SVG Version: 6.00 Build 0)  -->
<svg version="1.1" id="图层_1" xmlns="http://www.w3.org/2000/svg" xmlns:xlink="http://www.w3.org/1999/xlink" x="0px" y="0px"
	 viewBox="0 0 345 135" style="enable-background:new 0 0 345 135;" xml:space="preserve">
<style type="text/css">
	.st0{fill:none;stroke:#F4E10D;stroke-miterlimit:10;}
</style>
<g>
	<path class="st0" d="M337,2.8H28.6c-11.6,0-21,9.4-21,21c0,11.6,9.4,21,21,21h209.2c12.1,0,21.9,9.8,21.9,21.9
		c0,12.1-9.8,21.9-21.9,21.9h-84.3c-12.1,0-21.9,9.8-21.9,21.9c0,12.1,9.8,21.9,21.9,21.9H337"/>
	<path class="st0" d="M337,2.8H51.6c-11.6,0-21,9.4-21,21c0,11.6,9.4,21,21,21h205c12.1,0,21.9,9.8,21.9,21.9
		c0,12.1-9.8,21.9-21.9,21.9h-103c-12.1,0-21.9,9.8-21.9,21.9c0,12.1,9.8,21.9,21.9,21.9H337"/>
</g>
</svg>
