<?xml version="1.0" encoding="utf-8"?>
<!-- Generator: Adobe Illustrator 22.0.0, SVG Export Plug-In . SVG Version: 6.00 Build 0)  -->
<svg version="1.1" id="图层_1" xmlns="http://www.w3.org/2000/svg" xmlns:xlink="http://www.w3.org/1999/xlink" x="0px" y="0px"
	 viewBox="0 0 290 180" style="enable-background:new 0 0 290 180;" xml:space="preserve">
<style type="text/css">
	.st0{fill:none;stroke:#F4E10D;stroke-width:2;stroke-miterlimit:10;}
</style>
<g id="cloud_line2">
	<path class="st0" d="M249.1,176.5H31.6c-12.1,0-21.9-9.8-21.9-21.9s9.8-21.9,21.9-21.9h209c12.1,0,21.9-9.8,21.9-21.9
		s-9.8-21.9-21.9-21.9H117.4c-11.7,0-21.1-9.4-21.1-21.1s9.4-21.1,21.1-21.1H219c11.9,0,21.6-9.7,21.6-21.6
		c0-11.9-9.7-21.6-21.6-21.6h-58.9"/>
	<path class="st0" d="M249.1,176.5H53.5c-12.1,0-21.9-9.8-21.9-21.9s9.8-21.9,21.9-21.9h205.8c12.1,0,21.9-9.8,21.9-21.9
		s-9.8-21.9-21.9-21.9H138.4c-11.7,0-21.1-9.4-21.1-21.1s9.4-21.1,21.1-21.1H219c11.9,0,21.6-9.7,21.6-21.6
		c0-11.9-9.7-21.6-21.6-21.6h-58.9"/>
</g>
</svg>
