<?xml version="1.0" encoding="utf-8"?>
<!-- Generator: Adobe Illustrator 22.0.0, SVG Export Plug-In . SVG Version: 6.00 Build 0)  -->
<svg version="1.1" id="图层_1" xmlns="http://www.w3.org/2000/svg" xmlns:xlink="http://www.w3.org/1999/xlink" x="0px" y="0px"
	 viewBox="0 0 280 190" style="enable-background:new 0 0 280 190;" xml:space="preserve">
<style type="text/css">
	.st0{fill:none;stroke:#F4E10D;stroke-width:2;stroke-miterlimit:10;}
</style>
<g id="cloud_line3">
	<path class="st0" d="M37.4,4.8h118.7c12.4,0,22.5,10.1,22.5,22.5s-10.1,22.5-22.5,22.5H29.7c-12.4,0-22.5,10.1-22.5,22.5
		s10.1,22.5,22.5,22.5h219.8c12.4,0,22.5,10.1,22.5,22.5s-10.1,22.5-22.5,22.5h-93.3c-12.4,0-22.5,10.1-22.5,22.5
		c0,12.4,10.1,22.5,22.5,22.5h56.8"/>
	<path class="st0" d="M37.4,4.8h118.7c12.4,0,22.5,10.1,22.5,22.5s-10.1,22.5-22.5,22.5H50.6c-12.4,0-22.5,10.1-22.5,22.5
		s10.1,22.5,22.5,22.5h178.7c12.4,0,22.5,10.1,22.5,22.5s-10.1,22.5-22.5,22.5h-97.2c-12.4,0-22.5,10.1-22.5,22.5
		c0,12.4,10.1,22.5,22.5,22.5h80.8"/>
</g>
</svg>
