<?xml version="1.0" encoding="utf-8"?>
<!-- Generator: Adobe Illustrator 22.0.0, SVG Export Plug-In . SVG Version: 6.00 Build 0)  -->
<svg version="1.1" id="图层_1" xmlns="http://www.w3.org/2000/svg" xmlns:xlink="http://www.w3.org/1999/xlink" x="0px" y="0px"
	 viewBox="0 0 760 1020" style="enable-background:new 0 0 760 1020;" xml:space="preserve">
<style type="text/css">
	.st0{fill:#CF3004;}
</style>
<g>
	<g>
		<path class="st0" d="M332.7,256.4c-9.4,12.9-17.8,24.4-29.5,40.5c-4.5-8-9.4-15.1-12.4-22.8c-1.2-3,0.4-8.7,3-11
			C305.3,253.3,318.7,250.9,332.7,256.4z"/>
		<path class="st0" d="M293.8,303.4c-0.5-0.5-4.9-4.9-37.3-25.6c-11.3-7.1-24.7-11.3-37.2-16.7c-3.4-1.5-8.8-2-9.8-4.3
			c-7.1-16.2-7.1-33,0.9-48.8c6.9-13.7,18.8-22.5,36.6-21.4c0.4,0-17.7,30.3-17.7,30.3l33.2-13.1l-13.2,31.5l27.7-9.4
			C259.8,255.7,292.5,301.6,293.8,303.4z"/>
		<path class="st0" d="M378.7,407.9c-0.8-0.3-1.4-2.7-1.1-3.9c2.2-12.9-6.9-9-12.9-6.7c-4.2,1.6-7.2,5.8-13.8,11.4
			c-5.3-22.6-37.2-15.2-43.1-33.1c8.6-8.9,18-14.4,20.1-21.7c4-14-15.2-41.1-33.9-49c3.1,10.6,6.8,19,7.8,27.6
			c0.9,7.8-6.1,23.5-6.1,23.5c-0.4-28.9-10.1-45.4-37.4-60.9c-11.8-6.7-25-11.2-37-17.6c-11-5.9-23.1-11.6-31.5-20.1
			c-32.9-33.3-30.9-86.5,3.1-120.5c5.8-5.8,11.7-11.4,17.6-17c-38.4,9.8-65.6,31.6-81.5,63.9c-15.7,31.9-12.8,65.2,1,100.9
			c-42.9-33.9-83-30.2-98.2,6.1c29.7-9.3,45.5-6.5,59,10.2c-22.9,1.6-32.7,6.7-39.3,19.3l49.9,5c-13.2,11.5-24.1,17.8-22.6,22.4
			c25.6-5.1,62.9,20.1,62.9,20.1l22.4-27.5c0,0-11.3,41.8,8.5,60.1c-6.1,4.3,13.1,12.1-57.5-23.3c22.5,23.8,47.7,36.3,77.8,42.2
			c-5.9,2.4-11.5,3.8-16.1,2.4c-10.3-2.9-20.4-6.7-30.1-11.3c-16.2-7.9-32.9-10.1-50.8-7.4c23.1,0.1,39.5,13.4,58.1,22.7
			c13,6.5,28.8,10,43.6,10.7c11.9,0.5,15.9,4.6,18.4,13.4c3.7,12.8,6.9,25.9,11.6,38.4c10.5,28,31.6,43.8,64.5,44.6
			c10.8,0.3,21.5,0.2,33.3,0.4c-3.1,13.3-13.5,19-25.2,20.9c-11,1.8-22.6,0.4-34,0.4c-0.2,1-0.5,2-0.7,3l42.5,9.4
			c-13.1,5.1-24.4,9.4-35.9,13.9c38.5,7.4,65.4-9.7,70.7-44.5c1.4-9.4,3.2-18.7,4.8-27.8c-2.7-2-6.6-4.5-10-7.3
			c-8.8-7.2-16.3-16.3-26.2-21.6c-19.1-10.3-40.7-17.1-46.8-40.7c-3.9,14.8-1.1,27.1,12.2,35.5c6.9,4.4,14.8,7.5,22.2,11.3
			c13.1,6.7,24.8,14.4,29.3,32.1l-27.1-0.8c1.4-8.1,2.4-13.8,3.6-20.7c-27.9,13.8-40.2,9.3-50-17.3c-2.5-6.8-2.5-14.5-4.5-21.5
			c-2.7-9.7-4.2-20.2-9.6-28.5c-7-10.7-17.3-19.5-27-30c19.3-1.3,38.5,3.4,55,13.3c12.2,7.2,25.1,13.1,38.4,17.5
			c9,3,10.7,7.2,8.8,14.3c-1,3.8-3,7.5-4.5,11.2c0,0,15.4-6.7,21.1-11.7c3-2.6,5.9-7.1,9.2-7.4c9.2-0.6,18.5,0.5,29.2,1
			c-0.9,7.8-1.8,14.6-2.8,23.3c12-5.7,18.8-12.7,19-23.1C387,427,397.4,413.8,378.7,407.9z M219.4,338.9l2.8-3.4
			c9.6,5.9,33.4,17,43.1,22.9C233.2,369.6,224.2,354.5,219.4,338.9z"/>
	</g>
	<path class="st0" d="M669.4,201.3c0,0-63.4-58-63.4-70.8c0-12.6,37.7,1.6,38.6,1.9c-0.5-0.5-31.3-30.6-53.1-36.1
		c-39.3-9.9-52.8-8.4-53.8-22.2c-0.5-7.4,39.7-16.6,39.7-16.6s-51.5-20.4-78.8-15.5c-89.6,16-36.4-17.6-36.4-17.6
		s-63.4-14.3-117.3,21.3c-19.6,12.9-42-8.9-42-8.9s-62.5,39.1-73.9,72.6c35.5-11.2,68.4-26.8,103.1-31c35.9-4.3,74.5-0.8,110.4,5.5
		c48.5,8.4,93.3,38.4,94.6,39.3c-2.5-1.2-166.2-78.7-308.8,7.9c-40.8,25.3-44,79.7-44,79.7s80-96.2,247.3-42.1
		c82.2,31.4,124.6,94.5,101,192.3c-59.8,188.5-185.7,238-219.7,277.5c-48.2,51.7-45.9,130.4,29.3,110.5
		c94.9-29.7,72.2,125.1,71.8,127.6c1-2.3,54.5-123.8-16.7-139.7c-101.8-23.4,138-305.8,144.5-207.6c2.7,41.4,50.2-19.9,82.9-86.7
		C650,391,666.5,336,646.3,323.2c-53-32.7,14-64.7,1.7-97.8c-3.1-7.9-5.5-16-8.9-26.1C657.3,204.9,669.4,201.3,669.4,201.3z
		 M601.2,421c30.5,16.5-37.7,68.6-53.3,63.3c-15.7-5.4-17.2-42.4-3.4-82.7c13.8-40.3,37.7-68.6,53.3-63.3
		C613.5,343.7,570.7,404.6,601.2,421z"/>
	<path class="st0" d="M471.3,917.6l2.4-11.7l-21.3,8.3l-0.6-8.7l-21.5,9.3l-2.3-5.3l-73,30.8l2.7,5.5l-17.8,7.5l5.9,6.6l-24.5,10.6
		l10,6l-8,3.6l60.4,25.9l77.3-31.2l21.5-61.8L471.3,917.6z M454.5,974.6l-61-24l-56.6,24l-6.6-4.1l63.5-26.8l25.8,12.1l-24.7-15.3
		l-44.3,18.1l-2.8-4.1l62.6-26.9l16.7,17.9l-14.4-21.5l-50,20.3l-1.6-2.7l64.3-26.6l12.4,25.8l-6.2-21.5l16.4-7.4l2.9,32.6l1.6-25.1
		l14.2-6.5L454.5,974.6z"/>
	<path class="st0" d="M442,706.1c0,0-41.7-19.3,1.6-50.6c55.7-41,31.7-94,31.7-94s42,38,13.2,62C414.9,675.5,442,706.1,442,706.1z"
		/>
	<path class="st0" d="M409.4,226.5c0,0,26.6-56.5,66,22.5c34,69-57,12-29,55.3c21.3,34.2-5.7-5.2,7.3-9c15.3-4,97.3,28.7,60-30
		c-37.3-58.7-84.3-75-96.7-62.3C409.9,210.8,409.4,226.5,409.4,226.5z"/>
</g>
</svg>
