<?xml version="1.0" encoding="utf-8"?>
<!-- Generator: Adobe Illustrator 22.0.0, SVG Export Plug-In . SVG Version: 6.00 Build 0)  -->
<svg version="1.1" id="图层_1" xmlns="http://www.w3.org/2000/svg" xmlns:xlink="http://www.w3.org/1999/xlink" x="0px" y="0px"
	 viewBox="0 0 1250 240" style="enable-background:new 0 0 1250 240;" xml:space="preserve">
<style type="text/css">
	.st0{fill:#966D3E;}
	.st1{fill:#EBAB49;}
	.st2{fill:#996611;}
	.st3{fill:#875021;}
	.st4{fill:#DDBE82;}
	.st5{fill:#F7C266;}
	.st6{fill:#EEC06E;}
	.st7{fill:#CCCBC7;}
	.st8{fill:#C6A875;}
	.st9{fill:#FCFCFC;}
</style>
<g id="reel_1_">
	<path class="st0" d="M142.9,189.8c-1.5-13.5-20.6-22.4-42.6-20c-11.6,1.3-21.7,5.5-28.4,11.1c-1.2,1-2.3,2-3.3,3.1l-0.1,0.1
		l-2.2,2.8v0c-2.5,3.7-3.7,7.7-3.2,11.7c1.5,13.5,20.6,22.4,42.6,20c7.5-0.8,14.4-2.9,20.2-5.8c0,0,0.1,0,0.1-0.1
		c0.3-0.2,0.7-0.3,1-0.5c1.1-0.6,2.1-1.2,3.1-1.8c0.3-0.2,0.5-0.3,0.7-0.5c0.2-0.1,0.3-0.2,0.5-0.3c0.3-0.2,0.5-0.4,0.8-0.5
		c0.2-0.2,0.5-0.4,0.7-0.5c0.4-0.3,0.8-0.6,1.1-0.9c0.3-0.2,0.5-0.5,0.8-0.7c0.3-0.2,0.6-0.5,0.8-0.7c0.3-0.2,0.5-0.5,0.8-0.8
		c0.3-0.3,0.5-0.5,0.7-0.8c0.5-0.5,0.9-1,1.4-1.6c0.2-0.3,0.4-0.5,0.6-0.8c0.2-0.2,0.3-0.4,0.4-0.6c0.1-0.2,0.2-0.4,0.4-0.5
		c0.1-0.2,0.2-0.4,0.4-0.5l0,0c0,0,0,0,0,0l0.9-1.6l0-0.1c0.7-1.5,1.2-2.9,1.5-4.4C143,193,143.1,191.4,142.9,189.8z M128.9,198.4
		L128.9,198.4l-2.4,4.6l-0.7,1.3l-0.1,0.2c-3.3,6.9-13.1,12.6-25.1,13.9c-15.6,1.7-29-4.5-30.1-13.9c-0.2-2,0.2-4.1,1-6
		c0.2-0.4,0.4-0.8,0.6-1.2l2.3-4.3l1.1-2.1L76,190c3.7-6.5,13.1-11.9,24.7-13.2c15.6-1.7,29,4.5,30.1,13.9
		C131.2,193.4,130.5,196,128.9,198.4z"/>
	<path class="st1" d="M128.9,198.4L128.9,198.4l-2.4,4.6l-0.7,1.3c0.2-0.4,0.4-0.8,0.5-1.2c0.2-0.6,0.4-1.3,0.5-2v0
		c0.2-0.9,0.2-1.9,0.1-2.8c-1-9.4-14.5-15.7-30.1-13.9c-9.2,1-17.1,4.6-21.8,9.4c-0.2,0.2-0.3,0.3-0.5,0.5c-0.9,1-1.7,2-2.3,3.1
		l2.3-4.3l1.1-2.1L76,190c3.7-6.5,13.1-11.9,24.7-13.2c15.6-1.7,29,4.5,30.1,13.9C131.2,193.4,130.5,196,128.9,198.4z"/>
	<path class="st2" d="M126.9,198.3c-1-9.4-14.5-15.7-30.1-13.9c-9.2,1-17.1,4.6-21.8,9.4c-0.2,0.2-0.3,0.3-0.5,0.5
		c-0.9,1-1.7,2-2.3,3.1c-0.2,0.4-0.5,0.8-0.6,1.2c-0.9,1.9-1.3,4-1,6c1,9.4,14.5,15.7,30.1,13.9c12-1.3,21.8-7.1,25.1-13.9l0.1-0.2
		c0.2-0.4,0.4-0.8,0.5-1.2c0.2-0.6,0.4-1.3,0.5-2v0C127,200.2,127,199.3,126.9,198.3z M109.4,206c-2.4,1.8-5.9,3.1-9.7,3.5
		c-8,0.9-15-2.3-15.5-7.2c0-0.4,0-0.8,0-1.2c0.5-4.4,6.2-8.4,13.6-9.2c8-0.9,15,2.3,15.5,7.2C113.6,201.6,112.1,204.1,109.4,206z"/>
	<path class="st3" d="M109.4,206c-2.4,1.8-5.9,3.1-9.7,3.5c-8,0.9-15-2.3-15.5-7.2c0-0.4,0-0.8,0-1.2c0.5-4.4,6.2-8.4,13.6-9.2
		c8-0.9,15,2.3,15.5,7.2C113.6,201.6,112.1,204.1,109.4,206z"/>
	<path class="st4" d="M233.5,32.5l-0.5,0.9l-7.1,12.8l-10.7,19.4l-4.4,8l-59.3,107c0.2-1.2,0.2-2.5,0.1-3.7
		c-1.5-13.5-20.6-22.4-42.6-20c-10.3,1.1-19.5,4.6-26.2,9.3l90.6-115.2l19.4-24.7c0.6-0.2,1.3-0.4,1.9-0.5c4.7-1.2,9.9-1.7,15.4-1.4
		C219.3,25,227.5,28,233.5,32.5z"/>
	<path class="st5" d="M151.4,180.5l-5.4,9.7h0l-1.4,2.6l-3.4,6.1c0.7-1.5,1.2-2.9,1.5-4.4c0.3-1.5,0.4-3.1,0.2-4.7
		c-1.5-13.5-20.6-22.4-42.6-20c-11.6,1.3-21.7,5.5-28.4,11.1c-1.2,1-2.3,2-3.3,3.1l3.6-4.6v0l10.5-13.3c6.6-4.7,15.8-8.2,26.2-9.3
		c22-2.4,41.1,6.5,42.6,20C151.6,178,151.6,179.3,151.4,180.5z"/>
	<path class="st6" d="M234.4,29.2c-0.1,1.1-0.4,2.2-0.8,3.2l-0.1,0.1c-6-4.4-14.2-7.5-23.5-8.1c-5.5-0.4-10.7,0.1-15.4,1.4
		c-0.6,0.2-1.3,0.3-1.9,0.5l3.5-4.4l0,0v0l0.8-1l0,0c3.6-4,10.5-6.4,18.3-5.9C226.4,15.5,234.9,22,234.4,29.2z"/>
	<path class="st0" d="M1186.8,202.7c-1.3,7.2-8,12.6-17.5,15.3c6.1-1.9,10.3-5.4,11.1-10c0.3-1.5,0.2-3.1-0.3-4.6l0,0l-1.4-6.7
		l-0.3-1.2l0-0.1c-2.1-7.4-12.4-14.3-25.6-16.7c-15.9-2.9-30,2-31.6,10.7c-0.2,1.3-0.2,2.6,0.1,3.9l0,0l1.8,8.1
		c1.8,7.5,12.2,14.7,25.7,17.1c5.3,1,10.5,1.1,15,0.4c-6.2,1-13.3,0.9-20.5-0.4c-17.7-3.2-31.4-12.8-34.6-23.2l0,0
		c-0.7-2.3-0.9-4.7-0.5-7c0.6-3.6,2.6-6.7,5.6-9.3c0,0,0,0,0,0c1.2-0.8,2.4-1.7,3.6-2.5c8.2-4.8,20.7-6.7,34.2-4.3
		c12.8,2.3,23.5,7.9,29.6,14.8l0,0c1.7,1.9,3,3.8,3.9,5.8l0,0C1186.8,196.3,1187.3,199.5,1186.8,202.7z"/>
	<path class="st1" d="M1180.1,203.5c-0.3-1.1-0.9-2.2-1.5-3.3c-3.9-6-12.9-11.2-24-13.2c-15.7-2.8-29.6,1.8-31.5,10.4
		c0,0.1-0.1,0.2-0.1,0.4c-0.2,1.3-0.2,2.6,0.1,3.9l-1.8-8.1l0,0c-0.3-1.3-0.4-2.6-0.1-3.9c1.6-8.8,15.7-13.6,31.6-10.7
		c13.3,2.4,23.5,9.4,25.6,16.7l0,0.1l0.3,1.2L1180.1,203.5z"/>
	<path class="st2" d="M1180.1,203.6L1180.1,203.6c-0.4-1.1-0.9-2.2-1.6-3.3c-3.9-6-12.9-11.2-24-13.2c-15.7-2.8-29.6,1.8-31.5,10.4
		c0,0.1-0.1,0.2-0.1,0.4c-0.2,1.3-0.2,2.6,0.1,3.9c1.8,7.5,12.2,14.7,25.7,17.1c5.3,1,10.5,1.1,15,0.4c0,0,0,0,0.1,0
		c1.8-0.3,3.6-0.7,5.2-1.2c0,0,0.1,0,0.1,0c6.1-1.9,10.3-5.4,11.1-10C1180.7,206.6,1180.6,205.1,1180.1,203.6z M1166.1,204.9
		c-0.8,4.6-8.2,7.1-16.5,5.6c-8.3-1.5-14.3-6.4-13.5-11c0.8-4.6,8.2-7.1,16.5-5.6C1160.9,195.4,1166.9,200.3,1166.1,204.9z"/>
	<path class="st3" d="M1166.1,204.9c-0.8,4.6-8.2,7.1-16.5,5.6c-8.3-1.5-14.3-6.4-13.5-11c0.8-4.6,8.2-7.1,16.5-5.6
		C1160.9,195.4,1166.9,200.3,1166.1,204.9z"/>
	<path class="st7" d="M1108.3,188.7c-0.4,2.3-0.2,4.7,0.5,7l-5.1-9.5c3.5-2.2,6.9-4.5,10.3-6.9
		C1110.9,181.9,1108.9,185.1,1108.3,188.7z"/>
	<path class="st8" d="M1181.3,187.3c-6.2-6.9-16.9-12.5-29.6-14.8c-13.4-2.4-26-0.5-34.2,4.3c-1.2,0.9-2.4,1.7-3.6,2.5c0,0,0,0,0,0
		c-3.4,2.4-6.8,4.7-10.3,6.9l-6.4-12l-68.4-127.7l-8-15c1.3-0.6,2.7-0.9,4.1-1.4c7.8-2.8,18-3.5,28.7-1.6
		c12.8,2.3,23.5,7.9,29.8,14.8l0.4,0.6l3.8,5.6l0,0l65.8,96.7l11.6,17L1181.3,187.3z"/>
	<path class="st9" d="M1164.9,163.2c-4-1.3-8.5-2.4-13.2-3c-13.4-1.9-26-0.4-34.2,3.4c-1.2,0.7-2.4,1.4-3.6,2c0,0,0,0,0,0
		c-3.4,1.9-6.8,3.7-10.3,5.5c-2.1,1.1-4.3,2.1-6.4,3.2l-68.4-127.7c12.7-2,44.9-3.9,54.9-2.7l3.8,5.6l0,0l65.8,96.7L1164.9,163.2z"
		/>
	<path class="st8" d="M1028.8,46.5c-1.7,0.3-3,0.5-3.9,0.8c-1.5,0.4-3.2,0.7-4.5,1.3c-29.4,7.9-60.9,12.2-93.7,12.2
		c-20.3,0-40.2-1.6-59.3-4.8c0,0,0,0-0.1,0c-5-0.8-9.9-1.7-14.8-2.7c0,0,0,0,0,0c-13.8-2.3-28-3.8-42.5-4.4
		c-5.6-0.3-11.2-0.4-16.8-0.4c-27,0-53.1,2.9-77.9,8.4c-5.4,1.4-10.8,2.7-16.3,4c-6.9,1.6-13.8,3.1-20.8,4.5
		c-45.8,9.2-93.8,14.1-143.3,14.1c-50.4,0-99.3-5.1-146-14.6c-11.7-2.4-23.2-5.1-34.6-8C325,51.1,271.5,46,240.1,46
		c-4.8,0-9.5,0.1-14.3,0.2l7.1-12.8l0.5-0.9l0.1-0.1c9.7-0.7,19.6-1.1,29.5-1.1c31.4,0,61.9,3.7,91.2,10.8
		c11.4,3.7,22.9,7.1,34.6,10.1c46.6,12,95.6,18.4,146,18.4c49.4,0,97.4-6.2,143.3-17.8c7-1.8,13.9-3.7,20.8-5.7
		c5.5-1.6,10.9-3.3,16.3-5c24.8-6.9,50.9-10.6,77.9-10.6c5.6,0,11.2,0.2,16.8,0.5c14.5,0.8,28.6,2.7,42.5,5.5c0,0,0,0,0,0
		c4.9,1.3,9.8,2.4,14.8,3.5c0,0,0,0,0.1,0c19.2,4,39,6,59.3,6c32.8,0,64.3-5.4,93.7-15.4c0.1-0.1,0.3-0.1,0.4-0.2L1028.8,46.5z"/>
	<path class="st9" d="M1097.2,174.2c-11.5,5.5-23.5,10.4-36,14.6c-35.1,11.9-73.7,18.5-114.3,18.5c-42.7,0-83.3-7.3-119.9-20.4
		c-0.6-0.2-1.2-0.4-1.8-0.6c-36.6-13.1-77.1-20.4-119.9-20.4c-30.5,0-59.9,3.7-87.6,10.6c-0.1,0-0.1,0-0.2,0
		c-2.9,0.7-5.8,1.5-8.6,2.3c0,0-0.1,0-0.1,0c-8,2-16.1,3.8-24.4,5.4c-19.7,3.8-40,6.2-60.8,7.2c-7.2,0.4-14.6,0.5-21.9,0.5
		c-34.9,0-68.5-4-100.4-11.5c-2.6-0.7-5.2-1.3-7.8-1.9c-0.1,0-0.1,0-0.2,0c-35-8.2-72-12.7-110.4-12.7c-42.1,0-93.7,11.5-137.1,24.4
		l5.4-9.7l59.3-107l4.4-8l10.7-19.4c4.7-0.1,9.5-0.2,14.3-0.2c31.4,0,84.9,5.2,114.1,10.7c11.4,2.9,22.9,5.6,34.6,8
		c46.6,9.5,95.6,14.6,146,14.6c49.4,0,97.4-4.9,143.3-14.1c7-1.4,13.9-2.9,20.8-4.5c5.5-1.3,10.9-2.6,16.3-4
		c24.8-5.5,50.9-8.4,77.9-8.4c5.6,0,11.2,0.1,16.8,0.4c14.5,0.6,28.6,2.1,42.5,4.4c0,0,0,0,0,0c4.9,1,9.8,1.9,14.8,2.7
		c0,0,0,0,0.1,0c19.2,3.1,39,4.8,59.3,4.8c32.8,0,64.3-4.3,93.7-12.2c1.3-0.5,3-0.8,4.5-1.3c0.9-0.3,2.3-0.5,3.9-0.8L1097.2,174.2z"
		/>
	<path class="st8" d="M1103.6,186.2c-13.4,8.6-27.6,16.1-42.4,22.4c-35.1,15-73.7,23.3-114.3,23.3c-42.7,0-83.3-9.2-119.9-25.7
		c-0.6-0.3-1.2-0.5-1.8-0.8c-36.6-16.5-77.1-25.7-119.9-25.7c-30.5,0-59.9,4.7-87.6,13.4c-0.1,0-0.1,0-0.2,0.1
		c-2.9,0.9-5.8,1.9-8.6,2.9c0,0-0.1,0-0.1,0c-8,2.6-16.1,4.8-24.4,6.8c-19.7,4.7-40,7.8-60.8,9.1c-7.2,0.5-14.6,0.7-21.9,0.7
		c-34.9,0-68.5-5.1-100.4-14.5c-2.6-0.8-5.2-1.6-7.8-2.4c-0.1,0-0.1,0-0.2-0.1c-35-10.4-72-16-110.4-16c-56,0-109.2,11.9-157.3,33.3
		c0,0,0.1,0,0.1-0.1c0.3-0.2,0.7-0.3,1-0.5c1.1-0.6,2.1-1.2,3.1-1.8c0.3-0.2,0.5-0.3,0.7-0.5c0.2-0.1,0.3-0.2,0.5-0.3
		c0.3-0.2,0.5-0.4,0.8-0.5c0.2-0.2,0.5-0.4,0.7-0.5c0.4-0.3,0.8-0.6,1.1-0.9c0.3-0.2,0.5-0.5,0.8-0.7c0.3-0.2,0.6-0.5,0.8-0.7
		c0.3-0.2,0.5-0.5,0.8-0.8c0.3-0.3,0.5-0.5,0.7-0.8c0.5-0.5,0.9-1,1.4-1.6c0.2-0.3,0.4-0.5,0.6-0.8c0.2-0.2,0.3-0.4,0.4-0.6
		c0.1-0.2,0.2-0.4,0.4-0.5c0.1-0.2,0.2-0.4,0.4-0.5l0,0c0,0,0,0,0,0c0.3-0.5,0.6-1,0.9-1.6l0-0.1l3.4-6.1l1.4-2.6h0
		c43.5-12.9,95.1-24.4,137.1-24.4c38.3,0,75.4,4.4,110.4,12.7c0.1,0,0.1,0,0.2,0c2.6,0.6,5.2,1.3,7.8,1.9
		c31.8,7.5,65.5,11.5,100.4,11.5c7.4,0,14.7-0.2,21.9-0.5c20.8-1,41.2-3.4,60.8-7.2c8.2-1.6,16.4-3.4,24.4-5.4c0,0,0,0,0.1,0
		c2.8-0.8,5.7-1.5,8.6-2.3c0.1,0,0.1,0,0.2,0c27.6-6.9,57.1-10.6,87.6-10.6c42.7,0,83.3,7.3,119.9,20.4c0.6,0.2,1.2,0.4,1.8,0.6
		c36.6,13.1,77.1,20.4,119.9,20.4c40.5,0,79.2-6.6,114.3-18.5c12.5-4.2,24.5-9.1,36-14.6L1103.6,186.2z"/>
</g>
</svg>
