<?xml version="1.0" encoding="utf-8"?>
<!-- Generator: Adobe Illustrator 22.0.0, SVG Export Plug-In . SVG Version: 6.00 Build 0)  -->
<svg version="1.1" id="图层_1" xmlns="http://www.w3.org/2000/svg" xmlns:xlink="http://www.w3.org/1999/xlink" x="0px" y="0px"
	 viewBox="0 0 410 345" style="enable-background:new 0 0 410 345;" xml:space="preserve">
<style type="text/css">
	.st0{fill:#CF3004;}
	.st1{fill:none;stroke:#000000;stroke-width:2;stroke-miterlimit:10;}
</style>
<g>
	<path class="st0" d="M401,175.5c-0.3,0.8-0.5,1.5-0.8,2.3c-2.3,7-9.2,11.1-16.6,9.8c-6.7-1.2-11.9-7.6-11.8-14.4
		c0.2-7.3,5.5-13.2,12.7-14.1c7.3-1,14.1,3.7,16,10.8c0.1,0.5,0.3,0.9,0.5,1.4C401,172.8,401,174.1,401,175.5z"/>
	<path class="st1" d="M380.8,123.7c3.5,0.3,6.6,3.3,7.2,6.9c0.6,3.6-1.4,7.2-4.7,8.8c-3.1,1.4-6.7,0.8-9.2-1.5
		c-4.8-4.5-4.9-12.3-0.3-17.1c4.7-4.8,12.7-4.9,17.5-0.1c3.1,3.1,4.5,7,4.5,11.4c0,7.9-6,14.7-13.6,15.7
		c-8.3,1.1-15.9-3.6-17.8-11.5c-4.6-18.4-11.5-35.7-22-51.5c-26.2-39.5-62.5-64.3-109.1-73C152.1-3.3,72.5,43.7,46.7,121.7
		c-1.6,4.7-2.8,9.5-4.1,14.2c-1.8,6.5-7.2,11.2-13.6,11.9c-7,0.7-13.3-2.7-16.4-8.7c-3-6-1.9-13.2,2.7-18.2c4.6-5,12.4-5.1,17.4-0.3
		c4.9,4.7,4.9,12.5,0,17.2c-2.6,2.5-6.5,3.1-9.7,1.3c-3.2-1.7-4.9-5.3-4.1-9c0.7-3.4,3.7-6.1,7.1-6.4"/>
	<path class="st1" d="M380.8,223.1c3.5-0.3,6.6-3.3,7.2-6.9c0.6-3.6-1.4-7.2-4.7-8.8c-3.1-1.4-6.7-0.8-9.2,1.5
		c-4.8,4.5-4.9,12.3-0.3,17.1c4.7,4.8,12.7,4.9,17.5,0.1c3.1-3.1,4.5-7,4.5-11.4c0-7.9-6-14.7-13.6-15.7
		c-8.3-1.1-15.9,3.6-17.8,11.5c-4.6,18.4-11.5,35.7-22,51.5c-26.2,39.5-62.5,64.3-109.1,73c-81.1,15.1-160.8-32-186.6-109.9
		c-1.6-4.7-2.8-9.5-4.1-14.2c-1.8-6.5-7.2-11.2-13.6-11.9c-7-0.7-13.3,2.7-16.4,8.7c-3,6-1.9,13.2,2.7,18.2c4.6,5,12.4,5.1,17.4,0.3
		c4.9-4.7,4.9-12.5,0-17.2c-2.6-2.5-6.5-3.1-9.7-1.3c-3.2,1.7-4.9,5.3-4.1,9c0.7,3.4,3.7,6.1,7.1,6.4"/>
	<path class="st0" d="M41.5,173.4c0,8-6.4,14.5-14.4,14.6c-8,0.1-14.6-6.4-14.6-14.4c0-8,6.4-14.5,14.4-14.6
		C34.9,158.9,41.5,165.4,41.5,173.4z"/>
</g>
</svg>
