<?xml version="1.0" encoding="utf-8"?>
<!-- Generator: Adobe Illustrator 22.0.0, SVG Export Plug-In . SVG Version: 6.00 Build 0)  -->
<svg version="1.1" id="图层_1" xmlns="http://www.w3.org/2000/svg" xmlns:xlink="http://www.w3.org/1999/xlink" x="0px" y="0px"
	 viewBox="0 0 500 500" style="enable-background:new 0 0 500 500;" xml:space="preserve">
<style type="text/css">
	.st0{fill:none;stroke:#FFFFFF;stroke-width:6;stroke-miterlimit:10;}
	.st1{fill:none;stroke:#FFFFFF;stroke-width:3;stroke-miterlimit:10;}
</style>
<g id="click_ring">
	<path class="st0" d="M389.8,61.8c-7.6,10.2-15.2,20.5-22.9,30.7c10.9,8.6,20.7,17.6,30.2,27.8c9.7-8.3,19.3-16.7,29-25
		c-8.4-9.5-17.5-18.4-27.4-26.4c-6.2,7.5-9.3,11.3-15.5,18.8c7.8,6.4,11.5,9.8,18.4,17"/>
	<path class="st0" d="M461.3,148.6c-11.6,5.3-23.2,10.6-34.8,16c-5.7-11.9-12.7-23.2-20.7-33.7c10.2-7.6,20.5-15.3,30.7-22.9
		c7.5,9.8,14.1,20.2,20,31c-8.7,4.5-13,6.7-21.7,11.2c-4.6-8.5-7.1-12.6-12.7-20.6"/>
	<path class="st0" d="M473.6,179.9c-12.2,3.8-24.4,7.6-36.6,11.4c3.8,13.4,6.4,26.4,8.1,40.2c12.7-1.1,25.5-2.1,38.2-3.2
		c-1.2-12.6-3.4-25.2-6.6-37.5c-9.4,2.4-14.2,3.7-23.6,6.1c2.6,9.8,3.5,14.7,4.9,24.6"/>
	<path class="st0" d="M480.5,292.1c-12.5-2.5-25-5-37.6-7.6c2.3-13,3.4-26.2,3-39.4c12.8-0.2,25.5-0.3,38.3-0.5
		c0.3,12.3-0.4,24.6-2.1,36.8c-9.6-1.5-14.5-2.2-24.1-3.7c1.3-9.5,1.7-14.4,1.8-24.1"/>
	<path class="st0" d="M472.1,324.6c-12.1-4.1-24.2-8.2-36.3-12.2c-4.8,13.1-10.3,25.2-17.1,37.3c10.9,6.6,21.9,13.2,32.8,19.8
		c6.5-10.9,12.1-22.4,16.7-34.2c-9.1-3.6-13.6-5.4-22.7-8.9c-3.7,9.4-5.8,14-10.5,22.8"/>
	<path class="st0" d="M411.7,419.5c-8.6-9.4-17.3-18.8-25.9-28.2c9.5-9.1,18.1-19.2,25.6-30.1c10.4,7.4,20.8,14.8,31.3,22.1
		c-7,10.1-14.8,19.7-23.3,28.6c-6.9-6.9-10.4-10.3-17.3-17.1c6.6-7,9.8-10.7,15.7-18.4"/>
	<path class="st0" d="M385.7,440.8c-7.4-10.4-14.8-20.8-22.2-31.2c-11.6,7.7-23.1,14.3-35.7,20.2c5,11.8,9.9,23.5,14.9,35.3
		c11.7-5,22.9-11,33.6-17.9c-5.2-8.2-7.9-12.3-13.1-20.6c-8.5,5.5-12.9,7.9-21.9,12.2"/>
	<path class="st0" d="M281.2,482.1c-1.5-12.7-2.9-25.4-4.4-38.1c13.1-1.8,26-4.9,38.5-9.3c4.1,12.1,8.2,24.2,12.3,36.3
		c-11.6,4.1-23.6,7.2-35.7,9.4c-1.6-9.6-2.4-14.4-4-24.1c9.5-1.7,14.2-2.9,23.5-5.7"/>
	<path class="st0" d="M247.6,484.1c0.1-12.8,0.3-25.5,0.4-38.3c-13.9-0.5-27.1-2-40.8-4.7c-2.9,12.4-5.8,24.9-8.7,37.3
		c12.4,2.8,25,4.5,37.7,5.3c0.6-9.7,0.9-14.6,1.5-24.3c-10.1-0.6-15.1-1.2-24.9-2.9"/>
	<path class="st0" d="M138.7,456c6.3-11.1,12.5-22.3,18.8-33.4c11.6,6.3,23.9,11.3,36.6,15.1c-3.8,12.2-7.6,24.4-11.4,36.6
		c-11.8-3.5-23.3-8-34.4-13.4c4.4-8.7,6.6-13.1,10.9-21.8c8.7,4.2,13.2,6,22.4,9.2"/>
	<path class="st0" d="M110.4,437.9c7.6-10.2,15.2-20.5,22.9-30.7c-10.9-8.6-20.7-17.6-30.2-27.8c-9.7,8.3-19.3,16.7-29,25
		c8.4,9.5,17.5,18.4,27.4,26.4c6.2-7.5,9.3-11.3,15.5-18.8c-7.8-6.4-11.5-9.8-18.4-17"/>
	<path class="st0" d="M38.9,351.2c11.6-5.3,23.2-10.6,34.8-16c5.7,11.9,12.7,23.2,20.7,33.7c-10.2,7.6-20.5,15.3-30.7,22.9
		c-7.5-9.8-14.1-20.2-20-31c8.7-4.5,13-6.7,21.7-11.2c4.6,8.5,7.1,12.6,12.7,20.6"/>
	<path class="st0" d="M26.6,319.9c12.2-3.8,24.4-7.6,36.6-11.4c-3.8-13.4-6.4-26.4-8.1-40.2c-12.7,1.1-25.5,2.1-38.2,3.2
		c1.2,12.6,3.4,25.2,6.6,37.5c9.4-2.4,14.2-3.7,23.6-6.1c-2.6-9.8-3.5-14.7-4.9-24.6"/>
	<path class="st0" d="M19.7,207.7c12.5,2.5,25,5,37.6,7.6c-2.3,13-3.4,26.2-3,39.4c-12.8,0.2-25.5,0.3-38.3,0.5
		c-0.3-12.3,0.4-24.6,2.1-36.8c9.6,1.5,14.5,2.2,24.1,3.7c-1.3,9.5-1.7,14.4-1.8,24.1"/>
	<path class="st0" d="M28.1,175.1c12.1,4.1,24.2,8.2,36.3,12.2c4.8-13.1,10.3-25.2,17.1-37.3c-10.9-6.6-21.9-13.2-32.8-19.8
		c-6.5,10.9-12.1,22.4-16.7,34.2c9.1,3.6,13.6,5.4,22.7,8.9c3.7-9.4,5.8-14,10.5-22.8"/>
	<path class="st0" d="M88.5,80.3c8.6,9.4,17.3,18.8,25.9,28.2c-9.5,9.1-18.1,19.2-25.6,30.1c-10.4-7.4-20.8-14.8-31.3-22.1
		c7-10.1,14.8-19.7,23.3-28.6c6.9,6.9,10.4,10.3,17.3,17.1c-6.6,7-9.8,10.7-15.7,18.4"/>
	<path class="st0" d="M114.4,58.9c7.4,10.4,14.8,20.8,22.2,31.2c11.6-7.7,23.1-14.3,35.7-20.2c-5-11.8-9.9-23.5-14.9-35.3
		c-11.7,5-22.9,11-33.6,17.9c5.2,8.2,7.9,12.3,13.1,20.6c8.5-5.5,12.9-7.9,21.9-12.2"/>
	<path class="st0" d="M219,17.7c1.5,12.7,2.9,25.4,4.4,38.1c-13.1,1.8-26,4.9-38.5,9.3c-4.1-12.1-8.2-24.2-12.3-36.3
		c11.6-4.1,23.6-7.2,35.7-9.4c1.6,9.6,2.4,14.4,4,24.1c-9.5,1.7-14.2,2.9-23.5,5.7"/>
	<path class="st0" d="M252.6,15.7c-0.1,12.8-0.3,25.5-0.4,38.3c13.9,0.5,27.1,2,40.8,4.7c2.9-12.4,5.8-24.9,8.7-37.3
		c-12.4-2.8-25-4.5-37.7-5.3c-0.6,9.7-0.9,14.6-1.5,24.3c10.1,0.6,15.1,1.2,24.9,2.9"/>
	<path class="st0" d="M361.4,43.8c-6.3,11.1-12.5,22.3-18.8,33.4C331,70.9,318.7,65.8,306,62.1c3.8-12.2,7.6-24.4,11.4-36.6
		c11.8,3.5,23.3,8,34.4,13.4c-4.4,8.7-6.6,13.1-10.9,21.8c-8.7-4.2-13.2-6-22.4-9.2"/>
	<g>
		<circle class="st1" cx="250.1" cy="249.9" r="243"/>
		<circle class="st1" cx="250.1" cy="249.9" r="185.2"/>
		<circle class="st0" cx="250.1" cy="249.9" r="176"/>
	</g>
</g>
</svg>
