<?xml version="1.0" encoding="utf-8"?>
<!-- Generator: Adobe Illustrator 22.0.0, SVG Export Plug-In . SVG Version: 6.00 Build 0)  -->
<svg version="1.1" id="图层_1" xmlns="http://www.w3.org/2000/svg" xmlns:xlink="http://www.w3.org/1999/xlink" x="0px" y="0px"
	 viewBox="0 0 550 740" style="enable-background:new 0 0 550 740;" xml:space="preserve">
<style type="text/css">
	.st0{fill:#A5C4A5;}
	.st1{fill:none;stroke:#000000;stroke-miterlimit:10;}
	.st2{fill:none;stroke:#000000;stroke-width:3;stroke-miterlimit:10;}
</style>
<g>
	<path class="st0" d="M529.2,504.1c-2.8-3.7-10.3-7.2-11.9-8.8c-4.8-5-10.5,4.3-10.5,4.3s-2.9-1.9-8.3-4.8c-4.1-2.2-13.8-2-18.3-1.8
		c-2.7-3-10.7-9.5-33.8-19.4c-21.9-9.4-33.6-25-38.8-34.2c4.6-6.8,21-32.1,34-60.1c10.1-21.8,2-42.9-4.6-54.7
		c0.5-12.5-1.5-43.5-31.9-61.2c-14.6-8.3-28.3-18.7-20.3-27.6c3.4-3.8,14.2-5.4,18.4-8.3c2.1-1.4,3.2-3.6,3.7-5.3
		c-0.5,0.6-0.9,1-1.3,1.3l1.8-4.3c0,0,0,1.3-0.5,3c7-8.3,18.2-42.8,2.5-56.8c-6.4-5.2-5.2-8.7-5.2-8.7s4.1-5.1,7.9-15.2
		c3.1-8.2-2.7-15.9-5.1-18.7c2.4-3,7.7-9.8,9.3-16c2.1-8.1-5.4-13.3-9.2-16c-3.8-2.6-2.9-7.4-5.2-10.7c-2.4-3.3-9.5,0.7-15.5-1.2
		S367,56.3,364.8,52s-6.9-2.9-14.3-2.4s-3.3-3.8-6.4-8.2c-3.1-4.4-2.6-0.7-5.7,0.8c-2.1,1-5.8-0.3-7.9-1.2
		c2.1-6.4-11.5-10.9-23.5-19.6c-10.1-7.2-27-3.5-33.4-1.7c-6.9-2.9-35.7,5.8-41.5,8.2c-6.2,2.6-26.9,2.4-32.2,1.2
		c-18.5-1-26.6,12.4-28.8,16.7c-6.9,1.1-20.2,4-19.2,9c1.4,6.7,6.2,3.8,3.1,8.8c-2.1,3.4-6.2,12.3-7.3,20.5
		c-5.6,2.8-16.7,16.8-17,20.5c-0.4,4,0.7,4.5-2.1,9.8c-2.9,5.2,1.2,7.9,3.1,10s-0.8,3.6-2.9,6.9c-1.6,2.5-0.4,8.5,0.1,10.7
		c-2.1,2.6-5.5,6-9.7,7.9c-7.1,3.3-10.2,21-10.2,21s0,0.7-4.3,8.6c-3.1,5.7,2.2,16.5,5.3,22c-4,7.4-9.3,24.9-5.1,30.1
		c5,6.2,6,8.8,2.9,15.7c-1.6,3.5-1.6,9.3-1.2,14.1c-4.7,8.3-16.4,29.2-30,51.7c-26.3,41.2-14.4,87-9.3,102.3
		c-12.9-0.3-49.1,4.8-53.3,70c-4.3,67.4,3.6,124.7,6.1,140.5C36,634,80.3,658,96,675.6c1.5-1.5,4.6-4.9,8-9.8
		c-0.2-0.1-0.4-0.2-0.6-0.2l1.2-0.6c4.3-6.3,8.9-15,11.1-25.2c4.8-21.9-14.3-20.5-14.3-20.5l38.9-10.7c-1.3,16.8-2.3,34.1-5.8,46.5
		c5.1,5.9,15.4,16.9,19.3,13.8c5.2-4.3-3.8,15.7,11.9,24.8c11.8,6.8,23,4.3,31.7,4.8c-1.1-1.2-1.8-2-1.9-2.1l6.9,3
		c0.9,0.3,1.8,0.7,2.7,1.2l-2.7-1.2c-1.6-0.5-3.2-0.7-5-0.8c4,4.4,13.3,14.1,18.1,14.7c6.2,0.7,11.2,11.7,16.2,11.7
		c5,0,14.3-13.8,14.3-13.8s14.5,13.6,21.2,11.9s16.9-14.3,16.9-14.3s18.8,7.6,22.9,6.2c4-1.4,9.5-10,9.5-10s10.7,9.8,17.4,6.7
		c6.5-3,15.4-30.5,15.5-48.4c-1.1,0.6-1.8,1-1.8,1l1.8-2.7c0,0.6,0,1.1,0,1.7c2.9-1.7,8.3-5.1,7.8-6.3c-0.6-1.6-6.4,1-7-2.7
		c-0.6-3.6-4.6-18.4-4.6-18.4s4.9,1.9,9.5-1c3.1-1.9,11-1.6,17.7-1.5c6.3,24.9,25,46.5,69.2,50.4c102.1,9.1,77.5-99.9,71.9-120.7
		c4.8-3.7,11.6-9.6,14.3-14.5c5.3-10.4,7.5-19.7,8.3-24.7C535.6,519,533.2,509.5,529.2,504.1z M372.8,582.8
		c-5.1-2.7-22.3-11.9-30-18.1c-8.9-7.2-24-1.2-24.6-1c0.4-0.4,6.7-6.3,12.3-15.1c5.8-9.1,1.2-17.3,0.1-25.9c-0.8-6,6.2-9,10.4-10.3
		c8.5,7.7,25.1,22.3,32.6,25.7c6.1,2.8,8.2,7.6,8.9,11C381.1,552.4,376,565.7,372.8,582.8z M382.8,553.2l0-1.7
		C382.8,552.5,382.8,553.2,382.8,553.2z"/>
	<g>
		<g>
			<path d="M67.4,416.1c-2.5-0.3-5-0.3-7.5-0.1c-2.5,0.2-4.9,0.7-7.3,1.4c-4.7,1.4-9.2,3.6-13,6.7c-3.9,3-7.2,6.7-9.9,10.7
				c-2.7,4.1-4.9,8.5-6.6,13.1c-0.9,2.3-1.6,4.7-2.3,7c-0.6,2.4-1.3,4.7-1.8,7.2l-0.8,3.6l-0.6,3.7c-0.4,2.4-0.7,4.9-1,7.4
				c-0.2,1.2-0.3,2.5-0.3,3.7l-0.3,3.7c-0.2,2.5-0.3,5-0.4,7.5l-0.4,7.5c-0.1,2.5-0.2,5-0.2,7.5l-0.3,7.5l-0.1,7.5
				c0,2.5-0.1,5-0.1,7.5l0,7.5c0,5,0.1,10,0.2,15c0,2.5,0.2,5,0.2,7.5c0.1,2.5,0.1,5,0.2,7.5c0.8,20,2.2,39.9,4.5,59.8
				c-4-19.7-6.2-39.7-7.6-59.7c-0.7-10-1.1-20-1.3-30.1c-0.1-5-0.1-10-0.1-15.1l0.1-7.5l0.2-7.5c0.1-2.5,0.1-5,0.3-7.5l0.4-7.5
				c0.3-5,0.6-10.1,1.2-15.1c0.4-2.5,0.6-5,1.1-7.5l0.7-3.7l0.8-3.7c0.5-2.5,1.3-4.9,2-7.4c0.9-2.4,1.6-4.8,2.6-7.2
				c2-4.7,4.3-9.3,7.3-13.4c3-4.1,6.7-7.9,10.9-10.8C46.8,416.7,57.6,414.2,67.4,416.1z"/>
		</g>
		<g>
			<path d="M30.6,628.9c5.1,0.7,10,2.1,14.8,3.8c4.8,1.8,9.4,3.9,13.9,6.5c4.4,2.6,8.6,5.6,12.4,9.1c3.7,3.6,7,7.7,9.2,12.3
				c-3.6-3.6-7.3-6.9-11.2-9.9c-4-2.9-8.1-5.6-12.4-8.1c-4.3-2.5-8.6-4.8-13.1-7.1C39.7,633.3,35.1,631.2,30.6,628.9z"/>
		</g>
		<g>
			<path d="M101.4,619.4c2.9-0.5,6-0.3,8.8,0.9c1.4,0.6,2.8,1.5,4,2.6c1.2,1.1,2.1,2.5,2.7,4c1.3,3,1.5,6.2,1.3,9.3
				c-0.1,1.5-0.4,3-0.7,4.5c-0.3,1.4-0.7,2.9-1,4.3c-1.6,5.7-3.8,11.2-6.7,16.3c-2.9,5.1-6.4,9.9-10.7,13.8c3.1-5,5.6-10.1,7.9-15.2
				c2.2-5.2,4.2-10.5,5.7-16c0.4-1.4,0.7-2.7,1-4.1c0.2-0.7,0.3-1.3,0.4-2c0.1-0.7,0.2-1.3,0.3-2c0.3-2.7,0.3-5.4-0.4-7.8
				c-0.8-2.4-2.4-4.5-4.7-6C107.1,620.5,104.3,619.7,101.4,619.4z"/>
		</g>
		<g>
			<path d="M140.5,607.5c0.4,5.8,0.3,11.6-0.1,17.4c-0.3,5.8-1,11.6-2,17.3c-1,5.7-2.4,11.4-4.5,17c-1.1,2.7-2.3,5.5-4.2,7.9
				c-0.9,1.2-2,2.4-3.4,3.1c-0.7,0.3-1.5,0.7-2.2,0.7c-0.8,0.1-1.5-0.2-2.2-0.5c1.5,0.3,2.8-0.2,3.8-1.1c1-0.9,1.7-2,2.3-3.3
				c0.6-1.2,1.2-2.5,1.6-3.8c0.5-1.3,0.9-2.7,1.3-4c1.5-5.4,2.5-11.1,3.5-16.7l2.9-17C138.2,618.8,139.2,613.2,140.5,607.5z"/>
		</g>
		<g>
			<path d="M138.1,655.1c2.3,3,4.6,5.9,7.2,8.5c1.3,1.3,2.6,2.6,4.1,3.5c0.7,0.4,1.4,0.8,2.1,0.9c0.6,0.1,1,0,1.4-0.3
				c0.1-0.1,0.4-0.4,0.7-0.5c0.3-0.2,0.6-0.5,1.5-0.5c0.5,0,1,0.2,1.4,0.5c0.3,0.3,0.5,0.6,0.6,0.8c0.2,0.5,0.3,0.8,0.3,1.1
				c0.2,1.2,0.2,2.1,0.2,3c0,1.9,0.1,3.7,0.4,5.4c0.4,3.5,1.5,6.8,3.5,9.5c1,1.4,2.1,2.6,3.5,3.6c0.7,0.5,1.4,1,2.1,1.4
				c0.8,0.4,1.6,0.8,2.3,1.3c3.2,1.6,6.6,2.5,10.1,2.9c3.6,0.4,7.2,0.2,11,0.1c1.9,0,3.8,0,5.7,0.4c1.9,0.4,3.7,1.1,5.3,2.2
				c-1.8-0.7-3.6-1.1-5.4-1.1c-1.8,0-3.6,0.2-5.5,0.5c-3.7,0.5-7.5,1.2-11.4,1.1c-3.9,0-7.9-1-11.5-2.6c-0.9-0.4-1.8-0.9-2.7-1.3
				c-0.9-0.5-1.8-1-2.6-1.6c-1.7-1.2-3.2-2.7-4.4-4.4c-2.4-3.4-3.6-7.5-4-11.4c-0.2-2-0.1-3.9-0.1-5.8c0-0.9,0-1.9,0-2.6
				c0-0.2,0-0.3,0-0.3c0,0,0.1,0.1,0.2,0.3c0.2,0.2,0.5,0.3,0.7,0.3c0.4,0,0.3-0.1,0.2,0c-0.1,0.1-0.2,0.1-0.5,0.3
				c-0.6,0.4-1.3,0.7-2,0.8c-0.7,0.1-1.4,0-2-0.2c-1.2-0.4-2.1-1-2.9-1.6c-1.6-1.3-2.8-2.8-4-4.3
				C141.5,661.8,139.6,658.6,138.1,655.1z"/>
		</g>
		<g>
			<path d="M69.3,415.7c-3.1-5.9-5.2-12.3-7-18.7c-1.7-6.5-2.9-13.1-3.4-19.8c-1.1-13.4,0.2-27.1,4.3-40c2-6.5,4.7-12.7,8-18.6
				c1.6-3,3.5-5.8,5.2-8.6c1.8-2.8,3.5-5.6,5.3-8.4c7.1-11.2,14.4-22.3,22.1-33.2c-6.1,11.8-12.6,23.4-19.3,34.9
				c-1.6,2.9-3.3,5.7-5,8.6c-0.8,1.4-1.7,2.9-2.5,4.3c-0.8,1.4-1.6,2.8-2.4,4.3c-3.1,5.7-5.6,11.8-7.6,18c-4,12.4-5.5,25.6-5.1,38.6
				c0.3,6.5,1,13.1,2.2,19.6C65.4,403,67,409.5,69.3,415.7z"/>
		</g>
		<g>
			<path d="M107.8,261.4c-1.3-2.2-2.1-4.8-2.3-7.5c-0.1-1.3-0.1-2.7,0.2-4.1c0.1-0.7,0.3-1.4,0.5-2l0.3-1l0.3-0.9
				c0.4-1.2,0.7-2.3,0.9-3.4c0.2-1.1,0.1-2.1-0.1-3c-0.5-1.9-2-3.9-3.5-5.8l-0.6-0.7c-0.2-0.3-0.5-0.7-0.7-1c-0.4-0.7-0.7-1.4-1-2.1
				c-0.5-1.4-0.7-2.8-0.8-4.2c-0.2-2.8,0-5.4,0.5-8.1c0.5-2.6,1.2-5.1,2.2-7.6c0.5-1.2,1.1-2.4,1.8-3.5c0.7-1.1,1.5-2.2,2.6-3
				c-0.8,1-1.2,2.2-1.6,3.4c-0.4,1.2-0.7,2.4-0.9,3.6c-0.5,2.4-0.8,4.9-1,7.4c-0.2,2.5-0.2,4.9,0.1,7.2c0.2,1.2,0.4,2.3,0.8,3.3
				c0.2,0.5,0.4,0.9,0.6,1.4c0.1,0.2,0.2,0.3,0.4,0.6l0.6,0.8c0.8,1,1.6,2.1,2.3,3.3c0.7,1.2,1.4,2.6,1.7,4.1
				c0.3,1.5,0.2,3.2-0.1,4.6c-0.3,1.4-0.9,2.7-1.5,3.9l-0.8,1.7c-0.3,0.5-0.4,1.1-0.6,1.6c-0.4,1.1-0.6,2.3-0.7,3.5
				C107.2,256.3,107.3,258.9,107.8,261.4z"/>
		</g>
		<g>
			<path d="M106.2,194.9c-1.5-1.6-2.7-3.5-3.5-5.7c-0.7-2.2-1-4.6-0.6-7c0.1-0.6,0.3-1.2,0.4-1.8c0.2-0.6,0.4-1.1,0.7-1.7
				c0.5-1,0.9-2,1.4-2.9l1.4-2.9l0.7-1.4l0.3-0.7l0.1-0.3l0-0.1c0,0,0,0,0,0l0,0l0,0.1l0,0l0,0.1l0,0.2l0-0.3c0.5-3,1.3-5.8,2.2-8.6
				c1-2.8,2.2-5.6,3.9-8.2c0.9-1.3,1.9-2.5,3.1-3.6c0.6-0.5,1.3-1,2.1-1.3c0.7-0.3,1.3-0.5,2-0.8c1.3-0.5,2.6-1.1,3.8-1.8
				c0.6-0.3,1.2-0.7,1.8-1.1c0.6-0.4,1.2-0.8,1.7-1.3c-0.6,1.3-1.7,2.4-2.8,3.4c-1.1,1-2.3,1.9-3.6,2.6c-0.6,0.4-1.3,0.8-1.8,1.1
				c-0.5,0.3-0.9,0.7-1.4,1.2c-0.8,0.9-1.6,2-2.2,3.2c-1.3,2.4-2.2,5-3,7.6c-0.8,2.6-1.5,5.4-2.1,8.1l0-0.3l0,0.2l0,0.1l0,0.1l0,0.1
				l0,0.1l-0.1,0.2l-0.1,0.3l-0.2,0.4l-0.4,0.8c-0.2,0.5-0.5,1-0.8,1.5c-0.5,1-1.1,1.9-1.6,2.9l-1.7,2.8c-0.2,0.4-0.5,0.8-0.7,1.3
				c-0.2,0.4-0.4,0.9-0.5,1.3c-0.6,1.8-0.8,3.8-0.5,5.9C104.7,190.9,105.2,193,106.2,194.9z"/>
		</g>
		<g>
			<path d="M128.8,141.1c-0.6-1.1-1.1-2.4-1.5-3.6c-0.4-1.3-0.6-2.6-0.5-4.1c0-0.4,0.1-0.7,0.2-1.1c0.1-0.4,0.3-0.8,0.5-1.1l0.4-0.5
				l0.3-0.4l0.6-0.8c0.8-1,1.6-2,1.9-2.8c0.1-0.4,0.1-0.5,0-0.7c0-0.1-0.1-0.2-0.2-0.3c0-0.1-0.1-0.2-0.2-0.3l-0.3-0.3
				c-0.9-0.8-2-1.8-2.9-3.1c-0.5-0.6-0.8-1.4-1.1-2.3c-0.2-0.8-0.3-1.7-0.3-2.6c0.1-0.9,0.3-1.7,0.6-2.4c0.1-0.4,0.3-0.7,0.5-1.1
				c0.2-0.4,0.3-0.6,0.4-0.9c0.6-1.1,1.1-2.1,1.3-3.1c0.1-0.5,0.2-0.9,0.2-1.5l0-1.9l0.1-1l0.1-0.5c0-0.2,0-0.3,0.1-0.6
				c0.1-0.9,0.4-1.5,0.7-2.2c0.5-1.3,1.2-2.5,1.8-3.7c1.4-2.3,3-4.4,4.8-6.3c0.9-0.9,1.9-1.8,3.1-2.6c0.6-0.4,1.2-0.7,1.8-0.9
				c0.6-0.2,1.3-0.4,2-0.3c-1.3,0.2-2.2,1.2-3.1,2c-0.8,0.9-1.6,1.9-2.3,3c-1.4,2.1-2.5,4.3-3.6,6.6c-0.5,1.1-1,2.3-1.3,3.4
				c-0.2,0.5-0.3,1.1-0.3,1.5c0,0.1,0,0.2,0,0.4l0,0.4l0,0.9c0,0.6,0,1.2,0,2c0,0.7-0.1,1.6-0.3,2.3c-0.4,1.5-1,2.8-1.6,4
				c-0.1,0.3-0.4,0.6-0.4,0.9c-0.1,0.2-0.2,0.5-0.3,0.7c-0.2,0.5-0.3,0.9-0.3,1.3c-0.1,0.8,0.1,1.6,0.6,2.4c0.5,0.9,1.3,1.7,2.2,2.7
				l0.4,0.4c0.1,0.1,0.2,0.3,0.4,0.5c0.3,0.4,0.6,0.8,0.7,1.3c0.2,0.5,0.2,1.1,0.1,1.7c-0.1,0.5-0.3,1-0.5,1.4
				c-0.4,0.8-0.9,1.3-1.4,1.9c-0.5,0.5-1,1-1.4,1.4c-1.1,1-1.7,1.4-2,2.5c-0.3,1.1-0.4,2.3-0.4,3.6
				C128.4,138.5,128.6,139.8,128.8,141.1z"/>
		</g>
		<g>
			<path d="M175,45.4c-3.4,0.6-6.7,1.4-10,2.3c-3.3,1-6.6,2-9.4,3.7c-0.7,0.4-1.3,0.9-1.8,1.4c-0.5,0.5-0.8,1.1-0.7,1.5
				c0,0.1,0,0.2,0,0.4l0.2,0.6c0.1,0.4,0.2,0.7,0.4,1.1c0.3,0.7,0.7,1.2,1.2,1.7c0.3,0.2,0.5,0.4,0.9,0.7c0.3,0.2,0.8,0.5,1.3,1.2
				c0.3,0.4,0.4,0.8,0.4,1.3c0,0.4,0,0.8-0.1,1.1c-0.1,0.3-0.2,0.6-0.3,0.8c-0.1,0.2-0.2,0.5-0.3,0.7c-0.5,0.9-0.9,1.5-1.2,2.3
				c-0.4,0.7-0.7,1.5-1.1,2.3c-1.4,3.1-2.5,6.3-3.4,9.5c-0.9,3.2-1.6,6.5-1.6,9.7c0,0.8,0,1.6,0.1,2.4l0.1,1.1l0.3,1.1l0.1,0.5
				c0,0.2,0.1,0.3,0.2,0.5l0.4,1c0.4,0.6,0.7,1.3,1.2,1.9c1.8,2.5,4.4,4.3,7.3,6.1c1.4,0.9,2.9,1.9,4.4,3c1.5,1.1,2.8,2.5,4,4
				l0.8,1.2c0.3,0.4,0.5,0.8,0.7,1.2l0.4,0.6l0.3,0.6l0.6,1.2c0.7,1.6,1.5,3.2,2.2,4.8c1.3,3.3,2.3,6.9,2.5,10.6
				c0.1,3.8-1,7.7-3.3,10.7c-2.2,3-5.1,5.4-8.2,7.1c-3.1,1.7-6.4,3-9.8,4c-6.7,2-13.6,3.1-20.5,3.6c6.8-1.3,13.5-3,19.8-5.4
				c6.3-2.4,12.6-5.6,16.1-11c0.4-0.7,0.8-1.4,1.1-2.1l0.4-1.1c0.1-0.2,0.1-0.4,0.2-0.5l0.1-0.6l0.3-1.1l0.1-1.1
				c0.1-0.4,0.1-0.8,0.1-1.2c0-0.4,0-0.8,0-1.2c-0.2-3.1-1.1-6.3-2.5-9.3c-0.6-1.5-1.4-3-2.1-4.6l-0.6-1.1l-0.3-0.6l-0.3-0.5
				c-0.2-0.3-0.4-0.7-0.6-1l-0.7-0.9c-0.9-1.2-2.1-2.3-3.3-3.3c-1.3-1-2.7-1.9-4.1-2.8c-1.4-0.9-3-1.9-4.4-3.1
				c-1.4-1.2-2.8-2.5-3.9-4.1c-0.6-0.8-1-1.6-1.5-2.5c-0.4-0.9-0.8-1.9-1-2.8c-0.1-0.5-0.2-1-0.3-1.4l-0.1-1.4c-0.1-1,0-1.9-0.1-2.8
				c0.2-3.7,1-7.2,2-10.6c1.1-3.4,2.4-6.6,4-9.8c0.4-0.8,0.8-1.6,1.3-2.3c0.4-0.8,1-1.6,1.3-2.2c0.1-0.2,0.2-0.3,0.2-0.5
				c0.1-0.2,0.1-0.3,0.2-0.4c0.1-0.2,0-0.2,0.1-0.2c0,0,0,0.1,0,0.1c0,0-0.2-0.3-0.6-0.5c-0.3-0.3-0.7-0.6-1.1-1
				c-0.7-0.8-1.2-1.7-1.6-2.6c-0.2-0.5-0.3-0.9-0.4-1.4l-0.2-0.7c0-0.3-0.1-0.6-0.1-0.9c0.1-1.3,0.8-2.3,1.5-3
				c0.7-0.7,1.6-1.2,2.4-1.6c1.6-0.8,3.3-1.4,5-1.9c1.7-0.5,3.4-0.9,5.1-1.2C168.1,46,171.6,45.6,175,45.4z"/>
		</g>
		<g>
			<path d="M180,42.3c1.7-3.7,3.7-7.2,6.3-10.5c0.7-0.8,1.4-1.6,2.1-2.3c0.8-0.7,1.7-1.4,2.8-2c0.6-0.2,1.2-0.5,1.9-0.5
				c0.3,0,0.8,0,1.1,0.1l0.7,0.1c0.9,0.1,1.9,0.2,2.9,0.2c3.9,0.1,7.9,0.2,11.9,0c3.9-0.2,7.9-0.4,11.7-1l1.4-0.2l1.3-0.3l1.2-0.4
				l1.4-0.6c1.9-0.8,3.8-1.5,5.7-2.2c3.8-1.3,7.7-2.6,11.6-3.6c4-1,8-1.9,12.2-1.8c1.1,0,2.1,0.1,3.2,0.5l0.8,0.3
				c0.3,0.2,0.5,0.3,0.8,0.5c0.5,0.4,0.8,0.8,1.1,1.2c0.7,0.8,1.3,1.5,2,2.2c0.3,0.4,0.7,0.7,1.1,1c0.4,0.3,0.8,0.7,1.3,0.8
				c-0.5,0-1-0.3-1.4-0.5c-0.4-0.3-0.9-0.5-1.3-0.8c-0.8-0.6-1.6-1.2-2.4-1.9c-0.4-0.3-0.8-0.7-1.1-0.9c-0.2-0.1-0.4-0.2-0.6-0.2
				l-0.6-0.2c-0.9-0.1-1.8-0.1-2.8,0c-1.9,0.2-3.8,0.6-5.7,1.1c-1.9,0.5-3.8,1.1-5.7,1.7c-3.7,1.3-7.5,2.6-11.2,4.2
				c-1.8,0.7-3.7,1.5-5.5,2.3l-1.4,0.6c-0.5,0.2-1.1,0.4-1.6,0.6l-1.6,0.4c-0.5,0.1-1,0.2-1.6,0.3c-8.3,1.1-16.3,1.1-24.5,0.2
				c-1-0.1-2-0.3-3.1-0.5l-0.8-0.2c-0.2,0-0.2-0.1-0.4-0.1c-0.3,0-0.6,0.1-1,0.2c-1.5,0.5-3.1,1.9-4.4,3.2
				C184.9,35.8,182.4,39,180,42.3z"/>
		</g>
		<g>
			<path d="M271,20.6c4.7-2.4,9.9-3.9,15.2-4.7c5.3-0.7,10.9-0.7,16.3,1.2c1.3,0.5,2.6,1.1,3.9,1.8c0.6,0.4,1.2,0.8,1.8,1.2l1.6,1.1
				c2.1,1.5,4.2,2.9,6.4,4.3c2.2,1.4,4.4,2.8,6.6,4.6c0.5,0.5,1,1,1.5,1.6c0.4,0.6,0.8,1.3,0.8,2.1c0.1,1.6-0.6,2.8-1.4,3.9
				c0.4-1.2,0.8-2.6,0.4-3.6c-0.4-1-1.3-1.7-2.4-2.4c-2.1-1.3-4.6-2.2-6.9-3.5c-2.4-1.2-4.7-2.5-7-3.9c-0.6-0.4-1.1-0.7-1.7-1.1
				c-0.5-0.3-1-0.7-1.5-0.9c-1-0.6-2.1-1.1-3.2-1.5c-4.5-1.6-9.6-2-14.7-1.8C281.4,19.1,276.2,19.8,271,20.6z"/>
		</g>
		<g>
			<path d="M328.9,40.4c1.4,0.6,2.8,1,4.2,1.4c1.4,0.3,2.9,0.6,4.2,0.3c0.3-0.1,0.6-0.2,0.9-0.3c0.3-0.2,0.5-0.3,0.8-0.5
				c0.5-0.4,0.9-0.9,1.4-1.6c0.3-0.3,0.5-0.7,1.3-1c0.2,0,0.4,0,0.6,0c0.2,0,0.3,0.1,0.5,0.1c0.3,0.1,0.5,0.3,0.7,0.4
				c0.7,0.6,1.1,1.2,1.7,1.8c1,1.3,1.5,3.1,1.7,4.6c0.1,0.8,0.2,1.5,0.4,1.9c0.2,0.5,0.3,0.5,0.8,0.7c0.1,0,0.2,0.1,0.4,0.1
				c0.1,0,0.3,0.1,0.4,0.1c0.3,0,0.6,0,0.9,0l1-0.1l1.1-0.1l4.4-0.5c1.5-0.2,3-0.3,4.7-0.2c0.9,0.1,1.8,0.3,2.7,0.7
				c0.9,0.5,1.7,1.1,2.3,1.9c0.3,0.4,0.5,0.8,0.7,1.2l0.5,0.9c0.4,0.6,0.7,1.2,1.1,1.8c0.8,1.2,1.6,2.4,2.4,3.7
				c3.2,4.8,6.6,9.6,10.4,14c0.9,1.1,1.9,2.1,2.9,3.1c0.5,0.5,1,0.9,1.5,1.3c0.5,0.4,1,0.7,1.4,0.9c0.2,0.1,0.5,0.2,0.8,0.2
				c0.3,0.1,0.6,0.1,0.9,0.2c0.3,0.1,0.6,0.1,0.9,0.1c0.3,0,0.6,0,1,0c1.3,0,2.7-0.2,4.2-0.3c1.5-0.1,3-0.4,4.8-0.2
				c0.9,0.1,2,0.3,3,1.1c0.3,0.2,0.4,0.4,0.7,0.6c0.2,0.2,0.4,0.5,0.5,0.6c0.3,0.4,0.5,0.8,0.7,1.2c0.8,1.6,1.1,3.2,1.4,4.5
				c0.3,1.4,0.7,2.6,1.4,3.5c0.3,0.5,0.7,0.8,1.2,1.2c0.6,0.4,1.2,0.9,1.8,1.4c1.2,0.9,2.4,1.9,3.4,3.1c2.1,2.2,3.9,5.2,4.2,8.4
				c0.2,1.6-0.1,3.2-0.6,4.7c-0.5,1.5-1.2,2.9-2.1,4.1c-1.8,2.5-4.4,4.4-7.3,4.9c2.8-1,5-3.1,6.4-5.5c1.3-2.5,2.1-5.4,1.6-8
				c-0.5-2.6-2.1-4.9-4.1-6.8c-1-0.9-2.1-1.8-3.3-2.6c-0.6-0.4-1.2-0.8-1.8-1.2c-0.7-0.5-1.4-1.1-2-1.8c-1.2-1.4-1.7-3.1-2.2-4.5
				c-0.4-1.5-0.7-2.8-1.3-3.9c-0.1-0.3-0.3-0.5-0.4-0.7c-0.1-0.2-0.1-0.1-0.2-0.2c-0.1,0-0.1-0.1-0.2-0.1c-0.2-0.2-0.7-0.3-1.2-0.3
				c-1.1-0.1-2.5,0.1-4,0.4c-1.5,0.2-3,0.4-4.6,0.4c-0.4,0-0.8,0-1.2,0c-0.4,0-0.8-0.1-1.3-0.1c-0.4-0.1-0.8-0.1-1.3-0.2
				c-0.4-0.1-0.8-0.2-1.3-0.4c-0.9-0.4-1.7-0.9-2.3-1.4c-0.7-0.5-1.3-1-1.8-1.6c-1.1-1.1-2.2-2.2-3.2-3.3
				c-3.9-4.6-7.3-9.5-10.5-14.5c-0.8-1.3-1.6-2.5-2.3-3.8c-0.4-0.6-0.7-1.3-1.1-2c-0.2-0.3-0.4-0.7-0.5-1c-0.2-0.3-0.3-0.5-0.4-0.7
				c-0.3-0.4-0.6-0.7-1-0.9c-0.4-0.2-1-0.4-1.6-0.5c-1.2-0.2-2.6-0.1-4.1-0.1l-4.4,0.3l-1.1,0.1l-1.2,0c-0.4,0-0.8-0.1-1.3-0.1
				c-0.2,0-0.5-0.1-0.7-0.1c-0.2-0.1-0.4-0.1-0.7-0.2c-0.2-0.1-0.5-0.2-0.7-0.4c-0.2-0.2-0.5-0.4-0.7-0.6c-0.2-0.2-0.4-0.5-0.5-0.7
				c-0.1-0.2-0.2-0.5-0.3-0.7c-0.3-1-0.2-1.7-0.3-2.4c-0.1-1.4-0.4-2.6-1-3.7c-0.4-0.6-0.8-1.2-1.2-1.6c-0.2-0.2-0.4-0.2-0.3-0.2
				c0-0.1-0.2,0.1-0.5,0.4c-0.9,1-2.3,2.4-4,2.5c-0.8,0.1-1.6,0-2.3-0.2c-0.7-0.2-1.5-0.4-2.2-0.6C331.5,41.8,330.1,41.1,328.9,40.4
				z"/>
		</g>
		<g>
			<path d="M406,121.7c1.3,1,2.4,2.2,3.4,3.5c1,1.3,2,2.7,2.7,4.2c1.6,3,2.3,6.5,1.8,10.1c-0.1,0.9-0.4,1.8-0.6,2.6
				c-0.3,0.8-0.5,1.6-0.8,2.3c-0.6,1.6-1.2,3.1-1.9,4.6c-0.7,1.5-1.4,3-2.3,4.5c-0.4,0.7-0.8,1.5-1.3,2.2c-0.5,0.7-0.9,1.4-1.5,2.2
				l0.3-0.6l0-0.1c0,0,0,0,0,0c0,0,0,0,0,0.1c0,0.1,0,0.2,0,0.2c0,0.2,0.1,0.4,0.1,0.6c0.1,0.4,0.3,0.9,0.5,1.3
				c0.5,0.9,1.2,1.8,2,2.6c0.4,0.4,0.8,0.8,1.3,1.2c0.5,0.4,0.9,0.8,1.4,1.3c1,0.9,1.9,1.9,2.8,3c1.7,2.1,3.1,4.5,4.1,7
				c1,2.5,1.7,5.1,2,7.8c0.7,5.3,0,10.6-1.6,15.6c-0.8,2.5-1.9,4.9-3.2,7.1c-1.3,2.2-2.9,4.4-5.1,5.7c1.8-1.8,3-4.1,3.9-6.3
				c1-2.3,1.6-4.7,2.2-7.1c0.5-2.4,0.8-4.9,0.9-7.3c0.1-2.4-0.1-4.9-0.5-7.2c-0.4-2.4-1.1-4.7-2.1-6.8c-1-2.2-2.2-4.2-3.7-6
				c-0.7-0.9-1.6-1.8-2.4-2.5c-0.2-0.2-0.4-0.4-0.6-0.6l-0.7-0.7c-0.5-0.4-1-0.9-1.5-1.4c-1-1-1.8-2.2-2.5-3.5
				c-0.3-0.7-0.6-1.4-0.8-2.2c-0.1-0.4-0.2-0.8-0.2-1.3c0-0.2,0-0.5,0-0.7c0-0.1,0-0.3,0-0.4c0-0.1,0-0.1,0-0.2c0-0.1,0-0.1,0.1-0.3
				l0.1-0.3l0.2-0.3c0.9-1.1,1.8-2.5,2.6-3.8c0.8-1.3,1.6-2.7,2.3-4.1c0.7-1.4,1.5-2.8,2.1-4.3c0.3-0.7,0.6-1.5,1-2.2
				c0.3-0.7,0.5-1.4,0.7-2.1c0.7-2.8,0.4-6-0.6-8.9C409.6,127.1,408,124.3,406,121.7z"/>
		</g>
		<g>
			<path d="M407.2,219.2c0.1,2.8-0.7,5.8-2.9,7.9c-1.1,1.1-2.4,1.8-3.7,2.4c-1.3,0.6-2.6,1.1-3.9,1.7c-2.6,1-5.3,1.9-7.7,3.1
				c-1.2,0.6-2.3,1.3-3.1,2.1c-0.8,0.8-1.5,1.9-1.8,3c-0.7,2.1,0.1,4.5,1.5,6.6c1.4,2.1,3.3,4,5.4,5.7c4.1,3.5,8.8,6.4,13.6,9.2
				c1.2,0.7,2.4,1.5,3.6,2.2l3.6,2.3l0.9,0.6l0.9,0.7l1.7,1.3c1.1,0.9,2.3,1.7,3.4,2.7l3.1,3l1.6,1.5c0.5,0.5,1,1.1,1.4,1.6l2.8,3.3
				l2.5,3.5c3.2,4.8,5.7,10.1,7.1,15.6c1.3,5.5,1.9,11.4,0.7,16.9c0.3-5.6-0.8-11.2-2.6-16.3c-1.8-5.2-4.5-10-7.8-14.4l-2.5-3.2
				l-2.8-3c-0.5-0.5-0.9-1-1.4-1.5l-1.5-1.4l-3.1-2.7l-3.3-2.5l-1.6-1.2l-0.8-0.6l-0.9-0.5l-3.5-2.2c-1.2-0.7-2.3-1.5-3.5-2.2
				c-4.9-2.9-9.7-5.9-14.1-9.8c-2.2-1.9-4.2-4.1-5.9-6.7c-0.8-1.3-1.5-2.8-1.8-4.4c-0.3-1.6-0.2-3.4,0.4-5c0.6-1.6,1.5-2.9,2.7-4
				c1.3-1.1,2.6-1.8,4-2.4c2.7-1.1,5.5-1.8,8.1-2.6c1.3-0.4,2.7-0.8,4-1.2c1.3-0.5,2.5-1,3.5-1.8C405.7,224.7,406.9,222,407.2,219.2
				z"/>
		</g>
		<g>
			<path d="M430.6,315c4,4.3,7.2,9.3,10,14.5c2.7,5.2,4.9,10.8,6.2,16.7c0.6,2.9,1.1,5.9,1.3,8.9c0.2,3,0.1,6-0.2,9
				c-0.7,6-2.4,11.9-5,17.3c-2.5,5.3-5.2,10.5-7.9,15.7c-2.8,5.1-5.7,10.2-8.8,15.2c-6.1,10-12.6,19.7-19.8,28.9
				c5.8-10.1,11.6-20.3,17.1-30.5c2.7-5.1,5.5-10.2,8.1-15.4c2.6-5.2,5.2-10.4,7.7-15.6c2.6-5.1,4.2-10.5,4.9-16.1
				c0.4-2.8,0.5-5.6,0.4-8.4c-0.1-2.8-0.4-5.6-0.8-8.5c-1-5.6-2.6-11.1-4.9-16.4C436.6,325,433.8,319.8,430.6,315z"/>
		</g>
		<g>
			<path d="M404,432.2c1.9,3.7,4.2,7.2,6.7,10.5c2.5,3.3,5.1,6.5,8,9.4c0.7,0.7,1.4,1.5,2.2,2.2l2.2,2.1c0.7,0.7,1.6,1.3,2.3,2
				c0.8,0.6,1.5,1.3,2.4,1.9c3.2,2.5,6.6,4.8,10.1,6.8c3.5,2.1,7.1,3.8,10.9,5.6c1.9,0.9,3.8,1.7,5.7,2.7l2.8,1.4
				c0.9,0.5,1.9,1,2.8,1.5c3.7,1.9,7.4,4.1,10.9,6.4c1.7,1.2,3.5,2.4,5.1,3.8c0.8,0.7,1.6,1.4,2.3,2.2c0.4,0.4,0.7,0.8,1,1.2
				c0.3,0.4,0.6,0.9,0.8,1.4c-0.5-0.9-1.4-1.5-2.2-2.2c-0.8-0.6-1.7-1.2-2.6-1.7c-1.8-1.1-3.6-2.1-5.4-3c-3.7-1.9-7.4-3.6-11.2-5.3
				c-3.8-1.6-7.6-3.3-11.5-4.9c-1.9-0.8-3.9-1.7-5.8-2.6c-2-0.8-3.8-2-5.7-3c-3.7-2.2-7.2-4.6-10.5-7.4c-0.8-0.7-1.6-1.4-2.4-2.1
				c-0.8-0.7-1.6-1.4-2.3-2.2c-1.5-1.5-3-3-4.3-4.7c-2.8-3.2-5.2-6.8-7.3-10.4C407,440,405.1,436.2,404,432.2z"/>
		</g>
		<g>
			<path d="M477.7,493.1c2.5-0.5,5.1-0.9,7.6-1.1c2.6-0.2,5.2-0.3,7.8-0.1c1.3,0.1,2.6,0.3,4,0.7c0.7,0.1,1.4,0.5,2.1,0.7
				c0.6,0.3,1.2,0.5,1.7,0.8c2.3,1.2,4.6,2.3,6.9,3.8l-2.7,0.6c1.2-1.9,2.4-3.4,4.2-4.9c0.9-0.7,1.9-1.3,3.3-1.7
				c0.7-0.2,1.4-0.2,2.1-0.2c0.7,0.1,1.5,0.3,2.1,0.6c0.6,0.3,1.2,0.7,1.6,1.2l0.4,0.4l0.4,0.3c0.7,0.5,1.5,1,2.3,1.5
				c1.6,1,3.3,2.1,4.9,3.3c0.8,0.6,1.6,1.3,2.3,2c0.4,0.4,0.7,0.8,1.1,1.2l0.5,0.7l0.4,0.6c1.1,1.7,2,3.5,2.7,5.3
				c1.5,3.7,2.4,7.5,2.6,11.4c-1.2-3.7-2.7-7.2-4.6-10.4c-0.9-1.6-2-3.1-3.1-4.6L528,505l-0.4-0.4c-0.3-0.3-0.6-0.6-0.9-0.9
				c-0.7-0.6-1.4-1.1-2.2-1.6c-1.5-1-3.2-1.9-4.8-2.9c-0.8-0.5-1.7-1-2.6-1.6c-0.2-0.2-0.5-0.3-0.7-0.5l-0.6-0.6
				c-0.2-0.2-0.5-0.4-0.7-0.5c-0.5-0.2-0.8-0.3-1.4-0.1c-0.5,0.1-1.2,0.5-1.8,1c-1.2,1-2.5,2.4-3.4,3.7l-1.1,1.7l-1.6-1.1
				c-2-1.3-4.2-2.7-6.3-3.9l-1.6-0.9c-0.5-0.2-0.9-0.5-1.5-0.7c-1.1-0.4-2.3-0.7-3.5-0.9c-2.4-0.5-4.9-0.7-7.4-1
				C482.8,493.5,480.3,493.3,477.7,493.1z"/>
		</g>
		<g>
			<path d="M532.5,531.3c0.8,3,0.7,6.1,0.3,9.2c-0.4,3.1-1.4,6.1-2.8,8.9c-1.5,2.7-3.3,5.3-5.4,7.4c-2.1,2.2-4.5,4.1-7.3,5.5
				l4.8-7.5c1.6-2.4,3-4.9,4.4-7.3c1.3-2.5,2.4-5,3.3-7.8C530.8,537,531.6,534.2,532.5,531.3z"/>
		</g>
		<g>
			<path d="M381,556.5c-5,13.4-8.6,27.4-10,41.6c-0.7,7.1-0.9,14.2-0.3,21.3c0.6,7,2,14,4.4,20.6c2.5,6.5,6,12.7,10.6,17.9
				c2.3,2.6,4.8,5,7.6,7.2c2.7,2.2,5.7,4,8.7,5.7c3,1.7,6.3,3.1,9.5,4.4c1.7,0.6,3.3,1.2,5,1.7l2.5,0.8l2.6,0.7
				c6.8,1.8,13.8,2.9,20.9,3.4c7,0.6,14.1,0.8,21.1,0.2c3.5-0.3,7-0.8,10.4-1.5c3.4-0.7,6.8-1.7,10-2.9c6.5-2.5,12.6-6,17.6-10.8
				c5.1-4.7,9.1-10.5,12.1-16.9c3-6.3,4.9-13.2,6-20.2c1.2-7,1.6-14.1,1.6-21.2c-0.1-14.3-2.1-28.5-5.5-42.5
				c2.2,6.8,3.8,13.9,5.1,20.9c1.2,7.1,2.1,14.3,2.4,21.5c0.3,7.2,0,14.5-1,21.7c-1,7.2-2.8,14.3-5.8,21.1c-3,6.7-7.1,13-12.5,18.1
				c-5.3,5.2-11.8,9-18.7,11.7c-6.9,2.6-14.2,4.1-21.5,4.7c-7.3,0.7-14.6,0.5-21.8-0.1c-7.2-0.6-14.4-1.8-21.5-3.6l-2.6-0.7
				l-2.6-0.8c-1.8-0.5-3.5-1.2-5.2-1.8c-3.4-1.4-6.8-2.8-10-4.7c-3.2-1.8-6.3-3.9-9.2-6.2c-2.9-2.3-5.5-4.9-7.9-7.7
				c-4.8-5.6-8.4-12.2-10.9-19.1c-2.4-6.9-3.7-14.2-4.1-21.5c-0.4-7.3,0-14.5,1-21.7c1-7.2,2.6-14.2,4.6-21.1
				C375.7,569.8,378,563,381,556.5z"/>
		</g>
		<g>
			<path d="M202.6,704.9c1.7,1.7,3.5,3.2,5.4,4.5c1.9,1.3,4,2.5,6.1,3c0.6,0.2,1,0.2,1.7,0.3c0.7,0.1,1.3,0.3,1.9,0.5
				c1.2,0.5,2.2,1.2,3.2,1.9c1.9,1.5,3.5,3.3,5.2,4.9c0.8,0.8,1.6,1.6,2.5,2.3c0.9,0.7,1.8,1.2,2.6,1.4c0.4,0.1,0.7,0.1,1.1-0.1
				c0.4-0.1,0.8-0.4,1.3-0.6c0.9-0.6,1.7-1.3,2.5-2c3.2-3.1,6-6.9,8.6-10.7l1-1.5l1.4,1.2c2.9,2.5,6,5,9.1,7.1
				c1.6,1.1,3.2,2,4.9,2.8c1.6,0.8,3.4,1.4,4.8,1.4c0.2,0,0.3,0,0.5,0c0.2,0,0.3,0,0.5-0.1c0.4-0.2,0.7-0.2,1.1-0.4
				c0.8-0.3,1.5-0.8,2.3-1.3c1.5-1,3-2.2,4.4-3.5c2.8-2.6,5.5-5.5,7.9-8.4l0.9-1.1l1.4,0.5c2.9,1.1,5.8,2.3,8.8,3.3
				c2.9,1,5.9,2,8.9,2.6c0.7,0.2,1.5,0.3,2.1,0.4c0.7,0.1,1.4,0.1,1.7,0c0.3-0.1,0.9-0.4,1.4-0.8c0.3-0.2,0.5-0.4,0.8-0.6
				c0.3-0.2,0.5-0.5,0.8-0.7c2.1-2,4-4.5,5.7-7l1.2-1.7l1.5,1.4c2,1.8,4.2,3.4,6.6,4.8c2.3,1.3,4.9,2.4,7.2,2.3
				c0.6,0,1.1-0.1,1.6-0.3c0.5-0.2,0.9-0.5,1.4-0.9c0.9-0.8,1.8-1.8,2.6-2.9c1.6-2.2,2.9-4.7,4.1-7.2c2.4-5.1,4.2-10.4,5.7-15.9
				c1.4-5.5,2.4-11.1,2.5-16.8c0.4,5.7-0.1,11.5-1.2,17.1c-1.1,5.6-2.6,11.2-4.8,16.6c-1.1,2.7-2.4,5.3-4,7.8
				c-0.8,1.2-1.7,2.5-2.9,3.6c-0.3,0.3-0.6,0.5-1,0.8c-0.4,0.2-0.8,0.5-1.2,0.6c-0.8,0.4-1.7,0.6-2.5,0.6c-1.7,0.2-3.3-0.1-4.8-0.6
				c-1.5-0.5-2.9-1.1-4.2-1.8c-2.7-1.4-5-3.1-7.4-5.1l2.7-0.4c-1.8,2.8-3.7,5.4-6.1,7.8c-0.3,0.3-0.6,0.6-0.9,0.9
				c-0.3,0.3-0.7,0.6-1,0.9c-0.7,0.6-1.5,1.1-2.7,1.4c-1.3,0.3-2.1,0.2-3,0.1c-0.9-0.1-1.7-0.2-2.5-0.4c-3.2-0.7-6.3-1.6-9.3-2.7
				c-3-1-6-2.1-9-3.3l2.3-0.6c-2.6,3.1-5.3,6-8.4,8.8c-1.5,1.4-3.1,2.7-4.9,3.8c-0.9,0.6-1.8,1.1-2.9,1.6c-0.5,0.3-1.1,0.4-1.7,0.6
				c-0.3,0.1-0.6,0.1-1,0.2c-0.3,0.1-0.7,0-1,0.1c-1.3,0-2.4-0.3-3.5-0.7c-1-0.4-2-0.8-3-1.3c-1.9-1-3.6-2-5.3-3.2
				c-3.3-2.3-6.4-4.9-9.3-7.7l2.5-0.3c-1.4,2-2.9,3.8-4.4,5.7c-1.5,1.8-3.2,3.6-5,5.2c-0.9,0.8-1.9,1.6-3.1,2.2
				c-0.6,0.3-1.2,0.6-1.9,0.8l-0.6,0.1c-0.2,0-0.4,0-0.6,0c-0.4,0-0.8,0-1.2-0.1c-1.5-0.4-2.5-1.2-3.5-2c-0.9-0.8-1.8-1.7-2.6-2.6
				c-1.6-1.8-3.1-3.6-4.7-5.1c-0.8-0.7-1.7-1.4-2.7-1.9c-0.5-0.2-1-0.4-1.5-0.5c-0.5-0.1-1.2-0.2-1.8-0.4c-2.4-0.8-4.4-2.1-6.2-3.6
				C205.8,708.4,204.1,706.7,202.6,704.9z"/>
		</g>
		<g>
			<path d="M349,517.3c3.5,2.6,6.8,5.3,10.1,8c3.3,2.7,6.5,5.3,9.9,7.7c0.8,0.6,1.7,1.2,2.5,1.7c0.4,0.3,0.8,0.6,1.3,0.8l1.3,0.7
				c2,1,4,2.4,5.6,4.2c3.1,3.6,4.3,8.6,3.2,12.8c-0.6-4.3-2.5-8.1-5.4-10.6c-0.7-0.6-1.5-1.2-2.3-1.7l-0.6-0.4l-0.7-0.3l-1.4-0.6
				c-2.1-0.9-4-2.1-5.8-3.4c-3.6-2.6-6.8-5.5-9.7-8.7C353.9,524.4,351.2,521,349,517.3z"/>
		</g>
		<g>
			<path d="M349.8,663.2c1.2-1,2.4-2,3.5-3.1c0.6-0.5,1.1-1,1.6-1.6c0.5-0.5,1-1.1,1.2-1.5c0-0.1,0-0.1,0,0.1c0,0.1,0,0.1,0,0.2
				c0,0.1,0,0.1,0,0.1c0,0.1,0.1,0.1,0.1,0.2c0.1,0.1-0.2,0-0.5,0c-0.6,0-1.4,0.1-2.3,0.2c-0.9,0-1.9,0-3.1-0.6
				c-0.6-0.3-1.1-0.9-1.4-1.5c-0.3-0.6-0.5-1.3-0.5-1.6c-0.7-2.9-1.6-5.9-2.4-8.9c-0.8-3-1.6-6-2.3-9l-0.9-3.7l3.4,1.4
				c0.2,0.1,0.7,0.2,1.1,0.3c0.4,0.1,0.8,0.2,1.2,0.2c0.8,0.1,1.7,0.1,2.5,0c0.8-0.1,1.6-0.3,2.4-0.6c0.7-0.3,1.8-0.9,2.9-1.2
				c1.2-0.3,2.4-0.2,3.5,0c1.1,0.2,2,0.6,2.9,1c0.9,0.3,1.8,0.6,2.7,0.8c0.9,0.2,1.9,0.3,2.9,0.3c-1.9,0.6-4,0.7-6,0.4
				c-1-0.1-2-0.3-2.8-0.3c-0.9,0-1.6,0.1-2.4,0.4c-0.7,0.3-1.3,0.8-2.4,1.4c-1,0.5-2.1,0.9-3.2,1.2c-1.1,0.2-2.2,0.3-3.4,0.3
				c-0.6,0-1.1-0.1-1.7-0.2c-0.6-0.1-1.1-0.2-1.7-0.4l2.5-2.3c0.9,3,1.7,6,2.4,9c0.7,3,1.5,6,2,9.2c0.1,0.5,0.1,0.5,0.1,0.7
				c0,0.1,0,0.1,0.1,0.2c0.2,0.2,0.8,0.3,1.4,0.4c0.7,0.1,1.4,0.1,2.3,0.2c0.5,0.1,1,0.1,1.7,0.6c0.2,0.1,0.4,0.3,0.5,0.6
				c0.1,0.1,0.1,0.2,0.2,0.4c0,0.2,0.1,0.3,0.1,0.5c0,0.6-0.2,0.9-0.3,1.2c-0.6,0.9-1.3,1.4-2,1.8c-0.7,0.5-1.4,0.9-2.1,1.3
				C352.6,662,351.2,662.6,349.8,663.2z"/>
		</g>
	</g>
	<g>
		<path d="M59.5,615.6c0,0,26.2-19.8,61.7-24.3s42.4,1.2,42.4,1.2s-4.8-3-10.9-4c-2.2,0-8-1.6-9.6-6c-1.6-4.4-10-40.3-10-40.3
			s-4.5,16.7-20.7,18.8c-29.9,3.1-53.7-6-54.3-5c-0.6,1,20.1,5,23.9,15.1c9.9,27.2-19.5,40.7-21.8,44.5H59.5z"/>
		<path d="M74.1,420.9c0,0,4.1,30.5,20.3,39.7s37.8,10.5,44.5,29.9c6.7,19.4,3.8,65.7,3.8,65.7s8,28.3,9.8,30.5
			c1.9,2.2,13.7,6.4,13.7,6.4s-10-99.4-35-126.4C106.2,439.6,74.1,420.9,74.1,420.9z"/>
		<path d="M186.9,450.7c0,0,24.5,58.6,25.2,86c0.7,27.4-1.7,76.9-1.7,76.9s1.2-51.7-13.8-79.1s-9.8-35-8.3-48.6
			c1.4-13.6,1.9-21.2-1.4-25.7C183.6,455.7,186.9,450.7,186.9,450.7z"/>
		<g>
			<path d="M266.8,448.7L255,438l-11.8-10.8c-3.9-3.6-7.8-7.3-11.7-10.9c-2-1.8-3.9-3.7-5.8-5.5l-2.9-2.6c-1-0.9-2-1.6-3-2.5
				c-1-0.8-2.1-1.5-3.1-2.3c-1.1-0.7-2.2-1.4-3.2-2.1c-1.1-0.6-2.2-1.3-3.4-1.8c-1.2-0.5-2.3-1.1-3.5-1.6l-1.8-0.7l-1.8-0.6
				l-0.9-0.3l-0.9-0.2l-1.9-0.5c-2.5-0.5-5-0.8-7.6-1c-5.1-0.1-10.3,0.5-15.3,2.1c-5,1.5-9.9,3.7-14.3,6.7c3.9-3.7,8.6-6.5,13.6-8.5
				c2.5-1,5.1-1.8,7.8-2.4c2.7-0.6,5.4-0.9,8.2-0.9c2.8-0.1,5.5,0.2,8.3,0.7l2,0.4l1,0.2l1,0.3l2,0.6l2,0.7c5.2,1.9,10,4.8,14.3,8.2
				c1,0.9,2.1,1.7,3.2,2.6l3,2.8c1.9,1.9,3.8,3.7,5.7,5.6c3.8,3.8,7.6,7.5,11.2,11.4c3.7,3.8,7.4,7.7,11,11.6
				C259.9,440.6,263.5,444.5,266.8,448.7z"/>
		</g>
		<path class="st1" d="M271.5,447.5"/>
		<path class="st1" d="M343,514.2"/>
		<g>
			<path d="M417.2,369.1c0.4-0.4,0.9-0.9,1.6-1c0.2,0,0.4,0.1,0.5,0.3c0.1,0.2,0.2,0.3,0.2,0.5c0.1,0.3,0.1,0.7,0,1
				c-0.1,1.3-0.4,2.5-0.7,3.7c-0.7,2.4-1.5,4.7-2.4,7c-1.8,4.6-3.8,9.1-5.9,13.6c-1,2.2-2.1,4.5-3.2,6.7c-1.1,2.2-2.2,4.4-3.3,6.6
				c-1.1,2.2-2.3,4.4-3.6,6.5l-1.9,3.2l-2,3.1c-5.5,8.3-12,16.1-20,22.2c-3.9,3.1-8.2,5.7-12.7,7.9c-4.5,2.2-9.1,3.9-13.8,5.3
				c4.5-2.1,8.9-4.2,13.2-6.6c4.2-2.5,8.2-5.3,11.9-8.4c3.7-3.2,7.2-6.6,10.2-10.3c0.8-0.9,1.5-1.9,2.3-2.8c0.7-1,1.5-1.9,2.2-2.9
				c1.4-2,2.9-3.9,4.2-6l2-3.1l1.9-3.1c0.6-1.1,1.3-2.1,1.9-3.2l1.8-3.2c2.4-4.3,4.6-8.7,6.9-13c2.3-4.4,4.5-8.7,6.6-13.2
				c1.1-2.2,2.1-4.4,3-6.7c0.4-1.1,0.9-2.3,1.1-3.5c0-0.3,0.1-0.6,0.1-0.9c0-0.3-0.1-0.5-0.4-0.6
				C418.3,368.3,417.7,368.7,417.2,369.1z"/>
		</g>
		<path d="M381.7,591c0,0-0.4,51.7,40.3,67.6c44.3,17.4,68.1,3.6,68.1,3.6s-44.3,25.7-85.7-0.5C362.9,635.6,381.7,591,381.7,591z"/>
		<path d="M89.7,280.5c0,0,77.2,65.1,172.8,89.9c68,11.8,54,30.2,54,30.2s-3.5,9.5,2.2,22.5c3.1,7,2.8-20.9,16.2-33.3
			c11.6-10.7,36.9-6.3,39.7-1.3c6,10.8,2.2-6.4,17.8-8.6c15.6-2.2,22.5-4.1,25.7-10.2c3.2-6,3.5-13,3.5-13s-55.7,44.6-173.7-2
			c-149.3-56.1-137-87.1-137-87.1L89.7,280.5z"/>
		<path d="M103.1,246.9c0,0,25.3-21.6,28.4-19.1c3.2,2.5,20.3,24.8,20.3,24.8s-20-41.6,41.6-22.5s57.1,27.9,57.2,36.2
			c0.1,8.3-6.4,11.1-6.4,11.1s16.5-7.6,14.3-12.7c-2.2-5.1,17.1,4.4,18.7,12.7c2.9,15.2-18.4,13.7-23.5,16.2
			c-5.1,2.5-12.4,9.5-12.4,9.5s22.5-8.6,33-8.6s31.4-27.9,50.2-22.9c37.2,8.3,36.7,21.3,46.4,29.1c9.7,7.8,25.1,8.9,30,11.6
			c4.9,2.7,8.9,8.6,8.9,8.6s-0.3-5.2-2.9-7.9c-2.5-2.7-18.7-5.7-26.2-9.5c-7.5-3.8-17.4-11.4-11.9-21.3c3.1-4.1,5.6,0.3,8.9-9.2
			s0.2-12.5,0.2-12.5s0.5,13.3-8.3,14.3c-8.8,1-24.5-14.5-41.7-14.3c-35.3-0.2-27.9,12.1-44.1,8.6s-23.3-19.3-40.5-27.2
			c-42.2-20.5-43.6-6.9-56.9-20.5s-21.2-34.1-21.2-34.1s5,19.8,0.1,20c-4.9,0.2-15-15.6-15-15.6s5.4,18.9-1.2,22.4
			c-6.6,3.5-12.6-0.8-19.3,2.7c-6.7,3.6-13.1,14.8-18.3,13.7c-5.2-1.1-11.7-1.8-11.7-1.8l2.6,18.3L103.1,246.9z"/>
		<path d="M195,212.8c0,0-13.3-25.5,4.3-22.6s5.5,12.4,20.5,22.6c15,10.2,54.5,25.2,58.4,24.5c3.8-0.7,8.6,19.1,8.6,19.1
			s7.1-7.1,12.1-5.7c5,1.4,5,1.4,5,1.4s-3.8-6.9,1.9-3.8c5.7,3.1,7.6,1.9,7.6,1.9s1.4-7.4,5.2-3.6c3.8,3.8,6,4,6,4s3.1-6.7,5.7-2.6
			c2.6,4,3.8,5,3.8,5s5-6.2,6.9-2.6s1.9,3.6,1.9,3.6s8.3-3.9,10.2,0.1s2.6,5.2,2.6,5.2l12.9-10c0,0,8.8,6.7,9.5,11.2
			c0.7,4.5-0.5,5.5,9.1,6.7c9.5,1.2,16.8,5.5,16.8,5.5s-7.5-11.4-17-14.1c-9.5-2.6-7.9-18.8-7.9-18.8l-4.3-0.5l-2.1-13.1
			c0,0-15.5-3.1-29.3-3.3c-13.8-0.2-32.6,1.9-34.1-2.1c-1.4-4-1-6-1-6s-16.2,13.6-21,11.7c-4.8-1.9-2.1-14.1-2.1-14.1l-10.5-4.3
			c0,0,0,3.6-1.4,3.3c-1.4-0.2-39.3-16.2-39.3-21.4s7.4-7.6,7.4-7.6s-14.3-16.7-30.2-11.4s-27.9,16.4-25.7,26
			C188.8,211.8,195,212.8,195,212.8z"/>
		<path d="M274.3,160.9c0,0-11.2,32.2,35.7,40.5c20,3.3,31.7,1.4,31.7,1.4s5,6.9,12.6,7.1s20.7-9.5,31.7,0c11,9.5,12.1,11,9.1,16.4
			c-3,5.4-3,5.4-3,5.4l17.9,2.2c0,0-4.4-27.6-18.9-33.6c-14.5-6-22.2-4.3-27.9-6.4c-5.7-2.1-6.2-5.2-15.2-4.5
			c-9.1,0.7-23.3,8.1-36.9,4.3C270,183.7,274.3,160.9,274.3,160.9z"/>
		<path d="M331.6,173.5c0,0,1.6-9.4,11.9-1.6s10.6,14.1,10.6,14.1s11.1-7.5,12.1-3c1,4.4,1.1,7.1,1.1,7.1s8.9-14.9,11.8-12.5
			s2.4,6.4,2.4,6.4s4.9,13.3,16.4,2.7s7.9-17.9,7.9-17.9s0,13-11.3,15.6s-6.7-5.4-6.7-5.4s8.6-7.8,3.8-9.5
			c-4.8-1.7-20.5,12.4-29.2,9.5c-17.1-5.7-19.4-26.4-26.5-20.6C328.8,164.1,331.6,173.5,331.6,173.5z"/>
		<path d="M347.4,155.1c0,0,3.8,7.8,4.3,10.8c0.5,3,3.2,10.6,12.1,9.1s16.4-9,20.3-9.8c4-0.8,6.5-1.5,6.5-1.5s-6.3-1-10.2,0.8
			c-3.9,1.8-5.7,3.4-5.8,0.7c-0.1-2.7,2.5-8.6-0.7-8.2c-3.2,0.5-7.1,10.4-12.5,7.7C355.9,162.1,347.4,155.1,347.4,155.1z"/>
		<path d="M225.3,106.5c0,0,11.8-15.2,15.2-8.6c3.5,6.7-1,14.3,6.7,23.8s-13.7-27.9,32.1-22.5s36.8,36.2,36.8,36.2s4.8,0.5,8.4-7.1
			c3.7-7.6,3.3-8.6,4.9-5.1c1.6,3.5-2.1,10.5-2.1,10.5s3-5.2,5.7-11.4c2.7-6.2,10-11.8,13.3-8.4c3.3,3.3,1.7,9.5,1.7,9.5
			s5.9-15.2,9.1-11.1c3.2,4.1-0.8,12.7-0.6,13.2s8.1-13.8,31.4-7.8s21.1,19.2,21.1,19.2l-2.8-19.1c0,0,10.6-6.7,8.9-12.4
			c-1.7-5.7,1,4.6-9.2,5.1c-10.2,0.5-22.7-1.9-27-7.1c-4.3-5.2-3.3-11.3-3.3-11.3s-7.3,19.1-24.3,14.8c-17-4.3-40.3-31.4-50.3-37.9
			c-10-6.4-21-12.1-21-12.1s17.6,11,19.3,19.1c1.7,5.9-6.9,10.7-6.9,10.7s13.3-9.8,16.9-4.3s11.4,10,6.7,11.4s-44.3,0.7-52.9-1
			s-33.8-6.2-33.8-6.2L225.3,106.5z"/>
		<path d="M390.4,507c-1.3,8.3-6.6,5.7-8.1,17.5c-1.5,11.8-1.5,14.9-5.6,8.6c-4.1-6.3-30.5-34.6-38.7-38.6c-8.3-4-21.6-5.9-21.6-5.9
			s14.3,7.3,22.2,16.2c6.7,7.5,5,9.1,4.4,9.4c-0.7-0.6-1.4-1.2-2-1.8c-4.3,1.3-11.2,4.3-10.4,10.3c1.1,8.6,5.8,16.8-0.1,25.9
			c-5.6,8.8-11.9,14.7-12.3,15.1c0.6-0.2,15.7-6.2,24.6,1c7.1,5.8,22.5,14.1,28.7,17.5c-2.1,8-3.8,21.4-1.2,40.9
			c0.5,3.8,1,7.2,1.6,10.3c-2.5,0-5.1-0.1-7.5-0.1c-3.6-2.8-11.6,0.8-15.9,3.1c-1.7-0.1-2.8-0.6-2.8-0.6s0.2,0.7,0.5,1.9
			c-0.3,0.2-0.5,0.3-0.5,0.3s-3.2-3.8-13.7-16.2c-10.5-12.4-28.6,5.2-46.2-9.5C270,599,271.1,473.5,271.5,447.5
			c8.8,5.1,41.2,22.4,61.6,14.4c5.6-2.2,11.3-4,16.9-6.2c-9.6,6-20.2,14.9-14.6,22.6c9.5,13,24.8,28.6,37.2,28.6
			C385,507,391.7,498.7,390.4,507z"/>
	</g>
	<g>
		<g>
			<path d="M112.8,201.1c2,1,4,1.6,6,1.8c2,0.2,3.9-0.2,5.4-1.2c1.6-0.9,2.9-2.3,3.9-4l1-1.4c0.4-0.5,0.7-1,1.1-1.4
				c0.8-0.8,1.6-1.7,2.5-2.4c3.5-3,7.5-5.1,11.7-6.7c4.2-1.5,8.5-2.6,12.9-2.9c-4,1.9-7.8,3.7-11.6,5.7c-3.7,2-7.3,4.2-10.3,6.9
				c-0.8,0.6-1.5,1.4-2.2,2.1c-0.4,0.3-0.6,0.7-1,1.1l-1,1.2c-1.4,1.9-3.3,3.6-5.6,4.6c-2.3,1-5,1-7.2,0.3
				C116.2,204.1,114.3,202.8,112.8,201.1z"/>
		</g>
		<g>
			<path d="M182.1,184.6c0.9-4.2,2.6-8.2,4.9-12c2.3-3.7,5.4-7.2,9.5-9.4c2.1-1.1,4.5-1.8,6.9-1.8c1.3,0,2.3,0.1,3.3,0.2
				c1.1,0.1,2.1,0.2,3.2,0.4c4.2,0.5,8.4,1.2,12.5,2.2c-4.3,0.6-8.5,0.8-12.7,0.9c-1.1,0-2.1,0-3.2,0c-1,0-2.1,0-3,0
				c-1.8,0.1-3.5,0.7-5.2,1.6c-3.3,1.8-6.2,4.6-8.8,7.7C186.8,177.6,184.5,181.1,182.1,184.6z"/>
		</g>
		<g>
			<path d="M327.2,175.1c-3-0.4-5.9-1-8.8-1.8c-2.9-0.8-5.7-1.9-8.4-3.4c-1.3-0.8-2.6-1.7-3.8-2.8c-1.2-1.1-2.2-2.4-2.9-4
				c-0.7-1.6-0.9-3.4-0.6-5.1c0.3-1.7,0.9-3.3,1.7-4.7c1.6-2.8,3.6-5.2,5.8-7.3c2.2-2.2,4.5-4.2,6.9-6c4.9-3.7,10.1-6.8,15.6-9.4
				c5.5-2.6,11.2-4.7,17.3-6c3-0.6,6.1-1,9.2-1.1c3.1-0.1,6.3,0.2,9.3,1.1l1.1,0.3l1.1,0.4c0.8,0.3,1.5,0.7,2.2,1
				c0.7,0.4,1.3,0.8,2,1.2c0.6,0.4,1.3,0.8,1.9,1.3c2.4,1.9,4.6,4.2,6.4,6.8c1.7,2.6,2.8,5.6,3.2,8.7c0.3,3,0.1,6.1-1,8.9
				c0.6-2.9,0.5-5.9-0.1-8.8c-0.7-2.8-1.9-5.5-3.7-7.7c-1.8-2.3-3.9-4.1-6.3-5.8c-0.6-0.4-1.2-0.7-1.8-1.1c-0.6-0.3-1.2-0.8-1.9-1
				c-0.6-0.3-1.2-0.6-1.9-0.8l-1-0.3l-1-0.2c-5.4-1.2-11.3-0.6-16.9,0.7c-5.6,1.3-11.1,3.4-16.4,5.9c-5.3,2.5-10.3,5.5-15.1,8.9
				c-2.4,1.7-4.6,3.5-6.7,5.5c-2.1,2-4.1,4.1-5.5,6.4c-0.7,1.1-1.3,2.4-1.5,3.6c-0.3,1.2-0.2,2.5,0.2,3.7c0.8,2.4,2.9,4.5,5.3,6.1
				c2.4,1.6,5,2.9,7.8,4.1C321.5,173.4,324.3,174.4,327.2,175.1z"/>
		</g>
		<g>
			<path d="M283.9,167.5c4,4.5,8.4,8.4,13.2,11.6c2.4,1.6,4.9,2.9,7.5,4c0.6,0.3,1.3,0.5,2,0.7c0.7,0.2,1.3,0.5,2,0.7
				c1.4,0.3,2.7,0.8,4.1,0.9l2.1,0.3c0.7,0.1,1.4,0,2.1,0.1c0.7,0,1.4,0.1,2.1,0.1l2.2,0c3,0,5.9-0.1,8.9,0c5.9,0,11.9,0.1,17.9,0.4
				c-5.9,1.4-11.8,2.1-17.7,2.7c-3,0.3-5.9,0.5-8.9,0.7l-2.2,0.1c-0.8,0-1.6,0-2.3,0c-0.8,0-1.6,0-2.4-0.1l-2.3-0.3
				c-1.6-0.2-3.1-0.7-4.6-1.1c-0.8-0.2-1.5-0.5-2.2-0.8c-0.7-0.3-1.5-0.6-2.2-0.9c-1.4-0.7-2.8-1.4-4.1-2.3
				c-0.6-0.4-1.3-0.8-1.9-1.3l-1.8-1.4C290.4,177.7,286.5,172.9,283.9,167.5z"/>
		</g>
		<g>
			<path d="M203.3,144c0.7,0.8,1.5,1.4,2.3,2c0.8,0.6,1.7,1.1,2.6,1.5c1.8,0.8,3.7,1.6,5.6,2.1c3.8,1.1,7.8,1.5,11.8,1.8
				c8,0.4,16-0.3,24-1.5c8-1.1,15.8-3,23.8-4.8c4-0.9,8-1.8,12.1-2.4c1-0.1,2-0.3,3.1-0.4c1-0.1,2.1-0.2,3.1-0.2l1.6,0l1.6,0.1
				c0.5,0,1,0.1,1.5,0.3l1.5,0.4c-4.1-0.4-8,0.6-11.9,1.7c-3.9,1.1-7.8,2.3-11.7,3.5c-3.9,1.2-7.9,2.3-11.8,3.3
				c-4,0.9-8,1.8-12.1,2.4c-4.1,0.6-8.2,1-12.4,1.2c-4.2,0-8.3,0.1-12.5-0.5c-4.1-0.5-8.3-1.4-12.1-3l-1.4-0.6l-1.4-0.7
				c-0.5-0.2-0.9-0.5-1.4-0.8c-0.4-0.3-0.9-0.5-1.3-0.9C206,147.2,204.4,145.7,203.3,144z"/>
		</g>
		<g>
			<path d="M169.8,67.5c-2.3,2.6-4.5,5.4-6,8.4c-1.6,2.9-2.4,6.3-1.2,8.8c1.2,2.5,4.2,4.1,7.2,5.1c3,1,6.3,1.4,9.5,1
				c1.6-0.2,3.1-0.5,4.5-1.1c1.4-0.5,2.7-1.3,3.4-2.2c0.3-0.4,0.5-0.9,0.5-1.3c0-0.4-0.2-1-0.5-1.5c-0.7-1.1-1.9-2.1-3.3-3
				c-1.4-0.9-2.9-1.7-4.3-2.3c-1.5-0.6-3-0.9-4-0.3c-0.5,0.3-0.9,0.9-1.2,1.6c-0.3,0.7-0.4,1.6-0.4,2.4c-0.1,1.7,0,3.4,0.3,5.2
				c-0.7-1.6-1.2-3.3-1.4-5.1c-0.1-0.9-0.1-1.8,0-2.8c0.2-1,0.6-2,1.5-2.8c0.9-0.8,2.1-1.1,3.1-1.1c1,0,2,0.1,2.9,0.4
				c1.9,0.5,3.5,1.3,5.1,2.1c1.6,0.9,3.3,2,4.6,3.8c0.6,0.9,1.2,2,1.3,3.3c0.1,1.3-0.4,2.6-1,3.6c-0.7,1-1.5,1.8-2.3,2.3
				c-0.9,0.6-1.8,1.1-2.7,1.4c-1.8,0.7-3.7,1.2-5.6,1.4c-3.8,0.4-7.6-0.1-11.2-1.5c-1.8-0.7-3.4-1.5-5-2.7c-1.6-1.1-3-2.8-3.8-4.7
				c-0.7-2-0.7-4.2-0.1-6c0.6-1.9,1.5-3.5,2.5-5C164.2,72,166.9,69.5,169.8,67.5z"/>
		</g>
		<g>
			<path d="M215.7,33.8c-0.2,1.8-0.4,3.6-0.3,5.3c0.1,1.7,0.4,3.3,1.1,4.6c1.3,2.6,4.2,3.6,7.5,3.9l10.6,0.5l5.3,0.3
				c1.8,0.1,3.6,0.2,5.4,0.1c-1.6,1-3.4,1.4-5.2,1.9c-1.8,0.4-3.6,0.7-5.4,0.9c-1.8,0.2-3.6,0.3-5.4,0.4c-0.9,0-1.8,0-2.7,0.1
				l-1.4,0l-1.5-0.1c-2-0.2-4-0.6-5.9-1.7c-1.9-1-3.5-2.9-4.1-5c-0.7-2.1-0.6-4.1-0.1-6C213.9,37,214.7,35.3,215.7,33.8z"/>
		</g>
		<g>
			<path d="M282.7,79.7c1.1-1.4,2-2.9,2.6-4.5c0.6-1.6,0.9-3.3,0.3-4.6c-0.5-1.4-1.7-2.3-3.2-3c-1.4-0.7-3.1-1.1-4.7-1.4
				c-3.3-0.5-6.8-0.9-10.2-0.7c-3.3,0.1-6.7,0.8-9.1,2.4c-1.2,0.8-2.1,1.9-2.7,3.1c-0.3,0.6-0.4,1.3-0.6,2c-0.1,0.7-0.1,1.5,0,2.2
				c0.3,3,1.8,6.1,4.1,8.1c2.5,2.2,5.5,4,8.6,5.5c3.1,1.6,6.4,2.9,9.8,4.1c-3.6-0.4-7.1-1.2-10.5-2.3c-3.4-1.2-6.8-2.6-9.9-4.9
				c-1.6-1.1-2.9-2.7-3.9-4.5c-1-1.7-1.7-3.6-2-5.6c-0.3-2-0.1-4.2,0.7-6.2c0.8-2,2.3-3.7,4.1-4.9c1.8-1.2,3.7-1.8,5.6-2.3
				c1.9-0.4,3.8-0.6,5.7-0.6c3.8,0,7.4,0.5,11,1.4c1.8,0.5,3.6,1.1,5.3,2.2c0.8,0.5,1.6,1.2,2.3,1.9c0.7,0.8,1.2,1.8,1.4,2.8
				c0.5,2.1-0.2,4.1-1.2,5.7C285.3,77.2,284.1,78.5,282.7,79.7z"/>
		</g>
		<g>
			<path d="M278.6,78.2c0.5-0.6,1-1.1,1.4-1.8c0.4-0.6,0.7-1.3,0.8-1.9c0.1-0.6-0.1-1.1-0.5-1.4c-0.4-0.3-1-0.6-1.7-0.7
				c-1.3-0.3-2.8-0.4-4.2-0.3c-0.7,0-1.4,0-2.1,0.1l-1,0.1l-1,0.2c-1.3,0.3-2.4,0.9-3,1.6c-0.6,0.7-0.7,1.6-0.5,2.6
				c0.3,1,0.9,2.1,1.7,2.8c0.9,0.8,2.2,1.6,3.4,2.3c5,2.8,10.5,5,16.1,5.8c0.7,0.1,1.4,0.1,2.1,0.2c0.7,0,1.4,0,2.1-0.1
				c1.3-0.1,2.8-0.4,4.2-0.8c1.4-0.3,2.8-0.8,4.2-1.3c0.7-0.3,1.3-0.6,1.9-1c0.6-0.4,1.2-0.9,1.5-1.6c-0.1,0.8-0.6,1.4-1.1,2
				c-0.5,0.6-1.1,1.1-1.8,1.5c-1.3,0.9-2.7,1.6-4.1,2.2c-1.4,0.6-2.8,1.1-4.5,1.5c-0.8,0.2-1.6,0.2-2.4,0.4c-0.8,0-1.6,0.1-2.4,0.1
				c-3.2-0.1-6.3-0.7-9.3-1.7c-3-1-5.8-2.2-8.6-3.8c-1.4-0.8-2.7-1.6-4-2.8c-0.3-0.3-0.7-0.7-1-1.1c-0.3-0.4-0.6-0.8-0.8-1.2
				c-0.5-0.8-0.8-1.7-1-2.7c-0.2-1-0.2-2,0-3c0.2-1,0.8-2,1.5-2.8c1.5-1.5,3.3-2,5-2.3l1.2-0.1l1.2,0c0.8,0,1.6,0.1,2.4,0.2
				c1.6,0.2,3.1,0.5,4.7,1.1c0.8,0.3,1.6,0.7,2.2,1.5c0.3,0.4,0.6,0.8,0.6,1.4c0.1,0.5,0,1-0.2,1.4
				C281.2,76.5,279.9,77.4,278.6,78.2z"/>
		</g>
		<g>
			<path d="M223.8,109.4c-0.5,4.4-0.2,8.9,1,13c1.2,4.1,3.6,7.7,6.9,10.2c3.3,2.5,7.3,3.9,11.5,4.6c1.1,0.1,2.1,0.3,3.2,0.5
				c1.1,0.2,2.2,0.2,3.2,0.3c2.2,0.2,4.3,0.2,6.5,0.3c2.2,0.1,4.4,0,6.6,0c2.2-0.1,4.4-0.2,6.6-0.4c4.4-0.3,8.8-0.7,13.2-1.2
				c8.8-1,17.6-2.2,26.5-3.5c-4.2,1.5-8.5,2.7-12.9,3.8c-2.2,0.6-4.4,1-6.5,1.5c-2.2,0.5-4.4,0.9-6.6,1.3
				c-8.8,1.5-17.8,2.6-26.9,2.5c-2.3-0.1-4.5-0.1-6.8-0.4c-1.1-0.1-2.3-0.2-3.4-0.4c-1.1-0.2-2.3-0.4-3.4-0.6
				c-4.5-0.9-9.2-2.7-12.8-5.9c-1.8-1.6-3.4-3.5-4.5-5.5c-1.2-2.1-1.9-4.3-2.3-6.6C222.2,118.4,222.5,113.7,223.8,109.4z"/>
		</g>
		<g>
			<path d="M227.5,628.9c3.1,0.2,6.1,1,9,2.1c1.4,0.6,2.9,1.3,4.2,2.1c1.4,0.9,2.7,1.9,3.8,3.4c0.5,0.8,1.1,1.6,1.3,2.7
				c0,0.3,0.1,0.6,0.1,0.8c0,0.3,0,0.6,0,0.9c-0.1,0.5-0.1,0.8-0.2,1.2c-0.3,1.6-0.8,3.1-1.3,4.5c-0.5,1.4-0.9,2.6-0.9,3.9
				c-0.1,1.4,0.2,2.9,0.5,4.4c-1-1.2-1.9-2.5-2.4-4.1c-0.3-0.8-0.4-1.7-0.4-2.5c0-0.9,0.1-1.7,0.2-2.5c0.2-1.5,0.5-2.9,0.6-4.3
				c0-0.3,0.1-0.7,0.1-1c0-0.1,0-0.2,0-0.3c0-0.1,0-0.2-0.1-0.3c-0.1-0.4-0.3-0.8-0.7-1.3c-0.3-0.5-0.8-0.9-1.2-1.4
				c-0.5-0.5-1-0.9-1.5-1.3c-1.1-0.9-2.3-1.7-3.5-2.5C232.6,632.2,230,630.7,227.5,628.9z"/>
		</g>
		<g>
			<path d="M273.8,626.4c3.1,0.2,6.1,1.1,8.9,2.6c1.4,0.8,2.7,1.7,3.9,2.9c1.2,1.2,2.3,2.8,2.7,4.7c0.1,0.5,0.1,1,0.2,1.4l0,1.3
				c-0.1,0.8-0.2,1.7-0.4,2.5c-0.4,1.6-0.9,3.1-1.6,4.5c-0.6,1.4-1.4,2.7-2.1,4c-0.7,1.3-1.3,2.5-1.2,4.1c-0.5-0.6-0.7-1.4-0.8-2.3
				c0-0.8,0-1.6,0.1-2.4c0.2-1.6,0.6-3,1-4.4c0.3-1.4,0.6-2.8,0.8-4.1c0.1-0.7,0.1-1.3,0.1-2l0-1c0-0.3,0-0.5-0.1-0.8
				c-0.4-2-2.3-4.1-4.4-5.8C278.8,629.8,276.4,628.1,273.8,626.4z"/>
		</g>
		<g>
			<path d="M316.4,626.4c2.5,0.7,4.9,2,6.8,3.9c1,1,1.9,2.2,2.3,3.8c0.2,0.8,0.3,1.7,0.3,2.5c-0.1,0.4-0.1,0.9-0.3,1.3
				c-0.1,0.2-0.1,0.4-0.2,0.6l-0.2,0.5c-0.9,1.9-1.6,4.2-2.2,6.5c-0.6,2.3-1.2,4.7-2,7.2c-0.9-2.5-1.2-5.1-1.1-7.7
				c0.1-2.6,0.5-5.3,1.8-7.8l0.2-0.3c0-0.1,0.1-0.2,0.1-0.2c0.1-0.2,0.1-0.3,0.1-0.5c0.1-0.3,0-0.7,0-1.1c-0.1-0.8-0.6-1.8-1.1-2.8
				C319.6,630.3,318,628.4,316.4,626.4z"/>
		</g>
		<g>
			<path d="M212.3,708.9c-2.6-4.9-4.7-10.1-6.5-15.3c-1.7-5.3-3.3-10.7-3.5-16.5c0-0.7,0-1.5,0-2.2c0.1-0.8,0.1-1.5,0.3-2.3
				c0.1-0.8,0.4-1.5,0.7-2.3l0.6-1.1c0.2-0.4,0.5-0.7,0.8-1.1c1.1-1.4,2.9-2.3,4.5-2.6c1.4-0.3,2.8-0.6,4.2-0.8
				c2.8-0.4,5.9-0.5,8.8,0c1.4,0.2,2.8,0.5,3.9,0.5c1.2,0.1,2.3-0.1,3.5-0.4c1.2-0.3,2.4-0.7,3.5-1.2c1.1-0.5,2.2-1.2,3.3-1.9
				c1.1-0.7,2.2-1.6,3.6-2.3c1.3-0.8,3-1.5,4.8-1.5c0.4,0,0.9,0.1,1.3,0.1c0.4,0.1,0.8,0.2,1.3,0.3c0.4,0.1,0.8,0.3,1.2,0.4l0.6,0.2
				c0.2,0.1,0.6,0.3,0.8,0.5c0.9,0.8,1.4,1.7,1.7,2.4c0.3,0.8,0.5,1.6,0.7,2.3c0.6,3,0.6,5.8,0.5,8.6c-0.2,5.6-0.9,11.1-1.7,16.6
				c-0.9,5.5-1.9,10.9-3.3,16.3c0.5-5.5,1-11,1.3-16.5c0.4-5.5,0.6-11,0.5-16.4c0-1.4-0.1-2.7-0.2-4c-0.1-1.3-0.3-2.6-0.6-3.8
				c-0.1-0.6-0.3-1.2-0.5-1.7c-0.2-0.5-0.5-0.9-0.6-0.9c0,0,0,0-0.1-0.1l-0.4-0.1c-0.3-0.1-0.5-0.2-0.8-0.3c-0.3,0-0.5-0.1-0.8-0.1
				c-0.2,0-0.5,0-0.7,0c-1.9,0-4,1.7-6.3,3.3c-1.2,0.8-2.5,1.6-3.8,2.3c-1.4,0.6-2.8,1.2-4.3,1.5c-1.5,0.3-3.1,0.5-4.7,0.4
				c-1.6-0.1-3-0.4-4.3-0.6c-2.6-0.4-5.1-0.4-7.7-0.1c-1.3,0.1-2.6,0.4-4,0.6c-1.1,0.2-1.9,0.6-2.6,1.3c-0.1,0.2-0.3,0.4-0.5,0.6
				l-0.4,0.7c-0.2,0.5-0.4,1-0.6,1.6c-0.2,0.6-0.2,1.2-0.4,1.8c0,0.6-0.1,1.3-0.1,1.9c-0.1,2.6,0.2,5.3,0.6,8c0.4,2.7,1,5.4,1.6,8
				C208.9,698.4,210.6,703.7,212.3,708.9z"/>
		</g>
		<g>
			<path d="M252.6,659.2c2.2-2.8,4.8-5.2,7.7-7.3c2.9-2,6.3-3.8,10.3-4.2c2-0.2,4.1,0.1,5.9,1c0.5,0.2,0.9,0.5,1.3,0.8
				c0.4,0.3,0.9,0.6,1.2,0.9c0.7,0.6,1.4,1.1,2.1,1.8c1.4,1.2,2.6,2.6,3.8,4.1c1.1,1.5,2.1,3.2,2.9,5c0.7,1.8,1.2,3.7,1.4,5.6
				c0.2,1.9,0.2,3.7,0.2,5.5c-0.1,3.6-0.4,7.1-0.9,10.6c-0.9,7-2,13.9-3.6,20.8c0-7.1,0.2-14.1,0.5-21c0.1-3.5,0.3-7,0.2-10.4
				c0-3.4-0.3-6.7-1.5-9.5c-0.6-1.4-1.4-2.8-2.3-4.1c-1-1.3-2.1-2.5-3.3-3.7c-0.6-0.6-1.2-1.1-1.8-1.7c-0.3-0.3-0.6-0.5-0.9-0.7
				c-0.3-0.2-0.6-0.4-0.9-0.6c-1.3-0.7-2.7-1-4.3-1.1c-3.1,0-6.4,1.2-9.4,2.7C258.3,655.1,255.4,657.1,252.6,659.2z"/>
		</g>
		<g>
			<path d="M288.9,654.3c2.2-2.8,4.8-5.4,7.5-7.8c2.8-2.3,5.8-4.6,9.7-5.7c1-0.2,2.1-0.4,3.2-0.3c1.2,0.1,2.4,0.7,3.3,1.5
				c0.2,0.2,0.5,0.4,0.7,0.6l0.5,0.7c0.3,0.4,0.5,0.8,0.8,1.2c0.5,0.8,1,1.6,1.5,2.3c1.9,3.2,3.4,6.7,4.5,10.2
				c0.5,1.8,1,3.5,1.5,5.2l0.7,2.6c0.2,0.9,0.5,1.6,0.7,2.7c0.1,0.5,0.2,1,0.3,1.5l0.1,1.5c0.1,1,0,1.9,0,2.9c0,0.9-0.1,1.9-0.2,2.8
				c-0.1,0.9-0.2,1.8-0.4,2.7c-1.2,7.2-3.2,14.2-6,20.9c1.2-7.1,2.4-14.2,2.9-21.2c0.1-1.8,0.2-3.5,0.1-5.2c-0.1-0.8,0-1.7-0.2-2.5
				l-0.2-1.2c-0.1-0.4-0.2-0.8-0.3-1.1c-0.1-0.7-0.5-1.6-0.7-2.5l-0.8-2.6c-0.5-1.7-1-3.4-1.6-5.1c-1-3.4-2.3-6.5-4-9.6
				c-0.4-0.8-0.8-1.5-1.3-2.3c-0.2-0.4-0.5-0.8-0.6-1.1l-0.3-0.4c-0.1-0.1-0.2-0.2-0.3-0.3c-0.4-0.4-0.9-0.6-1.5-0.8
				c-0.6-0.1-1.3-0.1-2.1,0c-1.5,0.3-3.1,0.9-4.7,1.6c-1.6,0.7-3.1,1.6-4.6,2.6C294.6,649.9,291.8,652.1,288.9,654.3z"/>
		</g>
		<g>
			<path d="M322,655.1c0.6-1.3,1.6-2.4,3.1-3.2c0.7-0.4,1.6-0.5,2.5-0.5c0.9,0.1,1.8,0.4,2.6,0.9l0.6,0.4l0.5,0.4l0.5,0.4l0.4,0.4
				c0.5,0.5,1,1,1.4,1.6c0.9,1,1.7,2.1,2.6,3c1.7,1.9,3.3,3.3,5.6,3.8c0.6,0.1,1.1,0.2,1.8,0.2l2,0.1c0.7,0,1.4,0.1,2,0.1
				c0.3,0,0.7,0,1,0c0.2,0,0.3,0,0.5,0c0.2,0,0.3-0.1,0.4-0.2c0.1,0.2-0.1,0.4-0.3,0.5c-0.1,0.1-0.3,0.2-0.4,0.3
				c-0.3,0.2-0.6,0.4-1,0.5c-0.7,0.3-1.3,0.5-2,0.8c-0.7,0.2-1.4,0.4-2,0.6c-0.7,0.2-1.5,0.3-2.3,0.3c-1.6,0-3.3-0.5-4.7-1.3
				c-1.4-0.8-2.6-1.9-3.5-3c-1-1.1-1.8-2.2-2.6-3.4l-1.2-1.7l-0.3-0.4c-0.1-0.1-0.2-0.2-0.2-0.3l-0.2-0.3l-0.3-0.3
				c-0.3-0.4-0.7-0.6-1.2-0.8c-0.4-0.2-0.9-0.2-1.5-0.2C324.5,653.9,323.2,654.4,322,655.1z"/>
		</g>
		<g>
			<path d="M289.4,661.6c0.7-2.5,1.9-4.8,3.6-6.8c0.8-1,1.8-2,2.9-2.8c1.1-0.8,2.5-1.5,4.2-1.8c0.8-0.1,1.8,0,2.6,0.2
				c0.2,0.1,0.4,0.2,0.6,0.2c0.2,0.1,0.4,0.2,0.5,0.3c0.3,0.1,0.5,0.3,0.8,0.4c1,0.6,2.1,1.1,3.2,1.6l6.7,3.2
				c-2.6,0.5-5.2,0.3-7.7-0.3c-1.3-0.3-2.5-0.7-3.7-1.1c-0.3-0.1-0.6-0.3-0.9-0.4c-0.2-0.1-0.2-0.1-0.3-0.1c-0.1,0-0.2-0.1-0.2-0.1
				c-0.3-0.1-0.7-0.1-1-0.1c-0.4,0-0.8,0.1-1.2,0.3c-0.4,0.2-0.9,0.4-1.4,0.6c-0.9,0.5-1.9,1.2-2.8,1.9
				C293.3,658.4,291.5,660,289.4,661.6z"/>
		</g>
		<g>
			<path d="M256.9,667.7c1.4-2.1,3.1-3.8,5.1-5.3c1.9-1.5,4.1-2.7,6.6-3.5c0.6-0.2,1.3-0.3,2-0.4c0.3-0.1,0.7,0,1.1-0.1
				c0.4,0,0.7,0,1.1,0c0.4,0.1,0.8,0.1,1.1,0.2l0.8,0.2c0.6,0.1,1.1,0.3,1.7,0.5c2.2,0.7,4.5,1.4,6.8,2.4c-2.4,0.7-4.8,0.8-7.3,0.7
				c-0.6,0-1.2-0.1-1.8-0.1l-0.9-0.1c-0.3,0-0.4,0-0.6,0c-0.8,0-1.8,0.2-2.8,0.5c-2,0.6-4.1,1.5-6.2,2.4
				C261.4,666,259.2,666.9,256.9,667.7z"/>
		</g>
		<g>
			<path d="M209.4,671.5c3.3,1.6,6.6,2.7,9.9,3.3c3.3,0.6,6.7,0.8,10,0.4c3.3-0.3,6.5-1.1,9.5-2.5c1.5-0.7,2.9-1.6,4.2-2.7
				c0.7-0.5,1.4-1.1,2.1-1.7c0.4-0.3,0.7-0.6,1.2-0.8c0.2-0.1,0.5-0.2,0.8-0.2c0.3,0,0.5,0.2,0.6,0.4c-0.2-0.1-0.4-0.1-0.6-0.1
				c-0.2,0.1-0.3,0.2-0.4,0.3c-0.3,0.3-0.5,0.7-0.7,1c-0.5,0.8-0.9,1.5-1.5,2.3c-1.1,1.5-2.4,2.9-4,4.1c-3.1,2.3-7,3.5-10.7,3.8
				c-3.8,0.4-7.7-0.1-11.2-1.4C214.9,676.5,211.6,674.4,209.4,671.5z"/>
		</g>
		<g>
			<path d="M236.9,689.1c0.6,2.4,0.8,4.9,0.9,7.3c0.1,2.4,0,4.8-0.2,7.1c-0.2,2.4-0.6,4.7-1.1,7.1c-0.5,2.3-1.2,4.7-2.2,7
				c-0.6-2.4-0.8-4.9-0.9-7.3c-0.1-2.4,0-4.8,0.2-7.1c0.2-2.4,0.6-4.7,1.1-7.1C235.1,693.7,235.8,691.4,236.9,689.1z"/>
		</g>
		<g>
			<path d="M273.8,690.2c0.9,2,1.4,4.1,1.8,6.2c0.4,2.1,0.5,4.2,0.5,6.3c0,2.1-0.2,4.2-0.8,6.5c-0.7,2-1.5,4-3,5.8
				c-0.2-2.2-0.2-4.3-0.1-6.4c0-1.8-0.1-3.9-0.1-6c0-2,0.1-4.1,0.3-6.2C272.8,694.4,273.1,692.3,273.8,690.2z"/>
		</g>
		<g>
			<path d="M309.3,688.5c0.7,1.8,1,3.5,1.2,5.2c0.2,1.7,0.2,3.4,0.1,5.1c-0.1,1.7-0.3,3.4-0.7,5.1c-0.4,1.7-0.9,3.4-1.9,5
				c-0.7-1.8-1.1-3.5-1.3-5.2c-0.2-1.7-0.2-3.4-0.1-5.1c0.1-1.7,0.4-3.4,0.7-5.1C307.8,691.8,308.3,690.1,309.3,688.5z"/>
		</g>
		<g>
			<path d="M336.3,684c0.8,1.9,1.2,3.9,1.4,5.8c0.2,1.9,0.3,3.9,0.1,5.8c-0.1,1-0.2,1.9-0.3,2.9c-0.2,1-0.4,2-0.7,2.9
				c-0.6,1.8-1.3,3.6-2.2,5.4c-0.8-2-0.9-4-0.9-6l0.1-2.8c0-0.9,0.1-1.9,0.1-2.8c0.1-1.9,0.4-3.8,0.7-5.7
				C334.9,687.8,335.4,685.9,336.3,684z"/>
		</g>
		<g>
			<path d="M397.9,506.7c-1.9,3.9-3.6,7.8-4.4,11.8c-0.4,2-0.6,4-0.5,5.9c0.1,0.5,0,1,0.1,1.4l0.3,1.4c0.2,1.1,0.5,2.2,0.6,3.3
				c0.7,4.4,0.7,8.8,0.4,13.1c-0.3,4.3-0.9,8.6-2,12.9c-0.5-4.3-0.8-8.6-1.1-12.9c-0.3-4.2-0.6-8.5-1.2-12.6c-0.1-1-0.3-2-0.5-3
				l-0.3-1.8c-0.1-0.6-0.1-1.2-0.1-1.8c0-2.4,0.5-4.7,1.3-6.8C392.1,513.4,394.7,509.6,397.9,506.7z"/>
		</g>
		<g>
			<path d="M445.8,495.5c3.2,1.6,5.9,3.7,8.5,6.2c1.3,1.3,2.5,2.6,3.5,4.1c0.6,0.7,1,1.6,1.5,2.4c0.4,0.9,0.8,1.7,1.1,2.7
				c0.2,0.5,0.2,1,0.3,1.5l0.1,0.8l0,0.7c0,0.9-0.1,1.8-0.2,2.7c-0.2,1.8-0.6,3.5-1.1,5.2c-1,3.4-2.2,6.6-4.1,9.7
				c0.2-3.5,0.7-6.9,1-10.2c0.2-1.7,0.3-3.3,0.4-5c0-0.8,0.1-1.6,0-2.4l0-0.6l-0.1-0.5c0-0.3-0.1-0.6-0.2-1
				c-0.3-1.3-1.1-2.7-1.9-4.1c-0.8-1.4-1.7-2.7-2.7-4.1C449.9,501.1,447.8,498.4,445.8,495.5z"/>
		</g>
		<g>
			<path d="M465.1,489.3c4-0.1,8,0.5,11.8,1.7c1.9,0.6,3.8,1.4,5.7,2.4c1.8,1,3.6,2.2,5.1,3.9c0.7,0.8,1.4,1.7,2,2.7
				c0.6,1.1,0.9,2,1.2,2.9c0.7,1.9,1.2,3.8,1.7,5.7c0.9,3.9,1.5,7.8,1.3,11.8l-4.3-10.9c-0.7-1.8-1.5-3.5-2.2-5.3l-0.6-1.3
				c-0.1-0.2-0.2-0.4-0.3-0.6c-0.1-0.2-0.2-0.4-0.3-0.5c-0.4-0.7-0.9-1.3-1.5-2c-2.3-2.5-5.6-4.4-9-6
				C472.4,492.3,468.8,490.8,465.1,489.3z"/>
		</g>
		<g>
			<path d="M506.9,503.4c1.3,1,2.3,2.2,3.1,3.4c0.8,1.2,1.5,2.5,2.1,3.8c0.6,1.3,1.1,2.7,1.4,4.1c0.3,1.4,0.6,2.9,0.6,4.5
				c-1.4-0.8-2.5-2-3.4-3.2c-0.9-1.2-1.6-2.5-2.2-3.8c-0.6-1.3-1.1-2.7-1.4-4.2C506.9,506.5,506.7,505,506.9,503.4z"/>
		</g>
		<g>
			<path d="M415.3,528.4c0.4-1.8,1.3-3.6,2.6-5c0.7-0.7,1.5-1.4,2.4-1.9c0.9-0.5,2-0.8,3-0.9l0.8-0.1c0.3,0,0.5,0,0.8,0l0.8,0
				l0.7,0.1c0.9,0.1,1.8,0.2,2.7,0.3c1.8,0.2,3.5,0.5,5.2,0.5c3.3,0.2,6.5-0.4,9.8-1.6c3.5-1.1,7-2.2,10.7-2.6
				c-3.1,2-6.3,3.8-9.4,5.5c-1.6,0.9-3.5,1.7-5.4,2.1c-1.9,0.5-3.9,0.6-5.9,0.5c-1.9-0.1-3.8-0.4-5.6-0.8c-0.9-0.2-1.8-0.4-2.7-0.6
				l-0.7-0.2l-0.5-0.1c-0.2,0-0.4-0.1-0.6-0.1l-0.6,0C420.7,523.4,417.6,525.5,415.3,528.4z"/>
		</g>
		<g>
			<path d="M461.5,518.4c1.1-0.8,2.3-1.1,3.4-1.6c1.2-0.4,2.4-0.7,3.5-1c2.4-0.5,4.8-0.8,7.3-0.8c1.2,0,2.5,0,3.7,0.1
				c0.6,0.1,1.3,0.1,1.9,0.3c0.4,0.1,0.6,0.1,0.9,0.2c0.3,0.1,0.6,0.2,0.8,0.2c2.2,0.6,4.5,1.2,7,1.8c-2.3,1.1-4.9,1.4-7.4,1.4
				c-0.3,0-0.6,0-0.9,0c-0.3,0-0.6,0-0.9,0c-0.5,0-1.1,0-1.6,0l-3.4,0.1c-2.3,0-4.7,0.1-7.1,0c-1.2,0-2.4-0.1-3.6-0.2
				C464,518.7,462.8,518.5,461.5,518.4z"/>
		</g>
		<g>
			<path d="M496.3,517.3c-0.2-1-0.1-2.1,0.3-3.1c0.2-0.5,0.5-1.1,1-1.6c0.5-0.5,1.4-0.8,2.3-0.8c0.8,0,1.5,0.3,2.1,0.6
				c0.3,0.2,0.5,0.3,0.8,0.5l0.5,0.4l2.2,1.6c1.5,1.1,2.9,2.2,4.3,3.4c0.7,0.6,1.4,1.2,2.1,1.8c0.7,0.6,1.4,1.3,2.2,1.9
				c-1,0.2-2.1,0-3.1-0.1c-1-0.2-1.9-0.5-2.9-0.9c-1.8-0.7-3.5-1.7-5.1-2.9c-0.8-0.6-1.6-1.2-2.3-1.9l-0.5-0.5
				c-0.1-0.1-0.2-0.2-0.3-0.3l-0.5-0.4c-0.1,0-0.2-0.2-0.4-0.1c-0.2,0-0.6,0.2-0.9,0.5C497.6,515.7,497,516.5,496.3,517.3z"/>
		</g>
		<g>
			<path d="M397.9,549.8c1.8-1.5,3.9-2.6,6.1-3.5c2.2-0.9,4.6-1.5,7.1-1.5c2.5-0.1,5.1,0.4,7.4,1.6c1.2,0.6,2.2,1.4,3.2,2.3l0.7,0.7
				l0.6,0.6c0.4,0.4,0.8,0.8,1.2,1.2c3.2,3.2,6.5,6.3,9.7,9.4c3.2,3.2,6.5,6.4,9.6,9.8c-4.1-2.1-7.9-4.7-11.6-7.4
				c-3.7-2.7-7.2-5.7-10.5-9c-0.4-0.4-0.8-0.8-1.2-1.3l-0.6-0.6l-0.5-0.5c-0.7-0.7-1.5-1.3-2.3-1.8c-1.7-1-3.6-1.6-5.7-1.8
				c-2.1-0.2-4.3-0.1-6.4,0.3C402.3,548.5,400.1,549.1,397.9,549.8z"/>
		</g>
		<g>
			<path d="M453.9,533.4c2.2,3.5,3.6,7.6,4.2,11.7c0.3,2.1,0.5,4.2,0.3,6.4c0,1.1-0.2,2.2-0.4,3.2c-0.3,1.1-0.5,2.2-0.9,3.2
				c-1.4,4.1-3.8,7.7-6.4,11c-2.7,3.2-5.7,6.1-9.2,8.3c2.3-3.4,4.6-6.7,6.7-10.1c2.1-3.4,4-6.8,5.2-10.4c0.6-1.8,1.1-3.6,1.3-5.5
				c0.2-0.9,0.2-1.9,0.3-2.9c0-1,0.1-1.9,0.1-2.9C455,541.5,454.5,537.5,453.9,533.4z"/>
		</g>
		<g>
			<path d="M467,546.7c2.1-0.7,4.2-0.9,6.4-0.5c1.1,0.2,2.2,0.5,3.3,1c1.1,0.6,2.1,1.3,2.9,2.4l0.3,0.4l0.2,0.5
				c0.1,0.3,0.3,0.6,0.4,1c0.1,0.3,0.1,0.7,0.2,1c0,0.2,0.1,0.4,0.1,0.5l0,0.4l0.2,2.9c0.1,1.9,0.2,3.8,0.5,6
				c-1.8-1.3-2.8-3.3-3.6-5.3c-0.4-1-0.7-2-0.9-3.1l-0.1-0.4c0-0.1-0.1-0.2-0.1-0.3c-0.1-0.1-0.1-0.3-0.1-0.4
				c-0.1-0.1-0.1-0.3-0.2-0.4l-0.1-0.2l-0.2-0.2c-0.7-1-2.2-2-3.9-2.8C470.8,548.4,469,547.7,467,546.7z"/>
		</g>
		<g>
			<path d="M493.9,529.6c0.9,3.3,1.2,6.7,1.1,10c-0.1,3.4-0.5,6.8-1.7,10.2c-0.4,0.8-0.6,1.7-1.1,2.5c-0.4,0.8-0.9,1.6-1.4,2.3
				c-1,1.4-2,2.8-3.1,4c-2.3,2.5-4.8,4.8-7.7,6.5l5.2-8.4c0.8-1.4,1.7-2.8,2.4-4.1c0.8-1.4,1.4-2.6,1.9-4.1c1-2.9,1.7-6,2.3-9.2
				C492.6,536.1,493.2,532.9,493.9,529.6z"/>
		</g>
		<g>
			<path d="M496.3,549.6c1.5,0.5,2.8,1.3,4.1,2.1c1.3,0.8,2.6,1.7,3.8,3c0.1,0.2,0.3,0.4,0.4,0.6l0.2,0.4l0.1,0.2l0,0c0,0,0,0,0,0
				c0-0.1,0-0.1-0.1-0.2l0-0.1c0-0.1-0.1-0.1-0.1-0.1c-0.1-0.1-0.2-0.2-0.3-0.2c-0.1,0-0.3-0.2-0.6-0.2c-0.1,0-0.3,0-0.4,0
				c-0.2,0-0.3,0.1-0.3,0.1c-0.1,0-0.3,0.1-0.4,0.2c-0.1,0-0.1,0.1-0.2,0.1l-0.1,0.1c-0.1,0.1-0.1,0.1-0.2,0.2c0,0,0,0.1-0.1,0.1
				l0,0l0.1-0.4c0.1-0.6,0.2-1.4,0.3-2.1l0.5-4.4c0.4-2.9,0.8-5.9,1.4-8.8c0.6-2.9,1.3-5.9,2.4-8.8c0.6,3.1,0.7,6.1,0.7,9.1
				c0,3-0.2,6-0.6,9c-0.2,1.5-0.4,3-0.7,4.5c-0.2,0.8-0.3,1.5-0.6,2.3c-0.1,0.2-0.1,0.4-0.2,0.7l-0.1,0.2c0,0.1-0.1,0.2-0.2,0.3
				c-0.1,0.1-0.1,0.2-0.2,0.3l-0.1,0.1c-0.1,0.1-0.1,0.1-0.2,0.2c-0.1,0.1-0.3,0.2-0.5,0.2c-0.1,0.1-0.5,0.1-0.8,0.1
				c-0.3,0-0.6-0.2-0.7-0.3c-0.1-0.1-0.2-0.2-0.3-0.3c-0.1-0.1-0.1-0.1-0.1-0.2l-0.1-0.1c-0.1-0.1-0.1-0.2-0.1-0.3l0-0.1l0-0.1
				l0-0.1c0-0.1-0.1-0.2-0.2-0.4c-0.6-1.1-1.6-2.2-2.5-3.4C498.2,552,497.2,550.8,496.3,549.6z"/>
		</g>
		<g>
			<path d="M477,525.8c2.4,1.6,4.4,3.5,6.3,5.5c1.9,2,3.6,4.2,5,6.7c0.7,1.3,1.4,2.5,1.8,4.2c0.2,1.1,0.2,1.9,0,2.6
				c-0.1,0.8-0.3,1.5-0.5,2.2c-0.9,2.8-2.3,5.2-4.1,7.4c0.3-2.8,0.8-5.5,1-8.1c0-0.6,0.1-1.3,0.1-1.8c0-0.6-0.1-1.2-0.2-1.4
				c-0.2-0.4-0.4-1-0.7-1.5c-0.2-0.5-0.6-1.1-0.9-1.6c-1.3-2.2-2.8-4.5-4.1-6.8C479.4,530.8,478.1,528.4,477,525.8z"/>
		</g>
		<g>
			<path d="M148.1,157.4c3.4,1,6.7,2,10,2.7c3.3,0.7,6.5,1.2,9.5,0.7c1.5-0.2,2.8-0.7,4-1.4c1.4-0.9,2.8-1.9,4.2-2.9
				c2.8-2,5.5-4,8.1-6.5c-0.5,1.7-1.5,3.3-2.5,4.7c-1,1.5-2.2,2.8-3.5,4.1c-1.3,1.3-2.6,2.4-4,3.6c-0.8,0.6-1.7,1.1-2.7,1.5
				c-1,0.4-1.9,0.6-2.9,0.8c-2,0.3-3.9,0.2-5.8-0.1c-1.8-0.3-3.6-0.9-5.3-1.6C153.8,161.8,150.7,159.9,148.1,157.4z"/>
		</g>
		<g>
			<path d="M324,422c0.4,3.1,1,6.1,1.9,8.9c0.9,2.9,2.1,5.6,3.8,7.9c1.7,2.3,3.7,4.3,6.2,5.5c0.6,0.3,1.2,0.6,1.9,0.8
				c0.7,0.2,1.3,0.5,2,0.6c1.3,0.4,2.7,0.5,4.2,0.6c2.9,0,5.9-0.1,8.7-0.6c1.5-0.2,2.9-0.6,4.3-1c0.7-0.2,1.4-0.5,2.1-0.7l1.1-0.3
				l1-0.4c2.7-1.1,5.4-2.5,7.9-4.1c2.6-1.6,5-3.5,7.2-5.6c-1.6,2.7-3.7,5-6,7.2c-0.6,0.5-1.2,1-1.8,1.5l-1.9,1.4
				c-1.3,0.9-2.7,1.7-4.1,2.4c-2.8,1.5-5.9,2.6-9,3.3c-1.6,0.4-3.2,0.6-4.8,0.8c-0.8,0.1-1.6,0.1-2.4,0.1l-2.4,0
				c-3.3-0.2-6.7-0.9-9.7-2.7c-3-1.7-5.4-4.3-7-7.2c-1.6-2.9-2.5-6-3-9.1C323.6,428.2,323.5,425.1,324,422z"/>
		</g>
		<g>
			<path d="M377.7,393.7c2.1,0.9,3.9,2.4,5.4,4.1c1.5,1.8,2.6,4,3,6.5l0.1,0.9c0,0.3,0,0.6,0,0.9c0,0.6-0.1,1.3-0.2,1.9
				c-0.1,0.7-0.2,1.1-0.4,1.7c-0.1,0.5-0.3,1.1-0.5,1.6c-0.7,2.1-1.5,4.1-2.7,6.1c-0.4-2.3-0.5-4.5-0.4-6.6c0-0.5,0-1.1,0.1-1.6
				c0-0.5,0.1-1.1,0.1-1.5c0-0.4,0-0.9,0-1.3l0-0.7l-0.1-0.7c-0.3-1.8-0.9-3.6-1.7-5.5C379.7,397.7,378.7,395.8,377.7,393.7z"/>
		</g>
		<g>
			<path d="M325.8,415l15,4.6c5,1.5,10,3,15,4.4c5,1.3,10.1,2.6,15.1,3.1c1.2,0.1,2.5,0.2,3.6,0.1c0.3,0,0.5-0.1,0.8-0.1
				c0.1,0,0.3,0,0.4-0.1c0.1,0,0.2-0.1,0.3-0.1c0.1,0,0.1,0,0.3-0.1l0.4-0.2l0.9-0.4c1.1-0.6,2.2-1.2,3.2-1.8c0.5-0.3,1-0.7,1.3-1
				c0.2-0.2,0.3-0.3,0.4-0.4l0-0.1c0,0,0,0,0,0c0,0.1,0,0-0.1,0.2c0,0.1,0,0.1,0,0.2c0,0.1,0,0.1,0,0.2c0,0.1,0,0.1,0.1,0.5
				l-0.1-1.2c0,0,0-0.1,0-0.2c0-0.1,0-0.2,0-0.3c0-0.2,0-0.4-0.1-0.6c-0.1-0.4-0.2-0.7-0.4-1c-0.4-0.6-1.1-1.1-2.1-1.4
				c-0.9-0.3-2.1-0.4-3.2-0.5l-1.8,0l-1.9,0.1c-5.2,0.2-10.5,0.1-15.6-0.8c-2.6-0.4-5.2-1-7.7-1.9c-1.3-0.4-2.5-0.9-3.7-1.5
				c-0.6-0.3-1.2-0.6-1.8-0.9l-1.7-0.9c-4.5-2.5-8.9-5.1-13.3-7.7c4.8,1.9,9.5,4,14.2,6c4.6,2.2,9.4,3.3,14.4,3.8
				c5,0.5,10,0.5,15,0.1l1.9-0.1c0.7,0,1.4-0.1,2.1-0.1c1.4,0.1,2.9,0.1,4.4,0.7c1.5,0.5,3.1,1.4,4.1,2.9c0.5,0.8,0.9,1.6,1,2.5
				c0.1,0.4,0.1,0.9,0.1,1.3c0,0.2,0,0.4,0,0.7c0,0.2,0,0.4-0.1,0.8l-0.1-1.2c0.2,0.5,0.1,0.5,0.2,0.6c0,0.2,0,0.2,0,0.3
				c0,0.2,0,0.3-0.1,0.5c-0.1,0.3-0.1,0.4-0.2,0.6c-0.1,0.2-0.2,0.3-0.2,0.4c-0.1,0.1-0.2,0.2-0.2,0.3c-0.3,0.4-0.6,0.7-0.9,1
				c-0.6,0.5-1.2,1-1.8,1.3c-1.2,0.8-2.4,1.4-3.6,2l-0.9,0.4l-0.5,0.2c-0.1,0.1-0.4,0.2-0.6,0.2l-0.7,0.2c-0.2,0.1-0.4,0.1-0.6,0.1
				c-0.4,0.1-0.8,0.1-1.2,0.1c-1.5,0.1-2.9,0-4.3-0.2c-2.7-0.4-5.3-1-7.9-1.6c-2.6-0.7-5.1-1.4-7.6-2.3c-5-1.6-9.9-3.5-14.8-5.5
				C335.3,419.5,330.5,417.4,325.8,415z"/>
		</g>
		<g>
			<path d="M447.6,538.4c2,1.3,3.6,3.2,4.8,5.3c1.1,2.1,1.9,4.6,1.9,7.2l0,1l-0.1,0.9c-0.1,0.6-0.2,1.2-0.3,1.7
				c-0.2,1.1-0.5,2.3-0.8,3.4c-0.7,2.2-1.6,4.4-3.1,6.3c-0.1-2.4-0.1-4.6,0-6.9l0.2-3.3l0.1-1.6l0.1-0.8l0-0.7c0-1.9-0.3-3.9-0.8-6
				C448.9,542.8,448.3,540.7,447.6,538.4z"/>
		</g>
		<g>
			<path d="M461.1,531.3c-0.4-1.8-0.3-3.7,0.2-5.5c0.5-1.8,1.5-3.7,3-5.1c1.5-1.4,3.5-2.4,5.4-2.8c2-0.4,4-0.4,5.9-0.2
				c1,0.1,1.9,0.3,2.8,0.5c0.9,0.3,1.8,0.5,2.6,0.8c1.7,0.6,3.4,1.2,5,2c1.6,0.8,3.3,1.6,4.8,2.8c0.4,0.3,0.7,0.6,1.1,1
				c0.3,0.4,0.7,0.7,0.9,1.3c0.1,0.2,0.2,0.6,0.2,0.8c0,0.3-0.1,0.6-0.3,0.8c-0.3,0.4-0.8,0.6-1.3,0.7c0.4-0.3,0.7-0.6,0.7-1
				c0-0.2,0-0.3,0-0.4c-0.1-0.1-0.1-0.3-0.3-0.4c-0.2-0.2-0.6-0.4-0.9-0.6c-0.4-0.2-0.7-0.4-1.1-0.5c-1.5-0.6-3.2-1.1-4.9-1.5
				l-2.5-0.7l-2.5-0.6c-1.7-0.4-3.3-0.8-4.9-1c-3.2-0.4-6.3-0.2-8.8,1.4C463.7,524.7,462,527.8,461.1,531.3z"/>
		</g>
		<g>
			<path d="M520.3,522c2.1-0.9,4.3-1.6,6.6-2.1c2.3-0.5,4.5-0.9,7-0.8c0.6,0,1.3,0.1,2,0.2c0.7,0.2,1.5,0.3,2.4,1.1
				c0.1,0.1,0.2,0.2,0.3,0.3c0.1,0.1,0.2,0.3,0.3,0.4c0.2,0.3,0.3,0.7,0.4,1c0.1,0.3,0.1,0.7,0,1l-0.1,0.5c-0.1,0.7-0.3,1.4-0.6,2
				c-0.5,1.3-1.3,2.4-2.1,3.3c-0.9,1-1.7,1.8-2.9,2.6l-2.2,1.5l-0.5-2c0,0-0.2-0.3-0.3-0.4c-0.1-0.2-0.3-0.3-0.4-0.5
				c-0.3-0.3-0.7-0.6-1.1-0.9c-0.8-0.5-1.7-0.9-2.8-1.1c-0.5-0.1-1.1-0.2-1.7-0.3c-0.6-0.1-1.2-0.2-1.7-0.2
				c-1.2-0.1-2.3-0.2-3.5-0.2c1.1-0.6,2.3-1,3.4-1.3c1.2-0.3,2.4-0.5,3.7-0.5c1.3,0,2.7,0.2,4,0.7c0.7,0.3,1.3,0.6,1.9,1.1
				c0.3,0.2,0.6,0.5,0.8,0.7c0.3,0.3,0.5,0.5,0.8,0.9l-2.6-0.5c1.4-1.2,2.8-2.9,3.4-4.5c0.2-0.4,0.3-0.8,0.4-1.2l0.1-0.3
				c0,0,0,0.1,0,0.2c0,0.1,0.1,0.2,0.1,0.3c0,0.1,0.1,0.1,0.1,0.1c0.1,0-0.3-0.2-0.7-0.3c-0.4-0.1-0.9-0.2-1.4-0.3
				c-2-0.3-4.2-0.3-6.5-0.4C524.8,522.1,522.6,522.1,520.3,522z"/>
		</g>
		<g>
			<path d="M238,84.6c-1.6,1.2-3.5,2.2-5.5,2.8c-2,0.6-4.2,0.9-6.3,0.6c-2.2-0.3-4.3-1.2-6-2.5l-1.3-1l-1.1-1.2l-0.6-0.6
				c-0.2-0.2-0.3-0.4-0.5-0.7l-0.9-1.4c-1.1-1.9-2-4-2.4-6.1c-0.3-1.1-0.3-2.2-0.5-3.3c0-1.1-0.1-2.2,0-3.3c0.1-2.2,0.6-4.3,1.2-6.4
				c0.6-2.1,1.3-4,2.3-6.1l2-4l1.5,4.4c1.3,3.9,2.9,7.8,5,11.2c1,1.7,2.2,3.4,3.5,4.6c0.7,0.6,1.4,1.1,2,1.3
				c0.2,0.1,0.3,0.1,0.5,0.1c0.2,0.1,0.3,0.1,0.5,0.1l0.1,0c0,0-0.1,0-0.1,0c0,0-0.2,0-0.4,0.1c-0.1,0.1-0.3,0.2-0.4,0.3
				c-0.2,0.2-0.3,0.5-0.3,0.5c0,0.1,0,0.1,0,0.1c0,0,0,0,0,0c0-0.2-0.1-0.7-0.1-1.2l-0.3-1.6c-0.2-1.1-0.4-2.2-0.4-3.5
				c0-1.2,0.1-2.6,0.7-3.9c0.6-1.3,1.7-2.4,2.9-3.1c0.3-0.2,0.6-0.3,0.9-0.4l0.8-0.3c0.5-0.2,1.1-0.4,1.6-0.6
				c1.1-0.3,2.2-0.6,3.3-0.7c1.1-0.2,2.3-0.2,3.4-0.2c0.6,0,1.2,0.1,1.7,0.1c0.6,0.1,1.1,0.2,1.8,0.4l2.5,0.7l-2,1.7
				c-1.5,1.3-3.1,2.7-4.3,4.3c-0.6,0.8-1.1,1.7-1.5,2.5c-0.3,0.9-0.5,1.8-0.2,2.5c0.1,0.4,0.4,0.8,0.7,1.2c0.3,0.4,0.6,0.8,1,1.1
				c0.8,0.7,1.6,1.3,2.5,1.8c1.8,1,3.9,1.8,5.9,2.4c-2.2-0.2-4.3-0.7-6.4-1.6c-1-0.4-2-1-3-1.6c-0.9-0.7-1.8-1.4-2.4-2.7
				c-0.6-1.2-0.5-2.6-0.2-3.8c0.3-1.2,0.9-2.2,1.5-3.2c1.3-1.9,2.7-3.6,4.4-5.2l0.5,2.4c-3.5-0.7-7.9,0.5-11.1,2.1
				c-0.6,0.4-1.1,0.9-1.3,1.5c-0.3,0.6-0.4,1.5-0.3,2.4c0,0.9,0.2,1.9,0.4,2.9l0.3,1.6c0.1,0.6,0.2,1.1,0.2,2c0,0.1,0,0.3,0,0.4
				c0,0.1,0,0.3-0.1,0.4c-0.1,0.3-0.2,0.8-0.6,1.2c-0.2,0.2-0.5,0.4-0.7,0.5c-0.2,0.1-0.6,0.2-0.7,0.2c-0.2,0-0.4,0-0.5,0l-0.3,0
				c-0.7,0-1.4-0.2-2.1-0.4c-1.3-0.5-2.4-1.2-3.3-2.1c-1.8-1.7-3.2-3.5-4.3-5.5c-2.3-3.9-3.9-7.9-5.2-12.2l3.5,0.4
				c-0.9,1.6-1.6,3.5-2.2,5.3c-0.6,1.8-1,3.7-1.2,5.6c-0.1,1-0.1,1.9-0.2,2.9c0.1,0.9,0,1.9,0.2,2.8c0.2,1.9,0.9,3.7,1.7,5.4
				l0.7,1.2c0.1,0.2,0.2,0.4,0.4,0.6l0.4,0.6l0.9,1.1l1,1c1.4,1.2,3.1,2.2,4.9,2.7C230.2,87.4,234.4,86.5,238,84.6z"/>
		</g>
		<g>
			<path d="M238.4,80c2.4,0.6,4.5,1.5,6.6,2.4c2.1,0.9,4.1,1.9,6.1,2.9c2,0.9,4,1.9,5.8,2.3c1,0.2,2.2,0.4,3.4,0.7
				c1.1,0.3,2.3,0.6,3.4,0.9c-1.1,0.6-2.3,0.8-3.5,1.1c-1.2,0.2-2.3,0.4-3.5,0.5c-2.8,0-5.1-0.9-7.3-1.9c-2.2-1-4.2-2.3-6-3.8
				C241.5,83.6,239.8,82,238.4,80z"/>
		</g>
		<g>
			<path d="M316.7,56.8c3.9,0,7.7,0.4,11.5,1.1c3.8,0.7,7.5,1.6,11.2,2.9c1.8,0.7,3.6,1.4,5.4,2.3c1.7,0.9,3.4,1.9,5,2.9
				c3.2,2.1,6.3,4.5,8.9,7.4l-10.4-4.6l-5.1-2.3c-1.7-0.7-3.4-1.4-5.1-2c-3.5-1.3-7-2.4-10.6-3.7C323.8,59.6,320.3,58.4,316.7,56.8z
				"/>
		</g>
		<path class="st2" d="M124.7,236.1l24.8,28.8l-5.5,9.3l-14.3-12.1l-11.4,7.4c0,0,10.6,16.2,19.8,24.1c9.2,7.9,31.2,18.6,31.2,18.6
			l7.9-10l-16.2-13.3l5.7-9.1L222,309l-7.9,11l-20.5-9.1l-3.8,9.9l57.6,28.2l5-9.3l-25-9.5l7.6-12.9c0,0,24.8,10.2,36.2,14.5
			c11.4,4.3,35.5,6.9,35.5,6.9l-1.7,13.3l-30-3.6l-1.9,7.9l37.3,7.6l32.7,6.7v-11.2l-26.4-3.3l4.5-14.5c0,0,20,3.8,34.5,3.1
			c14.5-0.7,31.2-5,31.2-5l1.7,13.1l-16.9,3.8v15c0,0,16.8-2.4,32.2-10.5c15.4-8.1,24.7-24.8,24.7-24.8l-8.3-7.4
			c0,0-3.4,6.4-7.4,11.7c-4,5.2-10,6.2-10,6.2l-3.1-10.5c0,0,11.7-4.3,21.7-15.9c10-11.6,9.1-17.7,9.1-17.7"/>
		<g>
			<path d="M423.4,286.6c0.9,6.5,0.1,13.2-2.4,19.4c-1.3,3.1-2.9,6-5,8.6c-2.1,2.6-4.5,4.9-7.2,6.9c-2.7,2-5.7,3.5-8.7,4.8
				c-0.8,0.3-1.5,0.6-2.3,0.9l-2.4,0.8c-0.8,0.2-1.6,0.5-2.4,0.7l-2.4,0.7c-6.4,1.7-12.9,2.9-19.4,3.6c-13.1,1.4-26.4,0.8-39.5-0.8
				c-13.1-1.7-25.9-4.7-38.6-8.4c-25.2-7.5-49.5-17.9-72.8-30c-11.6-6.1-23.1-12.5-34.2-19.3c-5.6-3.4-11.1-7-16.6-10.6
				c-5.5-3.6-10.9-7.3-16.1-11.3c10.9,7.3,22,14.1,33.4,20.6c11.3,6.5,22.8,12.7,34.5,18.5c11.7,5.8,23.6,11.2,35.7,16.1
				c12.1,4.9,24.4,9.3,36.9,13c12.5,3.7,25.2,6.6,38.1,8.4c12.9,1.8,25.9,2.4,38.9,1.4c6.5-0.6,12.9-1.6,19.2-3.1l2.4-0.6
				c0.8-0.2,1.6-0.5,2.3-0.7l2.3-0.7c0.8-0.3,1.5-0.6,2.3-0.8c3-1.2,5.9-2.7,8.5-4.5c2.7-1.8,5.1-3.9,7.2-6.4
				c2.1-2.4,3.8-5.2,5.1-8.2c1.3-3,2.2-6.1,2.7-9.3C423.6,293.1,423.8,289.8,423.4,286.6z"/>
		</g>
	</g>
</g>
</svg>
