<?xml version="1.0" encoding="utf-8"?>
<!-- Generator: Adobe Illustrator 22.0.0, SVG Export Plug-In . SVG Version: 6.00 Build 0)  -->
<svg version="1.1" id="图层_1" xmlns="http://www.w3.org/2000/svg" xmlns:xlink="http://www.w3.org/1999/xlink" x="0px" y="0px"
	 viewBox="0 0 114 133" style="enable-background:new 0 0 114 133;" xml:space="preserve">
<style type="text/css">
	.st0{fill:#FFFDFD;}
</style>
<g>
	<path class="st0" d="M66.6,6.8c0,0.6-0.2,1.2-0.5,1.7c-0.2,0.3-0.4,0.5-0.6,0.7l0,0c-0.1,0.1-0.3,0.2-0.4,0.3s-0.2,0.2-0.3,0.2
		c-1.9,1.5-3.4,3.5-4.3,5.8c-0.2,0.6-0.7,1.1-1.3,1.3c-0.7,0.2-1.5,0.4-2.3,0.4l0,0c-0.8,0-1.6-0.1-2.3-0.4
		c-0.6-0.2-1.1-0.7-1.3-1.3c-0.9-2.3-2.4-4.3-4.3-5.8c-0.1-0.1-0.2-0.2-0.3-0.2c-0.1-0.1-0.2-0.2-0.4-0.3l0,0
		C48,9,47.8,8.8,47.7,8.5c-0.3-0.5-0.5-1.1-0.5-1.7c0-0.9,0.4-1.7,0.9-2.3c0.1-0.1,0.3-0.3,0.5-0.4c2.2-1.8,5-2.9,8-2.9
		c0.1,0,0.2,0,0.3,0l0,0c0.1,0,0.2,0,0.3,0c3,0.1,5.8,1.2,8,2.9c0.2,0.1,0.3,0.2,0.5,0.4C66.2,5.1,66.6,5.9,66.6,6.8z"/>
	<path class="st0" d="M74.9,12.2c-2.1,1.1-4,2.5-5.7,4.1c-2.5,2.3-4.7,5.1-6.3,8.2c0,0.1-0.1,0.1-0.1,0.2c-1.1,1.9-3,3.3-5.3,3.5
		c-0.2,0-0.4,0-0.6,0l0,0c-0.2,0-0.4,0-0.6,0C54,28,52,26.6,51,24.7c0-0.1-0.1-0.1-0.1-0.2c-1.6-3.1-3.7-5.8-6.3-8.2
		c-1.7-1.6-3.6-3-5.7-4.1c-0.8-0.4-1.1-1.4-0.6-2.2c0.8-1.2,2.1-2.1,3.6-2.2C42.2,7.9,42.5,8,42.8,8c1.3,0.8,2.5,1.7,3.7,2.6
		c2.1,1.7,4,3.7,5.6,5.8c0.3,0.4,0.6,0.9,0.9,1.3l0,0c0.1,0.2,0.3,0.4,0.4,0.6l0,0c0.8,1,2,1.6,3.4,1.7l0,0c1.4,0,2.6-0.7,3.4-1.7
		l0,0c0.2-0.2,0.3-0.4,0.4-0.6l0,0c0.3-0.4,0.6-0.9,0.9-1.3c1.6-2.2,3.5-4.1,5.6-5.8c1.2-1,2.4-1.8,3.7-2.6c0.3-0.1,0.6-0.2,0.9-0.2
		c1.5,0.1,2.9,1,3.6,2.2C76,10.8,75.7,11.8,74.9,12.2z"/>
	<path class="st0" d="M83,17.1c-3.1,0.9-5.9,2.3-8.5,4c-5.6,3.8-9.9,9.3-12.1,15.7c0,0.2-0.1,0.3-0.2,0.5c-0.5,1.3-1.4,2.4-2.6,3.1
		c-0.8,0.5-1.7,0.7-2.7,0.7l0,0c-1,0-1.9-0.3-2.7-0.7c-1.2-0.7-2.2-1.8-2.6-3.1c0-0.2-0.1-0.3-0.2-0.5c-2.2-6.4-6.5-12-12.1-15.7
		c-2.6-1.7-5.4-3.1-8.5-4c-1.3-0.4-1.8-2-0.8-3c0.9-1,2.2-1.7,3.6-1.8c0.3,0,0.6,0,0.9,0.1c1.6,0.6,3.1,1.4,4.6,2.2l0,0
		c5.5,3.3,9.9,8.1,12.5,13.9c0.1,0.3,0.2,0.6,0.4,0.8l0,0c0.3,0.6,0.7,1.1,1.2,1.5c1,0.9,2.3,1.5,3.8,1.5l0,0c1.5,0,2.8-0.6,3.8-1.5
		c0.5-0.4,0.9-1,1.2-1.5l0,0c0.1-0.3,0.3-0.5,0.4-0.8c2.6-5.8,7-10.6,12.5-13.9l0,0c1.4-0.8,3-1.6,4.6-2.2c0.3-0.1,0.6-0.2,0.9-0.1
		c1.4,0.2,2.7,0.8,3.6,1.8C84.8,15,84.3,16.7,83,17.1z"/>
	<path class="st0" d="M93.2,26.1c0,0.4,0,0.7-0.1,1.1c-0.1,1.1-1.1,2-2.3,1.9C90,29,89.1,29,88.3,29c-3.5,0-6.8,0.5-9.9,1.5
		c-2,0.6-3.9,1.5-5.7,2.5c-0.5,0.3-1,0.6-1.5,0.9c-2.3,1.5-4.2,3.6-5.2,6.2c-1.1,2.8-1.9,6.9-2.1,10.1c-0.1,0.8-0.6,1.6-1.3,1.8l0,0
		c-1.6,0.6-3.4,1-5.2,1.1c-0.1,0-0.3,0-0.4,0l0,0c-0.1,0-0.3,0-0.4,0C54.8,53,53,52.7,51.4,52l0,0c-0.8-0.3-1.3-1-1.3-1.8
		c-0.3-3.2-1-7.2-2.1-10.1c-1-2.6-2.8-4.7-5.2-6.2c-0.5-0.3-1-0.6-1.5-0.9c-1.8-1-3.7-1.8-5.7-2.5c-3.1-1-6.5-1.5-9.9-1.5
		c-0.8,0-1.7,0-2.5,0.1c-1.1,0.1-2.1-0.8-2.3-1.9c0-0.3-0.1-0.7-0.1-1.1c0-2.4,1.1-4.6,2.8-6.1c1.4-1.2,3.3-2,5.3-2
		c0.3,0,0.5,0,0.8,0l0,0c1.5,0.5,3,1.2,4.4,1.9l0,0l0,0c3.5,1.8,6.7,4.3,9.3,7.3l0,0c2.7,3,4.8,6.6,6.2,10.5c0,0.1,0.1,0.2,0.1,0.4
		c1.1,3,4,5.2,7.4,5.3l0,0c3.4-0.1,6.3-2.2,7.4-5.3c0-0.1,0.1-0.2,0.1-0.4c1.4-3.9,3.5-7.4,6.2-10.5l0,0c2.6-3,5.8-5.4,9.3-7.3l0,0
		l0,0c1.4-0.7,2.9-1.4,4.4-1.9l0,0c0.3,0,0.5,0,0.8,0c2,0,3.9,0.7,5.3,2C92.2,21.5,93.2,23.7,93.2,26.1z"/>
	<circle class="st0" cx="24.6" cy="35.6" r="3.9"/>
	<circle class="st0" cx="34.1" cy="35.3" r="3.9"/>
	<circle class="st0" cx="42.9" cy="39.9" r="3"/>
	<path class="st0" d="M21.4,42.5c0,0,0.7,2.2,4.7,1s10-2.9,16.7,1.8c0.8,0.6-4.7-4.9-8.9-4.8s-6.3,1.6-9.1,2.1
		C22.1,43.1,21.4,42.5,21.4,42.5z"/>
	<path class="st0" d="M15.9,43.8c0,0,5.3-0.1,7.7,3.4c2.8,4.2,4.6,9.1,13.5,8.6c3-0.3,3.1-1.9,5.1-2.9c2.7-1.5,4.7-1.6,4.7-1.6
		s-1.8,0.1-4,0.8c-2.6,0.9-3.8,2.4-8,2.4c-5.8,0.1-9.1-7.9-11.6-9.5C20.8,43.6,15.9,43.8,15.9,43.8z"/>
	<ellipse class="st0" cx="34.5" cy="48.3" rx="5.7" ry="5.2"/>
	<path class="st0" d="M12.1,45.1c-6.5,5.1-2.6,13.6,3.2,15.8c9.6,3.8,16.9-0.8,18.7-1.8c1.5-0.9,9.3-3.3,9.3-3.3S32.1,59,25.4,52.4
		C22.4,49.5,16.9,41.1,12.1,45.1z"/>
	<path class="st0" d="M72.5,72.1c-2.3,0.2-0.8-1.3-2.5-1.5c-3.8-0.5-6.3,4.9-13.1,5.5l0,0c-6.8-0.5-9.3-5.9-13.1-5.5
		c-1.7,0.2-0.2,1.7-2.5,1.5c-6.1-0.4-9.6-5.1-6.1-11c3.6-5.8,10.9-2.1,13-1.4c3.3,1.5,1.8-6.4,1.8-6.4s3.1,0.7,6.9,0.7
		c3.8,0,6.9-0.7,6.9-0.7s-1.5,7.8,1.8,6.4c2-0.8,9.4-4.5,13,1.4C82.1,67,78.6,71.7,72.5,72.1z"/>
	<circle class="st0" cx="89.1" cy="35.6" r="3.9"/>
	<circle class="st0" cx="79.6" cy="35.3" r="3.9"/>
	<circle class="st0" cx="70.9" cy="39.9" r="3"/>
	<path class="st0" d="M92.3,42.5c0,0-0.7,2.2-4.7,1s-10-2.9-16.7,1.8c-0.8,0.6,4.7-4.9,8.9-4.8c4.3,0.1,6.3,1.6,9.1,2.1
		C91.7,43.1,92.3,42.5,92.3,42.5z"/>
	<path class="st0" d="M97.9,43.8c0,0-5.3-0.1-7.7,3.4c-2.8,4.2-4.6,9.1-13.5,8.6c-3-0.3-3.1-1.9-5.1-2.9c-2.7-1.5-4.7-1.6-4.7-1.6
		s1.8,0.1,4,0.8c2.6,0.9,3.8,2.4,8,2.4c5.8,0.1,9.1-7.9,11.6-9.5C92.9,43.6,97.9,43.8,97.9,43.8z"/>
	<ellipse class="st0" cx="79.2" cy="48.3" rx="5.7" ry="5.2"/>
	<path class="st0" d="M101.6,45.1c6.5,5.1,2.6,13.6-3.2,15.8c-9.6,3.8-16.9-0.8-18.7-1.8c-1.5-0.9-9.3-3.3-9.3-3.3
		s11.2,3.2,17.9-3.4C91.3,49.5,96.9,41.1,101.6,45.1z"/>
	<path class="st0" d="M56.9,80.9L56.9,80.9L56.9,80.9L56.9,80.9z"/>
	<path class="st0" d="M106.7,53.3c-1.8-0.2,0.2,5.3-7.3,8.4c-5.4,2.2-11.6,1.4-14.7,0.7c-1.2-0.3-2-0.5-2-0.5s0.3,2.4-2.8,7
		c-0.5,0.7-1.1,1.5-1.8,2.4c-4.3,5.1-15.5,5.4-21.2,5.5l0,0c-5.7-0.1-17-0.4-21.2-5.5c-0.7-0.8-1.3-1.6-1.8-2.4
		c-3.1-4.5-2.8-7-2.8-7s-0.7,0.2-2,0.5c-3.1,0.6-9.3,1.5-14.7-0.7C6.9,58.6,8.9,53,7,53.3c-3.2,0.3-7.5,6.9,0.9,15.5
		c8.4,8.4,8.7,12.2,8.7,12.2l1.7-0.9c-1.1,3.6-1.6,7.4-1.6,11.4c0,22.2,18,40.3,40.3,40.3c22.2,0,40.3-18,40.3-40.3
		c0-3.9-0.6-7.8-1.6-11.4l1.7,0.9c0,0,0.2-3.8,8.7-12.2C114.2,60.2,109.9,53.6,106.7,53.3z M21.9,64.2c1.2,0,2.3,1,3.4,2.4
		c-1.9,2.3-3.5,4.9-4.8,7.6C18.3,70.4,16,64.5,21.9,64.2z M56.9,123.9c-17.8,0-32.3-14.5-32.3-32.3c0-6.4,1.9-12.4,5.1-17.4
		c0.5,0.9,1,1.6,1.5,2.1c2.6,2.3,6.4,1.2,6.4,1.2s1.1,5.2,11.6,4.5c6-0.3,7.5-1,7.6-1l0,0l0,0l0,0c0.1,0.1,1.6,0.7,7.6,1
		C74.9,82.7,76,77.5,76,77.5s3.9,1.1,6.4-1.2c0.5-0.5,1-1.2,1.5-2.1c3.2,5,5.1,11,5.1,17.4C89.2,109.4,74.7,123.9,56.9,123.9z
		 M93.2,74.2c-1.3-2.7-2.9-5.3-4.8-7.6c1-1.4,2.2-2.4,3.4-2.4C97.8,64.5,95.5,70.4,93.2,74.2z"/>
	<path class="st0" d="M82.3,86.2c-0.2,2.2-4.7,4.7-9.5,4.1c-4.7-0.6-11.6-1.4-14.6-1.7c-0.9-0.1-1.9-0.1-2.8,0
		c-3,0.3-9.8,1.1-14.6,1.7s-9.3-1.9-9.5-4.1s0.7-5.3,0.7-5.3s2.4,5.4,8.6,4.5c6.1-0.8,4-1.6,16.2-1.6s10,0.8,16.2,1.6
		c6.1,0.8,8.6-4.5,8.6-4.5S82.5,84,82.3,86.2z"/>
	<g>
		<path class="st0" d="M19.7,37.4c0,1.4-0.7,2.5-1.8,3.2c-0.1,0.1-0.2,0.1-0.3,0.2c-1.6,0.8-3.3,1.4-5.1,1.6
			c-0.6,0.1-1.1,0.1-1.7,0.1c-0.5,0-1,0-1.4-0.1C8.1,42.2,7,41.7,6.1,41C3,38.3,1,34.3,1,29.9c0-5.2,2.7-9.7,6.7-12.3
			c0.1,0,0.1-0.1,0.2-0.1c0.7-0.4,1.6-0.7,2.5-0.7s1.7,0.2,2.4,0.6c0.2,0.2,0.5,0.3,0.7,0.5c3.1,2.3,5.3,5.8,5.9,9.9
			C18.9,25.6,17,24,14.7,24l0,0c-1.8,0-3.4,1-4.3,2.5C10,27.2,9.8,28,9.8,28.9c0,2.7,2.2,4.9,4.9,4.9c0.1,0,0.3,0,0.4,0
			c0.2,0,0.4,0,0.6-0.1c0.1,0,0.2,0,0.2,0c1.1,0,2,0.5,2.7,1.2C19.3,35.5,19.7,36.4,19.7,37.4z"/>
	</g>
	<g>
		<path class="st0" d="M94.3,37.4c0,1.4,0.7,2.5,1.8,3.2c0.1,0.1,0.2,0.1,0.3,0.2c1.6,0.8,3.3,1.4,5.1,1.6c0.6,0.1,1.1,0.1,1.7,0.1
			c0.5,0,1,0,1.4-0.1c1.2-0.1,2.3-0.6,3.2-1.4c3.1-2.7,5.1-6.7,5.1-11.1c0-5.2-2.7-9.7-6.7-12.3c-0.1,0-0.1-0.1-0.2-0.1
			c-0.7-0.4-1.6-0.7-2.5-0.7s-1.7,0.2-2.4,0.6c-0.2,0.2-0.5,0.3-0.7,0.5c-3.1,2.3-5.3,5.8-5.9,9.9c0.5-2.2,2.4-3.8,4.7-3.8l0,0
			c1.8,0,3.4,1,4.3,2.5c0.4,0.7,0.6,1.5,0.6,2.4c0,2.7-2.2,4.9-4.9,4.9c-0.1,0-0.3,0-0.4,0c-0.2,0-0.4,0-0.6-0.1c-0.1,0-0.2,0-0.2,0
			c-1.1,0-2,0.5-2.7,1.2C94.7,35.5,94.3,36.4,94.3,37.4z"/>
	</g>
</g>
</svg>
