<?xml version="1.0" encoding="utf-8"?>
<!-- Generator: Adobe Illustrator 22.0.0, SVG Export Plug-In . SVG Version: 6.00 Build 0)  -->
<svg version="1.1" id="图层_1" xmlns="http://www.w3.org/2000/svg" xmlns:xlink="http://www.w3.org/1999/xlink" x="0px" y="0px"
	 viewBox="0 0 65 25" style="enable-background:new 0 0 65 25;" xml:space="preserve">
<style type="text/css">
	.st0{fill:#F4E10D;}
</style>
<g id="云纹1">
	<path class="st0" d="M2.6,2.6c0,0,47.6-3.4,50,2.6c4,9.9-25.9,4.1-27.8,9.1c-2.7,7.3,37.6,6.8,37.7,6.7c0,0-44.6,2-45.4-3.7
		c-1-10.5,32.7-3.8,31.4-9.9C47,0.4,2.6,2.6,2.6,2.6z"/>
	<path class="st0" d="M26.5,10.2c0,0-15.4,0.6-13.4,6.9S45,22.9,45,22.9S4,26.4,7.6,14.7C10.1,7.4,26.5,10.2,26.5,10.2z"/>
</g>
</svg>
