<?xml version="1.0" encoding="utf-8"?>
<!-- Generator: Adobe Illustrator 22.0.0, SVG Export Plug-In . SVG Version: 6.00 Build 0)  -->
<svg version="1.1" id="图层_1" xmlns="http://www.w3.org/2000/svg" xmlns:xlink="http://www.w3.org/1999/xlink" x="0px" y="0px"
	 viewBox="0 0 135 50" style="enable-background:new 0 0 135 50;" xml:space="preserve">
<style type="text/css">
	.st0{fill:#F4E10D;}
</style>
<g id="云纹2">
	<path class="st0" d="M1.3,3.3c0,0,44.8-4.1,49.1,4.1c3.2,7.1-20.2,8.6-20.2,8.6s17.5-1.2,13.4-8.6C40.4,2.3,1.3,3.3,1.3,3.3z"/>
	<path class="st0" d="M25.5,5.8c0,0,14,0.9,15.3,3.9c1.3,3-9.5,4.6-17.7,5.3c-11.9,2-10.9,6.7-6.9,9.1c12.9,7.4,81.4-1.5,85.8,5.8
		c0,0,5,6.4-12.4,7.5c-11.2,0.2-24.2,0.6-20.4,4.4c10.9,9.3,46.3-0.9,64.6,6.8c0,0-4.8-2-18.9-2.4c-17.8-0.4-50.5,3.4-55.1-3.9
		c-5.6-9.7,28.7-1.7,33.9-9.4c0.9-1.6-1-6.1-12.7-5.5S4.8,30.3,2.8,22.1c-2-9.5,24.2-7.8,28.4-9.1c0,0,5-1.2,2.8-4
		C32.3,7,25.5,5.8,25.5,5.8z"/>
</g>
</svg>
