<?xml version="1.0" encoding="utf-8"?>
<!-- Generator: Adobe Illustrator 22.0.0, SVG Export Plug-In . SVG Version: 6.00 Build 0)  -->
<svg version="1.1" id="图层_1" xmlns="http://www.w3.org/2000/svg" xmlns:xlink="http://www.w3.org/1999/xlink" x="0px" y="0px"
	 viewBox="0 0 5000 5000" style="enable-background:new 0 0 5000 5000;" xml:space="preserve">
<style type="text/css">
	.st0{fill:#B01206;}
	.st1{fill:#F60909;}
	.st2{fill:#BE8544;}
</style>
<g>
	<g>
		<path class="st0" d="M1758.8,2225.6c-9.9,21.8-19,44.2-27,67L439,1882.4l-0.1,0c20.5-62.2,43.8-123.1,69.6-182.6L1758.8,2225.6
			L1758.8,2225.6z"/>
		<path class="st1" d="M1792.9,2158.6C1792.9,2158.6,1792.9,2158.6,1792.9,2158.6c-1.5,2.8-3.1,5.4-4.6,8.2c-1,1.7-1.9,3.5-2.9,5.2
			c-0.1,0.2-0.2,0.4-0.3,0.6c0,0,0,0,0,0c-1.9,3.5-3.8,7.1-5.7,10.7c-1.5,2.8-2.9,5.5-4.3,8.3c-1.4,2.8-2.8,5.6-4.2,8.4
			c-1,2-2,4-3,6.1c-0.3,0.6-0.6,1.1-0.8,1.7c-0.2,0.5-0.5,1-0.7,1.5c-0.3,0.6-0.5,1.1-0.8,1.7c0,0,0,0,0,0c-0.3,0.6-0.6,1.2-0.9,1.8
			c-0.5,1.1-1,2.1-1.5,3.2c-1.5,3.2-3,6.3-4.4,9.6c0,0,0,0.1-0.1,0.1L508.5,1699.8c28.3-65.3,59.8-129,94.1-190.8L1792.9,2158.6z"/>
		<path class="st0" d="M1834,2093.8c-14.7,20.9-28.4,42.6-41.1,64.9L602.6,1509c30.5-54.8,63.2-108.2,98.1-159.9L1834,2093.8z"/>
		<path class="st1" d="M1879.9,2034.3c-1.5,1.7-2.9,3.4-4.3,5.2c-1.9,2.2-3.7,4.5-5.6,6.7c0,0,0,0,0,0c-0.1,0.1-0.2,0.2-0.3,0.3
			c-1.2,1.5-2.4,2.9-3.5,4.4c-0.4,0.5-0.9,1.1-1.3,1.6c-0.2,0.2-0.3,0.4-0.5,0.6c-0.5,0.6-0.9,1.2-1.3,1.8c-1.1,1.4-2.3,2.9-3.4,4.3
			c-0.1,0.2-0.3,0.4-0.4,0.5c-1.1,1.4-2.2,2.8-3.3,4.2c-1.2,1.6-2.5,3.2-3.7,4.8c-1,1.3-1.9,2.6-2.9,3.8c-1.1,1.5-2.2,3-3.3,4.5
			s-2.2,3-3.3,4.5c0,0,0,0,0,0c-1.6,2.2-3.2,4.4-4.8,6.6c-0.1,0.1-0.2,0.2-0.2,0.3c-1.2,1.7-2.5,3.4-3.7,5.2L700.8,1349
			c39.9-59.1,82.5-116.2,127.9-170.9c0,0,0,0,0,0L1879.9,2034.3z"/>
		<path class="st0" d="M1926.9,1983.2c-16.4,16.4-32,33.4-47,51.1L828.6,1178.1c41.7-50.5,85.7-99,131.7-145.5L1926.9,1983.2z"/>
		<path class="st1" d="M1988,1928c-5.3,4.4-10.6,8.8-15.9,13.3c-0.2,0.2-0.4,0.3-0.6,0.5c-1.4,1.2-2.8,2.4-4.3,3.7
			c-3.9,3.4-7.7,6.8-11.5,10.2c-0.2,0.1-0.3,0.3-0.5,0.4c-1.6,1.4-3.2,2.9-4.7,4.3c-1.2,1.1-2.3,2.2-3.5,3.3s-2.3,2.2-3.5,3.3
			c-0.9,0.8-1.8,1.7-2.7,2.5c-1,1-2.1,1.9-3.1,2.9c-1.6,1.5-3.2,3.1-4.8,4.6l-0.1,0.1c-0.7,0.7-1.4,1.4-2.1,2
			c-1.4,1.3-2.8,2.7-4.1,4.1l-966.3-950.6c46.4-46.9,94.9-91.7,145.4-134.2L1988,1928z"/>
		<path class="st0" d="M2042.7,1886.9c-18.8,12.9-37,26.6-54.6,41.1L1105.8,898.4c51.7-43.6,105.5-84.8,161.1-123.5L2042.7,1886.9z"
			/>
		<path class="st1" d="M2107.6,1846.5C2107.6,1846.5,2107.6,1846.5,2107.6,1846.5c-1.8,1-3.6,2-5.3,3c-2.3,1.3-4.7,2.7-7,4l-0.1,0.1
			c-2.8,1.6-5.5,3.2-8.2,4.9c-1,0.6-1.9,1.2-2.9,1.7c-1,0.6-2,1.2-2.9,1.8c-0.4,0.3-0.8,0.5-1.2,0.7c-0.2,0.1-0.4,0.3-0.6,0.4
			c-1.7,1.1-3.5,2.1-5.2,3.2c-1.2,0.7-2.3,1.4-3.5,2.2c-4.1,2.6-8.2,5.2-12.3,7.9c0,0-0.1,0-0.1,0.1c-2.6,1.7-5.1,3.5-7.7,5.1
			c-2.6,1.8-5.2,3.5-7.8,5.3L1267,774.9c55.8-38.8,113.4-75,172.8-108.5l0,0L2107.6,1846.5z"/>
		<path class="st0" d="M2177.2,1811.8c-23.8,10.5-47,22.1-69.6,34.8L1439.7,666.5c56.1-31.6,113.7-60.9,172.7-87.6L2177.2,1811.8z"
			/>
		<path class="st1" d="M2240.1,1787c-3,1-6,2.1-9,3.2c-1.7,0.6-3.4,1.2-5,1.8c-0.1,0-0.1,0-0.2,0.1c-1.7,0.6-3.3,1.2-5,1.9
			c-1.9,0.7-3.8,1.4-5.6,2.1c-1.5,0.6-3,1.1-4.5,1.7c-1.6,0.6-3.1,1.2-4.7,1.8c-1.9,0.8-3.8,1.5-5.7,2.3c-2.1,0.8-4.1,1.7-6.1,2.5
			c-0.1,0-0.2,0.1-0.2,0.1c-0.9,0.4-1.8,0.7-2.7,1.1c-0.2,0.1-0.3,0.1-0.5,0.2c-2.1,0.9-4.1,1.8-6.2,2.6c-2.5,1.1-5,2.2-7.5,3.3
			L1612.5,578.8c62.9-28.5,127.5-54,193.4-76.5L2240.1,1787z"/>
		<path class="st0" d="M2309.2,1766.5c-23.4,5.9-46.5,12.7-69.1,20.5L1805.8,502.4c62.3-21.2,125.8-39.7,190.5-55.3L2309.2,1766.5z"
			/>
		<path class="st1" d="M2385.2,1751.3c-1.6,0.2-3.2,0.5-4.8,0.8c-1.1,0.2-2.1,0.3-3.2,0.5c-1.1,0.2-2.3,0.4-3.5,0.6l-0.2,0
			c-1.5,0.3-3,0.5-4.6,0.8c-1.3,0.2-2.7,0.5-4,0.7c-0.2,0-0.5,0.1-0.7,0.1c0,0,0,0-0.1,0c-0.6,0.1-1.2,0.2-1.8,0.3
			c-0.1,0-0.2,0-0.2,0c-0.3,0.1-0.6,0.1-0.9,0.2c-5.6,1-11.2,2.1-16.8,3.2c-0.2,0-0.4,0.1-0.6,0.1c-1.2,0.2-2.3,0.5-3.5,0.7
			c-1.8,0.4-3.7,0.8-5.5,1.2c-1.7,0.4-3.4,0.7-5.1,1.1c-0.1,0-0.1,0-0.2,0.1c-0.1,0-0.2,0.1-0.2,0.1c-0.8,0.2-1.6,0.3-2.3,0.5
			c-1.3,0.3-2.5,0.6-3.8,0.9c-1.9,0.4-3.9,0.9-5.8,1.4c-0.9,0.2-1.7,0.4-2.6,0.6c-1.9,0.5-3.7,0.9-5.6,1.4l0-0.1l-313-1319.4l0,0
			c65.2-15.8,131.6-28.6,199-38.3L2385.2,1751.3z"/>
		<path class="st0" d="M2468.2,1742.9c-28.1,1.4-55.7,4.2-83,8.3l-190-1342.5c64.3-9.3,129.5-15.8,195.4-19.3L2468.2,1742.9z"/>
		<path class="st1" d="M2594.1,387.8l-46.2,1355c-3.2-0.1-6.3-0.3-9.5-0.4c-1.4-0.1-2.8-0.1-4.2-0.1c-0.1,0-0.2,0-0.2,0
			c-1.7,0-3.3-0.1-5-0.1s-3.4-0.1-5.1-0.1h-0.1c-2.2,0-4.5-0.1-6.8-0.1H2500c-2,0-3.9,0.1-5.9,0.1c-1.3,0-2.7,0.1-4,0.1h0
			c-0.7,0-1.3,0-2,0.1h-0.6c-2.3,0.1-4.5,0.1-6.8,0.2h-0.1c-1.2,0-2.3,0.1-3.5,0.1c-1.2,0-2.4,0.1-3.6,0.2c-1.7,0.1-3.5,0.1-5.2,0.2
			l-77.6-1353.6c39.5-2.1,79.3-3.2,119.3-3.2C2538.1,386.2,2566.2,386.7,2594.1,387.8z"/>
		<path class="st1" d="M2998,441l-304.5,1321.4c-1.8-0.4-3.5-0.8-5.3-1.2c-3.4-0.7-6.7-1.5-10.1-2.2c-1.6-0.3-3.3-0.7-4.9-1
			c-0.1,0-0.2,0-0.3-0.1c-2.1-0.4-4.2-0.8-6.2-1.2c-3.4-0.7-6.8-1.3-10.2-1.9c-1.5-0.3-3-0.5-4.5-0.8s-3-0.5-4.5-0.8s-3-0.5-4.6-0.8
			c-1.5-0.3-3-0.5-4.6-0.7c-0.8-0.1-1.7-0.3-2.5-0.4s-1.7-0.3-2.5-0.4c-1.9-0.3-3.8-0.6-5.7-0.8c-1.8-0.3-3.6-0.5-5.4-0.7
			c-1.6-0.2-3.2-0.4-4.8-0.7s-3.2-0.4-4.9-0.6c-1.8-0.2-3.7-0.4-5.5-0.7l192.9-1342.3C2867,414.2,2933.1,426.2,2998,441z"/>
		<path class="st1" d="M3373.7,563.9l-0.1,0.1l-539,1244.2c0,0,0,0-0.1,0c-5.6-2.4-11.3-4.8-16.9-7c-1.3-0.6-2.6-1-3.9-1.5
			c-0.1,0-0.2-0.1-0.2-0.1c-1.1-0.4-2.2-0.9-3.3-1.3c-0.9-0.3-1.8-0.7-2.6-1c-1.5-0.6-3.1-1.2-4.7-1.8c-3.2-1.2-6.4-2.4-9.6-3.6
			c-0.7-0.3-1.5-0.5-2.2-0.8c-1.2-0.4-2.4-0.9-3.6-1.3c-3.5-1.3-7.1-2.5-10.6-3.7c-0.1,0-0.1-0.1-0.2-0.1c-2.2-0.8-4.6-1.6-6.8-2.3
			c-1.8-0.6-3.6-1.2-5.4-1.8c-1.1-0.4-2.3-0.7-3.4-1.1c-1.3-0.4-2.6-0.8-3.9-1.2c-2.8-0.9-5.7-1.8-8.5-2.6l441.9-1282.5
			C3252.8,514.9,3313.9,538.1,3373.7,563.9z"/>
		<path class="st1" d="M3730.2,759.3l-770.3,1116c-2.8-1.9-5.7-3.7-8.6-5.5c-3.3-2.1-6.6-4.2-9.9-6.2c-0.3-0.2-0.6-0.4-0.8-0.5
			c-0.9-0.5-1.7-1.1-2.6-1.6c-3-1.8-6-3.6-9.1-5.4c-1.3-0.8-2.7-1.6-4-2.4c-1.8-1-3.5-2-5.3-3c-0.3-0.1-0.6-0.3-0.8-0.5
			c-0.8-0.5-1.7-1-2.6-1.4c-0.9-0.5-1.9-1.1-2.8-1.6c-0.3-0.2-0.5-0.3-0.8-0.5l-5.4-3c-0.2-0.1-0.4-0.2-0.6-0.4
			c-1.9-1-3.8-2.1-5.7-3.1c-0.9-0.5-1.9-1-2.8-1.5c-0.9-0.5-1.8-1-2.8-1.5c-2.4-1.3-4.8-2.5-7.1-3.7c0,0,0,0,0,0l672.6-1177.8
			C3618.9,687.7,3675.4,722.3,3730.2,759.3z"/>
		<path class="st1" d="M4041.5,1014.7l-962.1,955.3l-0.1,0.1c-2.3-2.2-4.6-4.3-6.8-6.5c-9.8-9.1-19.8-18-30-26.6
			c-0.2-0.2-0.4-0.3-0.6-0.5c-0.1-0.1-0.1-0.1-0.2-0.2c-0.5-0.5-1.1-0.9-1.7-1.4c-0.1-0.1-0.1-0.1-0.2-0.2c-0.1-0.1-0.1-0.1-0.2-0.2
			c-0.9-0.8-1.9-1.6-2.9-2.4l-0.1-0.1c-0.1-0.1-0.2-0.2-0.3-0.3l-0.2-0.1c-1.1-0.9-2.1-1.8-3.2-2.7c-0.6-0.5-1.2-1-1.8-1.5
			c-1.3-1.1-2.6-2.1-3.9-3.1c-0.1-0.1-0.1-0.1-0.2-0.1c-1.2-1-2.5-2-3.7-3c-1.3-1-2.6-2.1-3.8-3.1c0,0,0,0-0.1,0l874.1-1036.6
			l0.1-0.1C3945,923.6,3994.3,968.1,4041.5,1014.7L4041.5,1014.7z"/>
		<path class="st1" d="M4307.5,1332l-1128.9,751.7c-1.7-2.4-3.4-4.7-5.2-7.1c-0.1-0.2-0.3-0.4-0.4-0.6c-1.6-2.1-3.1-4.2-4.7-6.3
			c-0.1-0.1-0.2-0.3-0.3-0.4c-1-1.3-2-2.6-3-4c-1.1-1.5-2.3-2.9-3.4-4.4c-0.9-1.2-1.8-2.3-2.7-3.5c-0.1-0.1-0.1-0.2-0.2-0.3
			c-1.9-2.5-3.9-4.9-5.9-7.4c-2.5-3.1-5-6.1-7.5-9.2c-4.5-5.5-9.1-10.9-13.8-16.2L4181.3,1166
			C4225.9,1219.2,4268,1274.6,4307.5,1332z"/>
		<path class="st1" d="M4505.4,1686.2L3256,2214.7c-1.7-3.6-3.4-7.1-5.1-10.7c-0.7-1.5-1.5-3-2.2-4.5c-0.6-1.3-1.3-2.6-1.9-3.8
			c-0.4-0.7-0.7-1.4-1.1-2.1c-1-2-2-4-3.1-6c-1-2-2.1-3.9-3.1-5.9c-0.1-0.2-0.2-0.4-0.3-0.6c-1-1.9-2-3.8-3-5.7
			c-1.3-2.3-2.5-4.6-3.8-6.9c-0.7-1.3-1.4-2.6-2.2-3.9c-0.8-1.4-1.5-2.7-2.3-4.1c-1.3-2.4-2.7-4.8-4.1-7.2c-1-1.7-1.9-3.3-2.9-5l0,0
			l1189.6-651.4c0,0,0,0.1,0.1,0.1C4445.1,1558.4,4476.8,1621.4,4505.4,1686.2z"/>
		<path class="st1" d="M4633.4,2068.6l-1324.1,293.9c-0.8-3-1.5-6-2.3-8.9c-0.4-1.5-0.8-3-1.2-4.5c-0.3-1-0.6-2-0.8-3.1
			c-0.1-0.5-0.3-0.9-0.4-1.4c-0.7-2.7-1.5-5.3-2.3-7.9c-0.4-1.6-0.9-3.1-1.4-4.7c-0.3-0.9-0.5-1.7-0.8-2.6c-0.6-2-1.2-4-1.8-5.9
			c-0.4-1.3-0.8-2.6-1.2-3.9c-0.4-1.2-0.7-2.4-1.1-3.6c-0.6-1.8-1.2-3.7-1.8-5.5c-0.3-1-0.6-1.9-0.9-2.9c-0.6-1.9-1.3-3.9-1.9-5.8
			c0-0.1-0.1-0.2-0.1-0.3c-0.7-2.1-1.4-4.1-2.1-6.2c0-0.1-0.1-0.2-0.1-0.3c-0.1-0.3-0.2-0.6-0.3-0.9c0-0.1-0.1-0.2-0.1-0.3
			c-0.4-1-0.7-2.1-1.1-3.1c-0.4-1-0.7-2.1-1.1-3.1l1288.7-422.9C4597.6,1931.4,4617.1,1999.4,4633.4,2068.6z"/>
		<path class="st0" d="M2799.9,405.3L2607,1747.6c-19.5-2.3-39.2-3.9-59.1-4.8l46.2-1355C2663.6,390.4,2732.2,396.3,2799.9,405.3z"
			/>
		<path class="st0" d="M3190.4,494.5L2748.6,1777c-18.1-5.5-36.4-10.3-55-14.5l304.5-1321.4C3063.3,456,3127.5,473.8,3190.4,494.5z"
			/>
		<path class="st0" d="M3560.8,655.7l-672.6,1177.9c-17.5-9.1-35.4-17.5-53.7-25.3L3373.6,564
			C3437.7,591.6,3500.1,622.2,3560.8,655.7z"/>
		<path class="st0" d="M3893.7,881.5l-874.2,1036.7l0,0c-19.2-15.1-39.1-29.4-59.6-42.8l770.3-1116
			C3786.6,797.5,3841.2,838.3,3893.7,881.5z"/>
		<path class="st0" d="M4181.1,1166l-1049.8,858.3c-16.5-18.9-33.9-37-52-54.4l962.2-955.3C4090.4,1062.9,4137.1,1113.4,4181.1,1166
			z"/>
		<path class="st0" d="M4410.6,1497L3221,2148.4c-13.1-22.3-27.3-43.9-42.4-64.7L4307.5,1332
			C4344.1,1385.3,4378.6,1440.4,4410.6,1497z"/>
		<path class="st0" d="M4575.1,1864.9l-1288.7,422.9c-9-24.9-19.1-49.3-30.3-73.1l1249.3-528.5
			C4531.1,1744.4,4554.5,1804,4575.1,1864.9z"/>
		<path class="st1" d="M1731.8,2292.6c-1.7,4.8-3.3,9.6-4.9,14.4c0,0.1,0,0.1-0.1,0.2c-5.2,15.7-9.9,31.4-14.2,47.4
			c0,0.1-0.1,0.3-0.1,0.4c-1,3.8-1.9,7.4-2.9,11.2l-1325-289.5c15.1-66,33.3-130.8,54.3-194.3L1731.8,2292.6z"/>
	</g>
	<path class="st2" d="M3304.5,2344.7l-746.9,212.2l-11.6,3.3l-3.1,0.9l-5.5,1.6l-5.6,1.6l-7.7,2.2l-5.7,1.6l-6.5,1.8l-0.7,0.2
		l-5.5,1.6l-0.1,0l-0.7,0.2l-1.1,0.3l-0.8,0.2l-1.6-0.4l-0.2,0l-1.4-0.4l-6.4-1.8l-7.5-2.1l-4.1-1.1l-0.3-0.1l-8-2.2l-4-1.1
		l-7.7-2.1l-7-1.9l-7.7-2.1l-5.7-1.6l-17.6-4.9l-32.7-9L1712.6,2355c0-0.1,0.1-0.3,0.1-0.4c4.3-16.1,9-31.8,14.2-47.4l506.3,133.4
		L1765.6,2211c0,0,0,0,0,0c0.2-0.6,0.5-1.1,0.8-1.7c0.2-0.5,0.5-1,0.7-1.5c0.3-0.6,0.6-1.1,0.8-1.7c1-2.1,2-4.1,3-6.1
		c1.4-2.8,2.8-5.6,4.2-8.4c1.4-2.8,2.8-5.5,4.3-8.3c1.9-3.6,3.8-7.2,5.7-10.7l244.5,115.2l262.9,126.8l-449.8-332.9c0,0,0,0,0,0
		c1.1-1.5,2.2-3,3.3-4.5s2.2-3,3.3-4.5c1-1.2,1.9-2.5,2.9-3.8c1.2-1.6,2.5-3.2,3.7-4.8c1.1-1.4,2.2-2.8,3.3-4.2
		c0.1-0.1,0.3-0.3,0.4-0.5c1.1-1.4,2.3-2.9,3.4-4.3c0.4-0.6,0.9-1.2,1.3-1.8c0.2-0.2,0.3-0.4,0.5-0.6c0.4-0.6,0.9-1.1,1.3-1.6
		c1.1-1.5,2.3-2.9,3.5-4.4c0.1-0.1,0.2-0.2,0.3-0.3l453,330.4L1943.8,1967c1.2-1.1,2.3-2.2,3.5-3.3c1.2-1.1,2.3-2.2,3.5-3.3
		c1.6-1.4,3.2-2.9,4.7-4.3c0.2-0.1,0.3-0.3,0.5-0.4c3.8-3.4,7.6-6.8,11.5-10.2c1.4-1.2,2.8-2.5,4.3-3.7c0.2-0.2,0.4-0.3,0.6-0.5
		l361,379.8l-275.1-444.6c0,0,0.1,0,0.1-0.1c4.1-2.7,8.2-5.3,12.3-7.9c1.2-0.8,2.3-1.5,3.5-2.2c1.7-1.1,3.5-2.1,5.2-3.2
		c0.2-0.1,0.4-0.3,0.6-0.4c0.4-0.2,0.8-0.4,1.2-0.7c0.9-0.6,1.9-1.2,2.9-1.8c1-0.5,1.9-1.1,2.9-1.7c2.7-1.7,5.4-3.3,8.2-4.9l0,0
		l288.3,455.6l-192.7-503.3c0.2-0.1,0.3-0.2,0.5-0.2c0.9-0.4,1.8-0.8,2.7-1.1c0.1,0,0.2-0.1,0.2-0.1c2-0.9,4.1-1.7,6.1-2.5
		c1.9-0.8,3.8-1.5,5.7-2.3c1.6-0.6,3.1-1.2,4.7-1.8c1.5-0.6,3-1.2,4.5-1.7c1.9-0.7,3.7-1.4,5.6-2.1c1.7-0.6,3.3-1.2,5-1.9
		c0.1,0,0.1,0,0.2-0.1c1.7-0.6,3.3-1.2,5-1.8l198.6,500.8l-100.1-529.3c0.1,0,0.1-0.1,0.2-0.1c1.7-0.4,3.4-0.7,5.1-1.1
		c1.8-0.4,3.7-0.8,5.5-1.2c1.2-0.2,2.3-0.5,3.5-0.7c0.2,0,0.4-0.1,0.6-0.1c5.6-1.1,11.2-2.2,16.8-3.2c0.3-0.1,0.6-0.1,0.9-0.2
		c0.1,0,0.1,0,0.2,0c0.6-0.1,1.2-0.2,1.8-0.3c0,0,0.1,0,0.1,0c0.2,0,0.5-0.1,0.7-0.1c1.3-0.2,2.7-0.5,4-0.7c1.6-0.3,3.1-0.5,4.6-0.8
		l0.2,0l102.4,525.4l4.5-536.1h0.1c2.3-0.1,4.5-0.1,6.8-0.2h0.6c0.7,0,1.3,0,2-0.1h0c1.3,0,2.7-0.1,4-0.1c2,0,3.9-0.1,5.9-0.1h16.9
		c2.3,0,4.6,0.1,6.8,0.1h0.1l0.2,541.5l103.5-533.3c1.9,0.3,3.8,0.6,5.7,0.8c0.8,0.1,1.7,0.3,2.5,0.4s1.7,0.3,2.5,0.4
		c1.5,0.2,3.1,0.5,4.6,0.7c1.5,0.2,3,0.5,4.6,0.8c1.5,0.3,3,0.5,4.5,0.8s3,0.5,4.5,0.8c3.4,0.6,6.8,1.2,10.2,1.9
		c2.2,0.3,4.3,0.7,6.3,1.1l-102.1,535.2l205.9-507.2c0.1,0,0.1,0.1,0.2,0.1c3.5,1.2,7.1,2.4,10.6,3.7c1.2,0.4,2.4,0.9,3.6,1.3
		c0.7,0.3,1.5,0.5,2.2,0.8c3.2,1.2,6.4,2.4,9.6,3.6c1.6,0.6,3.2,1.2,4.7,1.8c0.8,0.3,1.7,0.7,2.6,1c1.1,0.4,2.2,0.9,3.3,1.3
		c0.1,0,0.2,0.1,0.2,0.1c1.3,0.5,2.5,1.1,3.8,1.5l-202.6,509.4l298.3-463.4c0.9,0.5,1.9,1.1,2.8,1.6c0.8,0.4,1.7,1,2.6,1.4
		c0.3,0.2,0.6,0.3,0.8,0.5c1.8,1,3.5,2,5.3,3c1.3,0.8,2.7,1.6,4,2.4c3,1.8,6.1,3.6,9.1,5.4c0.8,0.5,1.7,1.1,2.6,1.6
		c0.3,0.2,0.6,0.3,0.8,0.5c3.3,2.1,6.6,4.2,9.9,6.3l-297.2,468l382.8-405.7c1,0.8,1.9,1.6,2.9,2.4c0,0,0.1,0,0.1,0.1
		c0.1,0.1,0.1,0.1,0.2,0.2c0.5,0.5,1.1,0.9,1.7,1.4c0.1,0.1,0.1,0.1,0.2,0.2c0.2,0.2,0.5,0.4,0.7,0.6c10.1,8.6,20.1,17.4,29.9,26.6
		l-390.7,416.1l463.2-339.1c2.5,3,5,6.1,7.5,9.2c2,2.5,3.9,4.9,5.9,7.4c0.1,0.1,0.1,0.2,0.2,0.3c0.9,1.2,1.8,2.3,2.7,3.5
		c1.1,1.4,2.3,2.9,3.4,4.4c1,1.3,2,2.6,3,4c0.1,0.1,0.2,0.3,0.3,0.4c1.6,2.1,3.2,4.2,4.7,6.3c0.4,0.1,0.5,0.3,0.6,0.5l-452.9,333.9
		l512-242c1.3,2.3,2.5,4.6,3.8,6.9c1,1.9,2,3.8,3,5.7c0.1,0.2,0.2,0.4,0.3,0.6c1,2,2.1,3.9,3.1,5.9s2,4,3.1,6
		c0.4,0.7,0.7,1.4,1.1,2.1c0.6,1.3,1.3,2.6,1.9,3.8c0.7,1.5,1.4,3,2.2,4.5l-487.6,235.5l525.7-144.4c0,0.1,0.1,0.2,0.1,0.3
		c0.7,2,1.4,4.1,2.1,6.2c0,0.1,0.1,0.2,0.1,0.3c0.7,1.9,1.3,3.9,1.9,5.8c0.3,1,0.6,1.9,0.9,2.9c0.6,1.8,1.2,3.7,1.8,5.5
		c0.4,1.2,0.8,2.4,1.1,3.6c0.4,1.3,0.8,2.6,1.2,3.9c0.6,2,1.2,3.9,1.8,5.9c0.3,0.9,0.5,1.7,0.8,2.6c0.5,1.6,0.9,3.1,1.4,4.7
		C3303,2339.4,3303.7,2342,3304.5,2344.7z"/>
</g>
</svg>
