<?xml version="1.0" encoding="utf-8"?>
<!-- Generator: Adobe Illustrator 22.0.0, SVG Export Plug-In . SVG Version: 6.00 Build 0)  -->
<svg version="1.1" id="图层_1" xmlns="http://www.w3.org/2000/svg" xmlns:xlink="http://www.w3.org/1999/xlink" x="0px" y="0px"
	 viewBox="0 0 260 40" style="enable-background:new 0 0 260 40;" xml:space="preserve">
<style type="text/css">
	.st0{fill:#F8DF76;}
	.st1{fill:#B92E39;}
</style>
<g>
	<path class="st0" d="M226.1,17.1c-5.3-9.2-15.3-15.4-26.7-15.4c-11.7,0-21.8,6.5-27.1,16c-0.3,0.5-0.5,1-0.8,1.5l1.9,0.9l3.2,1.5
		l1.9,0.9l3,1.4l2,1l3.2,1.5l1.8,0.9l3.3,1.6l1.8,0.9c0.2-0.5,0.6-1,1-1.4c1.2-1.4,2.9-2.2,4.8-2.2c1.9,0,3.6,0.8,4.8,2.1
		c0.4,0.4,0.7,0.9,1,1.4l1.8-0.9l3.3-1.7l1.8-0.9l3.2-1.6l2-1l3-1.5l1.8-0.9l3.1-1.6l1.8-0.9C226.6,18.1,226.4,17.6,226.1,17.1z
		 M206,27.3c-1.5-1.9-3.9-3.2-6.6-3.2c-2.7,0-5.2,1.3-6.7,3.3l-3.3-1.6c2.2-3.3,5.9-5.4,10.1-5.4c4.1,0,7.7,2,9.9,5.2L206,27.3z
		 M211.1,24.7c-2.5-3.8-6.8-6.3-11.7-6.3c-5,0-9.4,2.6-11.9,6.5l-3.2-1.6c3.1-5.1,8.7-8.5,15.1-8.5c6.3,0,11.8,3.3,14.9,8.2
		L211.1,24.7z M216.3,22.1c-3.5-5.7-9.8-9.4-16.9-9.4c-7.3,0-13.7,3.9-17.1,9.8l-3-1.4c4-7,11.5-11.7,20.2-11.7
		c8.4,0,15.8,4.5,19.9,11.3L216.3,22.1z M221.1,19.7c-4.4-7.4-12.5-12.4-21.7-12.4c-9.5,0-17.7,5.2-22,12.9l-3.2-1.5
		c4.9-8.9,14.3-14.9,25.2-14.9c10.6,0,19.9,5.7,24.9,14.3L221.1,19.7z"/>
	<path class="st1" d="M209.3,25.6l-3.3,1.7c-1.5-1.9-3.9-3.2-6.6-3.2c-2.7,0-5.2,1.3-6.7,3.3l-3.3-1.6c2.2-3.3,5.9-5.4,10.1-5.4
		C203.5,20.5,207.1,22.5,209.3,25.6z"/>
	<path class="st1" d="M214.3,23.1l-3.2,1.6c-2.5-3.8-6.8-6.3-11.7-6.3c-5,0-9.4,2.6-11.9,6.5l-3.2-1.6c3.1-5.1,8.7-8.5,15.1-8.5
		C205.6,14.9,211.1,18.2,214.3,23.1z"/>
	<path class="st1" d="M219.3,20.6l-3,1.5c-3.5-5.7-9.8-9.4-16.9-9.4c-7.3,0-13.7,3.9-17.1,9.8l-3-1.4c4-7,11.5-11.7,20.2-11.7
		C207.8,9.3,215.2,13.9,219.3,20.6z"/>
	<path class="st1" d="M224.2,18.1l-3.1,1.6c-4.4-7.4-12.5-12.4-21.7-12.4c-9.5,0-17.7,5.2-22,12.9l-3.2-1.5
		c4.9-8.9,14.3-14.9,25.2-14.9C210,3.8,219.2,9.5,224.2,18.1z"/>
	<path class="st0" d="M253.7,25.5c-5.3-9.2-15.3-15.4-26.7-15.4c-11.7,0-21.8,6.5-27.1,16c-0.3,0.5-0.5,1-0.8,1.5l1.9,0.9l3.2,1.5
		l1.9,0.9l3,1.4l2,1l3.2,1.5l1.8,0.9l3.3,1.6l1.8,0.9c0.2-0.5,0.6-1,1-1.4c1.2-1.4,2.9-2.2,4.8-2.2c1.9,0,3.6,0.8,4.8,2.1
		c0.4,0.4,0.7,0.9,1,1.4l1.8-0.9l3.3-1.7l1.8-0.9l3.2-1.6l2-1l3-1.5l1.8-0.9l3.1-1.6l1.8-0.9C254.2,26.5,254,26,253.7,25.5z
		 M233.6,35.7c-1.5-1.9-3.9-3.2-6.6-3.2c-2.7,0-5.2,1.3-6.7,3.3l-3.3-1.6c2.2-3.3,5.9-5.4,10.1-5.4c4.1,0,7.7,2,9.9,5.2L233.6,35.7z
		 M238.7,33.1c-2.5-3.8-6.8-6.3-11.7-6.3c-5,0-9.4,2.6-11.9,6.5l-3.2-1.6c3.1-5.1,8.7-8.5,15.1-8.5c6.3,0,11.8,3.3,14.9,8.2
		L238.7,33.1z M243.9,30.5c-3.5-5.7-9.8-9.4-16.9-9.4c-7.3,0-13.7,3.9-17.1,9.8l-3-1.4c4-7,11.5-11.7,20.2-11.7
		c8.4,0,15.8,4.5,19.9,11.3L243.9,30.5z M248.7,28c-4.4-7.4-12.5-12.4-21.7-12.4c-9.5,0-17.7,5.2-22,12.9l-3.2-1.5
		c4.9-8.9,14.3-14.9,25.2-14.9c10.6,0,19.9,5.7,24.9,14.3L248.7,28z"/>
	<path class="st1" d="M236.9,34l-3.3,1.7c-1.5-1.9-3.9-3.2-6.6-3.2c-2.7,0-5.2,1.3-6.7,3.3l-3.3-1.6c2.2-3.3,5.9-5.4,10.1-5.4
		C231.1,28.8,234.7,30.9,236.9,34z"/>
	<path class="st1" d="M241.9,31.5l-3.2,1.6c-2.5-3.8-6.8-6.3-11.7-6.3c-5,0-9.4,2.6-11.9,6.5l-3.2-1.6c3.1-5.1,8.7-8.5,15.1-8.5
		C233.2,23.3,238.7,26.5,241.9,31.5z"/>
	<path class="st1" d="M246.9,29l-3,1.5c-3.5-5.7-9.8-9.4-16.9-9.4c-7.3,0-13.7,3.9-17.1,9.8l-3-1.4c4-7,11.5-11.7,20.2-11.7
		C235.4,17.7,242.8,22.2,246.9,29z"/>
	<path class="st1" d="M251.8,26.4l-3.1,1.6c-4.4-7.4-12.5-12.4-21.7-12.4c-9.5,0-17.7,5.2-22,12.9l-3.2-1.5
		c4.9-8.9,14.3-14.9,25.2-14.9C237.6,12.1,246.8,17.9,251.8,26.4z"/>
	<path class="st0" d="M170.8,17.3c-5.3-9.2-15.3-15.4-26.7-15.4c-11.7,0-21.8,6.5-27.1,16c-0.3,0.5-0.5,1-0.8,1.5l1.9,0.9l3.2,1.5
		l1.9,0.9l3,1.4l2,1l3.2,1.5l1.8,0.9l3.3,1.6l1.8,0.9c0.2-0.5,0.6-1,1-1.4c1.2-1.4,2.9-2.2,4.8-2.2c1.9,0,3.6,0.8,4.8,2.1
		c0.4,0.4,0.7,0.9,1,1.4l1.8-0.9l3.3-1.7l1.8-0.9l3.2-1.6l2-1l3-1.5l1.8-0.9l3.1-1.6l1.8-0.9C171.4,18.3,171.1,17.8,170.8,17.3z
		 M150.7,27.5c-1.5-1.9-3.9-3.2-6.6-3.2c-2.7,0-5.2,1.3-6.7,3.3L134,26c2.2-3.3,5.9-5.4,10.1-5.4c4.1,0,7.7,2,9.9,5.2L150.7,27.5z
		 M155.8,24.9c-2.5-3.8-6.8-6.3-11.7-6.3c-5,0-9.4,2.6-11.9,6.5l-3.2-1.6c3.1-5.1,8.7-8.5,15.1-8.5c6.3,0,11.8,3.3,14.9,8.2
		L155.8,24.9z M161,22.2c-3.5-5.7-9.8-9.4-16.9-9.4c-7.3,0-13.7,3.9-17.1,9.8l-3-1.4c4-7,11.5-11.7,20.2-11.7
		c8.4,0,15.8,4.5,19.9,11.3L161,22.2z M165.8,19.8c-4.4-7.4-12.5-12.4-21.7-12.4c-9.5,0-17.7,5.2-22,12.9l-3.2-1.5
		c4.9-8.9,14.3-14.9,25.2-14.9c10.6,0,19.9,5.7,24.9,14.3L165.8,19.8z"/>
	<path class="st1" d="M154,25.8l-3.3,1.7c-1.5-1.9-3.9-3.2-6.6-3.2c-2.7,0-5.2,1.3-6.7,3.3L134,26c2.2-3.3,5.9-5.4,10.1-5.4
		C148.2,20.6,151.8,22.6,154,25.8z"/>
	<path class="st1" d="M159,23.2l-3.2,1.6c-2.5-3.8-6.8-6.3-11.7-6.3c-5,0-9.4,2.6-11.9,6.5l-3.2-1.6c3.1-5.1,8.7-8.5,15.1-8.5
		C150.4,15,155.9,18.3,159,23.2z"/>
	<path class="st1" d="M164,20.7l-3,1.5c-3.5-5.7-9.8-9.4-16.9-9.4c-7.3,0-13.7,3.9-17.1,9.8l-3-1.4c4-7,11.5-11.7,20.2-11.7
		C152.5,9.5,159.9,14,164,20.7z"/>
	<path class="st1" d="M169,18.2l-3.1,1.6c-4.4-7.4-12.5-12.4-21.7-12.4c-9.5,0-17.7,5.2-22,12.9l-3.2-1.5
		c4.9-8.9,14.3-14.9,25.2-14.9C154.7,3.9,164,9.7,169,18.2z"/>
	<path class="st0" d="M115.5,17.3c-5.3-9.2-15.3-15.4-26.7-15.4c-11.7,0-21.8,6.5-27.1,16c-0.3,0.5-0.5,1-0.8,1.5l1.9,0.9l3.2,1.5
		l1.9,0.9l3,1.4l2,1l3.2,1.5l1.8,0.9l3.3,1.6l1.8,0.9c0.2-0.5,0.6-1,1-1.4c1.2-1.4,2.9-2.2,4.8-2.2c1.9,0,3.6,0.8,4.8,2.1
		c0.4,0.4,0.7,0.9,1,1.4l1.8-0.9l3.3-1.7l1.8-0.9l3.2-1.6l2-1l3-1.5l1.8-0.9l3.1-1.6l1.8-0.9C116.1,18.3,115.8,17.8,115.5,17.3z
		 M95.4,27.5c-1.5-1.9-3.9-3.2-6.6-3.2c-2.7,0-5.2,1.3-6.7,3.3L78.7,26c2.2-3.3,5.9-5.4,10.1-5.4c4.1,0,7.7,2,9.9,5.2L95.4,27.5z
		 M100.5,24.9c-2.5-3.8-6.8-6.3-11.7-6.3c-5,0-9.4,2.6-11.9,6.5l-3.2-1.6c3.1-5.1,8.7-8.5,15.1-8.5c6.3,0,11.8,3.3,14.9,8.2
		L100.5,24.9z M105.7,22.2c-3.5-5.7-9.8-9.4-16.9-9.4c-7.3,0-13.7,3.9-17.1,9.8l-3-1.4c4-7,11.5-11.7,20.2-11.7
		c8.4,0,15.8,4.5,19.9,11.3L105.7,22.2z M110.6,19.8c-4.4-7.4-12.5-12.4-21.7-12.4c-9.5,0-17.7,5.2-22,12.9l-3.2-1.5
		C68.5,9.9,78,3.9,88.8,3.9c10.6,0,19.9,5.7,24.9,14.3L110.6,19.8z"/>
	<path class="st1" d="M98.7,25.8l-3.3,1.7c-1.5-1.9-3.9-3.2-6.6-3.2c-2.7,0-5.2,1.3-6.7,3.3L78.7,26c2.2-3.3,5.9-5.4,10.1-5.4
		C92.9,20.6,96.5,22.6,98.7,25.8z"/>
	<path class="st1" d="M103.7,23.2l-3.2,1.6c-2.5-3.8-6.8-6.3-11.7-6.3c-5,0-9.4,2.6-11.9,6.5l-3.2-1.6c3.1-5.1,8.7-8.5,15.1-8.5
		C95.1,15,100.6,18.3,103.7,23.2z"/>
	<path class="st1" d="M108.7,20.7l-3,1.5c-3.5-5.7-9.8-9.4-16.9-9.4c-7.3,0-13.7,3.9-17.1,9.8l-3-1.4c4-7,11.5-11.7,20.2-11.7
		C97.2,9.5,104.6,14,108.7,20.7z"/>
	<path class="st1" d="M113.7,18.2l-3.1,1.6c-4.4-7.4-12.5-12.4-21.7-12.4c-9.5,0-17.7,5.2-22,12.9l-3.2-1.5
		C68.5,9.9,78,3.9,88.8,3.9C99.4,3.9,108.7,9.7,113.7,18.2z"/>
	<path class="st0" d="M143.1,25.6c-5.3-9.2-15.3-15.4-26.7-15.4c-11.7,0-21.8,6.5-27.1,16c-0.3,0.5-0.5,1-0.8,1.5l1.9,0.9l3.2,1.5
		l1.9,0.9l3,1.4l2,1l3.2,1.5l1.8,0.9l3.3,1.6l1.8,0.9c0.2-0.5,0.6-1,1-1.4c1.2-1.4,2.9-2.2,4.8-2.2c1.9,0,3.6,0.8,4.8,2.1
		c0.4,0.4,0.7,0.9,1,1.4l1.8-0.9l3.3-1.7l1.8-0.9l3.2-1.6l2-1l3-1.5l1.8-0.9l3.1-1.6l1.8-0.9C143.7,26.6,143.4,26.1,143.1,25.6z
		 M123,35.8c-1.5-1.9-3.9-3.2-6.6-3.2c-2.7,0-5.2,1.3-6.7,3.3l-3.3-1.6c2.2-3.3,5.9-5.4,10.1-5.4c4.1,0,7.7,2,9.9,5.2L123,35.8z
		 M128.1,33.2c-2.5-3.8-6.8-6.3-11.7-6.3c-5,0-9.4,2.6-11.9,6.5l-3.2-1.6c3.1-5.1,8.7-8.5,15.1-8.5c6.3,0,11.8,3.3,14.9,8.2
		L128.1,33.2z M133.3,30.6c-3.5-5.7-9.8-9.4-16.9-9.4c-7.3,0-13.7,3.9-17.1,9.8l-3-1.4c4-7,11.5-11.7,20.2-11.7
		c8.4,0,15.8,4.5,19.9,11.3L133.3,30.6z M138.2,28.2c-4.4-7.4-12.5-12.4-21.7-12.4c-9.5,0-17.7,5.2-22,12.9l-3.2-1.5
		c4.9-8.9,14.3-14.9,25.2-14.9c10.6,0,19.9,5.7,24.9,14.3L138.2,28.2z"/>
	<path class="st1" d="M126.3,34.1l-3.3,1.7c-1.5-1.9-3.9-3.2-6.6-3.2c-2.7,0-5.2,1.3-6.7,3.3l-3.3-1.6c2.2-3.3,5.9-5.4,10.1-5.4
		C120.5,29,124.1,31,126.3,34.1z"/>
	<path class="st1" d="M131.3,31.6l-3.2,1.6c-2.5-3.8-6.8-6.3-11.7-6.3c-5,0-9.4,2.6-11.9,6.5l-3.2-1.6c3.1-5.1,8.7-8.5,15.1-8.5
		C122.7,23.4,128.2,26.7,131.3,31.6z"/>
	<path class="st1" d="M136.3,29.1l-3,1.5c-3.5-5.7-9.8-9.4-16.9-9.4c-7.3,0-13.7,3.9-17.1,9.8l-3-1.4c4-7,11.5-11.7,20.2-11.7
		C124.9,17.8,132.2,22.3,136.3,29.1z"/>
	<path class="st1" d="M141.3,26.6l-3.1,1.6c-4.4-7.4-12.5-12.4-21.7-12.4c-9.5,0-17.7,5.2-22,12.9l-3.2-1.5
		c4.9-8.9,14.3-14.9,25.2-14.9C127,12.3,136.3,18,141.3,26.6z"/>
	<path class="st0" d="M60.1,17.3C54.8,8.1,44.8,1.8,33.4,1.8c-11.7,0-21.8,6.5-27.1,16c-0.3,0.5-0.5,1-0.8,1.5l1.9,0.9l3.2,1.5
		l1.9,0.9l3,1.4l2,1l3.2,1.5l1.8,0.9l3.3,1.6l1.8,0.9c0.2-0.5,0.6-1,1-1.4c1.2-1.4,2.9-2.2,4.8-2.2c1.9,0,3.6,0.8,4.8,2.1
		c0.4,0.4,0.7,0.9,1,1.4l1.8-0.9l3.3-1.7l1.8-0.9l3.2-1.6l2-1l3-1.5l1.8-0.9l3.1-1.6l1.8-0.9C60.6,18.3,60.4,17.8,60.1,17.3z
		 M40,27.5c-1.5-1.9-3.9-3.2-6.6-3.2c-2.7,0-5.2,1.3-6.7,3.3L23.3,26c2.2-3.3,5.9-5.4,10.1-5.4c4.1,0,7.7,2,9.9,5.2L40,27.5z
		 M45.1,24.9c-2.5-3.8-6.8-6.3-11.7-6.3c-5,0-9.4,2.6-11.9,6.5l-3.2-1.6c3.1-5.1,8.7-8.5,15.1-8.5c6.3,0,11.8,3.3,14.9,8.2
		L45.1,24.9z M50.3,22.2c-3.5-5.7-9.8-9.4-16.9-9.4c-7.3,0-13.7,3.9-17.1,9.8l-3-1.4c4-7,11.5-11.7,20.2-11.7
		c8.4,0,15.8,4.5,19.9,11.3L50.3,22.2z M55.1,19.8C50.7,12.4,42.6,7.4,33.4,7.4c-9.5,0-17.7,5.2-22,12.9l-3.2-1.5
		C13.1,9.9,22.5,3.9,33.4,3.9c10.6,0,19.9,5.7,24.9,14.3L55.1,19.8z"/>
	<path class="st1" d="M43.3,25.8L40,27.5c-1.5-1.9-3.9-3.2-6.6-3.2c-2.7,0-5.2,1.3-6.7,3.3L23.3,26c2.2-3.3,5.9-5.4,10.1-5.4
		C37.5,20.6,41.1,22.6,43.3,25.8z"/>
	<path class="st1" d="M48.3,23.2l-3.2,1.6c-2.5-3.8-6.8-6.3-11.7-6.3c-5,0-9.4,2.6-11.9,6.5l-3.2-1.6c3.1-5.1,8.7-8.5,15.1-8.5
		C39.6,15,45.1,18.3,48.3,23.2z"/>
	<path class="st1" d="M53.3,20.7l-3,1.5c-3.5-5.7-9.8-9.4-16.9-9.4c-7.3,0-13.7,3.9-17.1,9.8l-3-1.4c4-7,11.5-11.7,20.2-11.7
		C41.8,9.5,49.2,14,53.3,20.7z"/>
	<path class="st1" d="M58.2,18.2l-3.1,1.6C50.7,12.4,42.6,7.4,33.4,7.4c-9.5,0-17.7,5.2-22,12.9l-3.2-1.5
		C13.1,9.9,22.5,3.9,33.4,3.9C44,3.9,53.3,9.7,58.2,18.2z"/>
	<path class="st0" d="M87.7,25.6C82.4,16.4,72.4,10.2,61,10.2c-11.7,0-21.8,6.5-27.1,16c-0.3,0.5-0.5,1-0.8,1.5l1.9,0.9l3.2,1.5
		l1.9,0.9l3,1.4l2,1l3.2,1.5l1.8,0.9l3.3,1.6l1.8,0.9c0.2-0.5,0.6-1,1-1.4c1.2-1.4,2.9-2.2,4.8-2.2c1.9,0,3.6,0.8,4.8,2.1
		c0.4,0.4,0.7,0.9,1,1.4l1.8-0.9l3.3-1.7l1.8-0.9l3.2-1.6l2-1l3-1.5l1.8-0.9l3.1-1.6l1.8-0.9C88.2,26.6,88,26.1,87.7,25.6z
		 M67.6,35.8c-1.5-1.9-3.9-3.2-6.6-3.2c-2.7,0-5.2,1.3-6.7,3.3l-3.3-1.6C53.1,31.1,56.8,29,61,29c4.1,0,7.7,2,9.9,5.2L67.6,35.8z
		 M72.7,33.2C70.1,29.5,65.8,27,61,27c-5,0-9.4,2.6-11.9,6.5l-3.2-1.6c3.1-5.1,8.7-8.5,15.1-8.5c6.3,0,11.8,3.3,14.9,8.2L72.7,33.2z
		 M77.9,30.6c-3.5-5.7-9.8-9.4-16.9-9.4c-7.3,0-13.7,3.9-17.1,9.8l-3-1.4c4-7,11.5-11.7,20.2-11.7c8.4,0,15.8,4.5,19.9,11.3
		L77.9,30.6z M82.7,28.2C78.3,20.7,70.2,15.8,61,15.8c-9.5,0-17.7,5.2-22,12.9l-3.2-1.5c4.9-8.9,14.3-14.9,25.2-14.9
		c10.6,0,19.9,5.7,24.9,14.3L82.7,28.2z"/>
	<path class="st1" d="M70.9,34.1l-3.3,1.7c-1.5-1.9-3.9-3.2-6.6-3.2c-2.7,0-5.2,1.3-6.7,3.3l-3.3-1.6C53.1,31.1,56.8,29,61,29
		C65.1,29,68.7,31,70.9,34.1z"/>
	<path class="st1" d="M75.9,31.6l-3.2,1.6C70.1,29.5,65.8,27,61,27c-5,0-9.4,2.6-11.9,6.5l-3.2-1.6c3.1-5.1,8.7-8.5,15.1-8.5
		C67.2,23.4,72.7,26.7,75.9,31.6z"/>
	<path class="st1" d="M80.9,29.1l-3,1.5c-3.5-5.7-9.8-9.4-16.9-9.4c-7.3,0-13.7,3.9-17.1,9.8l-3-1.4c4-7,11.5-11.7,20.2-11.7
		C69.4,17.8,76.8,22.3,80.9,29.1z"/>
	<path class="st1" d="M85.8,26.6l-3.1,1.6C78.3,20.7,70.2,15.8,61,15.8c-9.5,0-17.7,5.2-22,12.9l-3.2-1.5
		c4.9-8.9,14.3-14.9,25.2-14.9C71.6,12.3,80.9,18,85.8,26.6z"/>
	<path class="st0" d="M198.4,25.6c-5.3-9.2-15.3-15.4-26.7-15.4c-11.7,0-21.8,6.5-27.1,16c-0.3,0.5-0.5,1-0.8,1.5l1.9,0.9l3.2,1.5
		l1.9,0.9l3,1.4l2,1L159,35l1.8,0.9l3.3,1.6l1.8,0.9c0.2-0.5,0.6-1,1-1.4c1.2-1.4,2.9-2.2,4.8-2.2c1.9,0,3.6,0.8,4.8,2.1
		c0.4,0.4,0.7,0.9,1,1.4l1.8-0.9l3.3-1.7l1.8-0.9l3.2-1.6l2-1l3-1.5l1.8-0.9l3.1-1.6l1.8-0.9C199,26.6,198.7,26.1,198.4,25.6z
		 M178.3,35.8c-1.5-1.9-3.9-3.2-6.6-3.2c-2.7,0-5.2,1.3-6.7,3.3l-3.3-1.6c2.2-3.3,5.9-5.4,10.1-5.4c4.1,0,7.7,2,9.9,5.2L178.3,35.8z
		 M183.4,33.2c-2.5-3.8-6.8-6.3-11.7-6.3c-5,0-9.4,2.6-11.9,6.5l-3.2-1.6c3.1-5.1,8.7-8.5,15.1-8.5c6.3,0,11.8,3.3,14.9,8.2
		L183.4,33.2z M188.6,30.6c-3.5-5.7-9.8-9.4-16.9-9.4c-7.3,0-13.7,3.9-17.1,9.8l-3-1.4c4-7,11.5-11.7,20.2-11.7
		c8.4,0,15.8,4.5,19.9,11.3L188.6,30.6z M193.4,28.2c-4.4-7.4-12.5-12.4-21.7-12.4c-9.5,0-17.7,5.2-22,12.9l-3.2-1.5
		c4.9-8.9,14.3-14.9,25.2-14.9c10.6,0,19.9,5.7,24.9,14.3L193.4,28.2z"/>
	<path class="st1" d="M181.6,34.1l-3.3,1.7c-1.5-1.9-3.9-3.2-6.6-3.2c-2.7,0-5.2,1.3-6.7,3.3l-3.3-1.6c2.2-3.3,5.9-5.4,10.1-5.4
		C175.8,29,179.4,31,181.6,34.1z"/>
	<path class="st1" d="M186.6,31.6l-3.2,1.6c-2.5-3.8-6.8-6.3-11.7-6.3c-5,0-9.4,2.6-11.9,6.5l-3.2-1.6c3.1-5.1,8.7-8.5,15.1-8.5
		C178,23.4,183.5,26.7,186.6,31.6z"/>
	<path class="st1" d="M191.6,29.1l-3,1.5c-3.5-5.7-9.8-9.4-16.9-9.4c-7.3,0-13.7,3.9-17.1,9.8l-3-1.4c4-7,11.5-11.7,20.2-11.7
		C180.1,17.8,187.5,22.3,191.6,29.1z"/>
	<path class="st1" d="M196.6,26.6l-3.1,1.6c-4.4-7.4-12.5-12.4-21.7-12.4c-9.5,0-17.7,5.2-22,12.9l-3.2-1.5
		c4.9-8.9,14.3-14.9,25.2-14.9C182.3,12.3,191.6,18,196.6,26.6z"/>
</g>
</svg>
