<?xml version="1.0" encoding="utf-8"?>
<!-- Generator: Adobe Illustrator 22.0.0, SVG Export Plug-In . SVG Version: 6.00 Build 0)  -->
<svg version="1.1" id="图层_1" xmlns="http://www.w3.org/2000/svg" xmlns:xlink="http://www.w3.org/1999/xlink" x="0px" y="0px"
	 viewBox="0 0 28 22" style="enable-background:new 0 0 28 22;" xml:space="preserve">
<style type="text/css">
	.st0{fill:#FFFFFF;}
</style>
<g>
	<path class="st0" d="M27.6,18.3c-2.9,0.5-5.7,1-8.5,1.5c-3.2,0.6-6.4,1.2-9.6,1.7c-0.3,0-0.6,0-0.8-0.1l0.9-3.7
		c0.4,0.1,0.8,0.2,1.1,0.1c4.7-0.9,9.3-1.8,14-2.6c0.2,0,0.5,0,0.7,0.1C26,16.3,26.8,17.3,27.6,18.3z"/>
	<path class="st0" d="M8.5,17.6l-0.9,3.7h0c-0.2,0-0.4-0.1-0.5-0.2c-2-1.3-3.9-2.7-5.8-4.1c-0.3-0.2-0.5-0.4-0.9-0.6
		c0.7-0.9,1.4-1.8,2.1-2.8c1.9,1.3,3.7,2.6,5.5,3.8C8.2,17.5,8.3,17.5,8.5,17.6z"/>
	<path class="st0" d="M23.8,13.3c-1.3,0.3-2.5,0.5-3.7,0.8c-3.2,0.6-6.4,1.3-9.6,1.9c-0.1,0-0.3,0-0.5,0v0l0.9-3.6
		c0.3,0.1,0.7,0.2,0.9,0.1c3.1-0.5,6.1-1.1,9.1-1.7c0.6-0.1,1,0,1.4,0.6C22.7,11.9,23.2,12.5,23.8,13.3z"/>
	<path class="st0" d="M9.7,12.1l-0.9,3.6c-0.1,0-0.2-0.1-0.2-0.1c-1.7-1.1-3.3-2.3-5.1-3.5c0.7-0.9,1.3-1.8,2-2.7
		c1.3,0.9,2.6,1.7,3.9,2.5C9.6,12,9.6,12.1,9.7,12.1z"/>
	<path class="st0" d="M20.3,8.7c-3,0.6-5.8,1.2-8.7,1.7c-0.1,0-0.3,0-0.4,0l0.8-3.4c0.3,0.1,0.7,0.1,1,0.1c1.6-0.3,3.1-0.6,4.7-0.9
		c0.3,0,0.7,0.1,0.9,0.4C19.2,7.2,19.7,7.9,20.3,8.7z"/>
	<path class="st0" d="M11,6.8l-0.8,3.4c-0.1,0-0.2,0-0.2-0.1C8.9,9.5,7.8,8.8,6.7,8c0.6-0.9,1.2-1.7,1.9-2.5c0.7,0.4,1.3,0.9,2,1.2
		C10.7,6.7,10.8,6.8,11,6.8z"/>
	<path class="st0" d="M17,4.3c-1.1,0.2-2,0.4-3,0.7c-0.6,0.2-1.1,0.2-1.5,0.2l1.1-4.5c0.1-0.1,0.1-0.1,0.2-0.2
		C14.8,1.7,15.9,3,17,4.3z"/>
	<path class="st0" d="M12.5,0.4l-1.1,4.5c-0.6-0.1-1.2-0.4-1.7-1C10.6,2.8,11.5,1.6,12.5,0.4z"/>
</g>
</svg>
