<?xml version="1.0" encoding="utf-8"?>
<!-- Generator: Adobe Illustrator 22.0.0, SVG Export Plug-In . SVG Version: 6.00 Build 0)  -->
<svg version="1.1" id="图层_1" xmlns="http://www.w3.org/2000/svg" xmlns:xlink="http://www.w3.org/1999/xlink" x="0px" y="0px"
	 viewBox="0 0 300 190" style="enable-background:new 0 0 300 190;" xml:space="preserve">
<style type="text/css">
	.st0{fill:#FFFFFF;}
</style>
<g>
	<path class="st0" d="M233,104.7V187h-15.3v-43.7h-29.3V187H173V72.4c-0.3-0.6-0.6-1.7-0.9-2.3c-0.2-0.3-0.3-0.9-0.5-1.2
		c-12.8-26.8-39.8-45.7-71.4-46.9c-0.1,0-0.2,0-0.3,0c-0.2,0-0.3,0-0.4,0h-0.2c-0.2,0-0.4,0-0.6,0h-0.4c-0.5,0-1,0-1.6,0
		c-0.5,0-1,0-1.6,0h-0.4h-0.6h-0.2c-0.1,0-0.3,0-0.4,0s-0.2,0-0.2,0C61.9,23.3,35,42.1,22.2,68.8c-0.5,1-1,2.5-1.4,3.5V187H5.6V61.6
		c0.6-1.2,1.1-2.4,1.8-3.6C23.4,26.5,55.6,4.5,93,3.1c0.1,0,0.2,0,0.3,0c0.2,0,0.3,0,0.5,0H94c0.2,0,0.5,0,0.7,0h0.5
		c0.6,0,1.2,0,1.9,0c0.6,0,1.2,0,1.9,0h0.5c0.2,0,0.5,0,0.7,0h0.2c0.2,0,0.3,0,0.5,0c0.1,0,0.2,0,0.3,0
		c37.4,1.4,69.6,23.4,85.6,54.9c0.2,0.4,0.4,0.8,0.6,1.3c0.4,0.8,0.8,1.6,1.1,2.4V128h29.3v-15.6c0-8.1-6.6-14.6-14.6-14.6
		c-1.8,0-3.4,0.3-5,0.9V79.2c0.9-0.2,1.9-0.3,2.9-0.3h0.1c0.1,0,0.1,0,0.2,0h0.1c0.1,0,0.2,0,0.3,0h0.2c0.2,0,0.5,0,0.7,0
		s0.5,0,0.7,0h0.5c0.1,0,0.1,0,0.2,0h0.1c14,0.3,25.6,9.9,28.8,22.7c0,0.1,0.1,1,0.1,1.1C232.8,102.8,232.9,104.5,233,104.7z"/>
	<path class="st0" d="M294.4,61.7V187H279V72.4c-0.3-0.6-0.6-1.7-0.9-2.3c-0.2-0.3-0.3-0.9-0.5-1.2c-12.8-26.8-39.8-45.7-71.4-46.9
		c-0.1,0-0.2,0-0.3,0c-0.2,0-0.3,0-0.4,0h-0.2c-0.2,0-0.4,0-0.6,0h-0.4c-0.5,0-1,0-1.6,0c-0.5,0-1,0-1.6,0h-0.4h-0.6h-0.2
		c-0.1,0-0.3,0-0.4,0c-0.1,0-0.2,0-0.2,0c-9.3,0.4-18.2,2.3-26.5,5.6c-5.2-4.9-10.8-9.2-16.8-13c13-6.8,27.6-10.9,43-11.5
		c0.1,0,0.2,0,0.3,0c0.2,0,0.3,0,0.5,0h0.2c0.2,0,0.5,0,0.7,0h0.5c0.6,0,1.2,0,1.9,0c0.6,0,1.2,0,1.9,0h0.5c0.2,0,0.5,0,0.7,0h0.2
		c0.2,0,0.3,0,0.5,0c0.1,0,0.2,0,0.3,0c37.4,1.4,69.6,23.4,85.6,54.9c0.2,0.4,0.4,0.8,0.6,1.3C293.6,60.1,294,60.9,294.4,61.7z"/>
	<path class="st0" d="M263.7,83.2V187h-15.3V93.9c-0.2-0.3-0.3-1.8-0.5-2.1c-0.1-0.2-0.2-1-0.3-1.1c-6.4-17.5-23.2-30.2-43-30.7
		c-0.1,0-0.1,0-0.2,0c-0.1,0-0.2,0-0.3,0h-1.7c-0.3,0-0.6,0-1,0h-0.2h-0.4h-0.1c-0.1,0-0.2,0-0.3,0c0,0-0.1,0-0.2,0
		c-1.1,0.1-2.3,0.2-3.4,0.3c-0.1-0.2-0.2-0.3-0.2-0.5c-0.2-0.5-0.5-1-0.7-1.4c-2.7-5.4-5.9-10.5-9.4-15.3c4.3-1.1,8.8-1.8,13.3-2
		c0.1,0,0.1,0,0.2,0c0.1,0,0.2,0,0.3,0h0.2c0.2,0,0.3,0,0.5,0h0.3c0.4,0,0.8,0,1.3,0h1.6c0.2,0,0.3,0,0.5,0h0.2c0.1,0,0.2,0,0.3,0
		s0.2,0,0.2,0c25.7,0.9,47.6,16.7,57.2,38.8c0.1,0.2,0.3,0.9,0.4,1.2C263.2,81.4,263.5,82.7,263.7,83.2z"/>
	<path class="st0" d="M157.7,83.2V187h-15.3V93.9c-0.2-0.3-0.3-1.8-0.5-2.1c-0.1-0.2-0.2-1-0.3-1.1c-6.4-17.5-23.2-30.2-43-30.7
		c-0.1,0-0.1,0-0.2,0s-0.2,0-0.3,0h-1.7c-0.3,0-0.6,0-1,0h-0.2h-0.4h-0.1c-0.1,0-0.2,0-0.3,0c0,0-0.1,0-0.2,0
		c-19.3,1.1-35.6,13.6-42,30.7c-0.2,0.5-0.5,2.8-0.7,3.3v93H36.3V83.2c0.3-0.7,0.7-2.7,1.1-3.4C47,57.9,68.6,42.2,94,41
		c0.1,0,0.1,0,0.2,0s0.2,0,0.3,0h0.2c0.2,0,0.3,0,0.5,0h0.3c0.4,0,0.8,0,1.3,0h1.6c0.2,0,0.3,0,0.5,0h0.2c0.1,0,0.2,0,0.3,0
		c0.1,0,0.2,0,0.2,0c25.7,0.9,47.6,16.7,57.2,38.8c0.1,0.2,0.3,0.9,0.4,1.2C157.2,81.4,157.5,82.7,157.7,83.2z"/>
	<path class="st0" d="M126.8,102.6c0-0.1-0.1-1-0.1-1.1c-3.2-12.8-14.9-22.4-28.8-22.7h-0.1c-0.1,0-0.1,0-0.2,0H97
		c-0.2,0-0.5,0-0.7,0s-0.5,0-0.7,0h-0.2c-0.1,0-0.2,0-0.3,0H95c-0.1,0-0.1,0-0.2,0h-0.1c-13.3,1-24.3,10.3-27.5,22.6
		c-0.1,0.2-0.2,2.9-0.3,3.1V187h15.3v-43.7h29.3V187H127v-82.3C126.9,104.5,126.8,102.8,126.8,102.6z M111.6,128H82.4v-15.6
		c0-8.1,6.6-14.6,14.6-14.6c8.1,0,14.6,6.6,14.6,14.6V128z"/>
</g>
</svg>
