<?xml version="1.0" encoding="utf-8"?>
<!-- Generator: Adobe Illustrator 22.0.0, SVG Export Plug-In . SVG Version: 6.00 Build 0)  -->
<svg version="1.1" id="图层_1" xmlns="http://www.w3.org/2000/svg" xmlns:xlink="http://www.w3.org/1999/xlink" x="0px" y="0px"
	 viewBox="0 0 22 21" style="enable-background:new 0 0 22 21;" xml:space="preserve">
<style type="text/css">
	.st0{fill:#FFFFFF;}
</style>
<g>
	<path class="st0" d="M5.5,20.7c0.2-0.6,0.3-1.2,0.4-1.7c0.4-1.5,0.9-3.1,1.3-4.6c0-0.1,0.1-0.1,0.1-0.2c0.1-0.3,0.3-0.5,0.6-0.4
		c0.5,0,1,0,1.5,0.1c0.4,0,0.7,0,0.8-0.5c0.1-0.4,0.3-0.8,0.5-1.2c-0.1,0-0.2,0-0.4,0c-1,0.2-2.1,0.4-3.1,0.6
		c-0.1,0-0.3,0.2-0.4,0.3c-0.2,0.5-0.4,1-0.6,1.5c-0.1,0.4-0.3,0.7-0.2,1.1c0,0.1-0.1,0.3-0.2,0.4c-0.2,0.2-0.5,0.3-0.9,0.5
		c0.1-0.5,0.3-0.9,0.4-1.4c0.4-1.4,0.7-2.9,1.1-4.3C7,9.2,7.9,8,9.5,7.5c0.2-0.1,0.4-0.1,0.6-0.2c0.1-0.1,0.2-0.3,0.2-0.5
		c0-0.3-0.1-0.6-0.2-0.8C10.1,5.7,10,5.6,9.7,5.7C8.6,6.2,7.5,6.8,6.6,7.6C6.3,7.9,6,7.9,5.6,7.7C3.9,6.9,2.2,6.1,0.5,5.3
		c-0.1,0-0.1-0.1-0.3-0.2C0.7,4.8,1,4.4,1.5,4.1c0.7-0.5,1.4-0.9,2-1.4c0.3-0.2,0.5-0.2,0.7,0c0.2,0.1,0.4,0.2,0.7,0.3
		C4.8,2.7,4.8,2.5,4.7,2.3C4.6,2.1,4.6,2,4.9,1.8c1.2-0.6,2.5-0.9,3.8-1.2c0.8-0.1,1.7-0.2,2.5-0.4c0.1,0,0.3,0.1,0.3,0.2
		c0.1,0.1,0.2,0.3,0.3,0.5c0,0,0.1,0,0.1,0c0.2-0.9,0.9-0.6,1.4-0.6c1.3,0.1,2.6,0.3,3.8,0.9c1.9,0.9,3.4,2.2,4.2,4.2
		c0.7,1.7,0.5,3.4-0.3,5c-0.7,1.5-1.8,2.8-3.1,3.9c-0.1,0-0.1,0.1-0.2,0.1c0.3-0.7,0.6-1.4,0.9-2.1c0.7-1.9,0.2-3.5-1.2-4.9
		C17.2,7.2,17,7,16.8,6.7c-0.4,0.6-0.9,1-0.8,1.7c0,0.1,0.1,0.2,0.2,0.3c1.1,1.1,1.4,3,0.7,4.4c-0.4,0.8-0.9,1.7-1.1,2.6
		c-0.3,1.4,0,2.7,0.9,3.8c0.2,0.2,0.3,0.4,0.4,0.7c-0.5-0.1-1-0.1-1.5-0.2c-0.7-0.2-1.3-0.5-1.7-1c-0.3-0.3-0.3-0.6-0.3-1
		c0-0.4,0.1-0.8,0-1.2c0-0.5-0.3-0.7-0.7-0.8c-0.5-0.1-1.1,0.1-1.3,0.5c-0.1,0.2-0.2,0.3-0.2,0.5c-0.1,0.7-0.6,1.2-1.2,1.5
		c-1.4,0.7-2.9,1.5-4.3,2.2C5.8,20.6,5.7,20.6,5.5,20.7z M12.4,5.1c-0.4,0-0.9,0.1-1.3,0.1c-0.3,0-0.5,0.2-0.4,0.5
		c0.1,0.3,0.2,0.6,0.2,0.9c0.1,0.3,0.3,0.4,0.5,0.4c1.1,0.1,2.1,0.3,3.2,0.7c0.3,0.1,0.6,0,0.8-0.3c0.2-0.3,0.3-0.5,0.5-0.8
		c0.1-0.2,0.1-0.4-0.2-0.6C14.8,5.5,13.7,5.2,12.4,5.1z"/>
</g>
</svg>
