<?xml version="1.0" encoding="utf-8"?>
<!-- Generator: Adobe Illustrator 22.0.0, SVG Export Plug-In . SVG Version: 6.00 Build 0)  -->
<svg version="1.1" id="图层_1" xmlns="http://www.w3.org/2000/svg" xmlns:xlink="http://www.w3.org/1999/xlink" x="0px" y="0px"
	 viewBox="0 0 33 33" style="enable-background:new 0 0 33 33;" xml:space="preserve">
<style type="text/css">
	.st0{fill:#FEFEFE;}
</style>
<g>
	<path class="st0" d="M23.4,27.6c0.1,1,0.1,1.9,0.2,2.9c0,0.4,0,0.8-0.1,1.2c0,0.2-0.1,0.3-0.3,0.2c-0.8-0.3-1.6-0.8-2.3-1.3
		c-1.2-0.9-2.1-2.1-2.9-3.3c-0.9-1.6-1.5-3.4-1.4-5.3c0.1-1.2,0.4-2.3,0.9-3.5c0.1,0.2,0.3,0.3,0.4,0.4c0.3,0.3,0.6,0.7,0.9,1
		c0.1,0.1,0.1,0.2,0,0.3c-0.1,0.3,0,0.6,0.2,0.8c0.4,0.2,0.6,0.2,0.9-0.1c0.2-0.3,0.2-0.6,0-0.9c-0.1-0.1-0.3-0.2-0.4-0.2
		c-0.4,0.1-0.6-0.1-0.8-0.4c-0.3-0.4-0.6-0.7-0.9-1.1c0,0,0-0.1,0-0.1c0.5,0,1,0,1.4,0c0.8,0.1,1.5,0.2,2.2,0.5
		c0.7,0.4,1.4,0.7,2,1.1c0.6,0.4,1.1,0.9,1.6,1.5c0.9,0.9,1.6,2,2.2,3.2c0.5,1,1,2.1,1,3.3c0,0.3-0.1,0.4-0.4,0.4c-0.7,0-1.3,0-2,0
		c-0.8-0.1-1.6-0.2-2.4-0.6C23.6,27.6,23.5,27.6,23.4,27.6z"/>
	<path class="st0" d="M16.1,18c-0.3,0.5-0.6,0.8-0.9,1.2c-0.1,0.1-0.1,0.2-0.2,0.3c-0.1,0.2-0.2,0.3-0.4,0.2c-0.3,0-0.5,0.1-0.6,0.4
		c-0.1,0.2,0,0.5,0.2,0.7c0.2,0.2,0.5,0.2,0.7,0.1c0.2-0.1,0.4-0.4,0.3-0.7c-0.1-0.3,0-0.5,0.1-0.7c0.3-0.3,0.5-0.7,0.7-1
		c0.1-0.1,0.1-0.1,0.3-0.3c0.1,0.5,0.1,1,0.2,1.5c0.2,2-0.1,3.9-0.8,5.7c-0.8,1.9-1.9,3.7-3.6,4.9c-0.4,0.3-0.8,0.5-1.3,0.7
		c-0.2,0.1-0.3,0-0.4-0.2c-0.4-1.2-0.6-2.5-0.4-3.8c0-0.1,0-0.1,0-0.2c-0.1,0-0.2,0-0.2,0c-1.1,0.6-2.2,1.2-3.4,1.6
		c-0.3,0.1-0.4,0.1-0.4-0.3c-0.1-0.9,0.1-1.8,0.3-2.6c0.4-1.3,1-2.5,1.7-3.6c1-1.4,2.2-2.5,3.7-3.2c1.2-0.6,2.4-0.8,3.7-0.9
		C15.6,17.9,15.8,18,16.1,18z"/>
	<path class="st0" d="M16.2,5.1c0.6-1.4,1.2-2.7,2.1-3.9c0.7,0.6,1.1,1.4,1.5,2.2c0.6,1.5,0.9,3,0.9,4.6c0,1.8-0.4,3.6-1.3,5.1
		c-0.6,1-1.4,1.8-2.3,2.5c-0.1,0-0.1,0.1-0.2,0.1c0-0.6-0.1-1.1-0.1-1.6c0-0.3-0.1-0.6,0.3-0.9c0.2-0.1,0.2-0.5,0.1-0.7
		c-0.1-0.3-0.5-0.5-0.8-0.4c-0.2,0-0.5,0.4-0.5,0.6c0,0.3,0.1,0.6,0.4,0.7c0.1,0,0.2,0.1,0.2,0.2c0.1,0.7,0.1,1.4,0.1,2
		c0,0-0.1,0-0.1,0.1c-0.1-0.1-0.2-0.2-0.3-0.3c-0.8-0.7-1.5-1.5-2.1-2.4c-0.7-1.1-1.2-2.3-1.6-3.5c-0.5-1.9-0.7-3.8-0.2-5.8
		c0.1-0.5,0.4-1,0.7-1.6c0-0.1,0.2-0.1,0.3,0c0.5,0.3,1,0.7,1.4,1.1c0.5,0.4,0.8,1,1.2,1.5C16,4.7,16.1,4.9,16.2,5.1z"/>
	<path class="st0" d="M27.3,12.3c1.5,0.1,3.1,0,4.6,0.5c-0.3,0.5-0.5,1-0.9,1.4c-0.8,1-1.7,1.8-2.9,2.5c-1.4,0.8-2.9,1.2-4.5,1.4
		c-1.2,0.1-2.3,0-3.4-0.3c-0.7-0.2-1.4-0.4-2.1-0.7c0,0,0-0.1,0-0.1c0.4-0.2,0.8-0.4,1.2-0.5c0.1,0,0.2-0.1,0.3-0.1
		c0.2-0.1,0.3-0.2,0.5,0.1c0.1,0.2,0.7,0.2,0.9,0c0.2-0.2,0.4-0.6,0.2-0.9c-0.2-0.4-0.4-0.5-0.8-0.5c-0.3,0.1-0.6,0.4-0.6,0.7
		c0,0.1-0.1,0.2-0.1,0.3c-0.5,0.2-1,0.5-1.5,0.7c-0.1,0-0.1,0-0.3,0.1c0.2-0.7,0.4-1.3,0.7-1.9c0.9-2,2.4-3.7,4.2-5
		c1.5-1,3.2-1.8,5-2.1c0.5-0.1,1-0.1,1.4-0.1c0.2,0,0.2,0.1,0.2,0.2c-0.4,1.3-0.8,2.5-1.6,3.6C27.7,11.9,27.5,12,27.3,12.3z"/>
	<path class="st0" d="M15.5,16.4c-0.4-0.1-0.9-0.3-1.3-0.4c-0.1,0-0.3-0.1-0.4-0.1c-0.2,0-0.4-0.1-0.4-0.4c0-0.2-0.4-0.5-0.7-0.5
		c-0.3,0-0.6,0.4-0.6,0.7c0,0.3,0.3,0.6,0.6,0.6c0.2,0,0.3-0.1,0.5-0.2c0.1,0,0.3-0.1,0.4-0.1c0.5,0.1,1,0.3,1.5,0.5
		c0.1,0,0.2,0.1,0.4,0.2c-0.6,0.3-1.2,0.6-1.8,0.8c-1.4,0.6-3,0.8-4.5,0.8c-1.1,0-2.2-0.2-3.3-0.5c-1.4-0.4-2.8-1-4-1.9
		c-0.3-0.2-0.5-0.5-0.8-0.7C1,15.1,1.1,15,1.3,14.9c1.2-0.7,2.5-1.3,3.9-1.5c0.1,0,0.3,0,0.4,0c0,0,0,0,0.1-0.1
		c-0.3-0.3-0.7-0.7-1-1c-0.6-0.7-1.1-1.5-1.7-2.2C2.8,9.9,2.9,9.8,3.1,9.7c1.4-0.5,2.7-0.5,4.1-0.2c1.2,0.3,2.3,0.7,3.2,1.3
		c0.7,0.5,1.4,1.1,2.1,1.6c0.9,0.8,1.6,1.7,2.3,2.7C15.1,15.6,15.3,16,15.5,16.4C15.5,16.4,15.5,16.4,15.5,16.4z"/>
</g>
</svg>
