<?xml version="1.0" encoding="utf-8"?>
<!-- Generator: Adobe Illustrator 22.0.0, SVG Export Plug-In . SVG Version: 6.00 Build 0)  -->
<svg version="1.1" id="图层_1" xmlns="http://www.w3.org/2000/svg" xmlns:xlink="http://www.w3.org/1999/xlink" x="0px" y="0px"
	 viewBox="0 0 1300 800" style="enable-background:new 0 0 1300 800;" xml:space="preserve">
<style type="text/css">
	.st0{fill:none;stroke:#FFFFFF;stroke-miterlimit:10;}
</style>
<g>
	<path class="st0" d="M595.3,448.9v0.1l0,0V448.9z"/>
	<path class="st0" d="M652.8,399.5c0,0,0.9,0.2,2.1,0.4C654.3,399.5,653.6,399.4,652.8,399.5z"/>
	<path class="st0" d="M1257.4,268.8c-1.5,3.1-3.6,5.5-7.4,5.9c-0.1,2.4-0.4,4.5-3,5.7c-0.9,0.4-1.3,2.3-2,3.8
		c-2.9-2.7-5.6-4.9-7.2-8.2c-1.6-3.3-2.5-3.6-5.8-3.1c-4.5,0.7-4.9,0.3-3.5-4.5c-2.3-0.2-4.6-0.4-7-0.7c-0.6,3-0.1,5.7,1,8.4
		c0.6,1.4,1.9,2.8,0.2,4.3c-1.5,1.2-3.1,2.1-5.1,0.8c-0.3-0.2-0.8-0.2-2-0.5c0.5,1.4,0.6,2.8,1.3,3.2c2.3,1.5,2.7,3.5,2.7,5.9
		c0,1,0.6,2.2,1.3,2.9c2.2,2.2,2.3,2.5,0.7,6.3c-0.6-0.2-1.3-0.2-1.9-0.5c-3.2-1.4-5.8-0.7-8.9,0.8c-7.7,3.8-14.3,9-20.1,15.2
		c-0.5-0.2-1-0.2-1.3-0.4c-4.1-3.4-4.2-3.4-8.9-0.6c-0.9,0.5-2.1,0.6-3.2,0.8c-1.2,0.3-2.4,0.5-3.7,0.6c-3.7,0.6-6.2,2.4-6.9,6.4
		c-0.2,1.3-1.6,2.3-2.3,3.6c-0.8,1.4-1.4,3-2.1,4.6c4.4,0.7,4.3,0.7,4.4,4.7c0.1,2.9,0.1,5.3-3,6.9c-0.9,0.5-1.2,2.5-1.4,3.8
		c-0.2,1.5,0.1,3.1,0.2,4.7c-1.1,0.3-1.9,0.7-2.7,0.8c-2.6,0.4-3.7,2.1-4.1,4.4c-0.3,1.8-0.5,3.1-2.5,4c-1,0.5-1.5,2.6-1.9,4.1
		c-0.8,3-2.2,5.5-5.1,7.5c-0.4-0.9-1.1-1.6-1.1-2.3c0.4-6.4-1.3-12.5-3-18.6c-1-3.8-1.9-7.4,0-11.3c0.6-1.3,1.3-2.3,2-3.5
		c2.1-3.7,5.1-6.2,8.6-8.5c1.5-1,2.4-2.8,3.5-4.3c3.6-4.6,7-9.4,12.3-12.3c0.6-0.3,1.3-1.2,1.2-1.6c-0.9-3.8,1.3-6.6,2.8-9.6
		c0.1-0.2,0-0.6,0-0.8c-4.2-1.3-5.6,0-6,5.6c-2.8,2.3-5.5,4.5-8.4,6.9c-1.8-1.8-2.8-3.9-1.9-6.5c-4.3-2.2-8.6-1-12,3.4
		c-1.9,2.4-3.5,4.9-5.2,7.4c-1.4,2-2.6,4,0.2,6.1c-3,2-6,2.3-8.9,2.5c-2.3,0.2-2.6-0.4-3.3-4.3c-1.5-0.3-3-0.8-4.5-0.9
		c-0.9-0.1-2.3,0-2.7,0.6c-1.5,2-3.5,1.6-5.5,1.6c-1.4,0-2.8,0.1-4.2,0.2c-0.8,0-1.7,0.3-2.5,0c-4.8-1.4-8.8,0.2-12,3.7
		c-4.7,4.9-9.1,10-13.7,15c-1.8,2-3.9,3.8-5.9,5.6c-1.3,1.2-2.5,2.3-2.4,4.5c2.1,0.8,4.8,1.2,4.4,4.6c1.1-0.1,2-0.2,2.8-0.3
		c0.3,0.8,0.7,1.7,1.1,2.8c2-1.6,3.1-4.8,5.9-3.6c2,0.9,3.7,2.6,5.8,4.3c-2.6,1.6-2,3.5-1.2,5.6c0.4,1,0.5,2.4,0.1,3.2
		c-2.2,3.9-1.9,8-1.8,12.2c0.1,3.7-0.2,6.9-3.9,9.3c-1.9,1.3-2.9,4.2-3.9,6.5c-1.4,3.2-3,6.1-6,8.1c-1.7,1.1-2.7,3.3-3.9,5
		c-0.8,1.2-1.3,2.6-2.2,3.6c-1.6,1.8-3.7,2.1-5.8,1.2c-1.8-0.7-3.6-1.3-5.2-1.8c-1.9,2.2-3.4,4-5.5,6.4c-0.3-2.6-0.5-4.2-0.7-5.9
		c-0.3,0-1.4,3.4-1.7,5.4c-1.8-2.1-1.1,2.2,0.5,4.6c-0.9,0.9-1.8,1.8-2.8,2.7c-2.9,2.5-2.8,5.6,0.2,7.9c0.8,0.6,1.9,1.5,2.1,2.4
		c0.4,3.4,0.5,6.8,0.8,10.5c-3.4,0.3-5.8,3.7-9.9,3.1c1.2-3.2,1.2-6.3,3.5-8.9c1.3-1.5,1.1-4.3,1.6-6.2c-2.8-0.5-5.5-1-8.5-1.5v-4.7
		c-3.2-1.9-5.8-1.8-8.3,0.8c-1.1,1.1-2.8,1.6-4.2,2.4c-0.2-0.2-0.4-0.4-0.6-0.7c1.2-3.2,2.4-6.3,3.5-9.5c-4.4-0.2-4.9,1.8-4.9,1.8
		s-5,7.8-10.7,7.4c0.4,2.3,3.6,6.8,6.1,8.8c2.6-3.2,5.7-1.6,9.1-0.8c-0.4,0.7-0.6,1.5-1,1.5c-3.5,0.9-5.2,3.8-7.3,6.3
		c-1.3,1.6-1.2,2.9,0.2,4.5c3.5,4,5.7,8.4,4.5,14c-0.2,1,0.3,2.2,0.3,3.3c0,1.5-0.1,2.9-0.2,4.4c-0.3,0-0.6,0.1-1,0.1
		c-0.4-0.9-0.8-1.7-1.3-2.9c-1.6,1.7-1.1,3.5-0.9,5c0.4,4.1-1.2,7.3-4,10c-0.6,0.6-1.3,1.2-1.7,1.9c-2.6,4.9-7.6,6.3-12,8.7
		c-0.1,0.1-0.3,0.2-0.4,0.2c-2.9,0.3-5.8-0.4-8.3,2.3c-2,2.1-5,3.2-7.8,4.9c-1.6-1.8-3.4-3.3-6.1-3c-4.2,0.4-9.6,5.8-9.5,10.1
		c0,0.9,0.5,1.9,0.9,2.8c0.3,0.6,0.8,1.2,1.3,1.7c3.2,3.1,5.5,6.6,4.6,11.4c0,0.3,0.1,0.5,0.2,0.8c0,0.1,0.3,0.1,0.8,0.2
		c0.3-1.2,0.6-2.4,0.9-3.8c2.4,3.3,3.1,10.3,1,13c-0.8,1.1-2.5,1.9-3.9,2.2c-1.8,0.4-3.1,1-4.1,2.7c-1.2,1.9-1.4,1.8-4.3,2.4
		c-0.1-1.2,0.1-2.4-0.3-3.4c-0.4-1.1-1.2-2.8-2.1-3c-2.8-0.7-4.8-2.2-6.5-4.4c-0.8-1-2.6-1.2-3.7-2c-1-0.7-1.8-1.8-2.8-2.8
		c-0.5,0.7-1,1.1-1.2,1.6c-1,3.9-2.2,7.9-2.9,11.9c-0.4,2-0.6,4.3,2.3,5.2c0.6,0.2,1.2,1.3,1.2,2.1c0.3,2.7,2,3.8,4.3,4.7
		c3.7,1.4,6,3.8,5.7,8.1c-0.1,1.3,0.9,2.6,1.3,4c0.4,1.3,0.8,2.6,1.3,4.2c-7.8-1.7-12-6-12.4-13.6c-0.2-2.6-1.6-4.5-3.1-6.5
		c-1-1.2-2.7-2.1-1.4-4.3c0.3-0.5-0.8-1.8-0.9-2.8c-0.7-3.7-2.2-7.5,1.7-10.5c0.4-0.3,0.4-1,0.4-1.6c0-3.3,0-6.5,0-10
		c-2.1-0.1-3.8-0.2-5.5-0.3c-0.7-1.2-1.3-2.3-2.1-3.5c-2.9,1-5,4.1-8.8,2.7c-0.2-1.1-0.5-2.4-0.5-3.6c-0.2-4.1-1.9-7.3-4.8-10.2
		c-1.3-1.3-1.8-3.5-2.7-5.3c-0.7-1.5-1.4-3-2.3-4.8c-1.6,0.9-2.7,1.5-3.8,2.1c-1.4,0.8-2.7,1.8-4.2,2.2c-5.6,1.6-9.8,5.2-13.9,9
		c-3.4,3.1-6.8,6.2-10.2,9.2c-0.6,0.6-1.5,0.9-2.2,1.3c-5.6,2.5-6.4,5-3.3,10.7c-4,5.4-5.5,12.4-10.1,18.8c-2-3.8-3.7-6.7-5.1-9.7
		c-2.6-5.4-4.9-11-7.5-16.4c-1.3-2.8-2-5.6-2.1-8.7c-0.1-3.8-0.7-7.7-1.2-11.5c-0.2-1.2-1-2.2-1.6-3.6c-1,1.1-1.5,2-2.3,2.6
		c-3,2.4-6.3,1.8-7.7-1.7c-1.3-3.2-2.9-6.1-4.4-9.2c-1.1-2.4-0.7-5.5-1-8.4c-4-0.8-4-0.8-7.5,2.6c-0.3-1.1-0.6-2-0.9-2.9
		c-0.2,0-0.5-0.1-0.7-0.1c-0.3,1.1-0.6,2.2-1,3.3c-3.8,2.4-3.3-2.8-5.9-3.5c-0.8,1.5-1.7,3-2.6,4.6c-0.9-1.5-1.3-3.1-2.3-3.9
		c-1-0.7-2.7-0.5-4.3-0.7c-0.4,1.3-0.7,2.3-1,3.3c-2.6,1.6-8.1-0.2-9.2-2.9c-0.3-0.9-0.7-1.9-1.1-2.8c-0.2-0.3-0.6-0.5-1.1-0.9
		c-2.2,2.2-4.6,4-7.9,3.4c-1.5-0.3-3.2-0.7-4.1-1.8c-3-3.2-5.7-6.7-8.4-10.2c-1.8-2.3-4-3-6.9-2.4c-1.2,2.7-0.9,5.3,0.6,7.5
		c3.4,5.1,7,10.1,10.7,15c0.6,0.8,1.9,1.1,3,1.3c1.1,0.2,2.3,0,3.7,0c-0.3,1.9-0.7,3.6-0.6,5.2c0,3.7,1.9,5.5,5.5,5.7
		c0.3,0,0.6,0,0.9,0c5.8,0,8.2-3.2,6.5-8.8c-0.2-0.5-0.4-1.1-0.7-1.8c3.5,0,6,1,7.4,4.5c1.2,3,1.5,3.2-1.3,5.3
		c-2,1.5-3.9,3.1-3.3,6.4c-3-0.9-6,0.8-8.4-1.5c-0.2-0.2-0.7,0.2-1.1,0.2c-1.8,0.3-3.5,0.5-5.3,0.8c-3.2-0.4-9.5,7.8-11.2,10.1
		c2.2-2.7,5.6-2,8.4-3.1c0,0,2.6,0.8-1.6,3.4c0.6,0.4,1.1,0.6,1.8,1c-1.6,2-2.8,4.2-6.1,3.1c-1.3-0.4-3.1-0.7-3.6,1.8
		c-0.1,0.8-2,1.2-3.1,1.8c-0.8-1.4-1.5-2.5-2.1-3.6c-2.2,0.5-2.3,2.3-2.7,3.7c-0.7,2.2-2.1,3.3-4.2,3.8c-1.4,0.3-2.8,0.7-4.2,1
		c-3.4,0.7-6.3-1-7-4.4c-0.3-1.5-0.7-3.1-0.7-4.7c-0.1-2.7-1.1-5-2.7-7.1c-0.8-1-1.5-2.1-2.1-3.2c-1.5-3.1-3.3-5.7-6.9-6.8
		c-0.1-1.1-0.2-2.1-0.3-3.1c-0.2-4.6-1.6-8.7-5.3-11.8c-1.1-0.9-2.6-1.8-2.5-4.6c1.9,1.8,3.2,3.1,4.5,4.4c-0.5-2.7-1.1-5-0.3-7.5
		c0.2-0.5-1.1-1.9-1.9-2.3c-1-0.4-2.2-0.1-3.6-0.1c-0.3,1.4-0.5,2.5-0.8,4.5c-0.9-1.5-1.3-2.3-1.8-3.2c-2.1-4.3-2.1-4.3-6.9-3.3
		c-0.4,1.2-0.8,2.4-1.3,3.6c-2.5,5.5-0.1,8.9,6.3,8.5c0.3,0.7,0.9,1.4,0.9,2.2c0,3.2,1.6,5.5,3.6,8c1,1.3,1.3,3.5,1.2,5.2
		c0,2.9,0.2,5.3,3.3,6.8c2.7,1.3,3.6,4,3.6,6.9c-0.1,3.2,1.5,4.9,4.3,6.1c2.7,1.2,5.1,3.1,7.6,4.8c0.5,0.4,0.8,1.1,1.1,1.7
		c1,2.2,1.7,4.5,2.9,6.6c1.8,3,3.7,3.3,7,2.3c3.5-1.1,7.1-1.9,10.7-2.8c2-0.5,4.1-1,6.6-1.6c0,1.7,0.3,3.3-0.1,4.6
		c-2.7,8.9-6.9,17-13.1,24c-1.8,2-3.8,3.6-6.6,4.5c-2.5,0.8-4.6,2.5-5.9,5.2c-1.3,2.6-3.8,4.6-5.7,6.9c-2.6,3.2-5.1,6.5-7.6,9.8
		c-0.6,0.8-1.2,1.9-1,2.8c1.3,5.6-0.4,11.9,3.9,16.9c0.8,0.9,1,2.4,1.1,3.6c0.1,4,0.1,8,0,12c0,1.1-0.3,2.6-1,3.2
		c-2.8,2.3-5.9,4.4-8.9,6.5c-1.1,0.8-2.3,1.4-3.3,2.4c-1.4,1.3-2.4,2.9-3.9,4c-2.2,1.7-2.8,3.7-1.6,6.1c1.7,3.3,1.1,6.8,1,10.2
		c-0.1,2.8-1.7,4.7-4.5,5c-3.6,0.4-4.8,2.8-5.4,5.8c-0.3,1.4-0.4,2.9-0.6,4.3c-1,6.3-5.2,10.7-9,15.3c-1.6,1.8-3.7,3.2-5.4,5
		c-2.4,2.6-5.2,3.9-9.3,3.3c0.1-1.5,0.2-3.1,0.2-4.8c-2.7-0.2-4-4.3-7.4-3.7c-2.9,0.5-5.7,1.5-8.6,2.3v9.8c-6,1.8-10.4-2.3-8.9-8.6
		c0.7-3.1-0.4-5.6-2.5-7.8c-0.8-0.8-2-1.7-2-2.6c0-3.1-2-5-3.6-7.1c-3-4-4.4-8.5-3.8-13.5c0.6-4.8-0.5-9.1-3.3-13
		c-1.2-1.6-2.2-3.4-3.4-5c-4.4-5.8-4.9-11.8-2-18.6c1.3-2.9,2.3-5.6,5-7.6c2.3-1.7,2-4,0.4-6.3c-0.8-1.1-1.2-2.5-1.5-3.8
		c-0.6-2.2-1.2-4.4-1.7-6.5c-0.3-1.4-0.8-2.8-0.9-4.1c-0.2-2.7-1-5-3-6.9c-2.4-2.3-4.5-4.9-6.8-7.2c-1.7-1.7-2.5-3.1-1.3-5.6
		c1.4-3,2.3-6.2,3.1-9.3c0.6-2.1,0.9-4.3-1.7-5.6c-0.5-0.2-0.9-0.7-1.2-1.2c-1.4-2.1-3.2-1.9-5.3-1c-4.7,2.1-5,2-7.5-2.3
		c-1.2-2-2.5-2.8-4.9-2.6c-1.8,0.2-3.7-0.4-5.8-0.6c-1.9,3.1-4.8,4.3-8.5,4c-1.3-0.1-2.6,0.9-3.9,1.5c-2.4,1.1-4.7,1.6-6.7-0.7
		c-1.7-1.9-3.8-1.6-6-1c-2.1,0.6-4.1,1.4-6.2,2c-2.5,0.7-4.8,0.2-6.8-1.6c-2.6-2.4-5.2-4.8-7.9-7.1c-0.2-0.2-0.4-0.5-0.7-0.5
		c-6.4-0.7-6.5-6.9-9.2-10.7c-1.5-2.2-2.4-4.3-5.4-4.9c-2.8-0.6-3.6-2-3-4.8c1-4.6,0.4-9.4,2.8-13.8c0.9-1.6,0.3-4.2-0.1-6.2
		c-0.4-2.4-1.3-4.7-1.8-7.1c-0.6-2.9-0.1-5.4,1.9-8c2.6-3.4,4.5-7.3,6.5-11.1c2-3.7,4.1-6.9,8.3-8.8c3.4-1.6,6.7-4,9-6.9
		c1.4-1.8,2.8-3,4.6-4.2s1.3-3.9-0.7-5c-0.7-0.4-1.6-0.5-2.4-0.8c1.6-3.3,2.9-3.9,6.2-3.8c0.9,0,1.8-0.9,2.7-1.5
		c0.3,0.6,0.5,1.5,0.8,1.5c1.8-0.1,3.5-0.4,5.3-0.7l-0.1,0.1c3.4,0.6,4.8-2.7,7.4-3.6c1.4,2.8-1.1,2.9-2.8,3.7
		c4.1,1.9,4.5,1.5,5.1-5.1c0.9-0.2,1.8-0.4,2.9-0.6c-0.4-0.5-0.8-0.9-1.3-1.5c1.6-1.1,3.2-3,4.8-3c2.4-0.1,3.6-1.1,4.5-2.9
		c5.6,1,10.8,0.7,16.4-2c1.3,0.5,3.1,1.6,5,1.7s3.8-0.9,5.5-1.4c1.7,2.9,3.4,5.8,5.2,8.8c-1.2,1.3-2.3,2.5-3.5,3.8
		c2.7,4.9,7,6.7,12.2,7.2c1.4,0.1,3.1,1.1,3.9,2.2c1.6,2.1,3.5,3.3,6,3.8c0.8,0.1,1.7,0.5,2.4,1c3,2.2,5.8,1.8,8.9-0.5
		c-0.5-2.5-0.3-4.8,2.3-6.4s4.3-2.2,6.7-0.2c3.2,2.6,6.7,3.7,10.7,3.8c0.9,0,1.9-0.2,2.8-0.2c1,0,2.1-0.3,2.9,0
		c3.8,1.9,6.8,0.3,9.7-2c0.6-0.5,1.5-0.9,2.2-0.9c3-0.1,5.9-0.1,8.9-0.1c0.8-1.8,0.8-3.4,2.9-4.1c2.3-0.8,3.6-3.2,3.8-5.8
		c0.2-2.1,0.2-4.3,0-6.5c-0.2-2.4-1.4-3.3-3.8-2.5c-1.2,0.4-2.4,1-3.4,1.8c-1.6,1.2-3,1.1-4.7,0.1c-1.8-1-3.9-1.8-5.9-2.4
		c-1-0.3-2.4-0.3-3.3,0.2c-4.2,2.5-5.7,0.8-8.9-3.6c-2.4-3.3-1.5-7.1-1.8-10.8c-0.2-1.7,2-3.2,3.8-2.3c3.8,1.9,6.9-0.7,10.3-1
		c0.5,0,1-0.5,1.4-0.9c5.4-5.2,11.5-5,17.8-2.1c3.1,1.5,6.1,3.3,9.8,2.7c2-0.3,4-0.6,5.9-1.3c0.8-0.3,2-2,1.8-2.3
		c-1.3-2.1-0.7-5-3-6.7c-3.8-2.9-7.6-5.9-11.8-9.2c-0.1-2.4,3.7-1.9,4.4-4.6c-0.4-0.7-0.9-1.8-1.5-2.9c0.5-0.6,1-1.3,1.7-2.1
		c-0.6-0.2-1-0.5-1.3-0.4c-2.8,1.1-5.6,2.2-8.3,3.5s-3.2,3-2.4,7c-0.6,0.4-1.2,1-1.9,1.4c-0.5,0.4-1.1,0.7-1.6,1
		c-1.4-1.3-2.7-2.3-3.9-3.5c-0.4-0.4-0.5-1.2-0.7-1.8c-1.1-4.6-4.7-5.8-7.7-2.2c-2.3,2.8-3.7,6.3-5.4,9.6c-0.9,1.8-1.7,3.6-2.3,5.5
		c-0.3,1.1-0.3,2.5,0.1,3.6c1,3.5,0.9,3.9-2.5,4.6c-5.4,1-10.8,2-16.6,3v8.9c3.2,0.3,6.6,0.3,7.9,4.5c-2.5,0.6-5,0.2-6.4,2.9
		c-0.7,1.4-4.1,0.8-4.3-0.8c-0.5-3.9-3.3-4.9-6.5-5.9v-6.6c2.8,1.5,2.8,5.3,6.3,6.3c0.4-2.9-1.4-6.2-1.7-3.9c-2.2-3.4-5.4-5.5-5-9.9
		c0.1-0.9-1.1-2.2-2-3c-1.9-1.7-4.4-2.6-5.6-5.2c-0.3-0.7-1.8-0.8-2.5-1.5c-1.7-1.6-3.1-4-5.1-5c-1.9-0.9-4.6,0-6.6-0.7
		c-1.1-0.3-3.3-0.8-4.9-1.1c-0.5-0.3-1.2-0.5-2.1-0.4c0,0,0.9,0.2,2.1,0.4c1.6,1,2.1,3.4,3.8,4.6c0.6,0.4,0.3,2,0.4,3.4
		c-2.3,0.1-4.1,0.2-6.1,0.3c-0.2-1.2-0.5-2.3-0.7-3.3c-0.6,0-1.3,0.2-1.8,0c-4.8-2.7-7.5-2.2-11,2.1c-0.5,0.6-0.8,1.2-1.4,1.6
		c-1.4,1.1-2.8,1.5-4.7,0.5c-1.3-0.7-3.3-0.7-4.9-0.4c-2.5,0.6-3.1,1.9-2.7,4.5c0.5,3.2,0.1,3.8-2.7,4.7c-2.6,0.8-5.1,1.7-7.8,2.6
		c0,2.3-0.1,4.5,0,6.8c0.3,3.5-1.4,6-4,8.1c-0.9,0.7-2,1.2-2.8,2c-2.3,2.5-4.6,2.6-7.2,0.3c-0.9,0.5-1.7,1.2-2.6,1.4
		c-1,0.2-2.8,0.3-3.1-0.2c-1.9-3.1-4.6-2.9-7.5-2.4c-0.5,0.1-1.1-0.2-1.5-0.3c-0.7-2.2-1.4-4.2-1.8-6.3c-0.2-0.9-0.2-2,0.1-2.8
		c1.9-5.1,2.6-10.2,1.3-15.6c-0.4-1.5,0.3-3.3,0.5-5.8c3.9,2.7,7.3,1.7,10.9,1.2c2.7-0.4,5.6,0.6,8.5,1.1c3.7,0.7,5.3,0.8,5.9-3.7
		c0.3-2,1-3.8,1.5-5.8c0.1-0.5,0.3-1.3,0-1.7c-2.2-3.8-3.4-8.6-8.4-9.9c-1.9-0.5-3.5-1.2-4.2-3.3c1.6-2,3.6-2.7,6.1-1.5
		c0.5,0.2,1.1,0.3,1.7,0.4c2.4,0.2,3.2-0.8,2.4-3c-0.3-0.8-0.7-1.5-1.1-2.3c2.9-0.4,2.9-0.4,6.3,1c2.6-1.5,5.2-2.8,5.7-6.4
		c0.1-1.2,1.1-2.2,2.7-2.3c1.4-0.1,2.7-0.6,4.2-0.9c0.5-1.2,1-2.6,1.6-4.2c1.6,1.8,2.9,3.4,4.6,5.4c1.8-3.9,0.9-7.1,1-10.7
		c-2.7,1.6-0.9,4.1-1.9,5.8c-3.9-3.4-3.5-6.4,1.2-7.9c2.6-0.8,5.2-1.5,7.8-2.1c2-0.4,2.7-1.7,2.4-3.4c-0.5-3.2-1.1-6.5-1.9-9.6
		c-1.5-5.9-0.3-8.1,5.5-9.7c0.4-0.1,0.8-0.2,1.8-0.5c-0.5,4.4-0.6,8.5-1.5,12.5c-0.8,3.3,0.5,5.7,2,8c1.2,1.9,3.4,1,5.1,0.2
		c1.4-0.6,2.6-1.5,4-2.4c1,1.7,1.8,3.2,2.5,4.3c1.6-0.6,2.9-0.8,4-1.4c1.9-1,3.7-2,5.5-3.2c3.7-2.7,3.7-2.7,7.2,0
		c0.5,0.3,1,0.6,1.5,0.9c1.8-1.4,3.5-2.8,5.2-4.3c1.1-0.9,1-2.1,0.8-3.5c-0.6-3.3-0.5-6.5,1.2-9.6c1.7-3,2.5-3.2,5-0.8
		c1.1,1,2.5,1.6,4.2,2.7c0.5-3.1,2.3-5.3,0.8-8.1c-2.6-0.6-5.6,1.6-8-1.3c0.4-1.5,0.9-3.3,1.4-5.2c2.5-0.3,4.9-0.8,7.2-2.2
		c1.8-1.1,4.6-0.3,7-0.4c1,0,2.3,0.6,2.8,0.2c2.4-1.9,5.2-2.4,8.3-2.4c0-0.3,0.1-0.6,0.1-0.8c-1.3-0.8-2.7-1.6-4.2-2.4
		c-1.9,1.9-4.1,2.4-6.7,1.9c-2.3-0.5-4.8-0.4-7.2-0.3c-0.8,0-1.5,0.6-2.3,1c-1.5,0.7-3,1.4-4.9,2.2c0.3-2.8-0.1-4.4-2.3-5.6
		c-2.5-1.4-4.6-3.2-2.9-6.9c0.8-1.7,0.3-4,0.2-6c-0.1-2.9,0.7-5.3,3.4-6.9c3.6-2.2,5.2-6.1,7.4-9.4c0.8-1.2,1.5-2.4,2.6-3.3
		c3-2.6,2.7-6.1-0.9-7.8c-5.4-2.5-12.8,1.3-11.8,7.9c0.6,3.4-0.6,5.8-3.2,7.9c-2.9,2.4-5.7,4.8-8.6,7.1c-1.7,1.4-2.4,3.1-2.2,5.3
		c0.1,1.1,0,2.3-0.3,3.3c-1.2,3.6-0.4,6.6,2.3,9.3c3.9,4.1,3.6,7.3-1,10.4c-1.8,1.2-2.9,2.6-2.6,4.9c0.3,2.3,0,4.7,0,8.2
		c-2.5,4.7-2.5,4.7-6,4.4c-2,1.3-3.7,2.3-5.2,3.4c-0.8,0.6-1.6,1.3-2.1,2.1c-1.6,2.2-3.5,2.8-6.2,1.6c0.4-2,0.7-3.8,1-5.7
		c6.3-3,6.3-3.9,1.1-11.5c1.1-1.2,2.3-2.5,3.5-3.8c1.1-1.2,3.6-1.6,2.4-4.9c-2.1,1.9-3.8,3.6-5.5,5.2c-3.8-2.3,0-6.9-3.7-9.4
		c-0.8,4.2-3.5,6.8-6.3,8.9c-3.2,2.5-6.9,1.8-10.7-0.6c0-0.5,0-1.5,0.3-2.4c0.5-1.7,0.8-3.4-0.7-4.8c-0.4-0.4-0.6-1-0.7-1.5
		c-0.8-3.7-0.8-3.7-4.5-4.2c-0.4,0-0.8-0.3-1.1-0.5c-0.1-0.1-0.1-0.3-0.3-0.6c1.6-0.1,3.2-0.3,5-0.4v-10c1.6-1.5,2.8-2.6,4-3.7
		c0.9-0.9,1.7-2.1,2.8-2.6c5-2.3,7.4-7.2,11.2-10.8c3.6-3.4,5.5-7.5,7.7-11.7c0.3-0.6,1-1.3,0.9-1.9c-0.5-4,2-6.6,4.2-9.4
		c0.8-1,1.5-2.2,1.7-3.4c0.6-3.1,1-6.3,1.5-9.9c1.2,0.3,2.2,0.5,3.4,0.8c2.1-4.5,7.4-7.2,7.7-13c2-0.4,4.5-0.2,6-1.4
		c1.4-1.1,2.5-0.9,3.8-1c4.8-0.5,9.2-4,10.8-7c4-0.8,7.8-1.5,12.2-2.3c2.7,2.2,7.5,3.2,10.3,7.3c-0.8,0.5-1.7,0.7-2,1.3
		c-0.6,1.2-1.4,2.5-1.3,3.7c0,0.7,1.5,1.5,2.4,2c1.6,0.8,3.4,1.4,5.1,2.1c0.6,0.2,1.3,0.6,1.9,0.6c1.8,0.1,3.6,0,5.4,0.1
		c1.1,0,2.3,0.5,3.4,0.2c2.3-0.6,3.4,0.6,4.6,2.2c2.5,3.5,5.6,6.4,9.2,8.8c1.1,0.7,2.2,1.4,3,2.4c2,2.1,3.9,4.6,2.9,7.7
		c-1.1,3-3.1,5.5-6.6,6.1c-5.9,1.1-11.3,0-16.1-3.5c-2.3-1.7-4.8-2.9-8.8-3.2c2.3,2.5,3.8,4.7,5.8,6.1c2.4,1.8,3.6,3.8,3.6,6.8
		s0.6,6,0.9,9.1c2.9,1.5,5.8,3.1,8.7,4.5c0.5,0.2,1.3-0.3,2.2-0.6c0.1-1.9,0.3-3.5-2.3-4.2c-1.1-0.3-1.9-1.9-2.8-2.9
		c-0.9-1-1.1-2.3,0.2-2.9c0.8-0.4,2.8-0.1,3.1,0.4c2.3,4.8,7.1,2.5,10.3,4.3c0.2-0.3,0.5-0.6,0.7-0.9c-1.3-2.5-2.7-4.9-4-7.4
		c3-2.7,6-5.5,9.1-8.3c1.7,1.2,3.2,3.5,6.2,2.8c1.4-2.8,2.1-5.4-0.2-8.3c-0.8-1-0.5-2.9-0.6-4.4c-0.1-2.4,0-4.8,0-7.2
		c4.7-0.4,6.1,0.1,7.2,3c0.6,1.6,0.7,3.2-1.4,3.8c-2.5,0.7-2.1,2.4-1.6,4.1c0.9,2.8,2.9,4.3,5,4.1c2.2-0.2,3.9-1.9,4.1-4.7
		c0.2-1.9,1.1-3,2.5-3.8c3.6-2.1,7.3-4,10.9-6.1c1.3-0.8,2.6-1.7,3.9-2.6c0.9-0.6,1.8-1.2,3.3-2.3c0,1.8-0.1,2.9,0,3.9
		c0.1,0.9,0.5,1.8,1,2.4c0.2,0.2,1.5-0.3,2.1-0.8c1.2-1,2.3-2.1,3.7-3.4c4.5,3.1,6.6-1.5,10.2-4c0,1.6,0.1,2.5,0,3.3
		c-0.3,1.6-0.3,3.1,1.6,3.4c0.6,0.1,1.5-1.2,2.2-2c0.9-1,1.8-2.2,2.8-3.5c0.6-2.3-3.8-4.2-1.4-7.1l0,0c6.8-0.8,12.2,1.9,17.2,6.2
		c2.9,2.5,6.2,4.5,9.2,6.7c3.1-3.5,3.1-3.5,0.5-6.2c-0.1-0.1-0.3-0.2-0.3-0.3c-0.9-1.6-1.4-3.5-2.6-4.8c-1.1-1.1-2.9-1.4-4.9-2.3
		c2.8-2.6,4.6-5.2,4.3-8.5c-0.1-1.1-1.7-2.1-2.9-3.5c0.1-1.9,0.7-3.8,3.2-5.2c1.3-0.7,2.6-2.9,2.5-4.3c-0.1-4.1,2.3-7.3,3.5-11.2
		c1.7,0,3.5,0,5.3,0c3.2,0,5.2,1.8,5,5c-0.1,2.7-0.7,5.4-1.5,7.9c-0.7,2.1-1,3.6,0.5,5.5c1.6,2,2.1,4.4,1.6,7.3
		c-0.7,4.5-0.8,9.1-0.9,13.7c0,1.2,0.4,2.6,0.9,3.7c2.9,6.3,0.5,13.5-5.6,16.9c-1.1,0.6-2.2,1.5-3.4,2.4c6,4.3,11.1-0.3,13.1-5
		c0.3-0.7,0.3-1.5,0.7-2c2.2-3,2.5-5.9,1.1-9.5c-0.9-2.2,1.1-4.3,4.1-5.1c2.5-0.7,3.5-0.3,4.4,2.7c0.6,2,0.7,4.2,0.5,6.3
		c-0.5,3.9,0.3,4.6,4.4,3.4c-1-1.4-2-2.8-3.1-4.4c1.3-0.8,2.2-1.4,3.1-2c-0.2-3.8-2.3-6-5.2-8c-3.5-2.4-6.3,0.5-9.6,0.7
		c-1.4-3.4-2.2-6.8-0.3-10.3c1.8-3.3,0.7-6.5-0.8-9.5c-1.3-2.5-1.5-5-0.6-7.5c0.4-1,1.5-1.9,2.5-2.7c1.3-1,2.8-1.7,4.4-2.7
		c1.2,3.5-1.4,7.3,0.3,11.5c2.8,0.8,6,1.8,9.3,2.8c0.8-2.6-0.4-2.9-1.9-3.4c-3.7-1.2-5-2.9-5.1-6.9c1.6,0.9,3,3.5,5.1,1.3
		c2.7-2.7-1.3-3.7-1.7-6.1c0.7-0.6,1.5-1.2,2.7-2.2c0.6,1.1,1,1.9,1.5,2.9c3.4,0.7,6.7,1.9,9.2,5c1.2,1.5,3.6,1.9,5.9,3
		c-3.7,4.4-1.9,9.7-2,15.2c0.8-0.2,1.3-0.3,1.8-0.5c5.8-2.8,5.9-3.1,2.8-8.6c-1-1.9-1-3.4-0.4-5.3c1.1-3.3,1.1-3.6-1.8-5.1
		c-2.3-1.2-3.3-4.3-6.4-4.5c-0.5,0-1.2-1.8-1.3-2.9c-0.3-2.3-0.3-4.6-0.3-6.9c0-3.3,1.3-4.8,4.5-5.1c2.9-0.3,5.7-0.4,8.6-0.6
		c0.7,0,1.4-0.1,2.1-0.2c5.9-1,6.5-2.6,3.3-7.1c0.2-1.6,0.3-2.9,0.5-4.2c0.1-0.5,0.3-1.1,0.7-1.4c3.7-3.5,7.5-6.9,11.3-10.4
		c0.3-0.3,0.8-0.6,1.1-0.5c3.6,1.2,5.7-2.4,8.7-2.9c0.5-0.1,1-0.9,1.4-1.4c0.4-0.4,0.7-1.3,0.9-1.2c3.5,0.5,5.5-2.9,9.1-3.3
		c-0.3,1.2-0.6,2.1-0.9,3.2c3.4,0.5,6.4,0.2,8.5-2.3c1.6,0.4,2.9,0.8,5.2,1.4c-1-2.1-1.7-3.4-2.3-4.6c0.2-0.2,0.3-0.5,0.5-0.6
		c6.2-0.6,6.1-0.6,6.5-6.6c0.3-4.6,3.3-7.8,6.8-10.3c1-0.7,2.3-1,3.9-1.7c1.2,1,2.6,2.2,4.4,3.6c-1.8,1.9-3.4,3.7-5.2,5.7
		c3.5,1.9,7.7-0.6,10.2,3.2c-1.3,1.8-2.6,3.6-4.2,5.9c4.1,0.8,6.5-0.3,7.9-3.9c3,0.2,6,0.3,8.9,0.6c0.8,0.1,1.7,0.9,2.3,1.6
		c1.8,2.2,3.6,4.5,5.2,6.9c3.8,5.5,1.5,15-4.9,17.8c-3.7,1.7-5.9,4.3-8,7.4c-2,2.9-3.7,5.8-7.4,7.5c-3.2,1.4-4.2,4.7-3.4,8.7
		c4.5-3,8.8-5.8,14.2-9.3c-1.2-0.4-2-0.7-3.4-1.2c1.8-1.5,3-2.5,4.8-4c0.1,1.5,0.1,2.4,0.2,3.5c1.7,0.3,3.5,0.5,5.6,0.8
		c0.4-0.7,0.9-1.5,1.5-2.6c1.8,2.8,0.8,6.6,5,6.8c0.5-0.6,1-1.5,1.7-2c1-0.6,2.6-1.3,3.4-1c3.2,1.4,6.4,1.5,10,0.5
		c-0.5,5.9,3.9,6.3,7.8,7.7c1.1-2.9,2.7-4.5,6-3.7c1.6,0.3,2.5-1.1,2.3-2.8c0-0.4-0.3-0.9-0.2-1.3c0.3-1.3,0.8-2.6,1.2-3.9
		c1.2,0.4,2.3,0.7,3.4,1.2c1.8,0.7,3.6,1.8,5.5,2.2c5.3,1.1,7.9,3.8,8.6,9.2c0.1,1.1,0.2,2.3,0.5,3.4c0.6,2,0.3,3.7-1.6,4.9
		c-1.3,0.8-1.8,2.1-1.1,3.3c1.6,2.7,3.4,5.3,5.3,7.7c0.9,1.2,2.4,1.8,3.9,2.9c1.8-3,3-5.6,2.7-8.7c-0.1-1.9,0.1-3.7,1.9-5.4
		c0.8,1.6,1.5,2.9,2.3,4.3c1.5,2.8,2.5,3,5.6,1.9c1.1-0.4,2.4-0.2,3.6-0.3c0.7,0,1.4,0,2.1-0.1c0.5-0.1,1.1-0.3,1.5-0.4
		c1.3,1,2.3,1.9,3.7,3c1.5-1.9,3.4-2.9,5.5-2.5c0.1-2.2-0.1-4.2,0.4-6c0.6-2.2-3.5-2.8-1-5.4c1.1,0.2,2.5,0.5,3.9,0.7
		c0.6-1.3,1.1-2.6,1.7-4.1c2.7,2,5.4,2.3,8.6,2.3c2.8-0.1,5.6,1.9,8.4,2.8c1.6,0.5,3.3,1.3,4.9,1.1c3.2-0.5,5.2,1,7.4,3.2
		c-0.9,1.2-1.8,2.3-2.7,3.5c1,2.2,3.4,3,5.2,3.2c3.8,0.3,4.7,2.6,5.1,5.7c4,1.6,7.8,0.2,11.6,0c2.1-0.1,4.3-0.5,6.4-0.6
		c5-0.3,8.4,3.5,7.4,8.3c-0.3,1.6-0.2,2.7,0.8,3.9c1.1,1.4,2,3,3.1,4.5c0.1,0.2,0.5,0.1,1.1,0.2c0.3-0.4,0.9-0.9,1.2-1.5
		c1.8-3,4.7-3.7,7.8-3.1c1.5,0.3,3.1,0.8,4.5,1.4c2.1,0.9,4,1.2,6-0.4c0.9-0.8,2.2-0.9,4-1.6c-0.6,4.3,2.2,6,4.3,8.2
		c1.3,1.3,2.6,0.8,3.9,0s1.9-1.9,1.4-3.3c-0.6-1.5-1.4-2.8-2.1-4.3c0.3-1.1,0.7-2.3,1-3.4c0.4-0.1,0.8-0.4,0.9-0.3
		c4,2.1,8.3,2.8,12.8,2.3c1.7-0.2,3.8,0.4,5.4,1.2c5.8,3,11.6,5.9,16.2,11c2,2.3,5.2,3.5,6.5,6.6c0.1,0.3,0.7,0.7,1,0.7
		c3.6,0,4.2,2.8,5.2,5.5c3.2-0.3,5.7,2.7,9.1,1.8c0.5-0.1,1.4,0.8,2,1.4C1253.9,265.4,1255.7,267.1,1257.4,268.8z"/>
	<path class="st0" d="M493.4,615.1c-1.8,2-3.2,4-3.9,6.5c-0.4,1.5-0.9,3.3-3.2,3.6c-0.8,0.1-1.8,1.5-1.9,2.4
		c-0.2,2.1-0.1,4.3,0.2,6.4c0.6,4,1,8-0.8,11.9c-0.2,0.4-0.5,0.8-0.4,1.2c0.6,3.9-1.2,6.9-3.3,9.9c-0.3,0.4-0.6,1.2-0.5,1.6
		c0.8,2.5-1.7,3-2.5,4.5c-1.2,2.1-2.8,1.9-4.8,1.7c-2.5-0.2-5.1-0.3-6.6,2.6c-0.3,0.6-1.3,1-2.1,1.3c-7.3,2.4-8.3,6.4-7.8,12.5
		c0.3,3.1,0.2,5.5-2,7.9c-1.2,1.3-1.7,3.2-2.6,5c-1.8,0.1-3.9,1.7-4.5,4c-0.3,1.1-0.5,2.3-0.5,3.4c0,3.9-2.9,6-5,8.6
		c-1.7,2-4.7,2-7.6,0.7c-2-1-4-1.8-6.2-2.7c-0.5,2.4,0.6,3.5,2.1,4c1.7,0.6,2.6,1.6,2.8,3.4c0,0.5,0.3,1.2,0.7,1.5
		c1.1,1.2,2.2,2.4,1.4,4.2c-0.9,2.2-2,4.3-4.5,4.9c-3.3,0.8-6.7,1.3-10.3,1.9v7c-2.2,2.3-4.4-0.2-7.3-0.2c0.5,5,5.1,9.4,2.5,14.9
		c-0.4,0.3-0.8,0.8-1.3,0.9c-2,0.5-2.8,1.7-2.9,3.7s0.9,3.3,2.6,4.1c0.9,0.5,1.9,0.7,2.8,1.2c0.9,0.6,1.6,1.4,2.4,2.1
		c-1.3,1.4-2.3,2.5-3.2,3.6c-0.4,0.5-1.1,1.4-0.9,1.8c0.9,1.9,0,2.9-1.4,3.9c-0.5,0.3-0.8,1.8-0.5,2.3c2,3.3,2.7,7.4,7,9.3
		c3,1.3,5.6,3.7,8.4,5.6c-0.1,0.3-0.2,0.6-0.3,0.9c-3.1-0.2-6.2-0.5-10-0.8c-2.3-1.8-2.8-6.2-6.9-7.4c0.1,1.3,0.2,2.5,0.3,3.9
		c-2.5,0.1-3-1.9-4-3.5c-1.4,1.1-2.8,0.7-3.7-0.7c-0.8-1.3-2.3-2.7,1.2-4.3c-4.8-0.2-7-2-7.7-5.6c-0.2-0.8-0.9-2.4-2.8-1.7
		c-0.6,0.2-1.9-1.5-2.9-2.4c3.9-3,2.7-6.1-3.5-9.6c0.3-0.9,0.5-1.6,0.8-2.5c0.9,0.5,1.7,1,2.8,1.6c0.3-1.2,0.8-2.2,0.7-3
		c-0.8-5.1-1.7-10.1-2.6-15.4c-1.2,0.2-2.4,0.3-3.7,0.5c-1.1-2.2-2.4-4-1.1-6.5c0.4-0.8-0.2-2.5-0.9-3.5c-1.7-2.8-2.2-5.5-1.4-8.8
		c0.8-3.6,1.3-7.4,1.4-11.1c0.1-2.5-0.5-5.1-1.3-7.5c-0.8-2.5-1.3-4.9-1.2-7.6c0.4-6.4,0.5-12.8,0.6-19.2c0-0.7-0.4-1.4-0.5-2.1
		c-0.2-3-0.8-6-0.3-8.9c0.9-5.2-1.1-9.9-2-14.8c-0.4-2-3-3.7-4.8-5.2c-2.2-1.8-4.6-3.3-7-4.9c1.1-0.2,2.3-0.5,3.5-0.7
		c0.6-1.8,0.2-3-1.4-3.7c-1.8-0.7-3,0-5.7,3.1c-0.2-2.3-0.4-4.3-0.6-6.4c-0.2-0.1-0.4-0.1-0.7-0.2c-0.5,1-1,2-1.5,3.1
		c-3.1-0.9-3.2-3.6-4-6.2c1.1-0.2,2.1-0.3,3.4-0.5c-0.8-2.1,0.9-3.7,0.8-6c-0.2-2.9-1.6-4.6-3.9-5.2c-2.1-0.5-4.7-2.1-6.7,1.1
		c-0.8-1.6-1.4-2.7-2.1-4.2c1.5-1.4,2.9-2.8,4.4-4.1c1.8-1.4,1.4-4.2,3.5-5.5c0.3-0.2-0.2-2.1-0.7-3.1c-0.6-1.4-1.6-2.6-2.7-4.3
		c-1.2,0-2.7,0-4.3,0c-3.5,0-7.3-0.7-8.9,4.2c-0.8-2.4-1.4-4.2-2.2-6.6c1.6-1.9,3.5-4.1,5.4-6.4c-1.3-0.8-2.8-1.2-3.2-2.1
		c-0.6-1.1-0.8-2.7-0.6-4c0.6-2.9,3.2-2.6,5.7-2.8c-0.3-0.6-0.5-1.1-0.7-1.1c-1.3-0.3-2.5-0.6-2.4-2.4c0.1-1.5,0.6-2.3,2.2-2.6
		c0.7-0.2,1.5-1.5,1.8-2.4c0.5-1.7,1.1-2.9,3-3.8c1.6-0.8,2.4-2.9,3.7-4.6c0.2,1.1,0.4,2,0.6,3c0.2,0,0.4,0,0.6,0
		c0.1-2,0.3-4.1,0.4-6.2c1.8,0.5,0.8-6.3,0.8-6.3c-1.1,1.3-1.7,2-2.6,3c-0.3-3.8-1-7-3.7-9.3c-3.9,0.5-7.8-0.4-11.2,1.8
		c-0.3,0.2-1,0.4-1.2,0.2c-3.3-1.9-6.7-0.5-10.1-0.4c-3.6,0.1-4.3-1.3-3.6-4.8c0.5-2.7,1.1-5.7,0.2-8c-0.9-2.5-3.4-4.4-5.3-6.6
		c-2.9,1.4-5.1,1-7.6-0.2c-1.8-0.9-4.1-1-6.1-1.5c0-4-0.8-5.7-3.2-6.3c-3.1-0.9-6.1,0-7.9,2.6c-1.4-1-2.8-1.9-4.1-3
		c-2.5-2.1-5.3-3.3-8.6-3.6c-1.1-0.1-2.3-0.4-3.3-0.8c-3.6-1.2-16.7-9.7-19.7-12.8c1-7.1,0.3-8.8-5.7-14.1c-2.2-2-4.4-4.1-6.6-6.1
		c-0.4-0.4-0.9-0.9-1-1.4c-0.9-3.8-3.8-6-6.6-8.3c-2.5-2-4.4-4.4-5.4-7.5c-0.8-2.4-2.2-4.6-5.1-6.3c-0.4,2.8-0.7,5.2-1,7.7
		c1.6,1.3,3.4,2.4,4.6,3.9c1.2,1.3,1.7,3.2,2.8,4.7c3.5,5,6,10.6,10.2,15.2c0.4,0.4,0.3,1.3,0.5,2.7c-3.5-2.8-6.3-5.2-9.7-7.9
		c0,0-0.1-0.7-0.1-1.5c-0.2-3.7-0.2-3.7-3.8-5.1c-2.7-1-3.1-1.5-2.5-4.5c0.5-2.1-0.2-3.3-1.8-4.3s-2.4-2.6-3.3-4.3
		c-1.5-3-3.7-5.8-5.6-8.6c-0.7-1.1-1.6-2.1-2.1-3.3c-1-2.4-2.8-3.9-5.2-4.8c-4.7-1.9-8-5.3-9.6-10s-3.9-8.9-6.2-13.1
		c-1.1-2-1.6-4-0.9-6.2c0.2-0.7,0.5-1.5,0.3-2.1c-2.4-7.2,0.9-14.4,0.1-21.7c-0.3-2.6,0-5.1-1.5-7.4c-0.6-0.9-0.6-2.3-1-4.1
		c2.3,0.7,3.7,1.2,5.2,1.5c1.2,0.3,2.4,0,2.5-1.5c0.1-1.3-0.5-2.3-2-2.2c-1.7,0.1-3.5,0.1-5.1,0.5c-1.9,0.5-3.3,0.2-4.5-1.4
		c-1.1-1.3-2.3-2.7-3.7-3.5c-2.7-1.6-3.1-3.9-2.8-6.6c0.2-2.1,0.3-4.3,0.3-6.4c0-0.4-0.1-1-0.3-1.2c-2.5-2-2.7-4.9-2.9-7.9
		c-2.1,0.5-3.9,0.9-5.8,1.3c-1.5-5.8-1.6-6.9-0.9-8.4c-4.3-8.9-4.3-8.9-7.7-10.9c-0.5,0.9-1,1.9-1.5,2.9c-0.3-0.2-0.7-0.3-1.1-0.5
		c-0.1-1.3-0.7-3-0.1-3.9c1.4-2.4,0.4-4-1-5.8c-0.7-0.9-1.4-1.8-2.1-2.8c-1.7-0.1-3.5-0.1-5.3-0.3c-0.6-0.1-1.6-0.4-1.7-0.9
		c-0.9-3.5-4.7-4.9-6-8.1c-0.6-1.5-1.8-2.8-2.8-4.3c-2.5,0.8-2,3.6-3.7,5.6c-4-1.8-8.1-5-12.8-2.3c-1.4-1.3-2.4-3.1-3.6-3.2
		c-3.3-0.3-5.6-5.1-10-1.9c0.4,1.1,0.8,2.5,1.4,4.1c-3.7,1.9-7.3,3.8-11.2,5.8c-0.5-2.1-1.4-3.8-1.2-5.4c0.2-2.2,0.7-4.6,3.3-5.5
		c1.4-0.5,2.3-1.2,1.4-3.1c-1.8-0.6-3.4,0.3-4.3,1.7c-1.3,1.9-3.6,3.3-3.5,6.1c0,0.8-0.9,1.9-1.7,2.3c-2.4,1-2.2,2.7-1.3,4.8
		c-1.5,0.2-2.7,0.3-3.9,0.5c-0.2,0.3-0.5,0.6-0.7,0.9c1.2,0.7,2.5,1.3,3.5,1.8c-0.2,3.3-2.1,4.3-4.1,5.1c-3.4,1.2-5.6,3.5-7.9,6.3
		c-2.1,2.6-5,4.6-7.7,6.6c-1.2,0.9-2.8,1.3-3.6-0.6c-0.7-1.7,0.2-2.7,1.9-3c0.6-0.1,1.3-0.3,1.5-0.7c2.1-3.4,6-5.5,6.5-10
		c0.2-1.7,1.2-3.4,2-5.4c-2,0.2-3.1,1.9-5,0.1c-1.2-1.1-2.3,1.3-2.7,3c-1.6-1-3-2.4-4.5-2.6s-3.1,0.9-4.6,1.5
		c-1.6-2.7,0.8-6.6-2.2-9.5c-1,0.8-1.8,1.4-2.9,2.3c-2-1.5-4-3-6.4-4.8c2.3-0.5,3.8-0.8,5.8-1.2c-2.6-1.2-4.6-1.9-6.5-3
		c-2.8-1.6-3-3.3-1.5-6.3c1.6-3.2,3.8-6,4.5-9.9c1.2,0.8,2,1.4,2.3,1.6c2.5-0.8,4.6-1.5,6.7-2.1c2-0.5,2.8-2.1,2.9-3.8
		c0.2-2.5,0-5,0-7.5c-2.3,0.8-4.4,1.4-6.3,2.4c-3.1,1.8-6.1,0.9-9.2,0.3c-3.8-0.7-4.6-2-3.5-5.9c-1.7-1.1-3.4-2.3-6.1-4.1
		c5.7-2.4,9.5-6.1,14.7-7.4c1,3.8,3,4.5,8.5,3.4c-1.8-5.4-1.8-5.4-7.9-7.5c-0.9-2.2,0.5-5.4-2.6-7.1c-2.4-1.3-4.5-2.9-7-4.6
		c0.1-0.2,0.8-0.6,0.8-1.1c0.5-3.3,2.3-4.4,5.7-4.3c3.2,0.1,5.4-2.9,6.2-6c0.6-2.5,2-4.9,3.1-7.5c3.6,0.6,5.3-2.1,7.2-4.6
		c3.6,0.8,6.8,0.7,9-2.9c0.4-0.7,1.8-1.2,2.5-1c0.5,0.1,1,1.5,1,2.4c0.1,2.2,0.6,3.8,3.2,4.2c-0.1-1.7-0.2-3.2-0.4-4.7
		c0.3-0.1,0.6-0.1,0.8-0.2c0.7,1,1.5,2,2.3,3c1.5-0.2,3.1-0.5,4.5-0.7c2.3,1.9,4.4,3.7,6.8,5.6c3-3.8,6.1-2.6,9.2-0.5
		c1.6,1.1,3.3,1.7,5.3,1.2c0.6-0.2,1.5-0.1,2.1,0.2c2.7,1.6,5.5,1.3,8.4,1c1.2-0.1,2.7,0.2,3.6,0.9c3.7,2.7,8.1,3.5,12.2,5.2
		c1.4,0.6,3,1.3,3.9,2.5c2.1,2.7,4.9,3.1,8.7,3.4c-0.7-1.6-1.2-2.6-1.8-3.9c1.9-1.3,4-2.6,6.2-4.1c2.7,1.9,2.7,1.9,4.9-0.2
		c0.6-0.6,1.7-0.8,2.5-1.2c1-0.5,2-0.9,2.8-1.6c2.4-2.4,2.6-2.4,4.4,0.7c0.1,0.2,0.4,0.3,0.7,0.6c4-1,3.7-4.7,4.3-8.2
		c4.4,3.2,3.6,9.2,8.5,12.1c1-2.3,2-4.4,3.1-6.7c1.9,1.9,1.9,1.9,2,6.7c1.9,0.1,3.2-0.5,4.3-2.1c1.8-2.5,3.6-3,6.1-1.7
		c3.8,2,7.4,4.2,11,6.4c2.4,1.4,4.5,2.7,7.6,2c3.6-0.9,4.6,2.5,6.8,4.8c-1.4,0.4-2.4,0.5-3.1,1c-0.7,0.5-1.5,1.3-1.6,2.1
		c-0.1,0.5,0.8,1.5,1.4,1.7c4,1.1,7.9,3.4,12.3,0.5c1.3-0.8,3.9-0.1,5.7,0.5c1.7,0.5,3.2,1.8,5.3,3.1c-0.6-4.7,3.2-5.9,5.6-8.1
		c2.1-1.9,3.7-1.4,5.8,0.9c0.3,0.3,0.6,0.7,0.9,1c0.1,0.1,0.3,0.1,0.6,0.3c0.9-0.2,1.9-0.5,3.2-0.9c0.9,2.9,3,3.4,5.7,3.2
		c3.1-0.3,6.3-0.1,9.6-0.1c0.9-3.9,4-3.7,7-3.7c1.8,1.8,2.3,3.8,1.7,6.3c-0.1,0.6,0.8,1.7,1.4,2.3c0.2,0.2,1.4,0,1.5-0.2
		c0.3-0.8,0.4-1.8,0.5-2.7c0-0.4-0.3-0.8-0.4-1.2c-0.1-0.4-0.3-0.8-0.5-1.5c1.9-2.1,4-4.2,5.8-6.2c-0.6-2.1-3.9-1.9-3-4.1
		c0.5-1.3,2-2.3,3.3-3.8c-1.1-0.7-2.1-1.2-3-1.8c-1.9-1.4-4-2.8-5.7-4.4c-1.5-1.4-2.3-3.1-0.8-5.3c0.5-0.8,0.2-2.4-0.1-3.5
		c-0.4-1.8-0.8-3.3,1.4-4.3c0.6-0.3,0.8-1.3,1.1-2c0.5-1.2,0.9-2.5,1.3-4c0.9,0.5,1.2,0.8,1.5,0.9c4.7,1.8,5.4,6.4,7.2,10.2
		c0.9,1.9,1.9,3.8,2.9,5.8c-1.1,1-2.4,1.3-2.4,3.4c0,2.4-0.1,3.5,2.7,3.3c1.1-0.1,2.2,1,3.5,1.6c-0.8,3.3-0.7,6.3,1.2,9.9
		c1.3-3.5,0.4-7.6,5-8.5c1.2,1.7,2.7,3.4,3.8,5.4c0.4,0.8,0.3,2.3-0.2,3.1c-2.9,4.5-2.5,6.2,2.3,9.3c2.8-2-1.1-4.6,0.9-6.9
		c1.1-0.2,2.6-0.4,4.5-0.8c-0.3-1.7-0.6-3.2-0.8-4.8c-0.3-2.3,2.3-1.8,3.4-3.4c-0.3-0.7-0.8-1.7-1.2-2.7c-0.4-1.1-0.6-2.4-0.9-3.5
		c1.3-0.3,2.6-0.8,3.9-0.9c4.9-0.4,7.1,3.5,10,6.2c-0.4,0.9-1.3,2.1-1.1,2.4c1.9,2.5,0.2,3.2-1.6,4c-0.4,0.2-0.7,0.5-1,0.8
		c4.4,7.5,3.1,13.2-4.2,17.6c-1.2-1.7-2.5-3.4-3.8-5.3c-2.4,2.5,0.4,4.4-0.3,6.8c-1-0.5-1.7-1-2.5-1.4s-1.6-0.8-3.2-1.5
		c0.9,3.2,1.6,5.7-1.2,7.5c-1.6,1-2.8,1.1-4.3,0c-1.1-0.9-2.1-1.9-3.3-2.7c-1.8-1.1-3-0.5-3.5,1.6c2.4,1.9,4.2,4.5,8,4
		c1.6-0.2,2.3,1.2,1.5,2.7c-0.5,0.9-1.4,1.5-1.7,2.4c-1.4,3.4-3.4,5.7-7.6,4.1c-0.5,1.6-0.9,2.9-1.3,4.2c-2.1-0.3-4-0.5-5.8-0.7
		c-0.1,0.3-0.2,0.5-0.3,0.8c1.8,1.1,3.7,2.2,5.4,3.3c-0.2,0.7-0.3,1.1-0.4,1.1c-4.2,0.8-5.8,4.5-7.7,7.4c-3.4,5.3-6.2,11-5.6,17.8
		c0.3,3.1,0.3,3.5,3.6,4.3c1.8,0.4,2.6,1.3,2.8,3.2c0.3,2.8,1.1,5.5,1.8,8.6c2.9-1.5,5.4-1.4,7.9,0.1c0.2,0.1,0.6,0.2,0.8,0.1
		c3.3-0.7,6,0,7.2,3.6c4.6,2.5,8.6,6.3,14.3,6.4c0.9,0,1.8-0.1,2.6,0.1c1.7,0.4,2.7,2.1,1.8,3.2c-2.3,2.7-0.8,5.1-0.3,7.7
		c0.2,1,0.9,2.3,1.7,2.7c1.2,0.6,2.5,0.2,3-1.5c0-0.1,0.5-0.1,1.3-0.2c0,1.7,0.1,3.3,0.1,5c0,1.1-0.4,2.4,0,3.4
		c0.3,0.8,1.5,1.5,2.4,1.9c0.3,0.1,1.2-0.8,1.6-1.5c0.5-0.6,0.6-1.9,1.1-2.1c2.9-1,2.5-3,1.9-5.2c-1-3.5-2-7.1-3-11.1
		c1.4-0.6,3.1-1.3,4.7-2c4.3-2,5.6-4.3,4.8-8.9c-0.8-4.7-1.6-9.3-5.4-12.8c-1.4-1.3-1.6-3.1,0-5c3.3-3.8,3-6.4-0.9-10
		c1.7-2.2,2.3-4.4,1-7.3c-0.6-1.4,0.4-3.4,0.8-5.6c2.8,1,5,2,7.2,2.6c2.4,0.7,4.8,0.8,6.9-1.3c4.2,3.3,6.3,8.8,11.8,10.2
		c0.9,0.2,1.9,0.2,3,0.3c-1.6,5.1,0,9.9,1.1,14c2.3,1.6,4,2.8,6.5,4.6c2.5-0.8,4.6-3.3,5.7-6.3c1-2.8,0.3-6.2,3-8.5
		c0.4-0.4,0.2-1.5,0.5-2.2c-0.9,5.6,3,9.5,4.8,14c1,2.5,2.6,4.8,3.7,7.3c0.5,1.1,0.7,2.4,0.7,3.6c-0.2,3.9,1.7,7.3,5.1,9.1
		c2.8,1.5,5.7,2.9,8.1,4.9c1.1,0.9,1.3,3.1,1.3,5c1.7,1.1,3.6,1.9,5,3.2c1.9,1.8,0.4,3.7-0.9,5.4c0.5,1.1,1,2.1,1.4,3.2
		s0.8,2.1,1.4,4c-0.9,0.6-1.9,1.4-3,2.1c-3.7,2.7-3.7,2.7-1.3,6.8c1-0.2,2-0.4,3-0.6c3.3,4.1,3.7,4.1,5.5-0.3
		c3.1,4.1,3.6,10,1.2,14.1c-4.1-1,0-4.2-1.6-5.8c-1.7,1.1-3.5,2.3-5.4,3.6c-0.9-3.3-3.2-4-6.3-3.4c-1.9,0.4-3.9,0.4-5.6,0.6
		c0.3-2,0-4.8,0.8-5.1c2.7-1.2,1.8-3.2,2-4.9c-4.7-3.2-4.9-2.9-8.8,0.6c-1.6,1.4-4.1,1.9-6.2,2.3c-1.8,0.4-2.7-1.2-3.4-2.7
		c-2.1-4.5-4.4-4.8-8.2-1.6c-2.1,1.7-4.5,3.1-6.5,4.8c-2.5,2.1-3,3.8-2,6.7c1.9-4.3,5.2-6.9,9.5-8.2c1.5-0.5,3.4-0.3,5,0.1
		c3.2,1,3.8,2.4,2.6,5.5c-2.6,7.1-1.9,8.3,5.4,10.8c2,0.7,3.6,2.1,6.1,3.5c-2.4,1-4.3,2.5-6.3,2.6c-3.1,0.1-4.6,1.8-6,4.1
		c-0.6,1-1.3,1.8-2,2.7c-3.8-3.2-3.8-4.6-0.1-7.3c0.5-0.3,1.1-0.6,1.4-1c0.3-0.5,0.5-1.5,0.3-1.8c-0.3-0.4-1.4-0.8-1.8-0.5
		c-1.8,1.1-3.6,2.3-5.3,3.5c-0.3,0.2-0.4,1-0.7,1c-4.3,0.6-7.7,3-11.9,5.4c-0.9,1.4-2.2,3.5-3.7,5.8c1.4,0.6,2.5,1.1,4.2,1.9
		c-4.2,2.7-8.5,2.8-12.8,3c0,0.3,0,0.6,0,0.8c0.6,0.4,1.3,0.8,1.6,1.1c-4.9,2.8-5.3,8.5-7.8,13.5c-0.8-1.3-1.4-2.3-2.1-3.3
		c-0.3,0.1-0.5,0.2-0.8,0.3c0.7,3,1.4,5.9,2.1,8.9c0.1,0.4,0.3,1,0.2,1.2c-1.2,1.9-2.2,4.2-3.9,5.5c-4,3-8.4,5.4-12.6,8.1
		c-2.5,1.6-4.3,6.6-2.8,10c1.5,3.3,1.7,6.6,1.7,10.1c0,1.3-0.3,2.5,1.5,3.5s0.9,2.8-2.1,4.7c-2.5-3.8-3.8-7.9-3-12.5
		c0.1-0.7,1.3-1.2,2.2-2.1c-3.3-0.4-6.8-0.2-8.1-4.6c-3,2.8-5.6,2.1-8.4,0.3c-1.2-0.8-2.9-0.9-4.8-1.4v-9.9h-11.1v11.1
		c1.6,0.2,3.1,0.4,5.5,0.8c-1.7,1.6-2.8,2.6-4.1,3.8c-0.8-0.7-1.5-1.4-2.3-1.8c-0.9-0.4-2-0.7-3.1-0.7c-1.5-0.1-3.1,0-4.7,0.2
		c-1.3,0.2-2.8,0.3-4,0.9c-2.2,1-4.2,1.6-6.7,1.1c-2.9-0.5-6-0.1-9.2-0.1c0.9,3.3,1.5,6.3-0.5,9.5c1.2,0.1,2.2,0.2,2.9,0.2
		c-0.2-2.8-0.3-5.4-0.5-8.3h3.6c0.2,0.3,0.4,0.6,0.4,0.9c0.4,3.5-0.3,7.1,1.1,10.6c0.5,1.4-0.2,3.4-0.7,5c-1.2,3.6-0.9,6.9,1.2,10.2
		c1.7,2.6,2.8,5.6,4.1,8.4c1,2,4.5,3.8,6.7,3.5c3-0.4,6.1-0.8,9.6-1.2c0.6-1.6,1.5-3.7,2.3-5.8c0.4-0.9,0.8-2.3,1.4-2.5
		c3.3-1,6.7-2.6,10.2-0.8c-2.5,10.2-2.5,10.2-6.6,12.6c0.6,1.2,1.2,2.4,1.8,3.6c0.5,1.1,1.1,2.3,1.6,3.4c5.7-0.7,11.2-2.3,16.5,1.9
		c0.5,3,0.1,6.5-0.8,10c-0.3,1.2-0.7,2.5-0.8,3.8c-0.5,6.1,5.9,9.7,10.8,7.2c3.6-1.8,6.2-0.9,9.1,1.2c1.8,1.3,3.4,2.7,5,4.2
		c1.9,1.7,4.6,2.6,6.8,3.8c2.2-1.7,4.1-2.9,5.5-4.5c1.5-1.7,1.6-4.6,4.5-5.2c0.4-0.1,0.8-1.8,0.6-2.7c-0.5-2.9-0.2-5.1,3.3-5.8
		c0.5-0.1,0.8-1.4,1.3-2.2c0.7,3.2,5.9,1.5,5.7,5.7c3.4-0.1,6.6-0.9,9.3,1.5c0.5,0.5,2.2-0.2,3.2-0.6c1.4-0.6,2.8-1.4,4.6-2.3
		c1.6,3.5,4.4,5.5,8.5,5.9c-0.9,1.4-1.4,2.1-1.8,2.8c0.3,0.1,0.5,0.4,0.7,0.3c3.4-0.8,5.9,0.8,7.1,3.5c1.3,2.8,3.8,4.2,5.8,6.1
		c0.9,0.9,3,1.1,4.4,0.8c5.8-1.2,9.9,1.9,13.8,5.3c0.6,0.6,1.3,1.3,1.6,2c1.5,3.5,2.9,7.1,4.5,11c-1,3.7-6.5,5-6.8,10.2
		c1.1-0.3,2.1-0.5,3.3-0.9c0.7,3.5,3.3,2.5,5.6,1.9c-1.2-0.1-2.5-0.2-4.1-0.4v-5.8c2.6,0.3,4.7,0.5,7.1,0.7c-0.4,1.5-0.8,2.7-1.1,4
		c0.2,0.1,0.4,0.2,0.5,0.3c1.2-1.1,2.5-2.1,3.9-3.3c3.9,2.6,10.6,1.7,10.7,9.4c2.6-2.3,5-1.7,7.8-0.5c1.5,0.6,3.4,0.1,5.1,0.3
		c1.8,0.3,3.6,0.7,5.1,1.6c2.1,1.2,3.9,2.9,5.8,4.4c1.3,1.1,2.7,2,4.6,2c2.3,0,3.3,1.5,4.2,3.6C500,605.1,497.6,610.3,493.4,615.1z"
		/>
	<path class="st0" d="M551,63.6c0.6-0.6,1.6-1.3,1.6-1.9c0.1-3.7,3.3-4.1,5.6-5.1c1.1-0.5,3.2,0,4.3,0.8c2.4,1.6,4.5,3.6,6.6,5.5
		c2,1.9,2.1,2.9,0.3,5.2c-2.2,2.7-4.5,5.3-6.8,8c-0.3-0.1-0.5-0.2-0.8-0.4c0.1,1.1,0.3,2.1,0.4,3c-1.5,1.1-3,2.2-4.5,3.3
		c0.2,0.4,0.5,0.8,0.7,1.1c-2.5-0.5-4.9-1.1-7.6-1.6c-0.3,0.8-0.6,1.9-1,3c-1.2,0.2-2.3,0.3-3.7,0.5c0.3,0.6,0.5,1.4,0.8,1.5
		c1.1,0.1,2.2,0,3.2-0.1c1.5-0.1,3.1-0.6,4.5-0.3c2.2,0.5,3.2,2.3,2.6,4.2c-0.7,2.4-2.5,3.9-4.7,3.4c-2.1-0.5-4.1-1.3-6.1-1.9
		c-3.8,3.3-4.2,6.8-0.8,9.8c0.6-1.7,1.2-3.2,1.7-4.8c1.8-0.2,3.6-0.4,5.5-0.7c1.7,2.6-1.2,4.1-1.3,6.1c-6.3,1.8-7,4.1-3.5,9.5
		c-1.2,2.3-2.3,4.5-3.9,7.5c-2.6,0.8-3.3,3.5-3.2,7c0,2.5-0.8,5-1.2,7.5c-0.2,1-0.2,2.1,0.5,3.5c0.9-0.9,1.9-1.8,3-2.8
		c1.4,1.5,2.6,2.8,4.1,4.5c-1.6,0.9-3,1.7-4.6,2.7c0.9,2.7,3.4,2.6,5.3,3.2c4.2,1.3,4.9,3.2,2.4,7.4c-1-0.2-2.2-0.4-3.2-0.8
		c-3.7-1.5-3.7-1.5-5.8,2.3c-1.1-0.1-2.2-0.3-3.6-0.5c0,1-0.3,2,0,2.3c1.5,1.3,3.1,2.7,4.9,3.5c1.5,0.6,2.8,1.2,2.8,2.7
		c0,0.9-0.9,1.9-1.6,3.2c4.8,1.9,2.9,5.7,2.6,9.6c-0.9-0.1-1.5-0.2-2.3-0.3c-0.1,0.6,0,1.4-0.4,1.9s-1.2,0.7-1.9,1
		c0.5,2.6,0.7,4.9,4,5.3c0.7,0.1,1.3,1.8,1.9,2.8c-0.2,0.3-0.4,0.6-0.6,0.9c-1.4-0.2-2.8-0.6-4.3-0.7c-3.5-0.4-4.3,0.3-4.6,4.4
		c1.1,0.5,2.3,0.9,3.4,1.5c2,1.1,2.3,2.3,1.1,4.2c-2.3,3.6-4.5,4.2-8.3,2.1c-1.4-0.8-2.7-1.6-4-2.4c-1.5,1.3-2.9,2.5-4.5,3.9
		c1,1,1.9,1.8,3,2.8c-1.1,0.8-2.1,1.5-3.1,2.3c0.1,0.2,0.1,0.6,0.2,0.7c2,0.5,3.4,1.4,3.7,3.6c0,0.3,0.9,0.4,1.4,0.6l-0.1-0.1
		c1.5,1.7,2.8,3.8,4.6,5.1c4.3,2.9,4.1,7.1,4,11.4c0,1.4-0.4,2.8-0.6,4.3c-0.7-0.5-1.3-1-2.1-1.6c-0.9,0.6-1.8,1.1-2.6,1.6
		c-2.4-0.8-3.6-2.5-3.7-4.6c-0.2-3.7-1.5-5.9-5.6-6.8c-2.8-0.6-5.2-2.8-7.8-4.3c-0.2-0.1-0.5-0.1-1.2-0.1c0.8,2.6,3.4,3,5,4.3
		c1.5,1.3,3.7,1.7,5.8,2.5c-0.7,2.9-3,3-5.7,3.3c1.3,0.8,2.2,1.4,3.1,1.9c-1.5,3-0.6,4.5,2.7,4.2c3.9-0.3,7.1,1.2,11,3.4
		c-2.8,2.5-5.1,5.1-7.9,6.8c-2,1.2-3.7,2.6-5,4.5c-1.1,1.7-2.5,2.4-4.5,2.8c-2.8,0.4-5.7,1.2-8.2,2.5c-2.7,1.4-4.8,1.6-7-0.5
		c-0.2-0.2-0.8-0.1-1.6-0.3c0.3,1.3,0.5,2.3,0.8,3.4c-0.1,0.2-0.2,0.6-0.4,0.7c-3.7,1.4-5.5,4.1-6.6,8c-1.2,4.1-4.2,7.2-8.8,8.2
		c-1,0.2-1.9,1-3.3,1.7c0-1.6,0-2.6,0-3.9c-0.7,0.4-1.3,0.6-1.3,0.8c-0.3,2-1.7,3.1-3.3,3.6c-2.3,0.6-3.6,2.1-4.7,4
		c-0.7,1.1-1.7,2.1-2.8,3.4c0.5,0.7,1.1,1.5,1.5,2.2c-0.2,1.3-0.9,2.7-0.5,3.5c1.1,1.9,0.3,3.2-0.6,4.8c-0.8,1.3-1.3,2.9-2.2,4.1
		c-0.8,1.1-2,1.8-3.3,2.9c0.3,1,0.7,2,1.1,3.1c0.7,2,0.7,3.8-0.5,5.7c-0.9,1.4-1.1,3.2-1.5,4.8c-0.3,1.2-0.2,2.5-0.3,4.1
		c-1.2-0.1-2.2-0.4-3-0.2c-0.9,0.1-1.8,0.7-3.1,1.1c0-3.5-3.3-4.1-5.1-6.1c-0.6-0.7-2.7-0.1-4.4-0.1c-0.1-0.2-0.1-1-0.4-1.2
		c-4.6-2.9-6.4-7.4-7.7-12.4c-0.4-1.5-1.1-3-2-4.2c-1.7-2.4-2.1-4.6-0.4-7.1c0.6-0.8,0.5-2,0.8-3.1c-0.3-0.2-0.5-0.4-0.8-0.6
		c-1.2,0.9-2.4,1.9-3.7,2.9c-0.3-2.7-0.4-5.2-0.9-7.6c-0.4-1.8-1-3.7-2.2-5c-2.1-2.5-2.4-4.8-0.5-7.3c-3.3-2.4-0.4-6.3-2.8-8.7
		c3.3-3.8,7-2.8,11.6-1.5c-1.3-1.7-2.1-2.8-2.9-3.9c-1.5,0.1-2.8,0.2-4.2,0.3c-0.1-0.2-0.1-0.4-0.2-0.7c1.2-0.6,2.3-1.2,3.4-1.8
		c1-2.5,2.1-5,3-7.5c0.7-2,1.6-4.3-0.5-6c-2-1.6-4-0.2-6.3,0.6c0.8,1.5,1.6,2.8,2.3,4.1c-1.4,2.9-4.5,0.7-6.2,2.9
		c-0.9-1.4-1.3-2.5-2.1-3.2c-1.6-1.4-1.7-3.4-0.8-4.7c1.8-2.7,1.8-5.5,1.4-8.9c3.6,1,6.8,2,10.5,3.1c0-1.5,0.4-3.1-0.1-3.4
		c-2-1.5-2-4.6-4.8-5.5c-0.9-0.3-1.2-2.1-1.9-3.3c-2.9,0-2.9,0-4.4,3.9c-0.9-0.4-2.4-0.7-2.4-1.1c-0.1-2.5-1.8-5-0.4-7.4
		c1.2-1.9,0.5-3.2-0.5-4.9c0.8-1,1.6-2.1,2.6-3.5c-1.9-1.2-2.6-2.6-2.5-4.8c0.1-1.2-1.6-2.5-2.5-3.7c0-1.8,0-3.8,0-5.8
		c0.1-4.1-3-6.6-4.8-9.8c-0.8-1.5-1.9-2.9-2.1-4.5c-0.6-4.5-2.9-7.7-7.1-9.5c-3.6-1.6-7.2-3.3-11.2-5.1c0,1.2,0,1.8,0,3.1
		c-3.1-1.8-5.8,0.7-8.8-0.1c-0.5-0.1-1.4,1.4-2.1,2.2c-4.3,0.1-7.3-2.8-10.7-4.8c0.7-3,5-1.4,5.7-4.6c-2.9-1.1-5.7-2-8.4-3.1
		c-1-0.4-2.5-1.5-2.4-2c0.3-1.2,1.2-2.5,2.2-3.3c0.7-0.6,2-0.9,2.8-0.6c1.8,0.6,3.3,0.5,4.6-1c0.3-0.4,1.2-0.7,1.6-0.5
		c3.4,1.6,5.2-0.8,7.3-2.5c-1.3-4.4-1.7-4.5-5.2-2.2c-0.4,0.3-1.1,0.6-1.5,0.4c-1.5-0.6-2.2,0.1-3.2,1.2c-1.7,1.8-3.9,1.1-4.1-1.5
		c-0.2-2.7-1.6-3.4-3.9-3.6c-4-0.2-4.5-2.1-5.6-6.9c-0.8-3.5,0-4.5,3.5-6.5c3.5-1.9,7-3.6,9.7-6.8c1.2-1.4,4.1-1.7,6.2-2
		c1.8-0.2,3-0.8,3.8-2.3c0.4-0.6,0.7-1.3,1.2-1.8c3.1-3.8,3.1-3.8,0.6-8c2.6-1.1,1.8-3.1,1.1-5.5c-2.7,0.7-5.4,0.6-7.8-0.9
		c-2.2-4.5,2.4-7.4,2.4-11.5c2.5,0.6,3.3-0.9,4.1-2.7c1.1-2.3,2.4-4.5,3.8-6.6c1.1-1.8,2.7-2,4.4-0.7c0.5,0.3,0.9,0.7,1.5,0.9
		c1.7,0.7,2.7,0.1,3.1-1.7c0.4-1.9,1-3.9,1-5.9c0-1.6-0.4-3.4-1.1-4.9c-1.9-4.1-2-4.1,2.4-6.5c3.7,3.6,7.3,7.2,11.5,11.3
		c0.5-4-2.5-4.9-4-6.7c-1.5-2-3.2-3.9-4.9-6c5.8-2.8,11.1-5.4,16.6-8.2c1,1.2,2.2,2.6,3.4,4c-0.3,4.3-0.5,8.6-0.8,13.2
		c2.4-2.4,2.9-6.1,2.6-15.2c1.4,2.5,4.3,4,4,7.7c-0.2,1.9,0.9,3.8,3.8,4c-0.2-1.1-0.4-2-0.6-2.9c1.7-0.2,3.3-0.4,4.8-0.5
		c0.1-0.3,0.3-0.6,0.4-0.8c-5.2-3-5.3-8.4-7.1-13c4.3-1.6,5-1.3,7.5,1.8c0.8,1,1.8,1.8,2.9,2.5c3.7,2.6,7,5.4,8.7,9.8
		c0.5,1.1,1.7,1.9,3,3.3c-0.5-4.6-0.8-8.3-1.2-11.9c3.6-1.9,3.8-2.5,1.9-5.5c-0.8-1.4-1.8-2.6-2.6-3.9c-0.5-0.9-0.8-2-1.4-3.3
		c4.6,0.1,8.8-1.1,12.3,2.1c1,0.9,1.9,1.7,2.9,2.6c0.8,0.7,1.6,1.4,2.5,2.2c1.4-4.3,1.2-4.8-1.9-6.5c-3.5-2-7-3-11.1-2.7
		c-2.5,0.2-5.1-0.5-7.5-0.7c-0.3-1.8-0.6-3.6-0.9-5.5c2.3-1,1.9,2.2,3.6,2.3c2.2-0.8,0.4-2.6,0.8-4.2c1.8,0.3,3.5,0.6,5.4,0.9
		c0.9-1.7,1.9-3.4,2.9-5.3c1.6-0.4,2.2,0.9,2.6,2.1c1.1,3.4,3.4,5.5,6.7,6.8c1.6,0.6,2.8,2.1,4.6,3.5c-0.2-1.4-0.4-2.4-0.7-3.9
		c0.4-0.8,3.1-0.6,2.2-3.2c-0.3-0.8,2.8-1.6,1.8-3.8c-5.3-2.8-5.4-4.1-0.3-8.6c1,1.1,2,2.2,3.4,3.7c0.3-1.9,0.5-3.3,0.7-5
		c3,0.1,5.6-2.4,8.7-0.7c2.8-1.6,5.8-0.5,8.8-0.7c4.1-0.3,7.8,0.3,9.6,3.9c2.9,0.6,5.3,0.8,7.6,1.5c2.8,1,3.1,3.6,0.6,5.1
		c-2.1,1.2-4.5,2.2-6.8,2.2c-4.4,0.1-8.7,0.1-12.8,2.4c-2.2,1.2-4.9,1.5-7.3,2.2c-1.6,0.5-3.4,0.6-4.3,3.1c1.2-0.3,1.9-0.5,2.6-0.7
		c1.5-0.5,2.9-1,4.4-1.4c2.6-0.8,5.3-1.3,7.7-2.4c2.5-1.2,4.8-1.7,7.5-1c3.4,0.9,6.7,1.3,9.9-0.9c1-0.7,2.4-0.6,3.5-0.9
		c2.3,3.1-0.5,5.8,0.1,9.2c1.8-0.8,3.2-1.4,4.3-1.9c2.1,1.1,4.2,1.7,5.6,3.1c1.5,1.4,2.3,3.5,3.2,5.2c-1.7,2.3-2.7,5-4.6,6.2
		c-4.5,2.9-8.9,6.5-14.9,5.5c-4.4-0.7-8.5-0.1-12.3,2.4c-1.6,1.1-3.7,1.4-5.6,2.1c-3.6,1.3-4.2,3.3-2,6.8c0.3,0,0.6,0,0.8-0.1
		c0.4-0.3,7.2-4.5,7.9-4.8c0.3-0.1,0.6-0.2,0.8-0.4c3.8-3,8.2-2.9,12.7-2.5c1.6,0.2,3.3-0.1,3.8,2c0.6,2.1-0.1,3.6-1.8,4.8
		c-1.6,1.2-3.1,2.4-4.6,3.8c-0.5,0.5-0.5,1.4-0.6,2.1c0.4,0.3,0.6,0.4,0.6,0.4c3.6-2.2,7.3-4.4,10.8-6.8c0.7-0.5,0.9-1.7,1.1-2.7
		c0.8-3.8,0.8-3.8,5.6-4.5c0.3,1.4,0.6,2.8,0.7,4.2c0.1,1.4-0.3,2.9-0.2,4.3c0.5,5.9-1.7,11.2-3.9,16.5c-0.6,1.4-1,2.9-1.1,4.4
		c6-5.8,9.2-13,11.4-20.8c2,1.3,4,2.7,6.2,3.8c0.8,0.4,2-0.3,3.1-0.5c-0.2-0.9-0.3-1.7-0.5-2.6C551,63.4,551,63.6,551,63.6z"/>
	<path class="st0" d="M329.3,159.2c-0.6-1-1-1.8-1.6-3c-1.3,2.3-2.2,3.8-3.2,5.5c-1.4-0.8-2.5-1.4-3.7-2c-0.8-0.4-1.8-1-2.3-0.8
		c-2.3,1.2-4.1,0.1-6.4-1.2c-1,1.7-1.9,3.3-2.9,5.1c-1.6,0.1-4-1.1-4.5,2.2c0.9,2.6,6.2,1.8,4.9,6.8c2.4-0.1,4.4-0.2,6.4-0.3
		c0-0.2,0-0.4,0.1-0.6c0.5,0.3,1,0.5,1.4,0.9c2.6,1.9,4.2,2.3,6.4-0.1c3.6-3.8,7.4-4.4,12.4-3.4c5.5,1.1,6.9,2.5,5.2,8
		c0.1,0.3,0.1,0.6,0.3,0.8c2.8,3,2.4,4.7-1.5,5.9c-0.7,0.2-1.4,0.2-2.1,0.4c-3.7,0.9-3.7,0.9-6.7-1.4c-0.7,2.3-2.4,2.9-4.5,2.9
		c-3.4,0-6.9,0.2-10.3,0.2c-2.7,0-3.2-0.4-5.7-3.6c-0.9,0.4-2,0.7-2.9,1.2c-2.5,1.5-4.5,1.1-5.8-1.4c-1.4-2.8-2-5.9-1.3-8.8
		c1.1-4.8-1.6-8.2-3.2-11.8c-0.7-0.1-1.1-0.2-1.3-0.1c-4.1,1.7-5.4,1.5-8-2c-1.3-1.7-2.2-3.7-3.1-5.6c-0.7-1.6,0.3-2.7,1.7-2.7
		c2.3,0,4.6,0.3,6.8,0.8c0.7,0.2,1.3,1.4,1.6,2.3c0.3,0.9,0.3,1.9,0.5,3.2c1.5-0.3,2.9-0.2,3.9-0.7c2.9-1.6,5.6-1.8,8,0.5
		c2.5-3.2,4.9-6.1,7.1-9.1c0.4-0.6,0.3-1.9,0-2.7c-0.5-1.4-1.4-2.7-2.2-4.2c1-0.8,1.7-1.5,2.6-2c2.6-1.5,4.2-1,5.7,1.6
		c0.6,1.1,0.9,2.4,1.5,3.6c1.7,3.3,4.4,3.3,7-0.3c-0.8-0.3-1.6-0.5-2.2-1c-1.1-1.1-2.2-2.2-3.1-3.5c-1.2-1.7,0.4-2.9,1-4.2
		c0.3-0.7,0.4-1.6,0.6-2.8c-2.7,0-5.1,0-7.9,0c-3-1.7-0.8-5-1.5-7.1c1.3-1.9,2.4-3.5,3.8-5.4c0.4,0.2,1.3,0.3,1.8,0.8
		c2.3,2.4,5.5,2.1,8.4,2.6c0.5,0.1,1.2-0.9,1.9-1.4c-0.6-0.7-1.1-1.8-1.8-1.9c-1.8-0.3-3.7-0.1-5.8-0.1c-0.3-1.1-0.5-2.2-0.7-3.3
		c-2.2,1-5,0.3-6.4,3c0,0.1-0.7-0.2-1.1-0.3c-0.4-0.1-0.8-0.1-1.2-0.2c-1.5,3.6,1.3,8-2.7,11.1c-0.6-0.5-1.3-1-2.1-1.7
		c-0.5,0.5-1,1.1-1.6,1.8c-0.7-0.5-1.3-0.9-2-1.4c-0.2,0.2-0.5,0.3-0.6,0.5c-1.5,3.2-1.8,3.4-4.7,2.6c-1.3-0.4-2.6-1.1-4.4-1.8
		c1.4-1.7,2.4-3,3.6-4.5c-1.6-0.5-3.2-1-4.8-1.5c-0.6-2.1,0.5-4.2-0.7-6.3c-0.3-0.6,1.5-2.8,2.8-3.9c0.9-0.8,2.3-0.9,3.5-1.4
		c-1.1-3.7-2.7-4.6-6.1-3.5c-1.9,0.6-3.7,1.5-5.6-0.6c1.3-1.3,4-1,3.7-3.7c-1.1,0.1-2.2,0.4-3.3,0.3c-2.2-0.3-3-1.7-2.6-4
		c0.1-0.7,0.3-1.4,0.4-2.1s0-1.4,0-2.2c1.2-0.5,2.2-1,3.5-1.6c-2.2-2.1-3.5-4.6-2.4-7.9c1.1,0.1,2.3,0.2,3.6,0.3
		c-0.1-0.6,0-1-0.1-1.4c-0.1-0.3-0.3-0.5-0.5-0.7c-1.2-1.2-2.3-2.6-1.2-4.1c0.8-1,2.4-1.4,4-1.4c0.9-1.3,1.9-2.6,3.1-4.4
		c-2.2-0.5-4.2-0.9-6.2-1.3c0.8-3,1.3-3.3,4.4-3.1c2.9,0.1,5.3,1.7,5.1,4.2c-0.4,5,3.1,8.5,4,12.9c0.7,0.2,1.3,0.4,1.8,0.4
		c3.9,0.4,4.1,0.6,3.9,4.4c-0.1,2.1,0.1,4,2.6,5.3c-0.3-2.4-0.6-4.5-0.9-6.7c3-0.5,3.3,1.2,3.4,3c0.1,3.7,0,7.4,0,11.2
		c2.6,0.7,4.7,1.2,7.6,2c-2.6-4.8-6.7-8.8-4-14.6c4.9-0.1,9.2,1.1,11.3,6.3c0.6,1.5,1.3,2.9,2,4.3c0.9,1.8,1.2,1.9,4.5,3.2
		c-2.3-4.2-4.5-8.4-6.8-12.8c1.7-1.2,2.9-2.6,4.5-3c3.3-0.8,5.5-2.8,7.5-5.3c1.3-1.7,3.3-2.6,5.7-2.6c1.4,0,2.7-0.4,5-0.8
		c-3.4-3.2-7.1-0.7-9.9-2.4c-0.4-4.9,4.9-7,6.4-11.5c-4.3,1.1-8.3,4.8-8.3,8.2c-0.1,3.2-0.7,5.9-2.8,8.3c-2.2,2.4-5.2,2.9-8.3,3.8
		c-0.3-1-0.7-2-1.1-3.5c-1.2,1.2-2.1,2.1-3,3c-1.3,1.5-2.9,1.9-4.6,0.9c-1.9-1-1.1-2.8-0.8-4.2c0.6-2.4,2.2-4,4.6-4.7
		c1.6-0.5,3.2-1,5.4-1.8c-4.3-1.1-5.3-1.2-8.7,0.9c-2.3,1.4-4.1,3.7-6.6,6c-1.4-0.8-3.2-1.8-5.1-2.9c0.9-2,2.3-2.4,3.9-2.6
		c5.8-0.7,6.4-1.1,9.8-6.7c-0.9,0.4-1.9,0.7-2.6,1.4c-3,3-7.2,3.5-11,4.5c-0.9,0.3-2.1-0.5-3.1-0.8c0.7-2.5,1.3-4.7,1.9-6.8
		c-0.4-0.2-0.7-0.5-1.1-0.7c1.6-1.1,3.2-2.2,4.9-3.3c-0.3-0.3-0.6-0.6-0.8-1c-1.8,1.1-3.6,2.2-5.3,3.3c-2.1-2,0.5-3.1,0.3-4.8
		c-1.9,0.1-3.7,0.2-6.3,0.4c1.8-3,1.9-6,5.4-6.4c0.6-0.1,1.2-0.7,1.7-1.2c1.6-1.6,3.2-3.2,4.4-4.4c3.2,0.9,5.8,1.6,8.4,2.3
		c0.2-0.3,0.4-0.5,0.6-0.8c-1.1-1.2-2.3-2.5-3.7-4c2.8-1.5,2-3.8,1-6c1.8-1.6,3.5-1,4.2,0.4c2.1,4,7,4.6,9.6,8
		c0.5,0.6,1.7,0.7,3.6,1.4c-1.1-2-1.5-3.3-2.3-4c-3.5-2.9-5-6.2-2.1-10.6c0.9,0.7,1.9,1.5,3.1,2.5c0.9-1.7,0.1-3-0.2-4.3
		c-0.3-1.2-0.5-2.5-0.9-4.3c1.6,0.8,2.6,1.3,3.5,1.7c0.2-1.5-0.1-3.6,0.7-4.3c2-1.6,3.6,0.4,5.3,1.5c1-0.4,1.9-0.8,3.1-1.3
		c2.3,3.8,4.6,7.5,6.9,11.2c1.4-3.1,0.9-5.2-1.7-7.2c-3.2-2.5-3.5-2.9-4.1-6.2c1.5-0.2,3.1-0.3,4.6-0.6c2.9-0.5,5,0.5,6.4,3.1
		c0.8,1.4,2.1,2.4,3.7,3.4c-0.6-2.5-3-4.7,0-7.2c2.1-1.7,3.6-0.9,5.4,0.5c0.4-1,0.7-1.8,1-2.5c5.3,1.6,10.6,3.2,15.9,4.8
		c-0.3,3.8-3.7,5.1-5,7.7c2.6,0.3,5.7-1.7,7.9-5.1c0.7,0.2,1.5,0.4,2.5,0.7c0.3-0.7,0.5-1.5,0.9-2.6c0.9,0.8,1.6,1.5,2.4,2.3
		c0.7-0.3,1.4-0.6,2.1-0.9c1,3.2,2,6.3,3.1,9.7c4.4-0.4,6.5,2.5,7.6,7.8c-3,2.6-6.4,5.7-9.9,8.7c-1,0.9-2.4,1.2-3.5,2
		s-2,1.9-2.9,2.8c-3.2,0.4-6.4,0.7-9.6,1.1c0,0.3-0.1,0.6-0.1,1c1,0.5,2.1,1.1,3.4,1.7c0,1,0,2.1,0,3.3c4.2-0.2,6.6-3.8,10.2-4.9
		c1,2.1-0.4,3.1-1.3,4.1c-4.2,4.7-8.7,9.1-12.9,13.8c-1.6,1.9-2.6,4.3-4.2,6.9c-0.3,0-1.3-0.2-3.1-0.4c0.7,1.9,1.2,3.2,1.9,5.3
		c-1,1.2-2.4,2.9-3.7,4.7c-0.8,1.3-1.4,2.7-1.6,3.2c-3.1,2-5.5,3.7-7.9,5.3c-0.6,0.4-1.4,0.8-2.2,0.9c-2.8,0.3-4.9,2.1-7.9,2.7
		c1.8,2,3.3,1.5,4.6,1.4c0.9,0,1.7-0.4,2.5-0.2c0.5,0.1,1.4,1.1,1.2,1.3c-0.3,0.6-0.9,1.4-1.5,1.5c-0.9,0.1-1.9-0.3-3.6-0.6
		c2.7,3.6,7,6.4,2.7,11c0.5,0.7,1,1.4,1.5,2c0.1,2.7-4.1,6.5-6.7,6.2c-0.6-0.1-1.1-0.5-1.6-0.5c-0.9,0-2.3,0-2.7,0.6
		c-0.5,0.8-0.5,2.2-0.1,3c1.3,2.3,1.3,4.4-0.3,6.4c-1.6,2-4.1,1.8-6.4,1.7c-0.8,0-1.6-0.7-2.4-0.7c-0.7,0-1.4,0.6-1.9,1.6
		c2.1,0.1,4.4-0.1,6.4,0.4c2.6,0.7,2.2,3.3,2.3,6.4c1.3-1.7,1.9-2.5,2.9-3.8c0.7,0.9,1.8,1.5,1.9,2.3c0.2,1.2,0,2.9-0.7,3.5
		c-2.9,2.4-6.2,4.4-9.3,6.6C338.3,157.6,333.5,155.9,329.3,159.2z"/>
	<path class="st0" d="M1132.7,684.6c-0.3,1.4-1.5,2.8-2.5,3.9c-2.4,2.6-4.3,5.4-4.8,8.9c-0.1,0.7-0.3,1.5-0.8,2
		c-2.3,2.6-3,5.8-3.1,9.1c-1.8,0-3.5-0.4-5,0.1c-1.6,0.5-2.9,1.8-4.5,2.8c-0.9-1.3-1.6-2.5-2.7-4.1c-1.1,1.5-1.6,2.7-2.6,3.3
		c-0.7,0.4-1.9,0.1-3,0.1c0.1-0.7,0.3-1.6,0.5-2.6h-3c0.3,1,0.7,1.8,0.8,2.6c0.2,1.3,0.1,2.7-1.5,3.1c-1.8,0.5-2.8-0.7-3.3-2
		c-0.4-1.1-0.4-2.5-0.7-3.9c-0.6,0.4-1,0.6-1.2,0.9c-1.2,2-2.5,2.4-4.1,0.9c-0.4-0.4-0.5-1.1-0.9-1.4c-3-2.4-3-2.4,0.1-4.5v-11.5
		c-2.1,1.5-1.1,3.3-1.3,4.8c-0.2,1.7-0.1,3.4-0.1,5.7c-3.2-2.9-0.8-6.4-2.5-9.8c-0.3,2.2-0.5,3.6-0.8,5.5c-0.8-0.3-1.6-5-0.5-5.7
		c-1.2-0.3-2.1-0.5-3.1-0.8c0.1-1.1,0.3-2.1,0.4-3c-1.3-1.5-3.8-1.2-4.4,0.5c-0.4,1-0.1,2.3-0.5,3.4c-0.3,0.9-1.1,2.1-1.9,2.4
		c-1.2,0.5-2.1-0.1-3-1.5c-4.4-6.6-10.4-10.9-18.7-10c-3.2,0.4-6.3,1.8-9.5,2.7c-1.5,0.4-3.1,1-4.6,1c-3.4,0-5.6,1.1-5.6,5.3
		c-2.2,0.1-4.2,0.5-6.1,0.1c-3.6-0.7-6.8-0.9-9.6,2c-0.8,0.8-2,1.1-3,1.6c-5.7,3.2-7.7,2.6-11.2-3.3c1.6-2.4,3-5.1,2.3-8.3
		c-0.1-0.7,0-1.5-0.3-2.1c-1.6-4.3-3.3-8.5-4.9-12.7c-0.8-2.2-2.1-4.4-0.6-7c0.4-0.7,0.2-2.3-0.3-3.1c-2.2-3.2-1.7-6.6-1.3-10
		c0.2-1.6,1.1-2.5,2.9-2.5c1,0,2.7-0.4,3-1.1c1.5-3.3,4.7-3.3,7.3-3.6c4.3-0.4,7.8-2.6,11.7-4.2c2.7-1.1,2.9-4.1,4.1-6.3
		c0.7-1.3,1.5-2.5,2.4-4.1c1.4,1,2.2,1.7,3,2.3c0.3-0.2,0.7-0.4,0.7-0.6c1-3.8,2.7-7.2,5.8-9.8c2.4-2,5.7-1.6,7.5,1.1
		c0.2,0.4,0.6,0.6,1,1.1c0.7-0.8,1.3-1.6,1.8-2.3c1.1,0.5,2.1,1,3,1.5c1.7-2.8,3.4-5.4,5.2-8.4c2.2-0.4,5.4,0.4,6.4-3.6
		c3,4.1,8,1.7,11.8,4.8c-0.4,1.1-1,2.7-1.7,4.1c-1.3,2.5-1.2,3.4,1.2,4.3c4.2,1.7,8.1,3.6,11.2,7c1.6,1.7,2.9,1.3,4.7-0.7
		c1.9-2.2,2.2-4.9,2.4-7.6c0.1-2-0.1-4-0.1-6c0-2.7,0.7-5.1,4.1-7.1c1.2,3.4,2.3,6.3,3.2,9.3c0.5,1.4,0.7,2.6,2.5,3.2
		c0.9,0.3,1.6,1.8,2,2.9c1.6,3.8,2.9,7.7,4.5,11.6c0.3,0.8,1.1,1.9,1.9,2.1c4.4,1.5,6,5.4,7.8,9c0.7,1.3,1,2.6,2.9,2.6
		c0.8,0,2.3,0.9,2.4,1.5c0.5,4.3,4.3,6.4,6,10C1136,668.5,1134.6,676.5,1132.7,684.6z"/>
</g>
</svg>
