<?xml version="1.0" encoding="utf-8"?>
<!-- Generator: Adobe Illustrator 22.0.0, SVG Export Plug-In . SVG Version: 6.00 Build 0)  -->
<svg version="1.1" id="图层_1" xmlns="http://www.w3.org/2000/svg" xmlns:xlink="http://www.w3.org/1999/xlink" x="0px" y="0px"
	 viewBox="0 0 205 195" style="enable-background:new 0 0 205 195;" xml:space="preserve">
<style type="text/css">
	.st0{fill:#CF3004;}
</style>
<g>
	<path class="st0" d="M147.2,141.5c1.8,2.5,4.2,2.9,7.2,1.1c3.5-2.2,5.8-7.4,4.9-11.5c-0.9-4.2-5.3-8.2-10-8.7
		c-7-0.7-12.9,1.5-16.8,7.5c-3.8,5.9-3.5,11.9,0.6,17.7c0.1,0.1,0.1,0.4,0.2,0.8c-1.3-0.5-2.5-0.9-3.7-1.3c-5.5-2-10.8-1-16,1.4
		c-1.5,0.7-2.8,1.2-3.5-0.6c3.5-1.5,7.2-2.5,10.3-4.6c2.6-1.8,5-4.4,6.6-7.1c2.8-4.7,1.2-10.5-3.4-13.4c-6.3-4-13.1-4.8-19.9-1.2
		c-4.1,2.1-5.6,6.3-3.9,10.1c0.5,1.2,1.9,2,3.2,3.3c0.4-1.1,0.5-1.4,0.5-1.5c-4.2-5.4-2.7-10.4,3.8-12.4c5.1-1.6,10-1.3,14.3,1.9
		c6.9,5.2,5.2,16.8-2.9,20.3c-7.1,3.1-14.1,2.5-20.7-1.4c-1.5-0.9-2.7-1.1-4.4-0.4c-6,2.3-11.2,0-15.9-3.4c-2.4-1.8-2.6-4.8-0.9-7
		c2.5-3.4,5.7-6.3,8.5-9.4c0.8-0.9,1.6-2,1.7-3.1c0.8-10.9,10.6-16.7,20.5-11.9c2.3,1.1,4.5,2.5,6.8,3.8
		c-0.2-6.3,6.4-11.8,13.8-11.9c1,0,2.1,0.5,3,1.1c4.6,2.7,9.1,5.8,14.8,6c2.2,0.1,3.4,2.7,2.7,5.1c-0.3,1.2-0.8,2.3-0.9,3.9
		c6.4-8.3,13.9-9,22-3.5c4.4,3,4.9,6.6,3,15.4c5-4.1,9.7-3.2,13.7,0.6c1.1,1,0.6,3.6,0.9,6c0.5,0.1,1.8,0.1,3.1,0.4
		c4.8,1.2,7.8,4.4,9.1,9c1.1,4,1,8-2.4,11.1c-2.9,2.7-6.4,3.2-10.1,2.9c-1.9-0.1-2.8,0.2-4,2c-3.8,5.8-9.5,9-16.4,9.8
		c-4.8,0.5-8-1.9-10-6.2c-4.3,2-8.5,2.5-13,1.6c-6.8-1.4-9.4-5.8-7-12.3c0.9-2.3,0.7-3.6-1.4-5.2c-4.9-3.8-5.6-9.2-2.1-14.3
		c3.6-5,8.5-8.1,14.8-8.6c4.2-0.3,6.9,1.7,8.1,5.6c1.5,4.8,0.5,9.9-2.9,11.6C151.7,141.5,149.3,141.3,147.2,141.5z"/>
	<path class="st0" d="M143,83.5c1.2,2.9,2.8,2.7,4.5,2.1c3.6-1.2,7.3-6.2,7.5-10.1c0.2-3.7-2.3-7.6-6.6-9c-3.2-1.1-6.7-1.2-10.1-1.8
		c0.2-2,0.8-4.5,0.8-6.9c0-6.8-7.4-13.6-14.8-13.8c-6.7-0.2-13.1,5.7-13.7,12.6c-0.4,4.2,1.8,6.6,6.1,6.2c-2.7-2.9-3.2-6.2-1.9-9.7
		c2.8-7.1,9.8-9.5,16-4.9c2.7,2,4.7,5.1,6.4,8.1c1.4,2.5,0.7,5.4-0.8,8c-5,8.4-21.7,13.1-28.3,6.8c-0.6-0.5-1.6-0.6-2.5-0.7
		c-2-0.4-4-0.5-5.9-1c-8-2.2-10.1-9.6-4.6-15.8c1.3-1.5,2.9-2.7,4.4-4c-6.4-5.7-7.8-9.2-5.6-13.5c2.8-5.4,10-8.1,16.8-6.2
		c1.5-4.1,5-5.9,8.9-6.4c3.8-0.5,7.8-0.7,11.6-0.1c6.9,1.1,9.1,4.8,9,12.8c1.5-1.3,3.3-2.8,5-4.3c6.1-5.2,14.7-5.9,20.5-1.6
		c5.1,3.7,5.9,8.5,2.2,13.7c-0.3,0.4-0.4,0.8-0.9,1.8c1.5,0.1,2.6,0.2,3.7,0.2c4.4,0.1,8.2,1.5,11.2,4.8c4.7,5.1,3.5,11-2.7,13.9
		c-0.6,0.3-1.2,0.6-2.3,1.2c1.5,0.6,2.5,0.9,3.5,1.3c4.2,1.6,5.6,4.6,4.1,8.8c-2.8,7.7-12.5,13.6-20.5,12.5
		c-0.6-0.1-1.2-0.1-1.9-0.1c0,1.8,0.1,3.5,0,5.2c-0.2,5.6-4,10-9.6,10.4c-10.2,0.8-18.4-3.2-24.4-11.3c-3.7-4.9-3-10.8-2.1-16.5
		c0.1-0.5,0.3-1.1,0.6-1.3c5.3-3.1,9.6-8.7,16.7-7.4c2.6,0.5,5.4,1.7,7.5,3.4c3.3,2.6,3.1,5.6,0.8,9.2
		C149.6,82.8,147.6,85.1,143,83.5z"/>
	<path class="st0" d="M75.8,122.2c-2,2.2-3.7,4.7-6,6.7c-2,1.7-4.4,2.9-7.2,0.7c-1.2,4.2-3.8,7-7.9,8.3c-4.8,1.5-9.5,1-14-1
		c-5.8-2.5-7.7-6.2-6.8-13.4c-6.2,0.6-11.2-2.1-15.5-6.2c-2.6-2.5-4.1-5.6-4.4-9.2c-0.5-5.3,5.8-14.4,10-14.2
		c-3.5-5.5-4-10.7,1.1-15.4c5-4.7,11.6-5,19.4-1.1c6.7-7.6,24.2-7.3,28-0.1c4.8-5.8,11.1-8,18.4-7.2c6.9,0.7,9.8,4.6,11.7,14.2
		c2.6,1,5.4,1.3,7.1,2.9c3.9,3.4,3.4,12.5-0.5,15.8c-1,0.9-2.9,1.2-4.3,1.1c-7.4-0.5-13.9,0.9-18.2,7.7c-0.4,0.6-1.4,1.1-2.1,1.1
		c-5.5-0.3-10.5-5-10.6-9.7c-0.2-6.4,4.4-12.2,10.1-13c6.8-0.9,9.6,2.5,7.5,9.2c2.2,0.3,2.8-0.2,3-2.6c0.5-5.8-6.2-10.7-12.4-8.7
		C71.9,91,67.6,105,75.3,111.7c1.1,1,1.4,3.4,1.5,5.1c0,1.8-0.7,3.7-1.2,5.5C75.7,122.4,75.8,122.2,75.8,122.2z"/>
	<path class="st0" d="M85.3,47c3.1,1.1,5.6,4.2,5.6,6.9c0,7.1-3.4,12.4-9.4,14.8c-4.8,1.9-10,0.6-14-3.7c-5.2,4.6-11.5,5.4-18.1,4.7
		c-7.5-0.7-12.6-7.1-11.5-14.6c0.4-2.8-0.1-3.1-2.8-2.5c-2.6,0.6-5.3,1.3-7.9,1.3c-6.4,0.1-10.5-3.2-12.1-9.5
		c-1.8-7.2,1.8-15.8,8.3-19.3c3.2-1.7,6.6-2.8,10.5-0.6C34.3,15.2,39.3,9.6,48,7.7c6.4-1.4,9.5-0.1,13.2,4.8
		c3.1-1.9,6.1-4.2,9.4-5.6c2.5-1.1,5.4-1.4,8.1-1.4c4.8,0,7,2.5,7.3,7.3c0,0.6,0.1,1.1,0.1,1.4c3.3,0.3,6.6,0.3,9.6,1
		c4.4,1,7.8,6.4,7.2,10.9c-0.1,0.7-1.1,1.4-1.8,2c-2.7,2.3-5.5,4.5-8.2,6.7c-0.4,0.4-0.6,1-0.8,1.6c-1.8,4.7-1.8,4.7-6.9,4.4
		c-0.5,0-1,0-1.6,0c-0.1,0.9-0.2,1.7-0.2,2.5c-0.3,4.4-2.9,7.5-7.2,8.3c-6.1,1.1-11.7-0.3-16.6-4.2c-3.9-3.2-5-7.1-3.5-11.5
		c1.5-4.3,5.7-7.6,10.2-7.6c2.4,0,4.9,0.6,8.4,1c-1.3-1.3-2-2.7-2.9-2.9c-6-0.9-11.3,0.5-15.5,5.2C53,35.3,52.5,41,55,45.7
		c1.9,3.7,5.1,5.8,8.8,7.3C72.1,56.1,80,54,85.3,47z"/>
	<path class="st0" d="M99.9,171.7c0.4,3.3,2.4,4.4,4.9,4.6c4.1,0.4,7.7-1.1,10.5-4.2c3-3.4,2.8-7.5-0.5-10.7
		c-5.2-4.9-11.5-5.3-17.9-3.5c-3,0.9-5.6,3-8.4,4.3c-3.2,1.5-4.9,4.4-7.2,6.7c-5.4,5.4-14.1,4-17.1-2.6c-2.5-5.6,0.6-11.6,7.4-13.1
		c3.9-0.9,8.1-1,12.1-0.7c2.8,0.2,5.1,0.2,7.4-1.8c2.8-2.4,6.2-4.1,9.9-3.4c2.8,0.5,5.6,1.8,8.1,3.3c1.7,1.1,2.8,1.3,4.5,0.4
		c2.3-1.2,4.7-2.2,7.2-3c3.5-1.1,6.9-0.4,10,1.5c2.1,1.4,3.7,2.9,3.7,5.9c0.1,5.4,5.3,9.7,11.6,10.6c5,0.7,6.2,3.9,3.1,8.1
		c-3.5,4.8-8.4,5.9-15,3.5c0.2,5.6-1.9,10-7.7,11.3c-6.8,1.6-13.2,0.2-18.5-4.5c-1.5-1.3-2.4-1.4-4.2-0.8c-2.2,0.8-4.6,1.3-7,1.4
		c-6,0.1-11.2-3.2-12.9-8c-1.6-4.4,0.3-10,5.1-14c5.3-4.4,11.7-5.5,18.3-4.6c3.9,0.5,6.7,2.7,7.5,6.7c0.6,3.1-0.3,5.8-2.9,7.7
		c-3.3,2.3-6.8,1.8-10.2,0.1C101.2,172.7,100.7,172.3,99.9,171.7z"/>
	<path class="st0" d="M75.8,122.2l-0.1,0.2c1.1-2.7,2.2-5.5,3.4-8.4c1.3,0.4,2.8,0.8,4.3,1.3c1.6,0.7,1.6,2.6,0,4.1
		c-2,2-4.2,4-6,6.2c-1.2,1.4-2.1,3.2-2.8,4.9c-1.6,4.1-0.6,7.1,2.9,9.7c4.7,3.4,9.8,4.5,15.6,3.4c1.4-0.3,2.9,0.3,4.4,0.5
		c0,0.3-0.1,0.6-0.1,0.8c-2.7,1.3-5.9,2.2-8,4.1c-2.3,2.1-4.2,2.1-7.1,1.6c-3.4-0.7-7.1-0.2-10.8-0.2c0-2.5,0-5.3,0-8.3
		c-0.5,0.4-0.7,0.5-0.7,0.7c-1.9,8.5-3.8,10.4-12.6,10.9c-8,0.5-16,0.4-23.9,0.6c-2.5,0.1-5,0.3-7.5,0.6c-5.8,0.6-10.8,2.7-14.7,7.2
		c-0.9,1-2,1.9-3.4,2.6c0.2-0.5,0.3-1.1,0.6-1.6c3.5-5.7,6.9-11.8,13.3-14.5c3.8-1.6,8.2-2.1,12.5-2.5c6.1-0.5,12.2-0.4,18.2-0.7
		c1.9-0.1,3.7-0.6,5.5-1.2c4.4-1.5,6.1-4,5.9-8.6c-0.1-1.8,0.3-2.5,2.1-3.1C71.7,131,74.1,126.8,75.8,122.2z"/>
	<path class="st0" d="M4.8,172.5c7-6.6,13.3-14.3,23.4-16.2c4.7-0.9,9.7-0.5,14.6-0.6c6.8-0.1,13.5,0,20.7,0
		c-3,5.5-4.1,10.8,0.3,16.3c-4.4-1.3-8.9-2.6-13.3-3.8c-8.2-2.2-16.3-4.5-25-3.5c-6.6,0.8-12.4,3.7-17.9,7c-0.7,0.4-1.5,0.9-2.2,1.3
		C5.1,172.9,5,172.7,4.8,172.5z"/>
	<path class="st0" d="M112.3,106.8c-1-0.6-2-1.1-2.9-1.6c5.1-7.1,5.4-13.5,1-19.1c-0.8-1-1.8-2.2-2.9-2.4c-2.8-0.6-3.5-2.5-4.2-4.9
		s-2.4-4.5-3.7-7c2.8,0.3,5.7-0.1,8.4,2.2c3.4,2.9,7.6,2.5,11.7,2c1.5-0.2,2.9-0.6,5.2-1.1c-3.5,8.3-1.7,15.4,3.4,21.9
		C118.1,99.8,118.1,99.8,112.3,106.8z"/>
	<path class="st0" d="M95.3,50.5c-1.3-0.2-2.5,0-3.1-0.6c-2.2-1.7-4.2-3.6-6.1-5.6c-0.6-0.6-0.9-1.6-1.4-2.5c2.6,0,4.8,0,6.9,0
		C92.7,44.4,93.8,46.9,95.3,50.5z"/>
	<path class="st0" d="M90.4,65c0.6,1.1,1.3,2.2,2.1,3.6c-1.9-0.2-3.6-0.4-5.2-0.6C88.3,67,89.3,66.1,90.4,65z"/>
</g>
</svg>
