<svg id="组_1" data-name="组 1" xmlns="http://www.w3.org/2000/svg" width="537" height="398" viewBox="0 0 537 398">
  <metadata><?xpacket begin="﻿" id="W5M0MpCehiHzreSzNTczkc9d"?>
<x:xmpmeta xmlns:x="adobe:ns:meta/" x:xmptk="Adobe XMP Core 5.6-c142 79.160924, 2017/07/13-01:06:39        ">
   <rdf:RDF xmlns:rdf="http://www.w3.org/1999/02/22-rdf-syntax-ns#">
      <rdf:Description rdf:about=""/>
   </rdf:RDF>
</x:xmpmeta>
                                                                                                    
                                                                                                    
                                                                                                    
                                                                                                    
                                                                                                    
                                                                                                    
                                                                                                    
                                                                                                    
                                                                                                    
                                                                                                    
                                                                                                    
                                                                                                    
                                                                                                    
                                                                                                    
                                                                                                    
                                                                                                    
                                                                                                    
                                                                                                    
                                                                                                    
                                                                                                    
                           
<?xpacket end="w"?></metadata>
<defs>
    <style>
      .cls-1 {
        fill: none;
        stroke: #f4e10d;
        stroke-linecap: round;
        stroke-linejoin: round;
        stroke-width: 4px;
        fill-rule: evenodd;
      }
    </style>
  </defs>
  <path id="形状_1" data-name="形状 1" class="cls-1" d="M51,395s5.729-32.831,25-51c15.256-14.384,45-15,45-15s8.272-29.553,51-39c36.434-6.483,58,17,58,17"/>
  <path id="形状_2" data-name="形状 2" class="cls-1" d="M114,397s5.089-22.31,17-34c14.778-14.5,37-19,37-19s11.64-29.647,48-35c37.366-7.637,62,12,62,12s39.3-3.014,65,18c28.445,25.282,21,62,21,62"/>
  <path id="形状_3" data-name="形状 3" class="cls-1" d="M186,399s-1.882-10.665,4-17c7.017-7.557,22-11,22-11s4.355-23.153,34-24,35,22,35,22,9.024-7.009,23,4a40.69,40.69,0,0,1,15,27"/>
  <path id="形状_25" data-name="形状 25" class="cls-1" d="M228.941,397s5.736-19.38,19.692-20,20.4,19,20.4,19"/>
  <path id="形状_25_拷贝" data-name="形状 25 拷贝" class="cls-1" d="M228.941,1s5.736,19.38,19.692,20,20.4-21,20.4-21"/>
  <path id="形状_26" data-name="形状 26" class="cls-1" d="M110,17s0.287-17.849,9-26c6.438-6.022,17-8,17-8"/>
  <path id="形状_4" data-name="形状 4" class="cls-1" d="M349,339s35.379-15.344,72-9c24.263,4.2,55,31,55,31s19.266,2.1,32,10c15.91,9.875,26,26,26,26"/>
  <path id="形状_5" data-name="形状 5" class="cls-1" d="M365,379s14.944-2.584,24-2c5.553,0.358,13,3,13,3s18.557-8.593,40-3c32.724,10.666,40,22,40,22"/>
  <path id="形状_6" data-name="形状 6" class="cls-1" d="M357,336s12.381-26.109,33-41c14.122-10.2,40-14,40-14s15.249-26.374,42-39c26.991-13.133,40,1,40,1"/>
  <path id="形状_12" data-name="形状 12" class="cls-1" d="M465,181a51.2,51.2,0,0,0,7,20,27.031,27.031,0,0,0,19,12,73.857,73.857,0,0,0,15,25c12.255,13.055,31,11,31,11"/>
  <path id="形状_7" data-name="形状 7" class="cls-1" d="M427,331a24.608,24.608,0,0,1,11-8c4.77-1.717,13,0,13,0a44.187,44.187,0,0,1,37-31,55.191,55.191,0,0,1,48,17"/>
  <path id="形状_8" data-name="形状 8" class="cls-1" d="M498,338s22.654-10.368,25,12c1.414,14.911-16,20-16,20"/>
  <path id="形状_9" data-name="形状 9" class="cls-1" d="M-2,248s11.971,4.853,17,12c4.433,6.3,5,15,5,15s30.918-3.952,34,33-30,44-30,44,7.061,15.361-1,29S-3,401-3,401"/>
  <path id="形状_10" data-name="形状 10" class="cls-1" d="M-1,218s24.83,2.95,41,14c13.608,9.3,19,27,19,27s24.36,4.714,37,21c13.341,17.189,15,46,15,46"/>
  <path id="形状_15" data-name="形状 15" class="cls-1" d="M179,245s-25.533,5.187-44,0c-25.022-7.029-44-26-44-26s-28.836,4.166-61-21-17-60-17-60S0.406,114.7,6,90,43,60,43,60,55.156,23.637,89,18s62,18,62,18,36.226-4.735,61,7c22.629,10.719,34,38,34,38"/>
  <path id="形状_23" data-name="形状 23" class="cls-1" d="M150,294a41.875,41.875,0,0,1-14-21c-2.747-10.142,1-27,1-27"/>
  <path id="形状_24" data-name="形状 24" class="cls-1" d="M80,267a106.458,106.458,0,0,1-1-26c1.122-10.549,6-21,6-21"/>
  <path id="形状_17" data-name="形状 17" class="cls-1" d="M151,126s6.261-18.3-13-26-27,14-27,14-19,2.758-19,17,19,16,19,16,6.739,16.691,26,19,34-14,34-14"/>
  <path id="形状_18" data-name="形状 18" class="cls-1" d="M207,100a35.189,35.189,0,0,0-14-10c-8.093-3.094-20-3-20-3s-14.412-22.306-46-25S76,84,76,84,45.615,96.282,46,129s37,40,37,40,16.953,24.072,47,31,50-10,50-10"/>
  <path id="形状_16" data-name="形状 16" class="cls-1" d="M282,69s-15.038-.3-35,11c-11.72,7.032-10,18-10,18s-37.386-3.824-56,30,1,59,1,59-17.846,25.759-6,50,46,32,46,32"/>
  <path id="形状_21" data-name="形状 21" class="cls-1" d="M317,0s-35.173,23.61-33,62c4.863,36.853,29,36,29,36s23.5,44.716,44,56,44,4,44,4,28.694,26.59,62,23,38-34,38-34,33.537-21.046,32-59-27-47-27-47-1.985-14.971-8-27c-4.862-9.723-19-15-19-15"/>
  <path id="形状_27" data-name="形状 27" class="cls-1" d="M537,179s-11,3.449-11,20,11,19,11,19"/>
  <path id="形状_28" data-name="形状 28" class="cls-1" d="M186,1S214.3,14.044,239,30c30.952,20.972,35,40,35,40"/>
  <path id="形状_22" data-name="形状 22" class="cls-1" d="M364,1a72.022,72.022,0,0,0-5,15c-1.137,6.137,2,12,2,12s-27.785,14.817-16,42,34,27,34,27,2.991,18.845,24,25,30-7,30-7,37.7,10.157,50-16-21-40-21-40-2.983-44.8-45-33-25.636,35.794-20,44c19.471,20.516,32-6,32-6"/>
  <path id="形状_19" data-name="形状 19" class="cls-1" d="M313,102s-37.2,6.964-56,22c-15.975,12.78-14,34-14,34s-35.717,22.686-25,52,45,23,45,23,23.988,19.245,47,19c23.969-.255,47-20,47-20s29.122-5.5,46-19c18.08-14.464,24-37,24-37"/>
  <path id="形状_20" data-name="形状 20" class="cls-1" d="M312,175s20.893-26.864-15-25-23,34-23,34-3.924,6.679,4,16,23,5,23,5,26.1,12.754,51-1c17.616-10,23-41,23-41"/>
  <path id="形状_11" data-name="形状 11" class="cls-1" d="M185,288s24.5-21.466,59-21,58,21,58,21,24.382-5.739,45-4a108.6,108.6,0,0,1,38,11"/>
  <path id="形状_13" data-name="形状 13" class="cls-1" d="M354,285s15.451-4.543,22-10c5.323-4.436,9-14,9-14s19.668-.926,32-10c14.055-10.342,21-29,21-29s11.155-1.46,18-5c7.614-3.938,15-14,15-14"/>
  <path id="形状_14" data-name="形状 14" class="cls-1" d="M439,268a39.565,39.565,0,0,1-6-8c-4.124-6.874-6-17-6-17"/>
</svg>
