<?xml version="1.0" encoding="utf-8"?>
<!-- Generator: Adobe Illustrator 22.0.0, SVG Export Plug-In . SVG Version: 6.00 Build 0)  -->
<svg version="1.1" id="图层_1" xmlns="http://www.w3.org/2000/svg" xmlns:xlink="http://www.w3.org/1999/xlink" x="0px" y="0px"
	 viewBox="0 0 410 255" style="enable-background:new 0 0 410 255;" xml:space="preserve">
<style type="text/css">
	.st0{fill:#CF3004;}
</style>
<g>
	<path class="st0" d="M4.9,250.1c9.3-9.1,18-18.8,27.9-27c12.3-10.2,25.3-19.5,38.6-28.4c26-17.4,55.1-26.1,86.1-30.1
		c26.1-3.3,52.6-6,77.7-13.2c10.8-3.1,18.6-16.7,27.6-25.7c1.4-1.4,1.5-4.2,2.9-5.6c19.2-19.9,4.4-50.1-10.6-60.2
		c-11.6-7.9-23.7-13.7-38.4-10.7c-9.7,1.9-20,2.3-22.8,14.6c13.9,0.5,26.7-0.9,38.7,1.8c18.9,4.2,28.3,31.3,19.3,48.5
		c-11.7,22.4-31.6,30.8-54.5,32.7c-28.2,2.3-58.9-21.7-62.7-49.4c-2.8-20.3,3.8-39.6,16.1-55.8c15.4-20.4,35.7-34.8,61.8-37.2
		c27.8-2.6,54.6-3.3,80.9,13.5c33.7,21.5,46.7,51.7,50.1,88.8c0.4,4.9,2.4,9.7,3.8,14.9c15.8-13.9,15.3-33.1-2.4-73.9
		c5.9,1.2,10.8,1.4,14.9,3.2c23.4,10.4,42.9,38.6,44.9,65.9c1.5,20.8-4.6,39.4-12.2,56.4c-8.8,19.8-27.6,32.1-50.3,35.4
		c-19.7,2.8-39,3.7-59.1,0.1c-20.6-3.8-42.2-3-63.3-3c-24.6,0-49.7-1.1-73.8,2.7c-29.2,4.6-57.9,13-86.2,21.6
		c-18.1,5.5-35.2,14.5-52.8,22C6.2,251.3,5.6,250.7,4.9,250.1z"/>
</g>
</svg>
