<?xml version="1.0" encoding="utf-8"?>
<!-- Generator: Adobe Illustrator 22.0.0, SVG Export Plug-In . SVG Version: 6.00 Build 0)  -->
<svg version="1.1" id="图层_1" xmlns="http://www.w3.org/2000/svg" xmlns:xlink="http://www.w3.org/1999/xlink" x="0px" y="0px"
	 viewBox="0 0 265 195" style="enable-background:new 0 0 265 195;" xml:space="preserve">
<style type="text/css">
	.st0{fill:#CF3004;}
</style>
<g>
	<path class="st0" d="M165.4,189c6.6-11.9,3.9-21-8.5-26.7c-11.3-5.2-23.4-5.3-35.6-5.2c-11.2,0.1-22.4,0.1-33.5-0.6
		c-10.9-0.7-20.9-4.1-28.3-12.9c-4.3-5.1-4-11.2,1.2-15.4c6.1-4.6,25.7-7.7,35.5-9.1c8.1-1.2,16.4-1.4,24.6-2.2c2-0.2,6.7-1.9,6-3.1
		c-0.8-1.2-3.9-2.6-5.8-4c-4.1-2.9-6.8-6.6-5.7-11.8c0.7-3.4-0.6-5.5-3.2-6.4c-4.1-1.4-8.3-2.4-12.6-3c-7.1-1-14.4-1-21.3-2.6
		c-3.7-0.8-7.3-3.6-10.1-6.4c-2.8-2.7-4.3-6.5-6.7-9.6c-6.6-8.7-8.3-17.3-3.2-24.7c2.7-4,7.3-6.7,10.9-10.2c1-1,2.3-2.3,2.4-3.6
		c0.9-8.7,5.6-14.2,13.9-15.9c12.1-2.4,23.6-1.9,32.1,9.1c0.6,0.8,2.3,1,3.4,1c3.7-0.1,7.4-0.7,11.1-0.5c9,0.6,17.7,2.8,25.3,7.8
		c3.1,2.1,6.3,4.8,5.3,9c-0.7,3.2,0.6,4.4,2.7,6.1c7.7,6.2,8.8,15,2.5,22.8c-2.3,2.8-5.3,5.3-8.4,7.2c-8.4,5-17.9,5.4-27.4,5.5
		c-15.7,0.1-28.1-7.4-39.8-16.8c-0.6-0.5-1.1-1.1-1.5-1.8c-2-2.8-1.9-5.6,0.8-7.8c1.9-1.5,4.2-2.7,6.3-4c1.2-0.8,2.9-1.3,3.6-2.4
		c3.1-4.6,7.6-6.3,12.7-6.2c6.2,0.2,12.4,1,18.6,1.9c2,0.3,4,1.4,5.8,2.5c5,3.2,4.7,8.6-0.6,11.2c-5.8,2.8-11.9,2.7-18,1.3
		c-1.3-0.2-2.2-1.8-3.3-2.7c1.5-1,2.8-2.2,4.4-2.8c1-0.4,2.4,0.2,4.5,0.5c-1.9-3.6-4.6-3.9-6.8-3.1c-2,0.7-4.7,2.4-5.1,4.1
		c-0.8,3.1,1.4,6,4.5,6.6c7.6,1.6,15.4,1.8,22.5-2.2c4.9-2.7,5.9-8.5,2-12.5c-2.4-2.4-5.7-4.8-9-5.5c-5.9-1.3-12-1.7-18.1-2
		c-10.3-0.6-17.2,6.9-25.1,11.6c-6.8,4.1-6.7,10.3-0.6,15.5c4.1,3.5,8.7,6.6,13.3,9.4c16,9.9,33.3,10.9,51.1,6
		c6.2-1.8,11.6-5.3,15.8-10.4c5.9-7.3,6.6-18.4,1.2-24.7c-1.7-2.1-4.2-3.6-6.4-5.4c1.8-6.4-1-11.1-6.3-14c-4.6-2.5-9.7-4-14.7-5.8
		c-1.6-0.6-3.4-0.9-5.9-1.5c1.6-1.2,2.4-1.9,3.2-2.5c10.3-7,21.1-6.2,32-1.8c7.8,3.2,13.3,8.2,14.6,17c0.2,1.1,1.8,2.4,3.1,3
		c7.2,3.5,13.6,7.8,18.3,14.4c9.7,13.8,3.5,30.9-12.8,35.3c-0.4,0.1-0.9,0.4-1.4,0.7c0.7,6.7-3.1,10.6-8.7,12.3
		c-5.9,1.9-12.2,2.6-18.3,3.8c-1.2,0.2-2.4,0.3-3.7,0.5c4.1,11.6,1.4,16.7-10.3,18.4c-7.5,1.1-15.3,0.7-23,0.4
		c-11.2-0.5-22.4-1-33.4,1.5c-3.5,0.8-6.9,1.9-10.3,3.1c-5.3,1.8-8.5,5.8-8.6,10.3c0,4.2,3.6,9.2,8.5,10.6c4.6,1.3,9.4,2.1,14.1,2.2
		c15.7,0.2,31.4,0.2,46.8,3.8c10,2.3,18.9,6.4,25.1,15c5.9,8.2,1.4,19.1-8.9,20.2C164.7,189.9,164.9,189.4,165.4,189z"/>
	<path class="st0" d="M41,61.5c3.5-4.7,1.9-11.1-3.4-14.5c-4.7-3.1-11.4-1.5-14,3.1c-1.7,3.1-1.1,5.1,2.1,6.6
		c0.2-0.8,0.4-1.5,0.5-2.3c0.5-5.9,3.9-7.8,9.2-5.2c4.4,2.2,5.1,6.4,2.2,11.1c-5.7,9.2-23,7.8-28.3,2.4c-5.8-5.9-5.9-16.9,0.1-23.6
		c4.6-5.2,10.6-7.4,17.2-8.3c2.5-0.4,5-0.6,7.4-0.8c0-2.2-0.6-4.2,0.1-5.8c1.1-2.6,2.7-5.3,4.7-7.3c2.4-2.3,5.4-4.1,8.3-5.8
		c4-2.3,8-5.1,12.3-6.2c9.4-2.4,17.5,1.2,25.3,7.3c-1.9,0.7-3,1-4.1,1.5c-4.9,2.1-9.8,5-10.6,10.5c-0.8,5.8-3.9,9.1-8.2,12.1
		c-0.6,0.5-1.2,1-1.8,1.6c-9.5,9.2-10.6,20.6-2.8,31.2c1.5,2,3.4,3.8,4.9,5.8c1.1,1.5,2,3.2,3.7,5.8c-6.9,1.8-12.7,4-18.7,4.6
		C34.8,86.5,26.8,80.9,24.6,70C31.5,69.6,36.8,66.6,41,61.5z"/>
	<path class="st0" d="M199.6,90.2c8.6-7,18.7-9.2,29.5-6.3c2.8,0.8,6.1,2.3,7.7,4.5c2.8,3.9,6.1,4.9,10.6,5.2
		c7.4,0.5,12.1,5.2,12.4,11.2c0.4,8.2-3.4,14.2-11,15.8c-3.7,0.9-7.7,0.3-11.5,0.7c-1.3,0.1-3.1,0.8-3.8,1.8
		c-5.5,8.3-11.9,11.2-21.7,9.4c-1.9-0.3-3.9-0.5-5.8-0.1c-14.7,3.1-24.6-2.1-30-16.1c-2-5-0.3-8.4,4.9-10.2c2.5-0.8,5.2-1.4,7.5-2.7
		c8.7-4.7,16.8-2.1,24.8,1.5c1.8,0.8,3.9,3.8,3.7,5.4c-0.4,2.4-2.3,5.8-4.3,6.4c-4.1,1.3-8.8,1.4-13.2,1.3c-2.4-0.1-2.9-2.2-1.3-4.1
		c1.7-2.1,3.9-2.9,6.7-1.5c0.7,0.3,2.5,0.5,2.8-0.2c0.3-0.8-0.3-2.6-1-3c-1.1-0.7-2.8-1-4-0.7c-2,0.5-4,1.5-5.8,2.6
		c-4.2,2.5-4.4,5.2-0.7,8.5c4.9,4.3,14,3.8,19.5-1c8.3-7.3,7.2-14.1-3.3-17.6c-5-1.6-10.2-2.4-15.9-3.7
		C197.4,94.7,197.8,91.5,199.6,90.2z"/>
</g>
</svg>
